<?xml version="1.0" encoding="UTF-8"?>
<svg version="1.1" xmlns="http://www.w3.org/2000/svg" width="512" height="512">
<path d="M0 0 C1.65429688 1.05834961 1.65429688 1.05834961 3 3 C3.29555906 5.53719452 3.41725161 7.84136763 3.40625 10.37890625 C3.41708618 11.1056102 3.42792236 11.83231415 3.43908691 12.58103943 C3.47334749 14.9082822 3.48892029 17.23503847 3.5 19.5625 C3.57177308 34.39924321 4.37535136 47.48377376 14.8515625 59.04296875 C26.22258124 69.66649024 40.55564586 70.3095556 55.43481445 70.25396729 C56.73517041 70.25708727 58.03552637 70.26020725 59.37528706 70.26342177 C62.95074384 70.27170322 66.52609266 70.2676751 70.10154963 70.26144934 C73.97073217 70.25689836 77.83989698 70.26392165 81.70907593 70.26940918 C89.27542079 70.27827673 96.84172585 70.27639296 104.40807223 70.2705839 C110.5604324 70.266057 116.71278146 70.26545894 122.86514282 70.26763153 C123.74261714 70.267938 124.62009146 70.26824446 125.52415591 70.26856022 C127.30703473 70.2691997 129.08991355 70.26984813 130.87279236 70.2705054 C147.5692416 70.27620096 164.26566883 70.26966295 180.96211445 70.25890467 C195.27130346 70.24996986 209.58046001 70.25152212 223.88964844 70.26074219 C240.52860517 70.2714585 257.16754264 70.27565171 273.80650234 70.26951766 C275.58262062 70.2688806 277.3587389 70.26825186 279.13485718 70.26763153 C280.00861584 70.26732298 280.88237451 70.26701443 281.78261071 70.26669653 C287.92365153 70.26497367 294.06468008 70.26787585 300.20571899 70.27259064 C307.6952067 70.2782146 315.18465251 70.27665124 322.67413545 70.26602915 C326.49133117 70.26079279 330.30845719 70.25868076 334.12565231 70.26532745 C338.27222341 70.27243818 342.41862029 70.26391626 346.56518555 70.25396729 C348.35645858 70.26065945 348.35645858 70.26065945 350.18391895 70.26748681 C363.99440113 70.2034166 376.88051048 68.49167548 387.40625 58.78515625 C398.27832637 46.60736482 398.43784771 32.61853462 398.51123047 17.20336914 C398.52688338 14.92824293 398.5598278 12.65382135 398.59375 10.37890625 C398.59072876 9.68205215 398.58770752 8.98519806 398.58459473 8.26722717 C398.62877961 5.43461983 398.7054463 3.44838739 400.28320312 1.04663086 C402.91021543 -0.55490523 405.32760734 -0.20777645 408.27734375 0.23828125 C424.23372499 4.70240513 438.60805816 18.16160825 447.3125 31.875 C455.54201006 46.53891453 457.3013416 60.5127601 457.29052734 76.93725586 C457.29651842 78.75485 457.30332529 80.5724416 457.31088257 82.39002991 C457.32848744 87.30738067 457.33323552 92.22466174 457.33451414 97.14204097 C457.33593903 100.21815569 457.34021496 103.29425288 457.34550858 106.37036324 C457.36398819 117.11272424 457.37218148 127.85503573 457.37060547 138.59741211 C457.36940353 148.59437827 457.39052155 158.59112872 457.4220928 168.58804029 C457.44827701 177.18704328 457.45897191 185.78597588 457.45769465 194.38501841 C457.4571858 199.51387128 457.46282699 204.64253216 457.48405075 209.77134514 C457.50347016 214.59531547 457.50353231 219.41891129 457.48901749 224.24289513 C457.48693313 226.00768331 457.49160794 227.77249517 457.5037384 229.53724289 C457.58639305 242.40024469 456.45503818 252.30739386 447.29296875 262.01953125 C441.67744911 266.86973306 434.66425657 270.09102043 427.22485352 270.17700195 C426.25697403 270.18983719 425.28909454 270.20267242 424.29188538 270.21589661 C422.72621071 270.22697701 422.72621071 270.22697701 421.12890625 270.23828125 C420.05503159 270.246353 418.98115692 270.25442474 417.8747406 270.26274109 C415.60262667 270.27657362 413.33049203 270.28729949 411.05834961 270.29516602 C407.57951799 270.31241562 404.10162768 270.35631432 400.62304688 270.40039062 C398.41667366 270.41051441 396.21029237 270.41903149 394.00390625 270.42578125 C392.96214737 270.44328934 391.92038849 270.46079742 390.84706116 270.47883606 C383.65257447 270.45716019 383.65257447 270.45716019 380.37475586 268.16088867 C377.48247021 263.61469434 377.8550334 259.1113569 377.8581543 253.91381836 C377.85294266 252.51811111 377.85294266 252.51811111 377.84762573 251.09420776 C377.84026871 249.07096391 377.83492304 247.04771198 377.83133507 245.02445793 C377.82416621 241.81633353 377.80849451 238.60836178 377.78999329 235.40028381 C377.73755697 226.27770128 377.68958931 217.15520056 377.67407227 208.0324707 C377.66395917 202.45267338 377.63454603 196.8732577 377.59275246 191.29361153 C377.58048077 189.17230689 377.57531416 187.05094825 377.57755089 184.9296093 C377.57991857 181.94997731 377.55762449 178.97142835 377.5300293 175.99194336 C377.53663071 175.12558762 377.54323212 174.25923187 377.55003357 173.36662292 C377.42150982 164.85602548 374.5143614 156.55761897 369 150 C359.55329319 142.10511361 349.56217069 140.54751057 337.55151367 140.61904907 C336.33312648 140.6143691 335.11473928 140.60968913 333.85943127 140.60486734 C330.50348177 140.59502215 327.14804113 140.59849664 323.79212332 140.60782599 C320.16288153 140.61464385 316.5336826 140.60412176 312.90444946 140.59588623 C305.8050477 140.58257576 298.70574131 140.58541462 291.60633588 140.59412415 C285.8343409 140.60091089 280.06237258 140.60181314 274.29037476 140.5985527 C273.46755923 140.598093 272.64474371 140.59763331 271.79699439 140.59715968 C270.12524103 140.59620046 268.45348769 140.59522782 266.78173435 140.5942419 C251.12115422 140.58569588 235.46062686 140.59550977 219.80005538 140.611643 C206.3748152 140.62504547 192.94965284 140.62271715 179.52441406 140.60888672 C163.91826376 140.59281698 148.31215965 140.58651978 132.70600224 140.59572351 C131.04054325 140.59667911 129.37508425 140.59762223 127.70962524 140.5985527 C126.89027738 140.59901553 126.07092952 140.59947836 125.22675294 140.59995521 C119.46450162 140.60254092 113.70227972 140.59818316 107.94003296 140.59111404 C100.913746 140.58268334 93.88755953 140.5850121 86.86128402 140.60095628 C83.27924811 140.60881794 79.69737951 140.61196677 76.115345 140.60200882 C72.22629836 140.59136123 68.33752318 140.60411081 64.44848633 140.61904907 C63.32493335 140.61235691 62.20138037 140.60566474 61.04378033 140.59876978 C50.07251328 140.68037394 41.86983714 142.98916342 33.4375 150.1875 C28.40188484 155.99782518 24.89020019 162.3419475 24.86196899 170.12986755 C24.85651566 170.94431335 24.85106232 171.75875916 24.84544373 172.59788513 C24.8444014 173.48267044 24.84335907 174.36745575 24.84228516 175.27905273 C24.83720444 176.21770172 24.83212372 177.15635071 24.82688904 178.1234436 C24.81619528 180.16031908 24.80757121 182.19720624 24.80076981 184.23409843 C24.78897419 187.45772812 24.76952053 190.68122424 24.74765015 193.90480042 C24.68604883 203.06970791 24.63195151 212.23460075 24.59863281 221.3996582 C24.57770101 227.00647161 24.54241248 232.61303981 24.49787521 238.21971321 C24.48370643 240.35631489 24.4749908 242.49295994 24.47182083 244.62960625 C24.46691824 247.61718334 24.44377767 250.60410798 24.41650391 253.59155273 C24.42101311 254.91569435 24.42101311 254.91569435 24.4256134 256.2665863 C24.34472627 262.22587186 23.32496015 265.67503985 19 270 C16.96655273 270.26742554 16.96655273 270.26742554 14.43359375 270.29052734 C13.48500488 270.30328705 12.53641602 270.31604675 11.55908203 270.32919312 C10.01389893 270.33253159 10.01389893 270.33253159 8.4375 270.3359375 C7.37644043 270.3425943 6.31538086 270.3492511 5.22216797 270.35610962 C2.96925594 270.36625433 0.71631375 270.37092608 -1.53662109 270.37060547 C-4.95852567 270.37494738 -8.37910777 270.41116171 -11.80078125 270.44921875 C-13.99218311 270.45509302 -16.18359107 270.45905832 -18.375 270.4609375 C-19.38892822 270.47530853 -20.40285645 270.48967957 -21.44750977 270.50448608 C-31.69198608 270.43975357 -39.56400475 267.32623534 -47.01953125 260.29296875 C-52.74221619 253.66729605 -55.14942289 246.28691498 -55.14717102 237.67889404 C-55.15084771 236.92737352 -55.1545244 236.17585299 -55.1583125 235.40155911 C-55.16935249 232.8754466 -55.17319384 230.34937522 -55.17700195 227.82324219 C-55.18326677 226.01464711 -55.18991359 224.20605332 -55.19691467 222.39746094 C-55.21796956 216.44727476 -55.22832396 210.49708831 -55.23828125 204.546875 C-55.24232941 202.49578081 -55.24644635 200.44468675 -55.25063133 198.39359283 C-55.26969254 188.74908914 -55.28391704 179.1045931 -55.2922433 169.46007419 C-55.30199508 158.34872445 -55.32825674 147.23757503 -55.36874419 136.1262958 C-55.3989943 127.52734425 -55.41372091 118.92844977 -55.41702431 110.32944608 C-55.41936627 105.19977259 -55.42821362 100.07031283 -55.45348549 94.94069672 C-55.47692467 90.10449576 -55.48093633 85.2686468 -55.47072411 80.43240356 C-55.47023233 78.66810173 -55.47644561 76.90378165 -55.49028015 75.139534 C-55.66136357 52.00582587 -48.9794978 33.54815534 -32.6953125 16.6015625 C-24.70362403 8.92430111 -11.61526708 -1.26252903 0 0 Z M151.125 98.3125 C149.109765 103.1266725 148.58090958 106.57016211 150.0625 111.625 C152.76625599 116.33476849 155.72645934 119.24215311 161 121 C163.538584 121.10618726 166.05012124 121.15723332 168.58911133 121.16113281 C169.3601973 121.16609772 170.13128326 121.17106262 170.92573547 121.17617798 C173.47784314 121.19078807 176.02988863 121.19759993 178.58203125 121.203125 C180.35698956 121.20887773 182.13194785 121.21463545 183.90690613 121.22039795 C187.63007903 121.23090488 191.35323037 121.23674945 195.07641602 121.24023438 C199.84124728 121.24571621 204.60579237 121.26973884 209.37053394 121.29820633 C213.03802822 121.31685449 216.70545389 121.32203948 220.37299156 121.32357025 C222.12922415 121.32659276 223.88545564 121.33460774 225.64164162 121.34775543 C228.1022158 121.36486045 230.56209513 121.36292493 233.02270508 121.35644531 C233.74447937 121.3656601 234.46625366 121.37487488 235.2098999 121.3843689 C241.49688522 121.33265418 245.35039392 119.61294817 249.8125 115.25 C252.31194649 111.53653665 253 109.46312237 253 105 C251.38225583 99.78726879 249.15083425 96.52820911 245 93 C241.36807983 91.78935994 238.02537407 91.83664947 234.24316406 91.82299805 C233.05968384 91.81314125 233.05968384 91.81314125 231.85229492 91.80308533 C229.24007063 91.78336827 226.62790381 91.77169277 224.015625 91.76171875 C222.67585224 91.75560546 222.67585224 91.75560546 221.30901337 91.74936867 C216.58068575 91.72851387 211.85238709 91.71421008 207.12402344 91.70483398 C202.24710956 91.69377591 197.37065274 91.65938135 192.4939003 91.61966228 C188.7380083 91.59348082 184.98222492 91.58514075 181.22624969 91.58155251 C179.42896185 91.57668984 177.63167876 91.56508494 175.83448029 91.54651451 C173.31409292 91.52209195 170.79488424 91.52309354 168.27441406 91.5300293 C167.53753357 91.51721924 166.80065308 91.50440918 166.04144287 91.49121094 C159.79525324 91.55359502 155.12190761 93.38298062 151.125 98.3125 Z " fill="#000000" transform="translate(55,28)"/>
<path d="M0 0 C1.16061038 -0.00782324 2.32122076 -0.01564648 3.51700115 -0.02370679 C4.7980111 -0.01701463 6.07902105 -0.01032246 7.39884949 -0.00342751 C8.7687381 -0.00688228 10.13862393 -0.01164563 11.50850391 -0.01760924 C15.28133172 -0.03017378 19.05393292 -0.02392426 22.82676172 -0.01465058 C26.89225992 -0.00788264 30.95771825 -0.01833008 35.02320862 -0.02659035 C42.99084439 -0.03995406 50.95839555 -0.03703823 58.92603469 -0.02835242 C65.39953416 -0.02158664 71.87300985 -0.02065436 78.34651184 -0.02392387 C79.26665913 -0.02438357 80.18680643 -0.02484327 81.13483697 -0.0253169 C83.00389918 -0.02627604 84.87296139 -0.02724868 86.74202359 -0.02823468 C104.28227066 -0.0367963 121.82247075 -0.02694234 139.36271012 -0.01083358 C154.4241779 0.00257031 169.48557632 0.00024243 184.54704285 -0.01358986 C202.0230648 -0.02963205 219.49904553 -0.03597225 236.97507381 -0.02675307 C238.83739153 -0.02579739 240.69970925 -0.02485427 242.56202698 -0.02392387 C243.93659324 -0.02322963 243.93659324 -0.02322963 245.33892852 -0.02252137 C251.80720526 -0.01992739 258.27545593 -0.02431124 264.74372864 -0.03136253 C272.62274428 -0.03976264 280.50167023 -0.03752887 288.38067555 -0.0215203 C292.4032976 -0.01361743 296.42576991 -0.01058009 300.44839096 -0.02046776 C304.12717419 -0.02937373 307.80566816 -0.02455012 311.48442495 -0.0085351 C313.45346275 -0.00356931 315.42252047 -0.01342039 317.39153767 -0.02370679 C318.55214805 -0.01588355 319.71275843 -0.00806031 320.90853882 0 C322.41719655 0.00073059 322.41719655 0.00073059 323.95633221 0.00147593 C326.45426941 0.37752342 326.45426941 0.37752342 328.27463245 1.67924058 C330.28771415 4.57740521 329.92210799 7.92650557 329.92301941 11.33455467 C329.93063293 12.11513741 329.93824646 12.89572014 329.9460907 13.69995689 C329.9568927 15.35164253 329.95974437 17.00339648 329.95524597 18.65511131 C329.95427667 21.17117873 329.99582659 23.68416452 330.04020691 26.19978905 C330.04541659 27.80720459 330.04810206 29.41463069 330.04801941 31.02205467 C330.06441467 31.76913185 330.08080994 32.51620903 330.09770203 33.28592491 C330.04685724 37.16870054 329.52382291 39.80051467 327.16716003 42.83724022 C323.22389831 46.52961227 320.24999676 46.50232116 314.97848606 46.50615788 C313.85891878 46.50938232 312.73935149 46.51260677 311.58585793 46.51592892 C310.35581644 46.51438032 309.12577495 46.51283172 307.85845947 46.51123619 C306.55183285 46.51350175 305.24520622 46.5157673 303.89898485 46.51810151 C300.26916538 46.52422715 296.63936891 46.52408502 293.00954545 46.52290714 C289.09605117 46.52270333 285.18256432 46.52821998 281.26907349 46.53296471 C273.60105446 46.54127575 265.93304312 46.54401974 258.26501996 46.54457708 C252.03374915 46.54505198 245.80248087 46.54710541 239.57121086 46.55027771 C221.91216139 46.55908513 204.25311801 46.56369689 186.59406633 46.56294724 C185.64180297 46.56290728 184.68953962 46.56286732 183.7084198 46.56282616 C182.27828505 46.56276484 182.27828505 46.56276484 180.81925868 46.56270228 C165.36141559 46.56229567 149.90359684 46.57186869 134.44576079 46.58596452 C118.58136419 46.60031721 102.71697946 46.60723533 86.8525762 46.60637075 C77.942825 46.60603842 69.03309932 46.60880126 60.12335396 46.6195488 C52.53868807 46.62863919 44.95405928 46.63084108 37.36939032 46.62403937 C33.49843277 46.6207669 29.62754645 46.62074363 25.75659561 46.62939262 C21.56336373 46.63866551 17.37029791 46.6325007 13.17706299 46.62476158 C11.94925222 46.62990514 10.72144145 46.63504871 9.4564243 46.64034814 C8.33424926 46.63574934 7.21207423 46.63115054 6.0558939 46.62641239 C5.08787674 46.62662976 4.11985959 46.62684713 3.12250859 46.62707108 C-1.05007216 46.23682954 -3.75505612 45.10837908 -6.82722473 42.2686367 C-9.04640072 38.53522541 -9.10483717 35.33911334 -9.04182434 31.11971092 C-9.04400719 29.94240913 -9.04400719 29.94240913 -9.04623413 28.74132347 C-9.0445797 27.08893162 -9.03306953 25.43652364 -9.01228333 23.7842617 C-8.98324166 21.253488 -8.99169962 18.72479957 -9.00471497 16.19392967 C-8.9984796 14.58584657 -8.99009024 12.97777007 -8.97932434 11.36971092 C-8.98225998 10.613424 -8.98519562 9.85713707 -8.98822021 9.07793236 C-8.89462798 3.88053529 -8.89462798 3.88053529 -7.36708546 1.67824876 C-4.8393875 -0.12691334 -3.09384969 0.00149823 0 0 Z " fill="#000000" transform="translate(95.54573059082031,23.62247657775879)"/>
<path d="M0 0 C1.51307299 -0.01173486 1.51307299 -0.01173486 3.0567131 -0.02370679 C4.16292637 -0.01701463 5.26913963 -0.01032246 6.40887451 -0.00342751 C7.58553303 -0.00810748 8.76219154 -0.01278745 9.97450638 -0.01760924 C13.24151365 -0.0275164 16.5081875 -0.02393521 19.77518654 -0.01465058 C23.29807959 -0.00787286 26.820927 -0.01833496 30.34381104 -0.02659035 C37.24550421 -0.03994356 44.14709962 -0.0370429 51.04879665 -0.02835242 C56.65698996 -0.02158252 62.26515583 -0.02065615 67.87335205 -0.02392387 C69.06976283 -0.02461342 69.06976283 -0.02461342 70.29034352 -0.0253169 C71.91057047 -0.02627606 73.53079741 -0.0272487 75.15102434 -0.02823468 C90.35071809 -0.03679322 105.55035759 -0.02694716 120.75004244 -0.01083358 C133.79747978 0.00257003 146.84483705 0.00024207 159.89227295 -0.01358986 C175.03686721 -0.02963748 190.1814139 -0.0359692 205.32601547 -0.02675307 C206.94034576 -0.0257974 208.55467605 -0.02485429 210.16900635 -0.02392387 C211.36048778 -0.02322963 211.36048778 -0.02322963 212.57603955 -0.02252137 C218.17873604 -0.01992902 223.78140241 -0.02430774 229.38409424 -0.03136253 C236.21014341 -0.03976866 243.03608907 -0.03751617 249.86212635 -0.0215203 C253.34616609 -0.01362554 256.83003312 -0.01056632 260.31407166 -0.02046776 C264.08738332 -0.02862208 267.86020382 -0.01843513 271.63348389 -0.00342751 C273.29280378 -0.01346575 273.29280378 -0.01346575 274.98564529 -0.02370679 C276.49871828 -0.01197193 276.49871828 -0.01197193 278.0423584 0 C279.3491411 0.00073059 279.3491411 0.00073059 280.68232346 0.00147593 C283.5368264 0.46043056 284.92238537 1.41987939 287.0211792 3.37752342 C287.52238464 5.42647362 287.52238464 5.42647362 287.52288818 7.80135155 C287.53695961 9.1378878 287.53695961 9.1378878 287.55131531 10.50142479 C287.53446434 11.94056236 287.53446434 11.94056236 287.51727295 13.40877342 C287.51872818 14.39623558 287.52018341 15.38369774 287.52168274 16.40108299 C287.52002252 18.4891257 287.50844754 20.57718048 287.48773193 22.66512108 C287.45878924 25.86535564 287.46711817 29.06393322 287.48016357 32.26424217 C287.47392597 34.29159399 287.46553486 36.31894057 287.45477295 38.34627342 C287.45770859 39.30569847 287.46064423 40.26512352 287.46366882 41.25362206 C287.45098465 42.14464622 287.43830048 43.03567039 287.42523193 43.9536953 C287.41982895 44.73740501 287.41442596 45.52111473 287.40885925 46.32857323 C286.9083524 48.97383087 286.12868001 49.72650642 284.0211792 51.37752342 C281.79254723 51.75357091 281.79254723 51.75357091 279.13137817 51.75504684 C277.60991652 51.76678171 277.60991652 51.76678171 276.05771828 51.77875364 C274.38133309 51.76871539 274.38133309 51.76871539 272.67108154 51.75847435 C271.48640478 51.76315432 270.30172802 51.76783429 269.08115196 51.77265608 C265.78708497 51.78257463 262.49352876 51.77897425 259.19949245 51.76969743 C255.64933421 51.76292685 252.09922154 51.77337824 248.54907227 51.78163719 C241.5920982 51.79499809 234.63522107 51.79208634 227.67824316 51.78339927 C222.02568101 51.77663237 216.37314609 51.77570169 210.72058105 51.77897072 C209.91699893 51.77943042 209.11341681 51.77989012 208.28548372 51.78036375 C206.6531755 51.78132289 205.0208673 51.78229553 203.3885591 51.78328152 C188.07158457 51.79184231 172.75466384 51.78199049 157.43769813 51.76588042 C144.28646174 51.75247661 131.13530478 51.75480451 117.98406982 51.7686367 C102.72303013 51.78468036 87.46203763 51.79101828 72.20099068 51.78179991 C70.57458624 51.78084423 68.9481818 51.77990112 67.32177734 51.77897072 C66.52149247 51.77850789 65.72120759 51.77804507 64.89667165 51.77756821 C59.24893334 51.77497467 53.6012249 51.77935714 47.95349121 51.78640938 C41.07359072 51.79481111 34.19379296 51.7925723 27.31390429 51.77656715 C23.8016421 51.76866644 20.28955137 51.7656232 16.77729034 51.7755146 C12.97518825 51.78606056 9.17336876 51.77349421 5.37127686 51.75847435 C4.25368673 51.76516652 3.13609661 51.77185868 1.98464012 51.77875364 C0.97033236 51.7709304 -0.04397541 51.76310715 -1.08901978 51.75504684 C-1.96720556 51.75455979 -2.84539135 51.75407273 -3.75018883 51.75357091 C-6.4536258 51.29740735 -7.33887781 50.53671604 -8.9788208 48.37752342 C-9.36650085 46.32857323 -9.36650085 46.32857323 -9.38287354 43.9536953 C-9.39555771 43.06267113 -9.40824188 42.17164696 -9.42131042 41.25362206 C-9.41837479 40.29419701 -9.41543915 39.33477196 -9.41241455 38.34627342 C-9.4176564 37.35881126 -9.42289825 36.37134911 -9.42829895 35.35396385 C-9.43472316 33.26596073 -9.43337701 31.17792143 -9.42486572 29.08992577 C-9.41635283 25.8895658 -9.44511689 22.69098833 -9.47686768 19.49080467 C-9.47847963 17.46346146 -9.47790226 15.43611508 -9.47491455 13.40877342 C-9.48614853 12.44934837 -9.49738251 11.48992332 -9.50895691 10.50142479 C-9.49957596 9.61040062 -9.49019501 8.71937645 -9.48052979 7.80135155 C-9.48036362 7.01764183 -9.48019745 6.23393211 -9.48002625 5.42647362 C-8.33502157 0.74564348 -4.29216142 0.00239963 0 0 Z " fill="#000000" transform="translate(116.97882080078125,246.6224765777588)"/>
<path d="M0 0 C1.02549265 -0.00260775 2.0509853 -0.00521549 3.10755348 -0.00790226 C4.24789732 -0.00567154 5.38824116 -0.00344082 6.56314087 -0.0011425 C7.76385412 -0.00270249 8.96456738 -0.00426248 10.20166588 -0.00586975 C13.54955825 -0.00918307 16.89739502 -0.00797054 20.24528408 -0.00488353 C23.84995661 -0.00263132 27.45462411 -0.00610814 31.05929565 -0.00886345 C38.1268044 -0.01332207 45.19430256 -0.01234427 52.26181173 -0.00945081 C58.00310446 -0.00719713 63.74439421 -0.0068841 69.48568726 -0.00797462 C70.30121925 -0.00812786 71.11675124 -0.00828109 71.95699632 -0.00843897 C73.61346706 -0.00875868 75.26993779 -0.00908289 76.92640853 -0.00941156 C92.47792639 -0.01226662 108.02943837 -0.00897892 123.58095527 -0.00361119 C136.93976618 0.00085687 150.2985684 0.00008095 163.65737915 -0.00452995 C179.15129807 -0.00987526 194.64521183 -0.01199193 210.13913155 -0.00891769 C211.78968429 -0.00859912 213.44023704 -0.00828475 215.09078979 -0.00797462 C216.30910887 -0.00774321 216.30910887 -0.00774321 217.55204046 -0.00750712 C223.28985236 -0.00664183 229.02766101 -0.0081051 234.76547241 -0.01045418 C241.75304211 -0.01325189 248.74060056 -0.01251453 255.72816896 -0.00717343 C259.29682567 -0.00453602 262.86546359 -0.00353201 266.43412018 -0.00682259 C270.29386958 -0.01032788 274.1535879 -0.00615716 278.01333618 -0.0011425 C279.72385194 -0.00448858 279.72385194 -0.00448858 281.46892357 -0.00790226 C282.49441622 -0.00529452 283.51990887 -0.00268677 284.57647705 0 C285.91474769 0.00024353 285.91474769 0.00024353 287.28005409 0.00049198 C289.28823853 0.12584114 289.28823853 0.12584114 290.28823853 1.12584114 C290.44178191 3.93096067 290.51989628 6.69447785 290.53823853 9.50084114 C290.56917603 10.67259895 290.56917603 10.67259895 290.60073853 11.86802864 C290.6401777 17.62614872 290.6401777 17.62614872 289.07334328 19.85078108 C286.7233877 21.52930134 285.27586868 21.50176869 282.3984375 21.50336456 C280.87697585 21.51509943 280.87697585 21.51509943 279.3247776 21.52707136 C277.64839242 21.51703311 277.64839242 21.51703311 275.93814087 21.50679207 C274.75346411 21.51147204 273.56878735 21.51615201 272.34821129 21.5209738 C269.0541443 21.53089235 265.76058808 21.52729197 262.46655178 21.51801515 C258.91639354 21.51124457 255.36628086 21.52169595 251.81613159 21.52995491 C244.85915753 21.5433158 237.9022804 21.54040406 230.94530249 21.53171699 C225.29274034 21.52495009 219.64020541 21.5240194 213.98764038 21.52728844 C213.18405826 21.52774814 212.38047614 21.52820784 211.55254304 21.52868146 C209.92023483 21.52964061 208.28792663 21.53061325 206.65561843 21.53159924 C191.33864389 21.54016003 176.02172316 21.53030821 160.70475745 21.51419814 C147.55352106 21.50079433 134.40236411 21.50312223 121.25112915 21.51695442 C105.99008945 21.53299808 90.72909695 21.53933599 75.46805 21.53011763 C73.84164557 21.52916195 72.21524112 21.52821884 70.58883667 21.52728844 C69.78855179 21.52682561 68.98826691 21.52636278 68.16373098 21.52588593 C62.51599267 21.52329239 56.86828422 21.52767486 51.22055054 21.5347271 C44.34065005 21.54312883 37.46085228 21.54089002 30.58096361 21.52488486 C27.06870143 21.51698416 23.5566107 21.51394092 20.04434967 21.52383232 C16.24224757 21.53437828 12.44042809 21.52181193 8.63833618 21.50679207 C7.52074606 21.51348423 6.40315594 21.5201764 5.25169945 21.52707136 C4.23739168 21.51924811 3.22308392 21.51142487 2.17803955 21.50336456 C1.29985376 21.50287751 0.42166798 21.50239045 -0.4831295 21.50188863 C-2.71176147 21.12584114 -2.71176147 21.12584114 -4.49686623 19.85078108 C-6.64811593 16.79638068 -6.05668986 13.09625374 -5.96176147 9.50084114 C-5.95660522 8.71193489 -5.95144897 7.92302864 -5.94613647 7.11021614 C-5.84841617 0.00106425 -5.84841617 0.00106425 0 0 Z " fill="#000000" transform="translate(113.71176147460938,196.87415885925293)"/>
<path d="M0 0 C4.19838033 3.69857314 5.77436638 7.2344794 6.25 12.75 C6.09675075 19.07153149 3.18182682 24.19380329 0.3515625 29.69921875 C-4.61479029 39.67070306 -5.09713676 51.72745694 -1.9375 62.375 C0.14800358 67.87179159 3.15656803 72.7014416 6.25976562 77.66503906 C16.51199965 94.2505354 19.56300548 114.4820922 15.59643555 133.578125 C12.82108012 144.89226167 7.90924799 162.24990401 -2.625 168.6875 C-7.98213571 169.90503084 -13.13572528 170.26777115 -18.1875 167.8125 C-22.14941155 165.17122563 -24.13244142 161.86854813 -25.375 157.3125 C-26.65941276 148.18640931 -21.04891775 139.20997422 -17.20703125 131.26025391 C-13.71275201 123.08027745 -14.03110999 111.06959808 -16.8125 102.6875 C-19.00464581 97.51247007 -22.04031515 92.83751947 -25.00976562 88.08300781 C-34.94131625 71.86806322 -38.14445074 51.79375082 -34.72265625 33.109375 C-33.06636142 26.4273272 -30.60781071 20.08226416 -27.9375 13.75 C-27.66156006 13.09467285 -27.38562012 12.4393457 -27.10131836 11.76416016 C-24.56279744 6.09326094 -21.57401387 1.62345058 -16.125 -1.625 C-10.10801734 -3.32981175 -5.58099354 -2.79049677 0 0 Z " fill="#000000" transform="translate(341.375,318.6875)"/>
<path d="M0 0 C4.19838033 3.69857314 5.77436638 7.2344794 6.25 12.75 C6.09675075 19.07153149 3.18182682 24.19380329 0.3515625 29.69921875 C-4.61479029 39.67070306 -5.09713676 51.72745694 -1.9375 62.375 C0.14800358 67.87179159 3.15656803 72.7014416 6.25976562 77.66503906 C16.32662616 93.95064844 19.33926584 113.60878544 16.0078125 132.44140625 C13.23387575 143.81945657 8.0809072 162.14500116 -2.625 168.6875 C-7.98213571 169.90503084 -13.13572528 170.26777115 -18.1875 167.8125 C-22.14941155 165.17122563 -24.13244142 161.86854813 -25.375 157.3125 C-26.65941276 148.18640931 -21.04891775 139.20997422 -17.20703125 131.26025391 C-13.71275201 123.08027745 -14.03110999 111.06959808 -16.8125 102.6875 C-19.00464581 97.51247007 -22.04031515 92.83751947 -25.00976562 88.08300781 C-35.15612516 71.51735116 -38.33094425 50.93827942 -34.2956543 31.94311523 C-32.73006402 25.64673677 -30.46469761 19.65218176 -27.9375 13.6875 C-27.66156006 13.03612061 -27.38562012 12.38474121 -27.10131836 11.71362305 C-24.52605595 6.00738761 -21.56445673 1.61775305 -16.125 -1.625 C-10.10801734 -3.32981175 -5.58099354 -2.79049677 0 0 Z " fill="#000000" transform="translate(188.375,318.6875)"/>
<path d="M0 0 C3.67443374 3.02375276 6.46678871 5.88932842 7.27124023 10.74487305 C7.38298766 17.09402577 5.6488271 21.83327478 3 27.54296875 C2.25940552 29.19427699 1.52103807 30.84658625 0.78515625 32.5 C0.2902771 33.57664917 0.2902771 33.57664917 -0.21459961 34.67504883 C-3.6424366 42.98456786 -3.44355266 54.86137596 -0.625 63.35546875 C1.56714581 68.53049868 4.60281515 73.20544928 7.57226562 77.95996094 C18.13335605 95.20273627 20.88215868 116.29067071 16.4375 135.91796875 C8.95574332 161.99723488 8.95574332 161.99723488 -0.75 168.54296875 C-5.62855265 170.29188385 -10.05548062 170.66795126 -15.0546875 169.109375 C-19.3551361 167.03297814 -21.35422211 164.24308287 -23.43359375 160.0234375 C-25.51076303 152.4501557 -22.75115803 146.87960178 -19.625 140.10546875 C-18.78862094 138.26108002 -17.95643811 136.41478141 -17.12890625 134.56640625 C-16.5711853 133.35283447 -16.5711853 133.35283447 -16.00219727 132.11474609 C-14.10544279 127.30214433 -13.87643283 122.68423358 -13.8125 117.54296875 C-13.78671875 116.31191406 -13.7609375 115.08085937 -13.734375 113.8125 C-14.11708762 105.00245558 -17.8433097 97.85892725 -22.4375 90.54296875 C-32.90067115 73.21709739 -37.1157548 53.68637462 -33.4140625 33.515625 C-30.55223921 22.05610183 -26.07755899 7.78647891 -17.0625 -0.26953125 C-11.72538171 -3.11599434 -5.22153012 -3.21401001 0 0 Z " fill="#000000" transform="translate(264.0625,318.26953125)"/>
</svg>
