<?xml version="1.0" encoding="UTF-8"?>
<svg version="1.1" xmlns="http://www.w3.org/2000/svg" width="727" height="800">
<path d="M0 0 C0.71688995 0.00054382 1.43377991 0.00108765 2.1723938 0.00164795 C14.76898461 0.04531394 26.79075493 1.15104287 39 4.375 C39.77794922 4.57867188 40.55589844 4.78234375 41.35742188 4.9921875 C58.42317202 9.65826602 74.47898416 17.96065802 88 29.375 C88.99257812 30.20515625 89.98515625 31.0353125 91.0078125 31.890625 C99.1627937 38.92616744 108.53236299 47.75659784 112.3515625 58 C114.81231977 62.31648869 118.92869469 63.09052574 123.49362183 64.36387634 C125.78327669 64.96812706 128.07882013 65.54607853 130.375 66.125 C132.04679311 66.56862134 133.71782858 67.01510552 135.38818359 67.46411133 C139.27165467 68.50395253 143.1590096 69.52762716 147.04882812 70.54345703 C155.09361346 72.65273902 163.11689699 74.83964031 171.140625 77.02734375 C174.21173351 77.8643231 177.2828692 78.70120272 180.35400391 79.53808594 C181.12228075 79.74749125 181.89055759 79.95689655 182.68211555 80.17264748 C188.69485879 81.81086788 194.70987128 83.44059421 200.72600365 85.06632042 C204.31325037 86.03576237 207.90009173 87.00663567 211.48580933 87.98171997 C212.88929909 88.36331439 214.29279232 88.7448961 215.69628906 89.12646484 C216.72708053 89.40676513 216.72708053 89.40676513 217.77869606 89.69272804 C221.95435992 90.82613135 226.13403909 91.94310772 230.31739998 93.04775143 C232.35198439 93.58622326 234.38523222 94.12945335 236.4180603 94.67451477 C238.91346099 95.34281315 241.41109193 96.00286149 243.9112854 96.65299988 C252.03215147 98.84451582 258.25348597 101.00971961 263 108.375 C266.04980527 114.38955621 266.18774411 119.13680407 264.93359375 125.69921875 C262.95638907 131.36610245 260.01462748 134.82750744 254.875 137.8125 C254.05841919 138.29384399 254.05841919 138.29384399 253.2253418 138.78491211 C251.15851258 139.99636972 249.07914376 141.18480028 247 142.375 C245.0919912 143.48098329 243.18447883 144.58782326 241.27734375 145.6953125 C236.26082842 148.60256714 231.23647607 151.49592391 226.20831299 154.38298035 C220.13361716 157.87121855 214.06671339 161.37290406 208 164.875 C205.83336859 166.12506112 203.66670186 167.375061 201.5 168.625 C200.4275 169.24375 199.355 169.8625 198.25 170.5 C188.5 176.125 188.5 176.125 185.24951172 178.00024414 C183.08442929 179.24935518 180.91939018 180.49854129 178.75439453 181.74780273 C173.31384294 184.88702309 167.87252784 188.02490563 162.4296875 191.16015625 C151.97793801 197.18247329 141.53700452 203.22169337 131.125 209.3125 C121.85669767 214.73322017 112.54535637 220.07559683 103.21658325 225.39120483 C94.97170368 230.09025859 86.75343545 234.83233916 78.5625 239.625 C70.78602744 244.17245154 63.00008491 248.70230981 55.1875 253.1875 C54.30328369 253.69764648 53.41906738 254.20779297 52.50805664 254.73339844 C51.69457764 255.19907227 50.88109863 255.66474609 50.04296875 256.14453125 C49.33164795 256.55292236 48.62032715 256.96131348 47.88745117 257.38208008 C42.54717629 260.1914059 36.87955172 259.80387977 31 259.375 C25.1744793 257.36254739 21.43526558 253.73293631 18.25 248.5 C15.62493102 241.93732756 16.02769384 236.58721732 17.76953125 229.87890625 C17.989543 228.99513809 18.20955475 228.11136993 18.43623352 227.20082092 C22.35555852 211.71773645 26.69750863 196.33796962 30.95880127 180.94647217 C31.91905468 177.47551683 32.87638058 174.00375776 33.83346367 170.53192711 C34.78138294 167.09342912 35.7301746 163.65517214 36.67905045 160.21693802 C37.1496682 158.51141638 37.62011533 156.80584765 38.09038925 155.10023117 C40.43865715 146.58512497 42.7958268 138.07298164 45.20676327 129.57537365 C46.15266884 126.24067296 47.0933875 122.90451739 48.03403664 119.56833076 C48.47779307 118.00104399 48.92438387 116.43455658 49.37399864 114.86894035 C49.99300043 112.71343468 50.60252087 110.55544741 51.21020508 108.39672852 C51.73062126 106.57239037 51.73062126 106.57239037 52.2615509 104.7111969 C53.15029844 100.69597528 53.83269708 97.06247325 51.96875 93.28515625 C41.2922534 79.85435069 27.89363512 73.66258042 11.125 70.6875 C-10.70316025 68.61492721 -31.09430523 73.57212268 -49 86.375 C-50.051875 87.1175 -51.10375 87.86 -52.1875 88.625 C-65.40850154 101.55220151 -70.94704398 117.76580972 -71.33934879 135.9241081 C-71.40162269 141.773472 -71.39040641 147.62165918 -71.37181091 153.47123718 C-71.37438764 156.13598738 -71.37816053 158.80071154 -71.3834005 161.46545535 C-71.39240047 167.24465846 -71.39044317 173.02377514 -71.38115883 178.80297661 C-71.36742965 187.39689313 -71.37105707 195.99074204 -71.37832329 204.58466339 C-71.39014463 219.04657668 -71.38866514 233.50845889 -71.38012505 247.97037315 C-71.36868376 267.72037604 -71.37787052 287.47033235 -71.39268685 307.22033105 C-71.39957864 316.42816392 -71.40552108 325.63599741 -71.41126347 334.84383106 C-71.41184021 335.76548916 -71.41241694 336.68714725 -71.41301116 337.63673438 C-71.42652887 359.55803323 -71.43112108 381.47933225 -71.43383789 403.40063477 C-71.43402261 404.83879693 -71.43402261 404.83879693 -71.43421107 406.30601288 C-71.43692675 427.71024884 -71.43783984 449.11448446 -71.43678741 470.51872056 C-71.43636258 479.25930654 -71.43605508 487.99989253 -71.43579102 496.74047852 C-71.43575824 497.69918952 -71.43572546 498.65790052 -71.43569169 499.64566336 C-71.43500593 521.53596263 -71.43761459 543.42625322 -71.4519434 565.31654835 C-71.45254507 566.23664721 -71.45314674 567.15674607 -71.45376664 568.10472671 C-71.45986431 577.29048778 -71.46663145 586.47624814 -71.47435217 595.66200799 C-71.49082345 615.39029427 -71.49685158 635.11850237 -71.48151282 654.84679118 C-71.47053268 669.22427747 -71.47342399 683.60170428 -71.49070387 697.97918495 C-71.5004969 706.51976797 -71.49903856 715.06017909 -71.48156137 723.60075073 C-71.47096965 729.30721323 -71.47486911 735.01354771 -71.4904648 740.7199984 C-71.49892578 743.97011058 -71.49890389 747.21982026 -71.48554879 750.46992584 C-71.47211135 753.97605337 -71.48330446 757.48128461 -71.50057125 760.98737621 C-71.49081 761.98928001 -71.48104875 762.9911838 -71.4709917 764.02344832 C-71.57563884 774.27457021 -74.68925951 783.96678297 -82 791.375 C-90.4066806 798.35413106 -98.85144158 801.0144158 -109.72265625 800.72265625 C-119.38356818 799.69783961 -127.74536612 795.46206225 -133.9765625 788.01171875 C-140.24349152 779.51396931 -141.29867706 772.66305613 -141.25447559 762.33177376 C-141.25768207 761.22290522 -141.26088855 760.11403669 -141.26419219 758.97156608 C-141.2725192 755.24141866 -141.26655831 751.51143068 -141.26069641 747.78128052 C-141.26371588 745.08560563 -141.26752333 742.38994227 -141.27228898 739.69427097 C-141.28105389 733.82565636 -141.28236205 727.95707664 -141.27878571 722.08845711 C-141.27348131 713.36113374 -141.2795715 704.63384419 -141.28786864 695.9065245 C-141.30311972 679.41074976 -141.30481242 662.91499035 -141.30234561 646.41921003 C-141.30051333 633.67733803 -141.30227119 620.93547107 -141.30657005 608.1935997 C-141.30717246 606.36329173 -141.30777365 604.53298376 -141.30837366 602.70267578 C-141.30928091 599.94455218 -141.31018958 597.18642858 -141.31110601 594.42830498 C-141.31953779 568.77777033 -141.32386984 543.12723758 -141.31969929 517.47670174 C-141.31954291 516.50941909 -141.31938654 515.54213645 -141.31922542 514.54554221 C-141.31841964 509.64295357 -141.31757387 504.74036494 -141.31671212 499.83777632 C-141.31654103 498.86410757 -141.31636994 497.89043882 -141.31619367 496.88726496 C-141.31584701 494.91826689 -141.31549849 492.94926882 -141.31514808 490.98027075 C-141.30979388 460.35988264 -141.31771182 429.73952335 -141.33618164 399.11914062 C-141.35690953 364.71488923 -141.36762256 330.31065569 -141.36360615 295.9063977 C-141.36321082 292.23578445 -141.36284927 288.56517121 -141.36250877 284.89455795 C-141.36241804 283.99076608 -141.36232731 283.08697421 -141.36223383 282.15579471 C-141.36106887 268.52445015 -141.36770865 254.89312365 -141.37832069 241.2617836 C-141.39038431 225.75008197 -141.39191855 210.23842002 -141.37953053 194.72671779 C-141.37291226 186.05193025 -141.37450902 177.37723766 -141.38811904 168.70245776 C-141.39638772 162.89863505 -141.3936347 157.09488315 -141.38214377 151.29106615 C-141.37591093 147.99016098 -141.3759023 144.68959058 -141.38600711 141.38867296 C-141.45634112 116.69064404 -138.39007395 94.56135257 -127 72.375 C-126.41476563 71.23289062 -125.82953125 70.09078125 -125.2265625 68.9140625 C-120.53665722 60.09640647 -114.76571024 52.6905346 -108 45.375 C-107.50371094 44.82956543 -107.00742188 44.28413086 -106.49609375 43.72216797 C-89.85790417 25.59994549 -68.40590704 13.52820313 -45 6.375 C-44.34757324 6.17535645 -43.69514648 5.97571289 -43.02294922 5.77001953 C-28.84309433 1.52573359 -14.78095744 -0.04258216 0 0 Z " fill="#000000" transform="translate(141,-0.375)"/>
<path d="M0 0 C6.95629535 3.80627481 9.98105114 6.8608915 12.62109375 14.328125 C14.13442976 19.76587473 13.66270569 24.58026292 11.5625 29.75 C8.86249453 34.20500902 4.31897063 38.72415763 -0.640625 40.51953125 C-7.95038611 41.56577568 -14.13850434 41.30529768 -20.6875 37.8125 C-20.625625 38.84375 -20.56375 39.875 -20.5 40.9375 C-20.7656328 46.42724459 -22.45708287 49.42018588 -26.0625 53.5 C-31.81208391 58.56510964 -36.02607334 59.87755826 -43.58984375 60.04296875 C-46.19353721 59.75690187 -48.30046227 58.8627966 -50.6875 57.8125 C-50.89503906 58.52535156 -51.10257812 59.23820312 -51.31640625 59.97265625 C-53.46688001 66.65802028 -55.86694025 71.66187216 -61.6875 75.8125 C-67.64687117 78.8022182 -75.50119003 79.11040614 -81.8671875 77.13671875 C-83.5 76.3125 -83.5 76.3125 -85.6875 74.8125 C-85.7803125 76.545 -85.7803125 76.545 -85.875 78.3125 C-86.63445248 84.1110223 -89.08588811 88.52262809 -93.48046875 92.390625 C-98.22671191 95.68741665 -102.89493898 97.1843198 -108.6875 96.8125 C-112.55456694 95.90615619 -116.13820301 94.5871485 -119.6875 92.8125 C-119.92984375 93.40417969 -120.1721875 93.99585938 -120.421875 94.60546875 C-123.380872 101.58187321 -126.15718386 106.82569505 -133.28125 110.08203125 C-139.39995187 111.93949432 -146.15661173 111.84682753 -152.0625 109.3125 C-156.7523698 106.57103122 -160.62542913 102.05052094 -162.328125 96.859375 C-163.47021791 90.35441103 -163.34927767 84.44516137 -160.01953125 78.6328125 C-156.33923303 73.60343135 -151.86307263 70.07282094 -145.6875 68.8125 C-139.46859425 68.31097534 -135.39083054 69.31103924 -129.6875 71.8125 C-129.3575 72.1425 -129.0275 72.4725 -128.6875 72.8125 C-128.4915625 72.17183594 -128.295625 71.53117187 -128.09375 70.87109375 C-125.7298869 64.03423107 -122.7891744 59.78031852 -116.6875 55.8125 C-111.00335029 53.28621124 -105.67642681 53.57341169 -99.6875 54.8125 C-96.0625 56.375 -96.0625 56.375 -93.6875 57.8125 C-93.77 56.8225 -93.8525 55.8325 -93.9375 54.8125 C-93.89020759 50.13055149 -92.52669627 46.53282615 -89.6875 42.8125 C-83.30944184 37.40577914 -78.04612353 35.3801574 -69.6875 35.8125 C-66.25 36.8125 -66.25 36.8125 -63.6875 37.8125 C-63.45675781 37.07644531 -63.22601563 36.34039062 -62.98828125 35.58203125 C-61.07127757 29.84617438 -59.54447562 25.69808049 -54.6875 21.8125 C-53.635625 20.94625 -53.635625 20.94625 -52.5625 20.0625 C-47.3481447 16.58626313 -40.69070359 17.37108797 -34.6875 17.8125 C-32.2679853 18.55563666 -30.78721204 19.37269746 -28.6875 20.8125 C-28.77 19.8225 -28.8525 18.8325 -28.9375 17.8125 C-28.89023677 13.13344056 -27.5303227 9.52772332 -24.6875 5.8125 C-17.06741888 -0.54215248 -9.64127821 -3.10481841 0 0 Z " fill="#000000" transform="translate(404.6875,181.1875)"/>
<path d="M0 0 C5.2920368 3.08611591 8.70065268 7.16346052 11.125 12.75 C12.32641929 20.62597092 11.38514682 26.96236519 6.6875 33.4375 C2.79660302 37.45666831 -1.32465377 40.05341214 -6.92578125 40.7734375 C-14.04321749 40.87643947 -19.55374716 40.02365705 -24.84375 34.9765625 C-29.29813449 29.87473841 -31.20127294 25.23470912 -31.3125 18.4375 C-30.59184839 12.32911972 -28.40549539 7.05030432 -23.6015625 2.9921875 C-16.62223024 -2.16132788 -8.17072703 -3.69102341 0 0 Z " fill="#000000" transform="translate(324.3125,536.5625)"/>
<path d="M0 0 C4.6898698 2.74146878 8.56292913 7.26197906 10.265625 12.453125 C11.40771791 18.95808897 11.28677767 24.86733863 7.95703125 30.6796875 C4.27673303 35.70906865 -0.19942737 39.23967906 -6.375 40.5 C-12.23169405 40.97231404 -17.25583116 40.58580637 -22.375 37.5 C-27.22726664 33.09578156 -30.85633593 28.53472399 -31.7109375 21.88671875 C-31.80203349 15.59198562 -31.36405318 10.56090403 -27.375 5.5 C-19.7500483 -1.52661545 -9.95767659 -4.37213266 0 0 Z " fill="#000000" transform="translate(370.375,269.5)"/>
<path d="M0 0 C4.98527602 3.61676888 8.19795159 7.38767741 10.1875 13.3125 C11.09795213 20.39497065 10.50167057 26.49664175 6.1875 32.3125 C1.96177278 37.11592157 -2.41041268 39.72832443 -8.8125 40.3125 C-16.09441149 40.63700586 -21.42392356 38.16113892 -26.8125 33.3125 C-31.32160227 27.4370031 -32.47482107 21.52577851 -31.8125 14.3125 C-29.87391624 8.29268727 -27.12569985 3.26976397 -21.6171875 0.015625 C-14.29041185 -3.33769552 -7.28321633 -3.73619539 0 0 Z " fill="#000000" transform="translate(448.8125,617.6875)"/>
<path d="M0 0 C4.98527602 3.61676888 8.19795159 7.38767741 10.1875 13.3125 C11.09968617 20.40845989 10.46503666 26.46253554 6.1875 32.3125 C1.38802316 37.33520832 -4.16773521 40.04392517 -11.109375 40.4453125 C-17.68792625 40.05967329 -22.96844821 37.46706861 -27.38671875 32.56640625 C-31.70944611 26.80689845 -32.47586719 21.42862077 -31.8125 14.3125 C-29.87391624 8.29268727 -27.12569985 3.26976397 -21.6171875 0.015625 C-14.29041185 -3.33769552 -7.28321633 -3.73619539 0 0 Z " fill="#000000" transform="translate(302.8125,423.6875)"/>
<path d="M0 0 C5.34977268 3.14757935 8.59086503 7.48592438 10.5625 13.375 C11.46481054 20.26105409 11.25045457 26.00114465 7.05078125 31.69140625 C2.02553165 37.37613742 -2.69779982 40.0781984 -10.375 40.6875 C-17.01255072 40.4729784 -22.13347101 37.42509849 -26.92578125 33.03125 C-31.15749474 28.39495409 -32.06016019 23.06098206 -31.84765625 17 C-30.85431347 10.64260618 -28.02005244 5.16011836 -22.8125 1.3125 C-15.96381592 -2.61915197 -7.3159653 -3.36478557 0 0 Z " fill="#000000" transform="translate(673.4375,404.625)"/>
<path d="M0 0 C5.19039543 2.97967145 8.81220493 7.87411478 10.6875 13.5 C11.34856953 20.81511362 11.45589707 27.56922358 6.6875 33.5 C0.61795068 39.0810544 -4.24064584 40.88188462 -12.4609375 40.7734375 C-18.52266984 40.19217549 -22.61756108 37.54799386 -26.6875 33.125 C-30.87502672 27.76542096 -32.14188323 22.26671398 -31.3125 15.5 C-29.11360801 8.53684203 -25.3482085 3.34523458 -19.125 -0.4375 C-12.69590819 -2.22921411 -6.24840516 -2.69327809 0 0 Z " fill="#000000" transform="translate(523.3125,376.5)"/>
<path d="M0 0 C5.02938115 3.68029822 8.55999156 8.15645862 9.8203125 14.33203125 C10.29262654 20.1887253 9.90611887 25.21286241 6.8203125 30.33203125 C2.41609406 35.18429789 -2.14496351 38.81336718 -8.79296875 39.66796875 C-15.93022357 39.77125753 -21.36078044 38.88790134 -26.7109375 33.90625 C-31.83257148 28.14441177 -32.63377057 22.80583344 -32.49609375 15.34375 C-31.90588324 9.72582029 -29.82130122 5.97364497 -25.8671875 2.01953125 C-17.53363106 -3.21316698 -8.95838614 -5.13203093 0 0 Z " fill="#000000" transform="translate(636.1796875,510.66796875)"/>
<path d="M0 0 C5.14338337 2.9958329 8.76038445 7.90615335 10.625 13.5 C11.3442656 20.43577546 11.34978659 26.07623986 7.11328125 31.81640625 C2.10942998 37.47693091 -2.60400276 40.19588732 -10.25 40.8125 C-15.73361702 40.61404529 -20.23842832 39.43928511 -24.36328125 35.6953125 C-29.70372041 29.83520328 -31.94067154 25.17968316 -31.75 17.1953125 C-30.97966426 11.65852437 -28.65422352 6.67448896 -24.58984375 2.796875 C-17.57829224 -2.38363439 -8.098547 -3.55584172 0 0 Z " fill="#000000" transform="translate(584.375,330.5)"/>
<path d="M0 0 C5.51674477 3.25131346 9.42050062 7.40513215 11.9296875 13.3359375 C13.06805473 20.16614087 12.6758059 25.83971326 9.1171875 31.8984375 C5.07271317 37.35557511 -0.12656592 40.19570183 -6.73828125 41.55859375 C-13.0320406 41.99303024 -18.40196461 39.74450173 -23.4453125 36.0859375 C-28.1208553 31.27788944 -30.33998192 26.19338202 -30.609375 19.5 C-30.11883225 12.28201383 -26.64840545 6.95417794 -21.4453125 2.0859375 C-15.64089955 -2.30276497 -6.7180595 -2.51122352 0 0 Z " fill="#000000" transform="translate(334.4453125,592.9140625)"/>
<path d="M0 0 C4.24956311 2.97395254 6.59427278 6.63438083 8.23828125 11.56640625 C8.9092113 18.9906322 8.84945502 25.45128042 4.23828125 31.56640625 C0.34942311 35.73227894 -3.92553809 38.19476878 -9.59375 38.9375 C-17.75143754 39.11925713 -22.3442174 37.67886275 -28.2890625 32.14453125 C-32.41230252 27.69860288 -33.48409942 23.06498019 -34.13671875 17.19140625 C-33.46900289 10.73681963 -31.23091875 5.53272443 -26.38671875 1.12890625 C-17.99160317 -5.29193426 -8.99580866 -4.91062028 0 0 Z " fill="#000000" transform="translate(544.76171875,572.43359375)"/>
<path d="M0 0 C6.77481715 3.70697542 10.41923619 7.47693836 13 14.75 C13.93393096 20.91394431 13.57529957 26.44565211 10.3125 31.8125 C6.05904061 36.37486984 2.11559486 40.46881291 -4.32421875 41.05078125 C-11.01597303 41.21357681 -16.23050474 40.94006486 -21.6875 36.8125 C-25.54152237 33.12604382 -28.41420663 29.21493935 -29.0234375 23.859375 C-29.17536762 11.03647289 -29.17536762 11.03647289 -24.6875 5.8125 C-17.01321595 -0.50423922 -9.68344788 -3.11839847 0 0 Z " fill="#000000" transform="translate(483.6875,469.1875)"/>
<path d="M0 0 C1.2684375 0.86625 1.2684375 0.86625 2.5625 1.75 C3.42875 2.28625 4.295 2.8225 5.1875 3.375 C9.76806594 7.95556594 11.77461849 13.36991028 12.0625 19.8125 C11.73312885 26.66554488 9.2134265 31.51140007 4.1875 36.125 C-1.19633988 40.33148211 -6.65354114 41.52932484 -13.4375 40.75 C-20.38266338 39.40877342 -24.52747809 35.51992423 -28.4375 29.75 C-31.24106418 23.94662216 -31.50233173 17.68583373 -29.8203125 11.46875 C-27.44923917 6.01318305 -23.48915657 2.7478003 -18.4375 -0.25 C-12.55444111 -2.21101963 -5.80795673 -2.11198427 0 0 Z " fill="#000000" transform="translate(345.4375,346.25)"/>
<path d="M0 0 C5.14338337 2.9958329 8.76038445 7.90615335 10.625 13.5 C11.16776942 20.05498457 11.15460936 25.76438479 7.625 31.5 C2.2834086 37.15376233 -2.32518563 40.48008923 -10.1875 40.875 C-16.26564023 40.721466 -20.685188 39.02244592 -25.1328125 34.8515625 C-30.17204463 29.2767598 -31.8806167 24.5783696 -31.6796875 17.0546875 C-30.80675364 9.7354728 -26.74421346 5.45409733 -21.27734375 0.84765625 C-15.58388008 -3.18570097 -6.21155762 -2.72731833 0 0 Z " fill="#000000" transform="translate(397.375,320.5)"/>
<path d="M0 0 C5.19039543 2.97967145 8.81220493 7.87411478 10.6875 13.5 C11.54797566 21.36409401 11.36071607 27.3130254 6.41015625 33.69140625 C1.83755968 38.49211421 -2.84229379 40.63408474 -9.5 40.8125 C-15.93498697 40.72760571 -20.27611571 39.23206961 -25.06640625 34.921875 C-29.20383972 30.49531968 -31.26981134 26.27489719 -31.33984375 20.08203125 C-30.95632132 13.58181778 -29.5254268 8.81884746 -24.890625 4.03125 C-17.9231847 -2.1460682 -8.63951437 -3.75486586 0 0 Z " fill="#000000" transform="translate(314.3125,479.5)"/>
<path d="M0 0 C5.29355112 3.14178321 9.54182996 6.8626349 11.3984375 12.82421875 C13.21418888 21.44356868 12.12822003 27.06598238 7.421875 34.40234375 C2.72030075 38.79729359 -2.41921783 41.22855248 -8.890625 41.65234375 C-15.42105486 41.3315507 -21.15318752 38.21286296 -25.890625 33.83984375 C-29.80864677 26.94412544 -31.34593911 20.89770195 -29.453125 13.08984375 C-27.29700092 6.98082553 -23.00079128 3.30618963 -17.62109375 -0.0546875 C-12.29419645 -2.15665238 -5.33277439 -1.9785612 0 0 Z " fill="#000000" transform="translate(425.453125,369.91015625)"/>
<path d="M0 0 C4.52646857 3.22075648 6.87133833 5.89243537 9 11 C10.01347219 18.28010858 10.12569884 25.34175949 5.5625 31.3828125 C0.40441358 36.72143194 -4.31737803 39.08762768 -11.75 39.3125 C-17.88869796 39.22222503 -22.19114846 37.5217245 -26.7578125 33.421875 C-30.89167943 28.9884525 -32.90037501 24.79820291 -33.0625 18.6171875 C-32.68965239 10.99711456 -29.99320884 5.8435484 -24.5 0.625 C-16.68013651 -4.45791127 -8.19290654 -4.56912095 0 0 Z " fill="#000000" transform="translate(630,369)"/>
<path d="M0 0 C4.24956311 2.97395254 6.59427278 6.63438083 8.23828125 11.56640625 C8.93355894 18.82709181 9.15454793 24.97597901 4.6640625 30.984375 C0.6050799 35.48817761 -3.53911203 38.14413365 -9.59375 38.9375 C-17.72427527 39.11865194 -22.41170964 37.71615919 -28.2890625 32.109375 C-32.15858542 27.85850779 -33.55257208 23.82519024 -34.07421875 18.19140625 C-33.44622106 10.90663304 -30.83914263 5.76472117 -25.76171875 0.56640625 C-17.50704964 -5.27226214 -8.65410019 -4.72408891 0 0 Z " fill="#000000" transform="translate(486.76171875,335.43359375)"/>
<path d="M0 0 C4.79255816 3.33638857 8.28012702 7.82895126 9.33984375 13.62890625 C9.82575004 20.91750053 8.47309045 26.15250423 4.65234375 32.37890625 C-0.40653459 37.30105815 -5.10125649 38.89694461 -12.16015625 39.19140625 C-19.73642598 38.94559449 -23.91513153 36.51840595 -29.03515625 31.12890625 C-33.10998692 24.85993599 -33.42933468 18.95070595 -32.66015625 11.62890625 C-30.91236035 5.93548726 -26.45434645 1.91245446 -21.66015625 -1.37109375 C-13.85601752 -5.02409486 -7.32529094 -3.96175211 0 0 Z " fill="#000000" transform="translate(284.66015625,310.37109375)"/>
<path d="M0 0 C5.1148695 3.63942637 8.00158922 6.90574185 9.50390625 13.06640625 C10.61090624 19.76666934 9.37432125 25.29864119 5.70703125 31.015625 C2.39949123 35.23650717 -0.74175115 37.53458639 -6 39 C-13.15489373 39.8568735 -19.08849331 39.32253678 -25 35 C-30.02270832 30.20052316 -32.73142517 24.64476479 -33.1328125 17.703125 C-32.74717329 11.12457375 -30.15456861 5.84405179 -25.25390625 1.42578125 C-17.48374805 -4.4060149 -8.53414027 -4.66962392 0 0 Z " fill="#000000" transform="translate(540,296)"/>
<path d="M0 0 C5.2920368 3.08611591 8.70065268 7.16346052 11.125 12.75 C12.26041586 20.19328173 11.5869954 26.41927325 7.21484375 32.6796875 C3.14623445 37.36223017 -1.19877196 39.95769616 -7.35546875 40.67578125 C-13.97418094 40.90484415 -19.90273105 39.54030678 -24.91796875 34.9765625 C-29.31657639 29.8943003 -31.20224525 25.17529027 -31.3125 18.4375 C-30.52603005 11.77123092 -27.84114789 6.77163652 -22.875 2.1875 C-16.05738143 -2.46843463 -7.63293468 -3.42014189 0 0 Z " fill="#000000" transform="translate(327.3125,291.5625)"/>
<path d="M0 0 C4.1370758 3.76014222 7.23288113 8.9306357 8.03125 14.5078125 C8.34514031 21.15987246 6.52688235 26.12580865 2.7578125 31.59765625 C-1.79004942 36.53797326 -7.67709612 38.17475159 -14.2421875 38.59765625 C-20.75140004 38.36056573 -24.96195659 35.9394155 -29.578125 31.43359375 C-34.49643805 26.00728593 -34.83473827 20.9162735 -34.65625 13.79296875 C-33.86717406 7.70368464 -30.76374685 3.81192919 -26.3671875 -0.27734375 C-18.02790823 -5.94805366 -8.2460503 -5.72549647 0 0 Z " fill="#000000" transform="translate(497.2421875,260.40234375)"/>
<path d="M0 0 C4.08923966 4.3200094 5.9014523 9.43667421 6.23046875 15.328125 C5.86724466 22.04191229 3.35320333 27.686083 -1.58203125 32.265625 C-6.54367133 36.04992676 -11.16203859 37.06550473 -17.33203125 36.640625 C-24.45938689 35.68096592 -28.44134582 33.08941233 -32.97265625 27.64453125 C-37.02269933 21.97203116 -36.96990382 16.64800291 -36.26953125 9.828125 C-34.30769673 3.01743811 -30.16191 -0.6606629 -24.33203125 -4.421875 C-15.47361772 -7.64311628 -7.17363255 -5.89927468 0 0 Z " fill="#000000" transform="translate(414.26953125,512.171875)"/>
<path d="M0 0 C5.2920368 3.08611591 8.70065268 7.16346052 11.125 12.75 C12.26041586 20.19328173 11.5869954 26.41927325 7.21484375 32.6796875 C3.14623445 37.36223017 -1.19877196 39.95769616 -7.35546875 40.67578125 C-14.91565719 40.93742712 -20.5807644 38.93169337 -26.1875 33.8125 C-29.95310541 27.83183258 -31.94638001 22.28032434 -30.75 15.1875 C-29.06950409 8.64996105 -25.89359631 4.24898041 -20.3125 0.4375 C-13.87508118 -2.56518865 -6.56061276 -2.93965918 0 0 Z " fill="#000000" transform="translate(598.3125,464.5625)"/>
<path d="M0 0 C4.31763905 4.51389537 6.90141867 9.61883408 7.1875 15.9375 C6.22915222 24.56262999 3.34789411 29.08849897 -3.375 34.625 C-8.5940122 38.10434147 -15.25243827 37.50594917 -21.25 36.875 C-27.21909196 34.62021761 -31.04573942 30.49800284 -34.32421875 25.109375 C-36.58439769 19.65442837 -36.15387524 12.75478855 -34.41015625 7.19921875 C-31.64564124 1.66088059 -27.88393826 -1.61604936 -22.25 -4.125 C-13.88180656 -6.6210577 -7.06855003 -4.62174425 0 0 Z " fill="#000000" transform="translate(393.25,457.125)"/>
<path d="M0 0 C5.33455775 4.94700441 7.65532745 10.78485472 8 18 C7.40973625 24.65817512 4.42442354 29.76207058 -0.4375 34.25 C-6.38941552 38.31472279 -11.95413296 38.78177457 -19 38 C-25.19912737 36.22730433 -29.53624675 32.36030011 -33 27 C-35.46913981 21.31024305 -35.42906366 15.95910205 -34 10 C-31.54145676 4.14438248 -27.63413897 -0.06318931 -22 -3 C-14.29845497 -5.40288205 -6.72789297 -4.47683104 0 0 Z " fill="#000000" transform="translate(414,247)"/>
<path d="M0 0 C4.43073828 3.14236757 7.20093407 7.17448342 8.203125 12.5625 C8.70003897 18.88859704 8.83112048 24.12050678 5.203125 29.5625 C4.64625 30.42875 4.089375 31.295 3.515625 32.1875 C-1.06829348 36.89530817 -5.73039385 38.79838356 -12.296875 39.0625 C-18.50399932 38.79635774 -23.0056732 37.1858567 -27.55078125 32.9140625 C-32.36144205 27.60494769 -34.26159591 23.08101094 -34.03515625 15.89453125 C-33.40707495 9.7475716 -31.50484054 5.87269872 -26.921875 1.6875 C-18.36058291 -5.12120875 -9.55995041 -5.29104173 0 0 Z " fill="#000000" transform="translate(346.796875,652.4375)"/>
<path d="M0 0 C5.13101813 2.98167994 8.60457975 7.07476491 11.0625 12.4375 C12.62078562 19.91727097 11.40092115 25.82739255 7.6875 32.4375 C3.55351738 37.31219622 -0.9897945 39.82831563 -7.3359375 40.72265625 C-13.85624178 41.16878233 -18.99423357 39.15935836 -24.3125 35.4375 C-30.00077166 29.48889554 -30.72196333 23.67115291 -30.66015625 15.7421875 C-30.01947529 9.65211904 -27.1334744 6.16742568 -22.8125 2.0625 C-15.92321117 -2.41553774 -7.62072005 -3.41466879 0 0 Z " fill="#000000" transform="translate(366.3125,400.5625)"/>
<path d="M0 0 C5.20661341 5.64049786 6.48053412 10.69383048 6.30859375 18.21875 C5.64440143 24.20488837 3.03787483 28.30877128 -1.3125 32.375 C-6.19099255 36.16823467 -10.81626907 37.23700977 -16.9375 36.9375 C-23.43550768 36.09681408 -27.86332258 33.19290577 -32.375 28.5625 C-35.9288014 22.95842857 -36.7387025 17.51194662 -36 11 C-33.68143028 4.04429084 -30.35689925 -0.81120549 -23.84765625 -4.2109375 C-15.53077712 -7.7627548 -6.80227243 -5.53673337 0 0 Z " fill="#000000" transform="translate(296,370)"/>
<path d="M0 0 C5.56315744 2.89333858 9.67323854 7.72563124 12.25 13.34765625 C13.80828562 20.82742722 12.58842115 26.7375488 8.875 33.34765625 C5.30293168 37.55975618 1.3334041 40.23369623 -4.125 41.34765625 C-11.38463483 41.93311067 -16.6815159 40.46070331 -22.875 36.66015625 C-27.7971519 31.60127791 -29.39303836 26.90655601 -29.6875 19.84765625 C-29.44168824 12.27138652 -27.0144997 8.09268097 -21.625 2.97265625 C-15.14517161 -1.2392322 -7.46727832 -2.29234463 0 0 Z " fill="#000000" transform="translate(449.125,218.65234375)"/>
<path d="M0 0 C4.50503185 3.30626801 8.5369245 7.81736909 9.8203125 13.3359375 C10.41735135 19.68625981 10.04022158 24.67333876 6.8203125 30.3359375 C2.63832731 35.05407464 -1.32141435 38.93041329 -7.78125 39.609375 C-15.06554561 39.8540671 -20.51147212 39.18116046 -26.1796875 34.3359375 C-31.44575465 27.84490989 -33.03983706 21.60566113 -32.1796875 13.3359375 C-30.08164563 6.14445664 -25.15059098 1.69701524 -18.8671875 -2.0390625 C-12.19023018 -3.59184327 -6.02712335 -3.44058458 0 0 Z " fill="#000000" transform="translate(516.1796875,520.6640625)"/>
<path d="M0 0 C4.9221519 5.05887834 6.51803836 9.75360024 6.8125 16.8125 C6.56668824 24.38876973 4.1394997 28.56747528 -1.25 33.6875 C-7.48052424 37.73734076 -13.46324334 38.23044207 -20.75 37.3125 C-26.42193832 35.14600553 -30.34027377 31.22651721 -33.75 26.3125 C-36.54473053 20.05762691 -36.42233082 14.6475629 -34.1875 8.25 C-31.54679818 2.1194661 -27.79967886 -1.25999075 -21.8125 -4.0625 C-13.44228015 -5.77070813 -7.19150649 -4.41296989 0 0 Z " fill="#000000" transform="translate(720.75,445.6875)"/>
<path d="M0 0 C4.62976225 2.95887061 7.31259593 6.59736363 9.515625 11.578125 C10.47624237 17.9822408 10.31569876 23.85297747 7.390625 29.703125 C3.25280825 34.40010618 -1.21220393 38.87236541 -7.65625 39.6640625 C-15.14349669 39.76104756 -20.82924542 39.14861041 -26.44921875 33.90234375 C-31.57571856 28.15174831 -32.396562 22.7916725 -32.22265625 15.33203125 C-31.66665384 9.77922799 -30.09724424 6.12260829 -25.7578125 2.54296875 C-17.27302023 -3.30241745 -9.45160027 -4.69275258 0 0 Z " fill="#000000" transform="translate(561.921875,421.671875)"/>
<path d="M0 0 C4.68896434 4.19538915 7.9571748 8.32558313 8.90234375 14.6484375 C9.19620522 21.72462166 7.80649662 26.55150493 3.1875 32 C-1.34097439 36.90511733 -6.08334038 38.4305562 -12.59375 39.02734375 C-18.14865151 38.96421987 -22.55660083 37.18679487 -26.8125 33.6875 C-27.534375 32.800625 -28.25625 31.91375 -29 31 C-29.7425 30.113125 -30.485 29.22625 -31.25 28.3125 C-34.37567539 22.39604301 -34.75358351 16.58667641 -32.8125 10.1875 C-30.22160716 3.58827519 -26.4245007 -0.17434433 -20 -3 C-13.06936118 -4.9169852 -6.00753189 -3.96241465 0 0 Z " fill="#000000" transform="translate(449,292)"/>
<path d="M0 0 C5.89890919 4.494407 10.58152664 9.43481817 11.625 17 C11.93275415 24.69385384 9.8335356 30.30316418 4.625 36 C-0.97676935 40.37034591 -6.40307345 41.4647951 -13.375 41 C-19.04699935 39.53347545 -24.24787313 37.29129766 -27.53125 32.2109375 C-31.06834899 25.66730437 -32.13380864 19.53819631 -30.296875 12.27734375 C-28.16607764 7.01355196 -24.18961282 3.38256215 -19.75 0 C-13.31173859 -1.90763301 -6.43826141 -1.90763301 0 0 Z " fill="#000000" transform="translate(429.375,562)"/>
<path d="M0 0 C4.3862 3.25076525 6.50907466 7.55066149 8.203125 12.6328125 C8.94362488 19.46726218 8.32944612 25.01039835 4.203125 30.6328125 C-0.69442207 35.8553153 -5.27534278 38.63238064 -12.484375 39.0703125 C-18.37622319 38.92081784 -23.06635656 37.13876411 -27.796875 33.6328125 C-33.24082801 27.21494129 -34.45072936 20.86886257 -33.796875 12.6328125 C-31.80534424 5.28904281 -26.75399005 1.02790845 -20.421875 -2.8046875 C-12.87077923 -4.42277945 -6.80638333 -3.7456512 0 0 Z " fill="#000000" transform="translate(459.796875,421.3671875)"/>
</svg>
