<?xml version="1.0" encoding="UTF-8"?>
<svg version="1.1" xmlns="http://www.w3.org/2000/svg" width="827" height="475">
<path d="M0 0 C13.9630943 5.08911313 25.37725812 12.65534037 36 23 C37.06154297 23.98613281 37.06154297 23.98613281 38.14453125 24.9921875 C60.83850935 46.60136742 66.74190484 76.12941823 67.78125 106.15625 C67.8396539 107.68948165 67.89868704 109.22268943 67.95829773 110.75587463 C68.11491352 114.82948694 68.26284283 118.90336903 68.40880966 122.97737503 C68.56241311 127.22655198 68.72366856 131.47543906 68.8840332 135.72436523 C69.14144156 142.56983003 69.39398698 149.41545784 69.64306641 156.26123047 C69.91500073 163.73018831 70.19685476 171.19871026 70.4859314 178.66702271 C70.67862056 183.64999323 70.86808244 188.63308255 71.05664062 193.61621094 C71.14249097 195.87715028 71.22921265 198.13805673 71.31689453 200.39892578 C71.43749897 203.52754693 71.55335196 206.65631072 71.66796875 209.78515625 C71.7021843 210.64887344 71.73639984 211.51259064 71.77165222 212.40248108 C72.09915163 221.61374689 72 230.76127513 72 240 C-36.24 240 -144.48 240 -256 240 C-254.83092079 186.22235619 -254.83092079 186.22235619 -254.1328125 166.91796875 C-254.09334377 165.81192102 -254.05387505 164.7058733 -254.0132103 163.56630898 C-253.80605126 157.76924145 -253.59504796 151.97233093 -253.38037109 146.17553711 C-253.16270446 140.27567472 -252.95954748 134.37539691 -252.7591877 128.47492504 C-252.59895649 123.83398829 -252.42809694 119.19348508 -252.25442123 114.55303383 C-252.17474814 112.37622427 -252.0989339 110.19926925 -252.0274086 108.02217674 C-250.89997941 74.03029699 -242.82820152 44.54401896 -217.75 20.40625 C-209.42793374 13.12444202 -195.50274538 1 -184 1 C-183.59910156 2.00417969 -183.19820313 3.00835937 -182.78515625 4.04296875 C-174.24240081 24.83383271 -162.16578937 39.35513307 -141.25 48.75 C-112.03323466 60.28088339 -72.86497751 61.07767197 -43.77734375 49.08349609 C-35.98844105 45.64408425 -28.37635234 41.71124529 -22 36 C-21.00806641 35.12794922 -21.00806641 35.12794922 -19.99609375 34.23828125 C-10.07390975 24.95623815 -4.12680255 12.79122058 0 0 Z " fill="#000000" transform="translate(506,235)"/>
<path d="M0 0 C0.29132813 0.82242188 0.58265625 1.64484375 0.8828125 2.4921875 C7.80855375 21.35285392 18.94044424 35.56593626 37.4375 44.25 C49.41969882 49.0930253 63.0957242 51.60547437 76 52 C77.0830542 52.03867188 77.0830542 52.03867188 78.18798828 52.078125 C102.34646579 52.84157679 129.31131993 50.17501772 148.25 33.625 C149.85009575 32.10073817 151.43467848 30.55995163 153 29 C153.63808594 28.38511719 154.27617187 27.77023438 154.93359375 27.13671875 C162.07776162 19.70614771 166.42034487 9.8781916 169 0 C184.09938388 3.97352207 196.51302299 13.73740681 207 25 C207 25.66 207 26.32 207 27 C207.66 27 208.32 27 209 27 C210.67206233 28.98385458 212.18875936 30.95208549 213.6875 33.0625 C214.13013184 33.68286133 214.57276367 34.30322266 215.02880859 34.94238281 C226 50.80597169 226 50.80597169 226 58 C224.30961298 59.04468964 222.56894455 60.00815224 220.8125 60.9375 C213.42828714 65.12595093 207.26582655 70.30607938 201 76 C200.19691406 76.71929687 199.39382813 77.43859375 198.56640625 78.1796875 C182.08484251 93.7505053 170.5063309 115.15431005 165 137 C164.74655571 137.97966736 164.74655571 137.97966736 164.48799133 138.97912598 C160.43252041 155.12471657 159.95343586 171.49431396 159.33465576 188.04125977 C159.19173502 191.77018245 159.03053562 195.49831619 158.87109375 199.2265625 C158.56332152 206.48374395 158.27635997 213.74154955 158 221 C147.03883454 222.24570064 136.0977088 222.13435144 125.08496094 222.11352539 C122.98469545 222.11324292 120.88442986 222.11340243 118.78416443 222.1139679 C113.11355953 222.11425351 107.44297601 222.10839493 101.77237606 222.10139394 C95.83468167 222.09512112 89.89698674 222.0945535 83.95928955 222.09336853 C72.72928126 222.09026677 61.49928276 222.082069 50.26927876 222.07201904 C37.478435 222.06082197 24.68759075 222.05533841 11.8967433 222.05032361 C-14.40217655 222.03988538 -40.70108773 222.02230838 -67 222 C-67.00497738 219.76066307 -67.0085272 217.52132294 -67.01147461 215.28198242 C-67.01360458 214.03495041 -67.01573456 212.7879184 -67.01792908 211.50309753 C-66.99705888 207.42534573 -66.81715405 203.38076804 -66.5625 199.3125 C-66.0890157 190.98703581 -65.82984081 182.65990413 -65.61259651 174.32451439 C-65.13890604 156.33268588 -64.49109967 138.34969038 -63.75268555 120.36694336 C-63.59066851 116.41130364 -63.43744792 112.45536908 -63.28590488 108.49931622 C-63.16456742 105.37351955 -63.03680441 102.24800815 -62.90736198 99.12253761 C-62.84799856 97.6633019 -62.79093321 96.20397037 -62.73648262 94.74454308 C-61.49088347 61.61125304 -51.2387582 37.33095689 -26.93115234 14.68408203 C-22.39184493 10.72553051 -17.32458595 7.79299987 -12 5 C-11.02289063 4.47664062 -10.04578125 3.95328125 -9.0390625 3.4140625 C-2.45614641 0 -2.45614641 0 0 0 Z " fill="#000000" transform="translate(68,161)"/>
<path d="M0 0 C0.40089844 1.00417969 0.80179688 2.00835937 1.21484375 3.04296875 C9.67979401 23.65680751 21.36021918 36.35258266 42 45 C69.35254289 55.19311962 105.14935345 54.40624293 132.00976562 42.93164062 C150.97328634 34.05470306 161.73429113 19.38686742 169 0 C183.57968274 1.62484416 198.97259674 15.00983304 208.3125 25.75 C248.93100051 77.50690705 234.1566031 163.46916179 236 220 C161.75 220 87.5 220 11 220 C9.89727127 196.84269663 9.89727127 196.84269663 9.5703125 188.4296875 C9.45997105 185.79143928 9.34769627 183.15327948 9.23486328 180.51513672 C9.16147837 178.75161585 9.09183108 176.98793557 9.02587891 175.22412109 C8.6646777 165.66197981 8.07115637 156.23204569 6.59765625 146.76953125 C6.48161041 146.02085785 6.36556458 145.27218445 6.2460022 144.50082397 C1.05244569 113.62074315 -18.00030956 84.1779393 -43.125 65.75 C-43.81464844 65.234375 -44.50429688 64.71875 -45.21484375 64.1875 C-48.71144673 61.59346184 -52.20823431 59.154077 -56 57 C-53.888778 39.8086209 -39.11054803 23.2659785 -26 13 C-7.75968992 0 -7.75968992 0 0 0 Z " fill="#000000" transform="translate(591,162)"/>
<path d="M0 0 C14.93075984 14.45424623 24.25877932 33.68727609 27.203125 54.1328125 C27.33332031 55.02484375 27.46351563 55.916875 27.59765625 56.8359375 C27.89233347 59.27193588 28.07658033 61.68244754 28.203125 64.1328125 C28.28240234 65.56947266 28.28240234 65.56947266 28.36328125 67.03515625 C29.00754803 89.69654008 20.8340317 113.51173356 5.703125 130.5703125 C4.2173333 132.10502975 2.71752302 133.62631568 1.203125 135.1328125 C0.10677734 136.30070312 0.10677734 136.30070312 -1.01171875 137.4921875 C-16.46389342 153.67759366 -39.51842769 164.50332946 -62.00390625 165.3359375 C-90.50183785 165.82477402 -116.24492752 157.79167953 -137.11523438 137.82177734 C-156.24676252 118.60692373 -165.31748099 93.8959282 -166.046875 67.0078125 C-165.7849711 42.2142433 -155.78959407 19.50557632 -139.11572266 1.55712891 C-138.04283868 0.39844599 -136.99922686 -0.78728909 -135.96484375 -1.98046875 C-120.30031593 -19.23127787 -94.67060602 -27.34843573 -72.19140625 -28.76171875 C-44.16794197 -29.63241327 -20.33846556 -18.86744447 0 0 Z " fill="#000000" transform="translate(482.796875,89.8671875)"/>
<path d="M0 0 C3.03367786 2.66877015 5.89229318 5.48005764 8.73046875 8.35546875 C9.84035156 9.46728516 9.84035156 9.46728516 10.97265625 10.6015625 C26.15464404 26.69919547 34.50297118 48.95182383 34.13256836 71.02783203 C33.1635219 94.87576169 24.39508175 118.79489406 6.73046875 135.35546875 C-11.78944776 151.93739145 -35.66310671 161.39648143 -60.70703125 160.23046875 C-68.90280725 159.68568418 -76.44632919 157.89156173 -84.26953125 155.35546875 C-85.38070312 155.00613281 -86.491875 154.65679687 -87.63671875 154.296875 C-100.40385723 149.87277066 -110.70822613 141.75220752 -120.26953125 132.35546875 C-120.96691406 131.67097656 -121.66429688 130.98648438 -122.3828125 130.28125 C-138.9309061 112.89771866 -145.27533444 89.44556842 -145.34423828 66.02636719 C-145.16443389 59.5980663 -143.91985905 53.56482711 -142.26953125 47.35546875 C-142.00140625 46.32550781 -141.73328125 45.29554687 -141.45703125 44.234375 C-137.02470417 29.33463264 -128.88207319 17.47495568 -118.26953125 6.35546875 C-117.5528125 5.59621094 -116.83609375 4.83695313 -116.09765625 4.0546875 C-85.80524085 -25.23972196 -32.28645579 -27.05345297 0 0 Z " fill="#000000" transform="translate(208.26953125,19.64453125)"/>
<path d="M0 0 C0.64662598 0.20367188 1.29325195 0.40734375 1.95947266 0.6171875 C12.28594988 3.99420352 20.59867427 9.22555731 29 16 C29.99128906 16.79535156 30.98257813 17.59070313 32.00390625 18.41015625 C49.65898799 33.51151267 59.67428568 55.8410942 61.75 78.73046875 C62.8589096 94.46490075 59.76407108 109.8128939 53 124 C52.58105469 124.90234375 52.16210938 125.8046875 51.73046875 126.734375 C41.40407093 147.3276525 22.10050854 163.1829968 0.37768555 170.4206543 C-21.03433201 177.07536457 -45.20346664 176.20300334 -65.375 166.1875 C-67.9432864 164.83686345 -70.47410514 163.42795388 -73 162 C-73.98613281 161.46632812 -74.97226562 160.93265625 -75.98828125 160.3828125 C-94.65102721 149.5254697 -107.85286684 130.10307238 -113.9921875 109.703125 C-120.5632377 84.54538994 -116.38387108 60.30587483 -103.71582031 37.88598633 C-91.40295378 17.17502348 -70.88300705 4.1550609 -48 -2 C-31.9999336 -5.94085547 -15.6308847 -4.99818075 0 0 Z " fill="#000000" transform="translate(703,5)"/>
</svg>
