<?xml version="1.0" encoding="UTF-8"?>
<svg version="1.1" xmlns="http://www.w3.org/2000/svg" width="512" height="512">
<path d="M0 0 C5.4521357 2.53134872 6.4759981 4.71399714 10 10 C10 17.26 10 24.52 10 32 C31.12 32 52.24 32 74 32 C74 24.74 74 17.48 74 10 C79.17241379 2.24137931 79.17241379 2.24137931 84 0 C89.5997712 -0.75381535 94.33499991 -0.77303575 99.5 1.625 C102 4 102 4 106 10 C106 17.26 106 24.52 106 32 C127.12 32 148.24 32 170 32 C170 24.74 170 17.48 170 10 C175.17241379 2.24137931 175.17241379 2.24137931 180 0 C185.5997712 -0.75381535 190.33499991 -0.77303575 195.5 1.625 C198 4 198 4 202 10 C202 17.26 202 24.52 202 32 C223.12 32 244.24 32 266 32 C266 24.74 266 17.48 266 10 C271.17241379 2.24137931 271.17241379 2.24137931 276 0 C281.5997712 -0.75381535 286.33499991 -0.77303575 291.5 1.625 C295.06513686 5.01188002 297.69639119 7.58455122 298.3203125 12.54833984 C298.39313609 15.50022395 298.3490024 18.42396697 298.25 21.375 C298.23195313 22.39722656 298.21390625 23.41945313 298.1953125 24.47265625 C298.14839491 26.98274749 298.08276729 29.49087764 298 32 C299.20422607 31.97381592 300.40845215 31.94763184 301.64916992 31.9206543 C306.17599433 31.82920993 310.70273959 31.77241288 315.23022461 31.7253418 C317.17860709 31.70040996 319.12689813 31.66645151 321.07495117 31.62280273 C337.92579468 31.25506931 351.54290898 33.2308755 364.375 45.21875 C369.8352346 50.89452017 373.28502438 56.62922283 376 64 C376.34510054 64.86436739 376.69020107 65.72873478 377.0457592 66.61929512 C378.21551545 70.76353279 378.27154788 74.45083923 378.24050903 78.73190308 C378.24307231 80.03203722 378.24307231 80.03203722 378.24568737 81.3584367 C378.24897532 84.25580687 378.23798997 87.15294422 378.22705078 90.05029297 C378.22648652 92.12996922 378.22680352 94.20964588 378.22793579 96.2893219 C378.22850971 101.93138356 378.21674895 107.57336022 378.20278788 113.21540213 C378.19028713 119.11308963 378.18911053 125.01077907 378.18673706 130.90847778 C378.18052037 142.07495125 378.16410696 153.24138557 378.14403808 164.4078418 C378.12168499 177.1211556 378.11068713 189.83447127 378.10064721 202.54779983 C378.07974093 228.69855492 378.04456124 254.84927527 378 281 C377.25542542 280.59193619 376.51085083 280.18387238 375.74371338 279.76344299 C374.76126648 279.22606003 373.77881958 278.68867706 372.76660156 278.13500977 C371.79515198 277.60319595 370.82370239 277.07138214 369.82281494 276.52345276 C347.32856579 264.38346957 324.2886751 257.7715741 298.625 257.75 C297.54786743 257.74898788 297.54786743 257.74898788 296.44897461 257.74795532 C257.75650182 257.80577141 222.24837763 273.74241994 195 301 C169.39123872 327.27139285 155.78061959 362.95117813 155.75 399.375 C155.74932526 400.09308838 155.74865051 400.81117676 155.74795532 401.55102539 C155.78665729 427.45168492 162.84176418 450.08137109 175.23046875 472.75 C176.53705302 475.14973094 177.78861629 477.55262583 179 480 C144.57835479 480.0915389 110.15673735 480.16203025 75.73499673 480.20426132 C71.67196377 480.20926419 67.60893104 480.21444148 63.54589844 480.21972656 C62.33257433 480.22130043 62.33257433 480.22130043 61.09473862 480.22290608 C47.99433889 480.24031526 34.89400931 480.27185576 21.79365121 480.30861118 C8.35325912 480.34600636 -5.0870962 480.36823284 -18.52753818 480.37635398 C-26.82223378 480.38184472 -35.1167311 480.39919181 -43.41136567 480.43166587 C-49.09793424 480.45279621 -54.78440017 480.45920342 -60.47100516 480.45400551 C-63.75283547 480.45144137 -67.03424558 480.45757548 -70.3160305 480.4768219 C-73.87438699 480.4966706 -77.43188938 480.4919569 -80.99026489 480.48101807 C-82.02723483 480.49266943 -83.06420477 480.5043208 -84.13259804 480.51632524 C-89.91205763 480.46817533 -93.55209966 480.07122747 -98 476 C-101.48963466 471.55328226 -102.50059385 468.68187369 -102.50615788 463.05107784 C-102.51532791 462.03351116 -102.51532791 462.03351116 -102.52468321 460.99538758 C-102.54027748 458.72337201 -102.52742035 456.45242482 -102.5146637 454.18040466 C-102.5199892 452.53456485 -102.52705491 450.88872991 -102.53571075 449.24290425 C-102.55436576 444.72082445 -102.54802319 440.19907151 -102.53755772 435.67697799 C-102.53057348 430.79945946 -102.5465581 425.9220086 -102.55955505 421.04450989 C-102.58121625 411.48773893 -102.58106223 401.93108696 -102.57292951 392.37429952 C-102.56663176 384.60423285 -102.56776451 376.8342009 -102.57420158 369.0641346 C-102.57510324 367.95855644 -102.57600489 366.85297828 -102.57693387 365.71389775 C-102.57878508 363.46790145 -102.58064764 361.22190516 -102.58252143 358.97590888 C-102.5991085 337.90347055 -102.59037431 316.83109912 -102.57353585 295.75866479 C-102.55885124 276.49105448 -102.57344826 257.22360029 -102.60230602 237.9560101 C-102.63172197 218.1680932 -102.64266503 198.38024829 -102.63312382 178.59231049 C-102.63210128 176.35239892 -102.63110667 174.11248735 -102.6301403 171.87257576 C-102.62966391 170.77053084 -102.62918752 169.66848591 -102.6286967 168.53304569 C-102.62653476 160.77849208 -102.63632542 153.02400677 -102.65091133 145.26946831 C-102.6684562 135.8097508 -102.66828694 126.35023201 -102.64555968 116.89052223 C-102.63443483 112.06658859 -102.63121488 107.24300478 -102.64986038 102.41908646 C-102.66673393 97.99652002 -102.66022158 93.57460663 -102.63564359 89.15208197 C-102.63078219 87.55850368 -102.63421585 85.96487203 -102.64713103 84.37133866 C-102.75856946 69.54258695 -99.09911029 56.66947017 -88.78125 45.625 C-83.10547983 40.1647654 -77.37077717 36.71497562 -70 34 C-69.15711426 33.65396729 -68.31422852 33.30793457 -67.44580078 32.95141602 C-62.96469203 31.71414233 -58.85109494 31.75091326 -54.2265625 31.8046875 C-53.3028183 31.8075174 -52.3790741 31.81034729 -51.42733765 31.81326294 C-48.49309024 31.82440821 -45.5591543 31.84950235 -42.625 31.875 C-40.62891068 31.88503711 -38.63281654 31.89416168 -36.63671875 31.90234375 C-31.75769351 31.92432903 -26.87889946 31.95881983 -22 32 C-22.0314209 31.04746338 -22.0314209 31.04746338 -22.06347656 30.07568359 C-22.14704581 27.17561924 -22.19878774 24.27580884 -22.25 21.375 C-22.28351563 20.37597656 -22.31703125 19.37695312 -22.3515625 18.34765625 C-22.43315123 12.18770715 -22.1132688 8.68372214 -18 4 C-12.72867143 -1.00776214 -6.89190982 -0.92775709 0 0 Z M-65.9375 69.75 C-76.12328537 85.80032846 -70 114.76339026 -70 128 C67.28 128 204.56 128 346 128 C349.61800232 100.3614229 349.61800232 100.3614229 340.25 68.0625 C334.47744813 64.39914977 329.06186252 63.75050713 322.31640625 63.8046875 C321.61603745 63.8075174 320.91566864 63.81034729 320.19407654 63.81326294 C317.9833683 63.82435115 315.77308329 63.84943297 313.5625 63.875 C312.05274028 63.88504454 310.54297412 63.8941678 309.03320312 63.90234375 C305.35533403 63.92425286 301.6777084 63.95870242 298 64 C297.98598145 64.95253662 297.98598145 64.95253662 297.97167969 65.92431641 C297.91771267 68.825308 297.83411873 71.72473244 297.75 74.625 C297.73582031 75.62402344 297.72164063 76.62304688 297.70703125 77.65234375 C297.51234004 83.5320184 297.14032476 87.47419673 293 92 C287.77740143 96.05630398 282.34659858 95.77397544 276 95 C270.93805921 92.60223857 269.97785351 90.96308918 267 86 C266.67 78.74 266.34 71.48 266 64 C244.88 64 223.76 64 202 64 C201.67 71.26 201.34 78.52 201 86 C196.24385102 93.13422347 196.24385102 93.13422347 192 95 C186.45191396 95.82885269 181.52859117 95.7240695 176.4375 93.3125 C167.35043028 84.69143386 170.65996003 78.51912073 170 64 C148.88 64 127.76 64 106 64 C105.67 71.26 105.34 78.52 105 86 C100.24385102 93.13422347 100.24385102 93.13422347 96 95 C90.45191396 95.82885269 85.52859117 95.7240695 80.4375 93.3125 C71.35043028 84.69143386 74.65996003 78.51912073 74 64 C52.88 64 31.76 64 10 64 C9.67 71.26 9.34 78.52 9 86 C4.24385102 93.13422347 4.24385102 93.13422347 0 95 C-5.54808604 95.82885269 -10.47140883 95.7240695 -15.5625 93.3125 C-20.6670698 88.46970301 -21.37081672 84.58042915 -21.61914062 77.74023438 C-21.65297852 76.22913086 -21.65297852 76.22913086 -21.6875 74.6875 C-21.72166016 73.66076172 -21.75582031 72.63402344 -21.79101562 71.57617188 C-21.87323409 69.05089037 -21.94246936 66.5259446 -22 64 C-26.3924631 63.92517425 -30.78457672 63.87108317 -35.17749023 63.83520508 C-36.66811598 63.82022958 -38.15869851 63.79984181 -39.64916992 63.77368164 C-53.96481803 63.08455027 -53.96481803 63.08455027 -65.9375 69.75 Z M-32.60449219 196.45239258 C-36.69496214 201.17189037 -37.35590438 204.40303979 -37.27734375 210.4609375 C-36.86623556 214.22460402 -35.5171364 216.21790187 -33 219 C-25.45567846 224.93914675 -17.62897867 224.2155471 -8.4453125 224.24023438 C-6.27043958 224.24990908 -4.09652541 224.28095475 -1.921875 224.3125 C10.14061777 224.68633223 10.14061777 224.68633223 20.60449219 219.54760742 C24.69496214 214.82810963 25.35590438 211.59696021 25.27734375 205.5390625 C24.86623556 201.77539598 23.5171364 199.78209813 21 197 C13.45567846 191.06085325 5.62897867 191.7844529 -3.5546875 191.75976562 C-5.72956042 191.75009092 -7.90347459 191.71904525 -10.078125 191.6875 C-22.14061777 191.31366777 -22.14061777 191.31366777 -32.60449219 196.45239258 Z M63.39550781 196.45239258 C59.30503786 201.17189037 58.64409562 204.40303979 58.72265625 210.4609375 C59.13376444 214.22460402 60.4828636 216.21790187 63 219 C70.54432154 224.93914675 78.37102133 224.2155471 87.5546875 224.24023438 C89.72956042 224.24990908 91.90347459 224.28095475 94.078125 224.3125 C106.14061777 224.68633223 106.14061777 224.68633223 116.60449219 219.54760742 C120.69496214 214.82810963 121.35590438 211.59696021 121.27734375 205.5390625 C120.86623556 201.77539598 119.5171364 199.78209813 117 197 C109.45567846 191.06085325 101.62897867 191.7844529 92.4453125 191.75976562 C90.27043958 191.75009092 88.09652541 191.71904525 85.921875 191.6875 C73.85938223 191.31366777 73.85938223 191.31366777 63.39550781 196.45239258 Z M159.39550781 196.45239258 C155.30503786 201.17189037 154.64409562 204.40303979 154.72265625 210.4609375 C155.13376444 214.22460402 156.4828636 216.21790187 159 219 C166.54432154 224.93914675 174.37102133 224.2155471 183.5546875 224.24023438 C185.72956042 224.24990908 187.90347459 224.28095475 190.078125 224.3125 C202.14061777 224.68633223 202.14061777 224.68633223 212.60449219 219.54760742 C216.69496214 214.82810963 217.35590438 211.59696021 217.27734375 205.5390625 C216.86623556 201.77539598 215.5171364 199.78209813 213 197 C205.45567846 191.06085325 197.62897867 191.7844529 188.4453125 191.75976562 C186.27043958 191.75009092 184.09652541 191.71904525 181.921875 191.6875 C169.85938223 191.31366777 169.85938223 191.31366777 159.39550781 196.45239258 Z M255.39550781 196.45239258 C251.30503786 201.17189037 250.64409562 204.40303979 250.72265625 210.4609375 C251.13376444 214.22460402 252.4828636 216.21790187 255 219 C262.54432154 224.93914675 270.37102133 224.2155471 279.5546875 224.24023438 C281.72956042 224.24990908 283.90347459 224.28095475 286.078125 224.3125 C298.14061777 224.68633223 298.14061777 224.68633223 308.60449219 219.54760742 C312.69496214 214.82810963 313.35590438 211.59696021 313.27734375 205.5390625 C312.86623556 201.77539598 311.5171364 199.78209813 309 197 C301.45567846 191.06085325 293.62897867 191.7844529 284.4453125 191.75976562 C282.27043958 191.75009092 280.09652541 191.71904525 277.921875 191.6875 C265.85938223 191.31366777 265.85938223 191.31366777 255.39550781 196.45239258 Z M-32.60449219 260.45239258 C-36.69496214 265.17189037 -37.35590438 268.40303979 -37.27734375 274.4609375 C-36.86623556 278.22460402 -35.5171364 280.21790187 -33 283 C-25.45567846 288.93914675 -17.62897867 288.2155471 -8.4453125 288.24023438 C-6.27043958 288.24990908 -4.09652541 288.28095475 -1.921875 288.3125 C10.14061777 288.68633223 10.14061777 288.68633223 20.60449219 283.54760742 C24.69496214 278.82810963 25.35590438 275.59696021 25.27734375 269.5390625 C24.86623556 265.77539598 23.5171364 263.78209813 21 261 C13.45567846 255.06085325 5.62897867 255.7844529 -3.5546875 255.75976562 C-5.72956042 255.75009092 -7.90347459 255.71904525 -10.078125 255.6875 C-22.14061777 255.31366777 -22.14061777 255.31366777 -32.60449219 260.45239258 Z M63.39550781 260.45239258 C59.30503786 265.17189037 58.64409562 268.40303979 58.72265625 274.4609375 C59.13376444 278.22460402 60.4828636 280.21790187 63 283 C70.54432154 288.93914675 78.37102133 288.2155471 87.5546875 288.24023438 C89.72956042 288.24990908 91.90347459 288.28095475 94.078125 288.3125 C106.14061777 288.68633223 106.14061777 288.68633223 116.60449219 283.54760742 C120.69496214 278.82810963 121.35590438 275.59696021 121.27734375 269.5390625 C120.86623556 265.77539598 119.5171364 263.78209813 117 261 C109.45567846 255.06085325 101.62897867 255.7844529 92.4453125 255.75976562 C90.27043958 255.75009092 88.09652541 255.71904525 85.921875 255.6875 C73.85938223 255.31366777 73.85938223 255.31366777 63.39550781 260.45239258 Z M159.39550781 260.45239258 C155.30503786 265.17189037 154.64409562 268.40303979 154.72265625 274.4609375 C155.13376444 278.22460402 156.4828636 280.21790187 159 283 C166.54432154 288.93914675 174.37102133 288.2155471 183.5546875 288.24023438 C185.72956042 288.24990908 187.90347459 288.28095475 190.078125 288.3125 C202.14061777 288.68633223 202.14061777 288.68633223 212.60449219 283.54760742 C216.69496214 278.82810963 217.35590438 275.59696021 217.27734375 269.5390625 C216.86623556 265.77539598 215.5171364 263.78209813 213 261 C205.45567846 255.06085325 197.62897867 255.7844529 188.4453125 255.75976562 C186.27043958 255.75009092 184.09652541 255.71904525 181.921875 255.6875 C169.85938223 255.31366777 169.85938223 255.31366777 159.39550781 260.45239258 Z M-32.60449219 324.45239258 C-36.69496214 329.17189037 -37.35590438 332.40303979 -37.27734375 338.4609375 C-36.86623556 342.22460402 -35.5171364 344.21790187 -33 347 C-25.45567846 352.93914675 -17.62897867 352.2155471 -8.4453125 352.24023438 C-6.27043958 352.24990908 -4.09652541 352.28095475 -1.921875 352.3125 C10.14061777 352.68633223 10.14061777 352.68633223 20.60449219 347.54760742 C24.69496214 342.82810963 25.35590438 339.59696021 25.27734375 333.5390625 C24.86623556 329.77539598 23.5171364 327.78209813 21 325 C13.45567846 319.06085325 5.62897867 319.7844529 -3.5546875 319.75976562 C-5.72956042 319.75009092 -7.90347459 319.71904525 -10.078125 319.6875 C-22.14061777 319.31366777 -22.14061777 319.31366777 -32.60449219 324.45239258 Z M63.39550781 324.45239258 C59.30503786 329.17189037 58.64409562 332.40303979 58.72265625 338.4609375 C59.13376444 342.22460402 60.4828636 344.21790187 63 347 C70.54432154 352.93914675 78.37102133 352.2155471 87.5546875 352.24023438 C89.72956042 352.24990908 91.90347459 352.28095475 94.078125 352.3125 C106.14061777 352.68633223 106.14061777 352.68633223 116.60449219 347.54760742 C120.69496214 342.82810963 121.35590438 339.59696021 121.27734375 333.5390625 C120.86623556 329.77539598 119.5171364 327.78209813 117 325 C109.45567846 319.06085325 101.62897867 319.7844529 92.4453125 319.75976562 C90.27043958 319.75009092 88.09652541 319.71904525 85.921875 319.6875 C73.85938223 319.31366777 73.85938223 319.31366777 63.39550781 324.45239258 Z M-32.60449219 388.45239258 C-36.69496214 393.17189037 -37.35590438 396.40303979 -37.27734375 402.4609375 C-36.86623556 406.22460402 -35.5171364 408.21790187 -33 411 C-25.45567846 416.93914675 -17.62897867 416.2155471 -8.4453125 416.24023438 C-6.27043958 416.24990908 -4.09652541 416.28095475 -1.921875 416.3125 C10.14061777 416.68633223 10.14061777 416.68633223 20.60449219 411.54760742 C24.69496214 406.82810963 25.35590438 403.59696021 25.27734375 397.5390625 C24.86623556 393.77539598 23.5171364 391.78209813 21 389 C13.45567846 383.06085325 5.62897867 383.7844529 -3.5546875 383.75976562 C-5.72956042 383.75009092 -7.90347459 383.71904525 -10.078125 383.6875 C-22.14061777 383.31366777 -22.14061777 383.31366777 -32.60449219 388.45239258 Z M63.39550781 388.45239258 C59.30503786 393.17189037 58.64409562 396.40303979 58.72265625 402.4609375 C59.13376444 406.22460402 60.4828636 408.21790187 63 411 C70.54432154 416.93914675 78.37102133 416.2155471 87.5546875 416.24023438 C89.72956042 416.24990908 91.90347459 416.28095475 94.078125 416.3125 C106.14061777 416.68633223 106.14061777 416.68633223 116.60449219 411.54760742 C120.69496214 406.82810963 121.35590438 403.59696021 121.27734375 397.5390625 C120.86623556 393.77539598 119.5171364 391.78209813 117 389 C109.45567846 383.06085325 101.62897867 383.7844529 92.4453125 383.75976562 C90.27043958 383.75009092 88.09652541 383.71904525 85.921875 383.6875 C73.85938223 383.31366777 73.85938223 383.31366777 63.39550781 388.45239258 Z " fill="#000000" transform="translate(102,0)"/>
<path d="M0 0 C20.47653457 17.42614749 34.46552361 44.09519605 37.27734375 70.84765625 C38.77908105 106.10455366 31.09275224 134.93222746 8.02734375 162.03515625 C-9.96091214 181.32186018 -36.94782104 195.83498754 -63.64013672 196.97192383 C-98.54724586 197.79890023 -128.30736764 189.61142296 -154.2890625 165.37890625 C-178.1471984 140.56338127 -187.25313373 111.67215717 -186.93359375 77.8359375 C-186.32992607 49.86227533 -172.82664923 22.17603221 -152.72265625 2.84765625 C-107.93780416 -36.60768535 -46.31032515 -36.60974054 0 0 Z M-85.72265625 9.84765625 C-90.1951325 15.52890986 -90.83982854 20.07370773 -90.88378906 27.14746094 C-90.89339661 28.39936218 -90.90300415 29.65126343 -90.91290283 30.94110107 C-90.91775215 32.30057593 -90.92203065 33.66005292 -90.92578125 35.01953125 C-90.92860863 35.70979652 -90.931436 36.4000618 -90.93434906 37.1112442 C-90.9493061 40.7655729 -90.95855701 44.41986249 -90.96289062 48.07421875 C-90.96836408 51.82758653 -90.99237791 55.58058951 -91.02086258 59.33384323 C-91.0395925 62.23884081 -91.04470007 65.14375241 -91.0462265 68.04880524 C-91.04923125 69.43134806 -91.05718516 70.81389017 -91.07041168 72.19637299 C-91.40984256 84.50240314 -91.40984256 84.50240314 -86.4475708 95.42279053 C-79.15169791 102.16192476 -69.60816232 101.15915746 -60.35546875 101.1484375 C-58.95213699 101.15233156 -57.5488064 101.15666768 -56.14547729 101.16142273 C-53.21201752 101.16885847 -50.27867816 101.16861321 -47.34521484 101.16333008 C-43.60756533 101.15754204 -39.87041244 101.17446276 -36.13284492 101.19767475 C-33.23641128 101.21249068 -30.34009505 101.21327314 -27.44363022 101.21016502 C-26.06667982 101.2106744 -24.68972217 101.21583918 -23.31280899 101.22597694 C-10.92364993 101.60745007 -10.92364993 101.60745007 -0.11184692 96.39570618 C3.96696425 91.66696076 4.63328048 88.4471111 4.5546875 82.38671875 C4.14357931 78.62305223 2.79448015 76.62975438 0.27734375 73.84765625 C-4.93610932 69.74344852 -9.18189408 68.71694184 -15.6965332 68.73413086 C-16.65715164 68.73420639 -17.61777008 68.73428192 -18.60749817 68.73435974 C-20.14370064 68.74210167 -20.14370064 68.74210167 -21.7109375 68.75 C-22.76927292 68.75141495 -23.82760834 68.7528299 -24.91801453 68.75428772 C-28.29042414 68.75987466 -31.66276679 68.77242481 -35.03515625 68.78515625 C-37.32486883 68.79017294 -39.61458246 68.79473555 -41.90429688 68.79882812 C-47.51043942 68.80983982 -53.11654305 68.82656499 -58.72265625 68.84765625 C-58.71599442 68.2662941 -58.70933258 67.68493195 -58.70246887 67.08595276 C-58.63578707 61.00210128 -58.59072008 54.91835465 -58.55786133 48.83422852 C-58.54283117 46.56758401 -58.52240143 44.30096831 -58.49633789 42.03442383 C-58.45970037 38.76506412 -58.44287165 35.49609098 -58.4296875 32.2265625 C-58.41420364 31.22307266 -58.39871979 30.21958282 -58.38276672 29.1856842 C-58.3812288 22.66785954 -58.60572387 15.33224209 -63.17488098 10.22413635 C-67.92039048 6.16762532 -71.11921439 5.49166781 -77.18359375 5.5703125 C-80.94726027 5.98142069 -82.94055812 7.33051985 -85.72265625 9.84765625 Z " fill="#000000" transform="translate(474.72265625,315.15234375)"/>
</svg>
