<?xml version="1.0" encoding="UTF-8"?>
<svg version="1.1" xmlns="http://www.w3.org/2000/svg" width="1600" height="1600">
<path d="M0 0 C0.92586914 0.43957031 1.85173828 0.87914062 2.80566406 1.33203125 C29.5255494 14.08953618 54.83812684 29.92560964 79 47 C79.72574219 47.51175781 80.45148437 48.02351563 81.19921875 48.55078125 C91.17270334 55.60603455 100.88380406 62.9110812 110.34082031 70.64501953 C111.89590876 71.91499318 113.45938668 73.17467429 115.0234375 74.43359375 C120.3806164 78.76285457 125.5656381 83.23545497 130.65625 87.875 C132.80692711 89.82494724 134.98824971 91.73026129 137.1875 93.625 C140.35111047 96.37651692 143.30129787 99.27974817 146.23828125 102.26953125 C147.99441576 103.99451481 149.81364395 105.59182464 151.6875 107.1875 C159.49378518 113.93067241 166.75377485 121.36392681 173.43359375 129.21875 C175.00773347 131.00879417 176.6608315 132.65690218 178.375 134.3125 C182.14011144 138.0103773 185.37981173 142.0748293 188.68359375 146.18359375 C190.85985421 148.82960351 193.11573459 151.35668303 195.4375 153.875 C200.66625507 159.63564567 205.35141943 165.77165281 210 172 C210.53818359 172.71897461 211.07636719 173.43794922 211.63085938 174.17871094 C267.45669802 248.89702266 307.11257937 334.0620639 329 455 C329.15452637 456.04091797 329.30905273 457.08183594 329.46826172 458.15429688 C343.35310855 552.67746115 331.88326393 651.75748218 273 805 C272.56042969 805.92586914 272.12085938 806.85173828 271.66796875 807.80566406 C258.91046382 834.5255494 243.07439036 859.83812684 226 884 C225.23236328 885.08861328 225.23236328 885.08861328 224.44921875 886.19921875 C217.39396545 896.17270334 210.0889188 905.88380406 202.35498047 915.34082031 C201.08500682 916.89590876 199.82532571 918.45938668 198.56640625 920.0234375 C194.23714543 925.3806164 189.76454503 930.5656381 185.125 935.65625 C183.17505276 937.80692711 181.26973871 939.98824971 179.375 942.1875 C176.62348308 945.35111047 173.72025183 948.30129787 170.73046875 951.23828125 C169.00548519 952.99441576 167.40817536 954.81364395 165.8125 956.6875 C159.06932759 964.49378518 151.63607319 971.75377485 143.78125 978.43359375 C141.99120583 980.00773347 140.34309782 981.6608315 138.6875 983.375 C134.9896227 987.14011144 130.9251707 990.37981173 126.81640625 993.68359375 C124.17039649 995.85985421 121.64331697 998.11573459 119.125 1000.4375 C113.36435433 1005.66625507 107.22834719 1010.35141943 101 1015 C100.28102539 1015.53818359 99.56205078 1016.07636719 98.82128906 1016.63085938 C24.10297734 1072.45669802 -61.0620639 1112.11257937 -182 1134 C-183.04091797 1134.15452637 -184.08183594 1134.30905273 -185.15429688 1134.46826172 C-279.67746115 1148.35310855 -378.75748218 1136.88326393 -532 1078 C-532.92586914 1077.56042969 -533.85173828 1077.12085938 -534.80566406 1076.66796875 C-561.5255494 1063.91046382 -586.83812684 1048.07439036 -611 1031 C-612.08861328 1030.23236328 -612.08861328 1030.23236328 -613.19921875 1029.44921875 C-623.17270334 1022.39396545 -632.88380406 1015.0889188 -642.34082031 1007.35498047 C-643.89590876 1006.08500682 -645.45938668 1004.82532571 -647.0234375 1003.56640625 C-652.3806164 999.23714543 -657.5656381 994.76454503 -662.65625 990.125 C-664.80692711 988.17505276 -666.98824971 986.26973871 -669.1875 984.375 C-672.35111047 981.62348308 -675.30129787 978.72025183 -678.23828125 975.73046875 C-679.99441576 974.00548519 -681.81364395 972.40817536 -683.6875 970.8125 C-691.49378518 964.06932759 -698.75377485 956.63607319 -705.43359375 948.78125 C-707.00773347 946.99120583 -708.6608315 945.34309782 -710.375 943.6875 C-714.14011144 939.9896227 -717.37981173 935.9251707 -720.68359375 931.81640625 C-722.85985421 929.17039649 -725.11573459 926.64331697 -727.4375 924.125 C-732.66625507 918.36435433 -737.35141943 912.22834719 -742 906 C-742.53818359 905.28102539 -743.07636719 904.56205078 -743.63085938 903.82128906 C-799.45669802 829.10297734 -839.11257937 743.9379361 -861 623 C-861.15452637 621.95908203 -861.30905273 620.91816406 -861.46826172 619.84570312 C-875.35310855 525.32253885 -863.88326393 426.24251782 -805 273 C-804.56042969 272.07413086 -804.12085938 271.14826172 -803.66796875 270.19433594 C-790.91046382 243.4744506 -775.07439036 218.16187316 -758 194 C-757.48824219 193.27425781 -756.97648437 192.54851562 -756.44921875 191.80078125 C-749.39396545 181.82729666 -742.0889188 172.11619594 -734.35498047 162.65917969 C-733.08500682 161.10409124 -731.82532571 159.54061332 -730.56640625 157.9765625 C-726.23714543 152.6193836 -721.76454503 147.4343619 -717.125 142.34375 C-715.17505276 140.19307289 -713.26973871 138.01175029 -711.375 135.8125 C-708.62348308 132.64888953 -705.72025183 129.69870213 -702.73046875 126.76171875 C-701.00548519 125.00558424 -699.40817536 123.18635605 -697.8125 121.3125 C-691.06932759 113.50621482 -683.63607319 106.24622515 -675.78125 99.56640625 C-673.99120583 97.99226653 -672.34309782 96.3391685 -670.6875 94.625 C-666.9896227 90.85988856 -662.9251707 87.62018827 -658.81640625 84.31640625 C-656.17039649 82.14014579 -653.64331697 79.88426541 -651.125 77.5625 C-645.36435433 72.33374493 -639.22834719 67.64858057 -633 63 C-632.28102539 62.46181641 -631.56205078 61.92363281 -630.82128906 61.36914062 C-556.10297734 5.54330198 -470.9379361 -34.11257937 -350 -56 C-348.95908203 -56.15452637 -347.91816406 -56.30905273 -346.84570312 -56.46826172 C-249.7975085 -70.72401932 -148.28240114 -58.21594109 0 0 Z M-328 43 C-329.27939453 43.17160645 -330.55878906 43.34321289 -331.87695312 43.52001953 C-418.21340599 55.18373654 -503.2714874 88.64940151 -571.31738281 143.65283203 C-573.05905678 145.04728313 -574.81894363 146.41514691 -576.5859375 147.77734375 C-583.16233697 152.85470446 -589.45444446 158.07448426 -595.546875 163.73046875 C-597.70242371 165.72469454 -599.89486135 167.65283403 -602.125 169.5625 C-605.88364138 172.82152647 -609.35061458 176.33190623 -612.83984375 179.875 C-614.70664364 181.71141797 -616.60522345 183.39968619 -618.625 185.0625 C-621.81860177 187.72871799 -624.43759385 190.70769989 -627.125 193.875 C-629.11593503 196.13139303 -631.21769016 198.21511543 -633.375 200.3125 C-637.52495389 204.4060878 -641.17984134 208.77287274 -644.8203125 213.3203125 C-646.79298447 215.74549703 -648.83143255 218.0659381 -650.9375 220.375 C-665.31239926 236.41942496 -677.62656594 254.7482885 -689 273 C-689.46196777 273.73847168 -689.92393555 274.47694336 -690.39990234 275.23779297 C-728.72972226 336.85196013 -752.4043205 405.13558309 -762 477 C-762.15243164 478.08748535 -762.30486328 479.1749707 -762.46191406 480.29541016 C-767.77235651 519.63053404 -767.54176548 561.70482783 -762 601 C-761.82839355 602.27939453 -761.65678711 603.55878906 -761.47998047 604.87695312 C-749.81626346 691.21340599 -716.35059849 776.2714874 -661.34716797 844.31738281 C-659.95271687 846.05905678 -658.58485309 847.81894363 -657.22265625 849.5859375 C-652.14529554 856.16233697 -646.92551574 862.45444446 -641.26953125 868.546875 C-639.27530546 870.70242371 -637.34716597 872.89486135 -635.4375 875.125 C-632.17847353 878.88364138 -628.66809377 882.35061458 -625.125 885.83984375 C-623.28858203 887.70664364 -621.60031381 889.60522345 -619.9375 891.625 C-617.27128201 894.81860177 -614.29230011 897.43759385 -611.125 900.125 C-608.86860697 902.11593503 -606.78488457 904.21769016 -604.6875 906.375 C-600.5939122 910.52495389 -596.22712726 914.17984134 -591.6796875 917.8203125 C-589.25450297 919.79298447 -586.9340619 921.83143255 -584.625 923.9375 C-568.58057504 938.31239926 -550.2517115 950.62656594 -532 962 C-531.26152832 962.46196777 -530.52305664 962.92393555 -529.76220703 963.39990234 C-468.14803987 1001.72972226 -399.86441691 1025.4043205 -328 1035 C-326.91251465 1035.15243164 -325.8250293 1035.30486328 -324.70458984 1035.46191406 C-285.36946596 1040.77235651 -243.29517217 1040.54176548 -204 1035 C-202.0809082 1034.74259033 -202.0809082 1034.74259033 -200.12304688 1034.47998047 C-113.78659401 1022.81626346 -28.7285126 989.35059849 39.31738281 934.34716797 C41.05905678 932.95271687 42.81894363 931.58485309 44.5859375 930.22265625 C51.16233697 925.14529554 57.45444446 919.92551574 63.546875 914.26953125 C65.70242371 912.27530546 67.89486135 910.34716597 70.125 908.4375 C73.88364138 905.17847353 77.35061458 901.66809377 80.83984375 898.125 C82.70664364 896.28858203 84.60522345 894.60031381 86.625 892.9375 C89.81860177 890.27128201 92.43759385 887.29230011 95.125 884.125 C97.11593503 881.86860697 99.21769016 879.78488457 101.375 877.6875 C105.52495389 873.5939122 109.17984134 869.22712726 112.8203125 864.6796875 C114.79298447 862.25450297 116.83143255 859.9340619 118.9375 857.625 C133.31239926 841.58057504 145.62656594 823.2517115 157 805 C157.46196777 804.26152832 157.92393555 803.52305664 158.39990234 802.76220703 C196.72972226 741.14803987 220.4043205 672.86441691 230 601 C230.15243164 599.91251465 230.30486328 598.8250293 230.46191406 597.70458984 C235.77235651 558.36946596 235.54176548 516.29517217 230 477 C229.74259033 475.0809082 229.74259033 475.0809082 229.47998047 473.12304688 C217.81626346 386.78659401 184.35059849 301.7285126 129.34716797 233.68261719 C127.95271687 231.94094322 126.58485309 230.18105637 125.22265625 228.4140625 C120.14529554 221.83766303 114.92551574 215.54555554 109.26953125 209.453125 C107.27530546 207.29757629 105.34716597 205.10513865 103.4375 202.875 C100.17847353 199.11635862 96.66809377 195.64938542 93.125 192.16015625 C91.28858203 190.29335636 89.60031381 188.39477655 87.9375 186.375 C85.27128201 183.18139823 82.29230011 180.56240615 79.125 177.875 C76.86860697 175.88406497 74.78488457 173.78230984 72.6875 171.625 C68.5939122 167.47504611 64.22712726 163.82015866 59.6796875 160.1796875 C57.25450297 158.20701553 54.9340619 156.16856745 52.625 154.0625 C36.58057504 139.68760074 18.2517115 127.37343406 0 116 C-0.73847168 115.53803223 -1.47694336 115.07606445 -2.23779297 114.60009766 C-63.85196013 76.27027774 -132.13558309 52.5956795 -204 43 C-205.08748535 42.84756836 -206.1749707 42.69513672 -207.29541016 42.53808594 C-246.63053404 37.22764349 -288.70482783 37.45823452 -328 43 Z " fill="#000000" transform="translate(1066,261)"/>
<path d="M0 0 C1.02351562 0.6496875 2.04703125 1.299375 3.1015625 1.96875 C17.88367846 11.57916148 31.81643843 22.3105754 45 34 C46.35385283 35.16703084 47.70796995 36.33375525 49.0625 37.5 C62.09977533 48.98389784 75.08334638 60.74347755 85.890625 74.390625 C88.00326724 77.00404169 90.22035452 79.4691942 92.5 81.9375 C108 98.93574253 108 98.93574253 108 105 C105.97265625 106.8046875 105.97265625 106.8046875 103.0625 108.875 C101.95225078 109.67848089 100.84292834 110.48324345 99.734375 111.2890625 C99.13173828 111.72379883 98.52910156 112.15853516 97.90820312 112.60644531 C94.49887668 115.0962656 91.1598014 117.67775392 87.8125 120.25 C86.35039095 121.3699621 84.88814973 122.48975166 83.42578125 123.609375 C82.69311035 124.17076172 81.96043945 124.73214844 81.20556641 125.31054688 C77.63880566 128.04266823 74.06928486 130.77117759 70.5 133.5 C69.08853246 134.57941504 67.67707414 135.65884215 66.265625 136.73828125 C63.38059644 138.9445186 60.49513087 141.15018282 57.609375 143.35546875 C56.88645264 143.90807373 56.16353027 144.46067871 55.41870117 145.0300293 C53.98687072 146.12433268 52.55474759 147.21825322 51.12231445 148.31176758 C47.79882487 150.85074412 44.48239986 153.39776071 41.18359375 155.96875 C40.59094727 156.42934814 39.99830078 156.88994629 39.38769531 157.36450195 C37.80197126 158.59842479 36.21922709 159.83617445 34.63671875 161.07421875 C32.45881469 162.66489534 30.45434831 163.90982628 28 165 C27.34515625 164.15179687 26.6903125 163.30359375 26.015625 162.4296875 C7.22561414 138.14502104 7.22561414 138.14502104 -14.76953125 116.85546875 C-16.65599718 115.28616697 -18.49273196 113.68311607 -20.32421875 112.05078125 C-28.5208045 104.7735292 -36.91134324 98.12339208 -46 92 C-46.94601074 91.35514648 -46.94601074 91.35514648 -47.91113281 90.69726562 C-113.68885043 46.06354936 -194.42629927 30.03895932 -272.3828125 44.63330078 C-332.33506595 56.34820979 -394.86945614 88.47059489 -434.421875 136.11328125 C-436.24787082 138.29634061 -438.18535392 140.35482247 -440.125 142.4375 C-446.57465355 149.55782809 -452.24321493 157.31804325 -458 165 C-461.82854143 162.80627371 -465.27170246 160.33735119 -468.75 157.625 C-469.9060006 156.72754325 -471.06226398 155.8304249 -472.21875 154.93359375 C-472.83105469 154.45776855 -473.44335938 153.98194336 -474.07421875 153.49169922 C-477.45366466 150.87399961 -480.85263152 148.28186827 -484.25 145.6875 C-485.70315413 144.57686103 -487.15627885 143.46618357 -488.609375 142.35546875 C-489.33576172 141.80036621 -490.06214844 141.24526367 -490.81054688 140.67333984 C-493.66922273 138.48853116 -496.52730594 136.30294821 -499.38525391 134.1171875 C-500.79363474 133.04017126 -502.20216311 131.96334793 -503.61083984 130.88671875 C-507.23062173 128.11987878 -510.8478614 125.34981123 -514.4609375 122.57421875 C-522.23296436 116.60840922 -530.0287062 110.69870032 -538 105 C-537.48688395 100.52626947 -535.90923036 98.25900059 -533 94.875 C-531.77796875 93.43447266 -531.77796875 93.43447266 -530.53125 91.96484375 C-529.27828125 90.49724609 -529.27828125 90.49724609 -528 89 C-526.49636587 87.14877921 -524.99627581 85.29467332 -523.5 83.4375 C-519.82377796 78.94149325 -516.00798458 74.60207214 -512.09375 70.3125 C-510.31095614 68.34344409 -508.58881553 66.34109798 -506.875 64.3125 C-499.32076142 55.64370163 -490.98221582 47.25872066 -482.1875 39.84765625 C-480.35043366 38.29599129 -478.54730579 36.71818945 -476.75 35.12109375 C-429.12030713 -7.02604455 -369.91567474 -37.51039273 -308 -52 C-307.12005371 -52.2072168 -306.24010742 -52.41443359 -305.33349609 -52.62792969 C-204.05037858 -76.05685031 -94.38206516 -58.87282767 0 0 Z " fill="#000000" transform="translate(1015,962)"/>
<path d="M0 0 C3.66944815 3.00099539 6.96937735 6.29600157 10.25927734 9.70410156 C10.99662109 10.41050781 11.73396484 11.11691406 12.49365234 11.84472656 C25.43648307 24.98822133 30.58144102 43.74263241 30.75927734 61.70410156 C30.56206263 81.62278718 24.23758205 99.91986952 9.96240234 114.09472656 C9.07037109 114.95582031 8.17833984 115.81691406 7.25927734 116.70410156 C6.55287109 117.44144531 5.84646484 118.17878906 5.11865234 118.93847656 C-8.02484243 131.88130729 -26.77925351 137.02626523 -44.74072266 137.20410156 C-64.65940827 137.00688685 -82.95649061 130.68240626 -97.13134766 116.40722656 C-97.99244141 115.51519531 -98.85353516 114.62316406 -99.74072266 113.70410156 C-100.47806641 112.99769531 -101.21541016 112.29128906 -101.97509766 111.56347656 C-114.91792839 98.41998179 -120.06288633 79.66557071 -120.24072266 61.70410156 C-120.04350795 41.78541595 -113.71902736 23.48833361 -99.44384766 9.31347656 C-98.55181641 8.45238281 -97.65978516 7.59128906 -96.74072266 6.70410156 C-96.03431641 5.96675781 -95.32791016 5.22941406 -94.60009766 4.46972656 C-70.40433808 -19.35663211 -26.63378874 -19.82779112 0 0 Z " fill="#000000" transform="translate(1069.74072265625,613.2958984375)"/>
<path d="M0 0 C3.66944815 3.00099539 6.96937735 6.29600157 10.25927734 9.70410156 C10.99662109 10.41050781 11.73396484 11.11691406 12.49365234 11.84472656 C25.43648307 24.98822133 30.58144102 43.74263241 30.75927734 61.70410156 C30.56206263 81.62278718 24.23758205 99.91986952 9.96240234 114.09472656 C9.07037109 114.95582031 8.17833984 115.81691406 7.25927734 116.70410156 C6.55287109 117.44144531 5.84646484 118.17878906 5.11865234 118.93847656 C-8.02484243 131.88130729 -26.77925351 137.02626523 -44.74072266 137.20410156 C-64.65940827 137.00688685 -82.95649061 130.68240626 -97.13134766 116.40722656 C-97.99244141 115.51519531 -98.85353516 114.62316406 -99.74072266 113.70410156 C-100.47806641 112.99769531 -101.21541016 112.29128906 -101.97509766 111.56347656 C-114.91792839 98.41998179 -120.06288633 79.66557071 -120.24072266 61.70410156 C-120.04350795 41.78541595 -113.71902736 23.48833361 -99.44384766 9.31347656 C-98.55181641 8.45238281 -97.65978516 7.59128906 -96.74072266 6.70410156 C-96.03431641 5.96675781 -95.32791016 5.22941406 -94.60009766 4.46972656 C-70.40433808 -19.35663211 -26.63378874 -19.82779112 0 0 Z " fill="#000000" transform="translate(619.74072265625,613.2958984375)"/>
</svg>
