<?xml version="1.0" encoding="utf-8"?>
<!-- Generator: Adobe Illustrator 25.4.1, SVG Export Plug-In . SVG Version: 6.00 Build 0)  -->
<svg version="1.1" id="Layer_1" xmlns="http://www.w3.org/2000/svg" xmlns:xlink="http://www.w3.org/1999/xlink" x="0px" y="0px"
	 viewBox="0 0 792 612" enable-background="new 0 0 792 612" xml:space="preserve">
<g>
	<g>
		<path fill="#603913" d="M396.95,489.405c-7.491,0-13.5,0.33-19.462-0.063c-16.983-1.118-33.191-5.7-49.203-11.328
			c-18.093-6.36-33.761-17.243-49.184-27.989c-10.806-7.529-20.088-17.889-28.366-28.338
			c-10.986-13.867-20.032-29.224-26.609-45.864c-4.449-11.255-8.148-22.567-10.669-34.599c-4.218-20.128-2.885-40.262-1.805-60.135
			c1.05-19.315,7.812-37.843,16.524-55.546c11.862-24.106,27.851-45.061,48.294-61.734c21.087-17.198,44.439-31.306,71.954-36.444
			c7.607-1.42,14.979-4.378,22.618-5.298c7.72-0.929,15.636-0.205,23.465-0.205c6.909,0,13.875-0.585,20.716,0.103
			c27.804,2.795,53.928,10.412,77.788,25.909c15.077,9.793,29.212,20.352,41.423,33.612c17.984,19.528,30.454,42.098,39.027,67.242
			c5.971,17.51,9.106,35.188,8.173,53.647c-0.21,4.164-0.344,8.376,0.023,12.517c1.568,17.688-3.131,34.531-8.795,50.647
			c-11.025,31.368-28.97,58.758-54.596,80.035c-12.296,10.21-25.299,20.264-40.115,26.547
			c-14.942,6.337-30.155,11.931-46.446,15.014C419.467,489.453,407.506,488.551,396.95,489.405z M396.213,166.414
			c-4.146,0-8.332-0.362-12.426,0.1c-4.274,0.482-8.461,1.754-12.685,2.685c-6.335,1.397-12.737,2.542-18.988,4.25
			c-13.374,3.655-25.06,10.979-36.764,18.085c-15.636,9.494-28.382,22.789-37.478,38.125
			c-13.837,23.328-22.619,48.877-22.695,76.816c-0.021,7.765,1.608,15.06,2.966,22.501c1.096,6.007,1.909,12.137,3.742,17.925
			c9.063,28.632,28.019,55.723,52.623,72.312c23.371,15.758,49.304,25.201,77.853,25.578c9.351,0.123,18.576,0.179,27.98-2.319
			c7.04-1.87,14.217-3.338,21.297-5.444c24.546-7.299,55.241-28.343,68.894-50.206c6.615-10.594,13.725-21.2,18.164-32.754
			c4.47-11.635,6.51-24.357,8.447-36.788c1.2-7.697,0.882-15.813,0.001-23.598c-0.638-5.636-3.616-10.988-2.544-16.964
			c-5.643-3.009-2.281-9.008-4.263-13.541c-6.433-14.715-12.821-29.002-22.494-42.219c-11.13-15.208-25.192-25.637-40.79-35.2
			C445.158,172.335,421.33,167.267,396.213,166.414z"/>
		<path fill="#603913" d="M402.619,573.628c-5.961-0.858-12.463-1.795-18.31-2.637c-0.949-1.735-1.3-2.533-1.784-3.237
			c-5.925-8.613-5.657-16.862-0.931-26.388c3.206-6.461,3.299-14.489,4.674-21.273c-2.827-3.24-4.848-5.556-7.003-8.025
			c0.84-1.469,1.478-2.586,2.682-4.691c-1.297-1.564-3.008-3.626-5.234-6.309c13.239,0,25.856,0,38.453,0
			c0.047,0.667,0.221,1.14,0.07,1.299c-1.589,1.674-3.229,3.298-4.856,4.938c0.972,1.357,1.944,2.712,2.568,3.582
			c0,1.203,0.198,1.858-0.032,2.098c-1.591,1.664-3.271,3.241-5.153,5.07c0,5.335,0,10.807,0,16.24
			c2.751,6.621,5.54,13.334,8.154,19.626C414.895,562.926,408.453,567.5,402.619,573.628z"/>
		<path fill="#603913" d="M389.036,38.372c5.147,0,9.731,0,15.27,0c3.858,5.205,8.038,10.845,12.277,16.566
			c-2.908,7.534-5.523,14.308-9.055,23.457c0,2.826,0,8.348,0,14.007c1.902,2.187,3.92,4.506,6.077,6.986
			c-1.068,1.577-1.793,2.647-3.011,4.446c1.502,1.711,3.273,3.727,5.596,6.373c-13.627,0-26.234,0-41.113,0
			c3.808-2.667,5.971-4.182,8.098-5.671c-1.592-1.73-2.508-2.725-3.984-4.328c1.691-2.355,3.463-4.822,5.649-7.866
			c3.848-10.358-1.284-20.652-5.64-29.686c-3.693-7.66-0.271-11.579,2.681-16.501C383.73,43.07,386.805,40.733,389.036,38.372z"/>
		<path fill="#603913" d="M519.369,151.166c4.629,1.83,6.739,2.665,9.277,3.668c0-2.215,0-4.396,0-7.244c3.513,0,6.551,0,9.33,0
			c6.378-6.422,12.439-11.691,13.664-21.301c0.581-4.559,5.368-9.215,9.322-12.53c4.566-3.828,10.78-3.368,16.575-2.949
			c3.901,3.927,7.803,7.856,12.033,12.116c0,3.699,0,7.734,0,10.946c-4.082,9.165-9.953,14.224-19.672,16.311
			c-5.931,1.274-10.871,7.225-15.667,10.653c-0.228,4.313-0.394,7.441-0.564,10.639c-2.613,0.309-4.786,0.566-7.162,0.847
			c0.68,2.479,1.35,4.922,2.339,8.526C539.019,170.956,530.346,162.222,519.369,151.166z"/>
		<path fill="#603913" d="M252.605,147.111c4.617,0,7.325,0,10.474,0c0.385,2.668,0.753,5.22,1.108,7.678
			c2.439-0.958,4.551-1.788,6.65-2.612c-9.043,9.107-17.8,17.926-26.423,26.61c0.506-1.389,1.289-3.537,2.23-6.121
			c-2.119-0.367-4.647-0.806-7.519-1.304c0-2.718,0-5.396,0-8.894c-6.043-5.189-10.622-11.729-20.301-13.249
			c-6.942-1.09-13.631-6.236-15.864-14.543c0-3.666,0-7.332,0-11.576c4.035-3.672,8.445-7.686,13.533-12.316
			c15.558,0.001,18.907,2.967,25.252,19.565C244.047,136.37,248.832,141.43,252.605,147.111z"/>
		<path fill="#603913" d="M238.87,448.518c0-2.559,0-5.308,0-8.605c2.552-0.399,5.083-0.795,7.661-1.198
			c-0.875-2.324-1.672-4.442-2.102-5.582c8.27,8.328,17.031,17.151,24.75,24.925c0.039,0.012-2.127-0.672-4.756-1.503
			c-0.351,1.897-0.813,4.4-1.365,7.387c-2.989,0-6.067,0-8.726,0c-6.244,6.562-11.33,12.327-13.654,21.456
			c-2.863,11.244-12.438,16.813-24.283,15.047c-4.364-4.417-8.539-8.642-13.381-13.542c-0.241-15.673,2.84-19.886,19.142-25.37
			C228.647,459.349,233.671,454.992,238.87,448.518z"/>
		<path fill="#603913" d="M521.845,458.868c8.962-9.025,17.717-17.843,26.981-27.172c-0.922,2.412-1.737,4.545-2.708,7.088
			c2.088,0,4.25,0,7.385,0c0.229,3.468,0.429,6.505,0.689,10.457c5.516,5.197,10.485,11.635,20.131,12.776
			c4.513,0.534,9.299,5.278,12.437,9.316c3.552,4.57,4.436,10.656,2.167,17.655c-2.932,2.944-6.839,6.867-11.134,11.18
			c-3.586,0-7.599,0-11.081,0c-8.833-3.953-13.808-9.942-15.978-19.641c-1.341-5.997-7.118-10.988-10.534-15.9
			c-4.242-0.231-7.336-0.4-10.746-0.586c-0.23-2.519-0.43-4.711-0.654-7.169C526.35,457.576,523.933,458.269,521.845,458.868z"/>
		<path fill="#603913" d="M170.764,294.422c2.824,0,8.299,0,14.008,0c1.801-1.73,3.76-3.613,6.248-6.003
			c1.593,0.957,3.351,2.014,5.04,3.029c0.95-0.794,1.882-1.574,3.489-2.918c0,11.578,0,22.396,0,34.065
			c-1.475-1.144-2.365-1.834-3.289-2.552c-1.668,0.905-3.424,1.858-5.609,3.043c-1.797-2.633-3.355-4.915-3.554-5.207
			c-15.679-4.058-26.626,3.983-39.714,7.995c-5.261-3.879-10.856-8.005-17.163-12.656c0.959-7.153,1.877-14.006,2.663-19.866
			c6.027-2.918,10.605-5.135,15.689-7.597C155.03,288.279,161.734,290.897,170.764,294.422z"/>
		<path fill="#603913" d="M593.148,288.548c1.607,1.323,2.537,2.088,3.486,2.87c1.286-0.901,2.64-1.85,5.694-3.989
			c1.106,2.616,2.211,5.23,2.834,6.702c7.383,0,12.819,0,18.279,0c6.521-2.746,13.193-5.556,19.555-8.235
			c8.804,1.124,13.372,7.582,18.786,12.751c0,4.674,0,9.311,0,14.934c-5.14,3.876-10.75,8.106-16.513,12.452
			c-7.423-2.92-14.158-5.57-23.241-9.143c-2.831,0-8.324,0-14.113,0c-1.758,1.681-3.73,3.567-6.229,5.957
			c-1.596-0.944-3.364-1.99-5.056-2.991c-0.952,0.782-1.881,1.544-3.484,2.859C593.148,311.06,593.148,300.2,593.148,288.548z"/>
		<path fill="#603913" d="M327.605,324.901c-10.898-2.851-21.288-5.57-32.339-8.461c-1.801,2.852-3.629,5.748-5.655,8.957
			c-1.056-0.39-2.661-0.491-3.387-1.348c-1.908-2.25-3.434-4.83-5.834-8.332c-2.82,3.307-5.429,6.366-8.635,10.126
			c-1.638-1.443-3.259-2.87-5.082-4.475c0-10.429,0-20.966,0-31.361c1.482-1.428,2.793-2.692,3.988-3.844
			c6.269-0.582,5.721,5.898,9.548,9.019c2.504-3.295,4.93-6.488,7.908-10.407c2.919,3.987,5.111,6.983,7.19,9.823
			c8.865-0.221,15.771-6.812,24.449-5.669c7.038-6.385,12.774,0.491,19.041,1.914c0.824,0.187,1.603,0.578,3.184,1.164
			c1.909-2.632,4.039-5.569,7.362-10.151c0,0.077,0-2.703,0-6.023c-3.841-1.425-7.842-2.909-14.609-5.419
			c-7.457-5.692-8.738-18.722-16.72-28.802c-3.791,0-8.132,0-13.459,0c0.906-4.003,1.552-6.854,2.382-10.521
			c-3.762-0.372-8.311-0.822-13.511-1.336c4.557-14.12,15.415-20.73,27.431-28.444c0.463,5.474,0.827,9.785,1.208,14.29
			c2.285,1.805,2.424-1.676,3.839-1.809c1.823-0.172,3.673-0.042,6.453-0.042c0.229,4.363,0.459,8.759,0.703,13.421
			c4.951,2.901,9.483,6.822,14.703,8.338c9.391,2.727,14.95,8.258,17.225,17.608c0.401,1.646,1.268,3.177,2.007,4.973
			c2.614,0,5.316,0,8.806,0c2.06-2.007,4.62-4.5,6.978-6.798c-2.006-5.48-3.772-10.306-5.61-15.327
			c3.261-9.986,4.29-20.899,9.065-31.375c-3.455-2.515-6.445-4.691-10.535-7.669c3.515-2.67,6.461-4.908,10.242-7.78
			c-3.064-3.168-6.252-6.464-10.714-11.077c14.775,0,27.407,0,41.913,0c-2.134,2.467-3.134,3.903-4.406,5.026
			c-1.881,1.66-3.956,3.097-6.407,4.981c3.915,3.294,6.991,5.883,10.579,8.903c-3.944,2.872-6.934,5.05-10.389,7.566
			c4.694,10.434,5.857,21.311,9.003,31.601c-1.766,4.759-3.554,9.578-5.577,15.031c2.406,2.254,5.016,4.698,7.427,6.955
			c2.935,0,5.656,0,7.923,0c1.547-2.531,4.112-4.785,4.025-6.932c-0.325-8.073,5.084-10.654,10.884-13.457
			c6.574-3.176,12.964-6.737,19.557-10.196c0-4.615,0-8.659,0-13.948c3.819,0.593,6.973,1.083,10.937,1.698
			c0.148-3.153,0.354-7.549,0.629-13.4c12.623,6.523,22.999,13.629,28.169,28.086c-5.155,0.287-9.52,0.531-13.943,0.777
			c0.854,3.371,1.645,6.49,2.616,10.319c-4.893,0-8.901,0-13.397,0c-3.168,5.419-7.083,10.352-9.062,15.975
			c-2.158,6.131-5.351,11.047-8.493,13.835c-5.501,1.909-9.147,3.174-13.317,4.621c0,2.902,0,6.003,0,7.531
			c2.555,3.539,4.676,6.478,6.549,9.072c5.348-2.096,9.702-3.802,14.68-5.753c10.02,2.631,20.841,5.473,32.313,8.485
			c1.807-2.861,3.635-5.757,5.662-8.966c1.053,0.388,2.66,0.486,3.386,1.342c1.908,2.251,3.433,4.833,5.833,8.336
			c2.821-3.306,5.43-6.365,8.636-10.123c1.637,1.438,3.259,2.863,5.085,4.467c0,10.43,0,20.967,0,30.549
			c-1.629,2.086-2.758,3.532-3.613,4.627c-6.635,0.614-6.102-5.85-9.922-8.994c-2.504,3.299-4.927,6.493-7.905,10.416
			c-2.918-3.985-5.111-6.98-7.311-9.985c-10.791,2.817-21.185,5.53-32.092,8.377c-4.147-1.617-8.912-3.475-14.449-5.635
			c-1.914,2.647-4.041,5.588-7.379,10.205c0-0.124,0,2.657,0,5.981c3.837,1.424,7.838,2.908,14.618,5.423
			c7.449,5.683,8.726,18.715,16.709,28.793c3.79,0,8.131,0,13.459,0c-0.903,4.002-1.546,6.853-2.373,10.521
			c3.758,0.375,8.304,0.829,12.983,1.296c-5.052,15.783-7.949,13.791-26.952,27.939c-0.417-4.921-0.783-9.232-1.165-13.739
			c-2.279-1.808-2.42,1.672-3.832,1.808c-1.823,0.176-3.674,0.043-6.453,0.043c-0.232-4.358-0.465-8.754-0.713-13.422
			c-4.942-2.896-9.475-6.802-14.695-8.335c-9.36-2.749-14.983-8.22-17.226-17.605c-0.394-1.647-1.267-3.177-2.006-4.975
			c-2.616,0-5.322,0-8.838,0c-2.038,1.993-4.592,4.492-6.948,6.797c2.002,5.474,3.768,10.3,5.608,15.332
			c-3.264,9.974-4.292,20.887-9.066,31.369c3.452,2.513,6.442,4.69,10.534,7.669c-3.512,2.668-6.457,4.906-10.24,7.779
			c3.062,3.166,6.25,6.463,10.713,11.077c-14.771,0-27.403,0-39.917,0c-2.436-7.687,6.565-5.967,7.839-10.826
			c-2.936-2.469-6.012-5.057-9.604-8.078c3.944-2.873,6.934-5.051,9.685-7.055c-0.57-8.717-3.992-16.133-6.367-23.306
			c-2.789-8.423,0.02-14.067,2.825-20.665c0.334-0.787,0.397-1.69,0.744-3.248c-2.329-2.175-4.942-4.615-7.374-6.885
			c-2.9,0-5.618,0-8.263,0c-2.025,4.925-2.824,10.906-6.21,14.137c-4.857,4.635-11.603,7.26-17.538,10.752
			c-3.355,1.974-6.701,3.963-10.348,6.121c0,4.187,0,8.231,0,13.521c-3.818-0.592-6.969-1.081-10.936-1.696
			c-0.15,3.15-0.36,7.545-0.609,12.778c-7.766-0.407-10.45-8.008-16.435-10.594c-5.871-2.537-9.448-9.1-11.441-16.882
			c4.833-0.273,9.198-0.52,13.62-0.769c-0.851-3.362-1.641-6.482-2.611-10.313c4.889,0,8.897,0,12.691,0
			c8.724-9.469,9.608-23.356,17.984-29.718c5.766-1.998,9.411-3.261,13.593-4.711c0-2.902,0-6.001,0-7.573
			c-2.541-3.506-4.667-6.44-6.545-9.031C336.915,321.259,332.559,322.963,327.605,324.901z M360.808,287.086
			c-2.131,10.39-4.794,19.823-1.494,30.46c3.554,11.454,12.537,16.975,20.124,24.285c18.062,4.977,32.31,7.004,52.863-18.811
			c12.035-32.993-14.188-62.86-48.707-56.042C373.951,271.648,368.129,280.682,360.808,287.086z"/>
		<path fill="#603913" d="M368.923,295.879c5.457-6.337,10.37-13.018,18.261-17.868c5.406,0,11.763,0,18.494,0
			c7.144,4.225,13.565,8.486,16.781,18.297c3.007,9.174-0.764,16.373-1.45,25.466c-4.48,3.693-9.594,7.908-14.199,11.705
			c-6.34,0-11.838,0-15.242,0C371.313,327.114,367.121,313.047,368.923,295.879z M403.271,319.556
			c2.257-2.273,4.514-4.546,6.842-6.89c0-4.502,0-9.075,0-11.062c-2.975-4.567-4.952-7.602-6.285-9.648c-5.883,0-10.377,0-13.385,0
			c-3.401,2.789-5.853,4.8-7.787,6.387c0,5.38,0,9.939,0,14.042c2.457,2.629,4.636,4.961,6.703,7.172
			C394.15,319.556,398.71,319.556,403.271,319.556z"/>
	</g>
	<circle fill="#FBB042" stroke="#603A16" stroke-width="4" stroke-miterlimit="10" cx="397.01" cy="306.002" r="196.371"/>
	<g>
		<path fill="#75BEE9" d="M520.488,208.877c-89.139,30.935-85.159,15.474-163.956-7.109c-31.747-9.098-58.44-5.42-79.321,2.605
			c28.814-33.933,71.793-55.468,119.799-55.468C447.111,148.905,491.726,172.352,520.488,208.877z"/>
		<path fill="#53B7E8" d="M539.602,239.995c-62.786,35.504-94.271,42.992-130.888,30.228c-14.191-4.935-29.141-12.921-46.998-23.499
			c-36.957-21.876-76.139-20.462-103.068-15.186c5.237-9.714,11.468-18.812,18.564-27.165c20.881-8.025,47.574-11.704,79.321-2.605
			c78.797,22.583,74.817,38.044,163.956,7.109C528.016,218.42,534.444,228.854,539.602,239.995z"/>
		<path fill="#27AAE1" d="M551.855,279.361c-91.26,47.365-118.739,43.188-184.916,7.488c-47.64-25.698-98.905-17.058-124.316-10.015
			c3.011-16.102,8.496-31.328,16.024-45.296c26.929-5.276,66.111-6.69,103.068,15.186c17.857,10.578,32.807,18.564,46.998,23.499
			c36.617,12.764,68.101,5.276,130.888-30.228C545.336,252.327,549.499,265.536,551.855,279.361z"/>
		<path fill="#3777BC" d="M554.107,306.002c0,7.672-0.55,15.225-1.623,22.596c-82.751,46.514-112.573,39.366-178.278-1.44
			c-51.829-32.192-107.703-20.344-133.99-11.651c-0.21-3.142-0.301-6.31-0.301-9.504c0-9.963,0.93-19.716,2.71-29.168
			c25.41-7.043,76.676-15.683,124.316,10.015c66.177,35.7,93.656,39.876,184.916-7.488
			C553.334,288.014,554.107,296.916,554.107,306.002z"/>
		<path fill="#1268B3" d="M552.484,328.597c-5.381,37.402-23.957,70.563-50.847,94.572c-42.023-2.186-89.754-15.003-129.749-43.477
			c-45.414-32.336-95.58-26.772-122.588-20.095c-5.053-13.89-8.182-28.683-9.085-44.092c26.287-8.693,82.161-20.54,133.99,11.651
			C439.911,367.963,469.733,375.111,552.484,328.597z"/>
		<path fill="#005B99" d="M501.637,423.17c-27.78,24.834-64.449,39.929-104.626,39.929c-67.931,0-125.808-43.136-147.71-103.501
			c27.008-6.677,77.174-12.24,122.588,20.095C411.882,408.167,459.613,420.983,501.637,423.17z"/>
	</g>
	<g>
		<path fill="none" d="M573.744,306.002c0,97.607-79.126,176.734-176.734,176.734s-176.734-79.126-176.734-176.734"/>
		<path d="M291.522,441.702l1.285,1.039l-2.167,2.68l-1.285-1.039c0.413-1.257,0.17-2.25-0.73-2.978
			c-0.744-0.602-1.511-0.803-2.301-0.604c-0.791,0.198-1.472,0.651-2.043,1.358c-0.599,0.74-0.881,1.502-0.848,2.285
			c0.033,0.783,0.361,1.427,0.984,1.931c0.51,0.412,1.097,0.601,1.76,0.563s1.311-0.309,1.943-0.815l0.921,1.925
			c-1.997,1.306-3.962,1.177-5.898-0.388c-1.367-1.105-2.1-2.307-2.199-3.604s0.307-2.51,1.217-3.637
			c0.648-0.802,1.396-1.357,2.244-1.667c0.847-0.311,1.699-0.37,2.556-0.182c0.856,0.189,1.649,0.579,2.378,1.169
			c0.908,0.733,1.476,1.585,1.706,2.554L291.522,441.702z"/>
		<path d="M299.977,447.659c1.392,0.955,2.21,2.108,2.457,3.46c0.246,1.352-0.027,2.605-0.82,3.762
			c-0.796,1.159-1.869,1.865-3.219,2.118s-2.72-0.097-4.107-1.049c-1.442-0.989-2.266-2.162-2.473-3.518s0.072-2.59,0.836-3.703
			c0.791-1.152,1.859-1.858,3.207-2.119S298.578,446.699,299.977,447.659z M298.966,449.132c-0.618-0.424-1.302-0.553-2.051-0.384
			c-0.75,0.168-1.432,0.7-2.047,1.597c-0.544,0.792-0.766,1.572-0.667,2.339c0.099,0.768,0.463,1.367,1.093,1.8
			c0.619,0.424,1.304,0.552,2.057,0.384c0.752-0.169,1.43-0.691,2.032-1.569c0.539-0.784,0.768-1.562,0.689-2.333
			C299.992,450.194,299.624,449.583,298.966,449.132z"/>
		<path d="M301.955,460.957l0.81-1.441l1.104,0.62l3.173-5.646l-1.104-0.62l0.81-1.44l4.277,2.404l-0.937,6.046l4.689-3.938
			l4.359,2.45l-0.81,1.44l-1.104-0.62l-3.173,5.646l1.104,0.62l-0.81,1.44l-4.291-2.411l0.81-1.44l1.03,0.578l3.173-5.646
			l-0.203-0.113l-6.624,5.601l-0.919-0.517l1.31-8.588l-0.202-0.113l-3.173,5.646l1.116,0.627l-0.81,1.44L301.955,460.957z"/>
		<path d="M317.402,469.349l0.69-1.501l1.271,0.584l2.704-5.885l-1.271-0.584l0.69-1.501l7.955,3.655l-1.26,2.74l-1.699-0.78
			l0.569-1.24l-2.671-1.227l-0.945,2.057l1.923,0.884l-0.69,1.502l-1.923-0.884l-1.068,2.325l1.367,0.629l-0.69,1.501
			L317.402,469.349z"/>
		<path d="M337.021,466.917c1.581,0.59,2.655,1.511,3.221,2.763c0.566,1.252,0.604,2.534,0.115,3.848
			c-0.492,1.317-1.362,2.263-2.611,2.835s-2.662,0.564-4.239-0.023c-1.638-0.611-2.722-1.55-3.25-2.814
			c-0.529-1.266-0.557-2.531-0.085-3.796c0.488-1.309,1.354-2.253,2.598-2.832S335.431,466.324,337.021,466.917z M336.397,468.591
			c-0.703-0.263-1.397-0.221-2.084,0.123c-0.686,0.345-1.219,1.026-1.599,2.046c-0.336,0.9-0.363,1.71-0.081,2.431
			c0.281,0.721,0.78,1.214,1.496,1.481c0.703,0.262,1.399,0.22,2.088-0.126c0.689-0.346,1.22-1.017,1.591-2.014
			c0.333-0.892,0.367-1.702,0.104-2.431S337.144,468.869,336.397,468.591z"/>
		<path d="M352.314,480.458l-0.456,1.588l-2.864-0.822l-0.941-4.726l-1.076-0.309l-0.726,2.527l1.176,0.338l-0.456,1.588
			l-4.913-1.411l0.456-1.588l1.291,0.371l1.788-6.225l-1.291-0.371l0.456-1.588l5.67,1.628c1.068,0.307,1.76,0.797,2.076,1.471
			c0.316,0.674,0.376,1.351,0.181,2.031c-0.307,1.067-1.073,1.691-2.3,1.87l0.712,3.277L352.314,480.458z M347.409,474.688
			l0.838,0.241c1.036,0.298,1.661,0.077,1.873-0.662c0.105-0.365,0.065-0.672-0.12-0.92c-0.185-0.248-0.485-0.432-0.899-0.551
			l-1.062-0.305L347.409,474.688z"/>
		<path d="M355.995,482.994l0.347-1.616l1.438,0.31l1.36-6.332l-1.438-0.309l-0.479,2.228l-1.643-0.354l0.825-3.843l8.669,1.862
			l-0.825,3.843l-1.623-0.348l0.479-2.228l-1.478-0.317l-1.36,6.331l1.437,0.309l-0.347,1.615L355.995,482.994z"/>
		<path d="M381.925,485.419l-0.183,1.643l-4.78-0.531l0.183-1.643l1.244,0.139l-0.276-1.722l-2.522-0.28l-0.703,1.612l1.3,0.145
			l-0.183,1.643l-4.305-0.479l0.183-1.643l1.202,0.134l2.609-6.226l-1.293-0.144l0.183-1.643l6.346,0.705l-0.183,1.643l-1.308-0.146
			l1.326,6.663L381.925,485.419z M377.874,481.835l-0.485-3.019l-1.199,2.831L377.874,481.835z"/>
		<path d="M387.656,487.48l-2.522-8.278l-1.033-0.034l0.055-1.651l4.406,0.145l-0.055,1.651l-1.012-0.033l1.436,4.746l1.643-4.646
			l-0.886-0.029l0.055-1.651l3.514,0.115l-0.054,1.651l-0.907-0.029l1.449,4.746l1.692-4.644l-0.977-0.032l0.054-1.651l3.916,0.128
			l-0.055,1.651l-1.061-0.035l-2.967,8.1l-1.827-0.06l-1.393-4.513l-1.601,4.415L387.656,487.48z"/>
		<path d="M410.189,485.567l0.074,1.65l-4.806,0.214l-0.073-1.65l1.251-0.056l-0.539-1.658l-2.536,0.113l-0.444,1.701l1.307-0.058
			l0.073,1.65l-4.327,0.193l-0.073-1.651l1.208-0.054l1.615-6.555l-1.3,0.059l-0.073-1.651l6.379-0.284l0.073,1.651l-1.313,0.059
			l2.339,6.378L410.189,485.567z M405.633,482.652l-0.946-2.907l-0.747,2.982L405.633,482.652z"/>
		<path d="M414.752,486.787l-0.183-1.643l1.362-0.151l-0.292-2.628l-3.059-3.516l-1.188,0.133l-0.183-1.643l4.864-0.542l0.183,1.643
			l-0.957,0.106l1.691,2.211l1.185-2.531l-1.004,0.112l-0.183-1.643l4.284-0.477l0.183,1.642l-1.195,0.134l-2.092,4.088l0.293,2.628
			l1.355-0.15l0.183,1.642L414.752,486.787z"/>
		<path d="M431.014,484.497l-0.345-1.616l1.368-0.293l-1.354-6.332l-1.368,0.292l-0.346-1.615l8.561-1.831l0.631,2.95l-1.829,0.391
			l-0.285-1.334l-2.874,0.615l0.474,2.214l2.069-0.442l0.346,1.615l-2.069,0.442l0.535,2.503l1.471-0.314l0.346,1.616
			L431.014,484.497z"/>
		<path d="M451.784,477.565l0.455,1.588l-2.864,0.821l-3.303-3.508l-1.076,0.309l0.725,2.528l1.177-0.338l0.455,1.589l-4.914,1.409
			l-0.455-1.589l1.291-0.37l-1.785-6.225l-1.291,0.37l-0.455-1.589l5.671-1.626c1.067-0.307,1.914-0.258,2.54,0.146
			c0.625,0.404,1.035,0.946,1.23,1.626c0.306,1.068-0.014,2.004-0.959,2.806l2.342,2.401L451.784,477.565z M444.566,475.275
			l0.838-0.24c1.036-0.298,1.448-0.815,1.236-1.555c-0.104-0.365-0.301-0.604-0.589-0.716s-0.64-0.109-1.055,0.01l-1.061,0.304
			L444.566,475.275z"/>
		<path d="M456.623,467.059c1.583-0.586,2.997-0.59,4.244-0.012c1.246,0.578,2.112,1.524,2.6,2.839
			c0.488,1.318,0.446,2.603-0.126,3.852s-1.647,2.166-3.226,2.751c-1.64,0.606-3.073,0.604-4.3-0.009
			c-1.227-0.613-2.074-1.553-2.543-2.819c-0.485-1.31-0.446-2.59,0.118-3.841C453.954,468.568,455.032,467.647,456.623,467.059z
			 M457.244,468.733c-0.704,0.261-1.203,0.745-1.498,1.454s-0.253,1.573,0.125,2.594c0.333,0.9,0.842,1.532,1.525,1.894
			c0.685,0.362,1.385,0.41,2.101,0.145c0.704-0.26,1.203-0.746,1.5-1.459c0.296-0.712,0.259-1.566-0.11-2.564
			c-0.33-0.893-0.833-1.528-1.509-1.908S457.991,468.457,457.244,468.733z"/>
		<path d="M468.62,473.112l-0.711-1.492l1.143-0.544l-2.785-5.847l-1.143,0.544l-0.711-1.491l4.429-2.11l4.402,4.249l-0.516-6.101
			l4.514-2.15l0.711,1.491l-1.143,0.545l2.785,5.846l1.143-0.544l0.711,1.491l-4.443,2.117l-0.711-1.491l1.066-0.508l-2.785-5.847
			l-0.21,0.1l0.761,8.642l-0.952,0.454l-6.265-6.02l-0.209,0.1l2.785,5.847l1.155-0.551l0.711,1.491L468.62,473.112z"/>
		<path d="M489.587,462.371l-0.883-1.397l1.035-0.653l-3.457-5.476l-1.035,0.653l-0.882-1.397l3.995-2.522l0.883,1.397l-0.868,0.548
			l1.145,1.813l2.254-1.423l-1.146-1.813l-0.838,0.529l-0.883-1.397l3.966-2.504l0.883,1.397l-1.035,0.653l3.457,5.476l1.035-0.652
			l0.882,1.396l-3.966,2.504l-0.882-1.397l0.838-0.529l-1.426-2.259l-2.254,1.423l1.427,2.259l0.868-0.548l0.882,1.397
			L489.587,462.371z"/>
		<path d="M499.547,443.72c1.353-1.009,2.709-1.412,4.067-1.209c1.359,0.203,2.458,0.866,3.296,1.99
			c0.841,1.127,1.162,2.37,0.966,3.73c-0.196,1.359-0.969,2.543-2.317,3.549c-1.402,1.045-2.777,1.447-4.128,1.205
			c-1.35-0.241-2.428-0.903-3.235-1.986c-0.835-1.119-1.158-2.359-0.971-3.719C497.413,445.921,498.187,444.734,499.547,443.72z
			 M500.615,445.151c-0.602,0.448-0.943,1.055-1.026,1.818c-0.083,0.763,0.201,1.581,0.852,2.452
			c0.574,0.771,1.24,1.232,1.999,1.387c0.758,0.153,1.442,0.002,2.056-0.454c0.601-0.448,0.943-1.057,1.026-1.823
			s-0.193-1.576-0.829-2.43c-0.569-0.763-1.231-1.23-1.986-1.404C501.95,444.523,501.254,444.675,500.615,445.151z"/>
		<path d="M512.77,446.138l-1.102-1.231l0.943-0.844l-4.318-4.826l-0.942,0.844l-1.103-1.231l3.656-3.271l5.42,2.84l-2.212-5.71
			l3.727-3.334l1.102,1.231l-0.943,0.844l4.318,4.827l0.943-0.845l1.102,1.231l-3.668,3.282l-1.102-1.231l0.88-0.788l-4.317-4.826
			l-0.173,0.155l3.161,8.078l-0.786,0.703l-7.705-4.014l-0.173,0.155l4.318,4.826l0.954-0.854l1.102,1.231L512.77,446.138z"/>
		<path d="M525.761,434.176l-1.198-1.138l0.809-0.852l-4.696-4.459l-0.809,0.852l-1.198-1.138l5.936-6.252l2.249,2.136l-1.288,1.355
			l-1.05-0.997l-2.087,2.198l1.637,1.554l1.685-1.774l1.198,1.138l-1.685,1.774l1.861,1.768l2.087-2.198l-1.061-1.007l1.287-1.356
			l2.259,2.145L525.761,434.176z"/>
	</g>
	<g>
		<path fill="none" d="M220.277,306.002c0-97.607,79.126-176.734,176.734-176.734s176.734,79.126,176.734,176.734"/>
		<path d="M285.048,162.945l1.283-1.042l2.172,2.675l-1.283,1.042c-1.144-0.665-2.166-0.633-3.064,0.097
			c-0.742,0.603-1.098,1.312-1.067,2.126c0.03,0.814,0.333,1.575,0.906,2.281c0.6,0.739,1.286,1.173,2.06,1.303
			c0.772,0.13,1.47-0.058,2.093-0.563c0.509-0.414,0.814-0.949,0.916-1.604c0.101-0.656-0.031-1.346-0.396-2.07l2.074-0.502
			c0.864,2.224,0.33,4.121-1.602,5.69c-1.364,1.108-2.692,1.576-3.982,1.404c-1.29-0.172-2.392-0.82-3.305-1.945
			c-0.65-0.8-1.039-1.647-1.166-2.54c-0.127-0.893-0.01-1.739,0.353-2.538c0.362-0.798,0.908-1.494,1.635-2.084
			c0.906-0.736,1.857-1.116,2.853-1.139L285.048,162.945z"/>
		<path d="M293.928,156.254c1.39-0.958,2.759-1.311,4.11-1.058c1.35,0.253,2.423,0.957,3.219,2.111
			c0.798,1.157,1.074,2.412,0.828,3.764s-1.063,2.505-2.448,3.46c-1.439,0.993-2.829,1.343-4.169,1.052s-2.393-0.993-3.16-2.104
			c-0.793-1.15-1.07-2.401-0.833-3.752C291.714,158.375,292.531,157.218,293.928,156.254z M294.942,157.725
			c-0.618,0.426-0.981,1.019-1.093,1.778c-0.111,0.76,0.143,1.587,0.76,2.483c0.546,0.791,1.194,1.277,1.946,1.459
			c0.752,0.182,1.442,0.056,2.071-0.378c0.617-0.426,0.982-1.02,1.093-1.783c0.112-0.763-0.135-1.583-0.739-2.458
			c-0.54-0.784-1.185-1.276-1.933-1.478C296.3,157.147,295.598,157.272,294.942,157.725z"/>
		<path d="M306.414,159.776l-0.813-1.438l1.102-0.623l-3.186-5.638l-1.102,0.623l-0.812-1.439l4.271-2.413l4.687,3.933l-0.939-6.05
			l4.353-2.459l0.813,1.438l-1.102,0.623l3.186,5.639l1.102-0.623l0.813,1.438l-4.286,2.421l-0.812-1.439l1.028-0.581l-3.186-5.638
			l-0.202,0.114l1.36,8.567l-0.918,0.519l-6.668-5.569l-0.202,0.114l3.186,5.638l1.114-0.629l0.812,1.438L306.414,159.776z"/>
		<path d="M321.134,151.712l-0.693-1.5l1.27-0.587l-2.717-5.878l-1.27,0.587l-0.693-1.5l7.946-3.673l1.266,2.738l-1.698,0.785
			l-0.572-1.238l-2.668,1.233l0.95,2.055l1.921-0.888l0.693,1.5l-1.921,0.888l1.074,2.323l1.366-0.631l0.693,1.5L321.134,151.712z"
			/>
		<path d="M333.103,135.774c1.58-0.593,2.995-0.604,4.244-0.031c1.249,0.572,2.12,1.515,2.612,2.827
			c0.495,1.317,0.458,2.601-0.108,3.853c-0.566,1.252-1.637,2.173-3.212,2.765c-1.637,0.615-3.07,0.619-4.3,0.011
			s-2.082-1.543-2.556-2.807c-0.491-1.308-0.458-2.588,0.101-3.842C330.441,137.296,331.515,136.371,333.103,135.774z
			 M333.731,137.446c-0.702,0.264-1.199,0.751-1.49,1.461s-0.246,1.575,0.136,2.593c0.338,0.899,0.85,1.528,1.535,1.887
			c0.685,0.359,1.386,0.404,2.101,0.135c0.702-0.264,1.2-0.752,1.492-1.465c0.293-0.713,0.252-1.568-0.122-2.564
			c-0.334-0.891-0.84-1.524-1.518-1.901C335.189,137.214,334.477,137.166,333.731,137.446z"/>
		<path d="M353.729,137.862l0.459,1.587l-2.862,0.829l-3.312-3.499l-1.075,0.312l0.731,2.526l1.175-0.34l0.459,1.587l-4.91,1.422
			l-0.459-1.587l1.29-0.374l-1.801-6.22l-1.29,0.374l-0.46-1.587l5.667-1.641c1.067-0.309,1.914-0.262,2.54,0.14
			s1.038,0.942,1.235,1.623c0.309,1.067-0.008,2.003-0.951,2.808l2.348,2.395L353.729,137.862z M346.504,135.591l0.837-0.243
			c1.036-0.3,1.446-0.819,1.232-1.557c-0.105-0.365-0.302-0.603-0.591-0.715c-0.289-0.111-0.64-0.107-1.054,0.013l-1.061,0.307
			L346.504,135.591z"/>
		<path d="M357.658,138.66l-0.351-1.615l1.436-0.312l-1.375-6.328l-1.437,0.312l0.484,2.227l-1.643,0.356l-0.834-3.841l8.665-1.883
			l0.835,3.841l-1.622,0.353l-0.483-2.226l-1.478,0.321l1.375,6.329l1.437-0.312l0.351,1.615L357.658,138.66z"/>
		<path d="M382.262,133.049l0.186,1.642l-4.778,0.542l-0.187-1.642l1.244-0.141l-0.65-1.618l-2.522,0.286l-0.328,1.729l1.3-0.147
			l0.186,1.642l-4.304,0.488l-0.186-1.642l1.201-0.136l1.164-6.649l-1.292,0.146l-0.187-1.642l6.345-0.719l0.186,1.642l-1.307,0.148
			l2.77,6.204L382.262,133.049z M377.516,130.452l-1.142-2.835l-0.542,3.026L377.516,130.452z"/>
		<path d="M387.599,134.442l-3.074-8.09l-1.033,0.036l-0.058-1.651l4.406-0.153l0.058,1.651l-1.013,0.035l1.752,4.639l1.326-4.746
			l-0.885,0.031l-0.058-1.651l3.514-0.122l0.057,1.651l-0.906,0.031l1.766,4.639l1.376-4.748l-0.977,0.034l-0.058-1.651l3.915-0.136
			l0.058,1.651l-1.062,0.037l-2.413,8.281l-1.827,0.064l-1.694-4.409l-1.299,4.513L387.599,134.442z"/>
		<path d="M409.52,132.876l-0.069,1.651l-4.806-0.204l0.07-1.651l1.25,0.053l-0.393-1.699l-2.536-0.107l-0.591,1.657l1.307,0.055
			l-0.07,1.651l-4.327-0.183l0.07-1.651l1.208,0.051l2.178-6.39l-1.3-0.055l0.07-1.651l6.379,0.27l-0.07,1.651l-1.313-0.056
			l1.777,6.557L409.52,132.876z M405.232,129.577l-0.69-2.978l-1.002,2.906L405.232,129.577z"/>
		<path d="M413.265,134.896l0.179-1.643l1.363,0.148l0.286-2.628l-2.221-4.097l-1.188-0.129l0.179-1.643l4.865,0.53l-0.18,1.643
			l-0.956-0.104l1.169,2.526l1.707-2.213l-1.004-0.109l0.179-1.643l4.285,0.466l-0.179,1.643l-1.195-0.13l-2.932,3.536l-0.286,2.628
			l1.356,0.147l-0.18,1.643L413.265,134.896z"/>
		<path d="M428.576,136.996l0.341-1.617l1.369,0.289l1.34-6.336l-1.369-0.289l0.342-1.617l8.564,1.81l-0.623,2.951l-1.83-0.387
			l0.282-1.334l-2.876-0.608l-0.469,2.215l2.071,0.438l-0.342,1.617l-2.07-0.438l-0.529,2.504l1.472,0.312l-0.342,1.617
			L428.576,136.996z"/>
		<path d="M449.648,140.548l-0.451,1.589l-2.866-0.815l-0.953-4.723l-1.076-0.306l-0.72,2.53l1.177,0.334l-0.452,1.589l-4.916-1.398
			l0.451-1.589l1.292,0.368l1.771-6.229l-1.291-0.368l0.451-1.589l5.675,1.614c1.068,0.304,1.762,0.792,2.08,1.465
			c0.317,0.673,0.38,1.35,0.187,2.031c-0.305,1.068-1.069,1.694-2.296,1.876l0.721,3.275L449.648,140.548z M444.729,134.791
			l0.839,0.239c1.037,0.295,1.661,0.073,1.871-0.667c0.104-0.365,0.063-0.671-0.122-0.919s-0.486-0.431-0.9-0.549l-1.062-0.302
			L444.729,134.791z"/>
		<path d="M459.737,135.336c1.584,0.583,2.662,1.499,3.234,2.748s0.616,2.531,0.133,3.847c-0.485,1.32-1.352,2.269-2.598,2.847
			c-1.247,0.578-2.659,0.577-4.239-0.004c-1.641-0.604-2.729-1.537-3.264-2.799c-0.534-1.263-0.568-2.528-0.103-3.795
			c0.481-1.311,1.344-2.259,2.585-2.844S458.145,134.75,459.737,135.336z M459.121,137.012c-0.704-0.259-1.398-0.214-2.083,0.133
			s-1.215,1.032-1.59,2.053c-0.331,0.902-0.354,1.712-0.069,2.431c0.284,0.719,0.785,1.21,1.503,1.475
			c0.704,0.259,1.399,0.213,2.087-0.135c0.688-0.349,1.216-1.023,1.583-2.022c0.328-0.893,0.358-1.703,0.092-2.431
			S459.869,137.288,459.121,137.012z"/>
		<path d="M464.056,147.565l0.708-1.493l1.144,0.542l2.772-5.853l-1.145-0.542l0.708-1.494l4.434,2.1l-0.514,6.097l4.404-4.254
			l4.519,2.14l-0.708,1.494l-1.144-0.542l-2.772,5.853l1.145,0.542l-0.708,1.493l-4.448-2.107l0.708-1.493l1.067,0.506l2.772-5.853
			l-0.21-0.099l-6.219,6.049l-0.953-0.452l0.709-8.658l-0.21-0.1l-2.771,5.853l1.156,0.547l-0.707,1.494L464.056,147.565z"/>
		<path d="M484.033,157.703l0.879-1.399l1.036,0.651l3.445-5.484l-1.036-0.651l0.879-1.399l4.001,2.514l-0.879,1.399l-0.869-0.546
			l-1.141,1.816l2.256,1.418l1.141-1.816l-0.839-0.527l0.879-1.399l3.972,2.495l-0.879,1.399l-1.036-0.651l-3.445,5.484l1.036,0.65
			l-0.879,1.399l-3.972-2.495l0.879-1.399l0.84,0.527l1.421-2.263l-2.256-1.417l-1.422,2.263l0.869,0.546l-0.879,1.399
			L484.033,157.703z"/>
		<path d="M505.253,159.947c1.355,1.006,2.131,2.189,2.327,3.549c0.195,1.36-0.124,2.603-0.959,3.728
			c-0.839,1.129-1.938,1.795-3.296,1.998c-1.359,0.203-2.714-0.197-4.065-1.201c-1.404-1.042-2.185-2.244-2.34-3.607
			c-0.157-1.362,0.168-2.585,0.973-3.669c0.832-1.122,1.927-1.788,3.282-1.999C502.531,158.536,503.891,158.936,505.253,159.947z
			 M504.188,161.381c-0.603-0.447-1.281-0.6-2.036-0.46s-1.456,0.646-2.104,1.52c-0.572,0.771-0.824,1.542-0.754,2.313
			c0.07,0.77,0.413,1.383,1.026,1.838c0.602,0.447,1.282,0.6,2.041,0.459c0.758-0.141,1.454-0.638,2.088-1.492
			c0.567-0.764,0.826-1.533,0.775-2.306C505.174,162.48,504.828,161.856,504.188,161.381z"/>
		<path d="M505.951,172.906l1.1-1.234l0.944,0.842l4.308-4.836l-0.945-0.842l1.1-1.234l3.663,3.263l-2.208,5.706l5.423-2.843
			l3.733,3.326l-1.099,1.234l-0.945-0.842l-4.308,4.836l0.945,0.842l-1.099,1.234l-3.676-3.273l1.099-1.234l0.882,0.786l4.308-4.836
			l-0.173-0.154l-7.67,4.054l-0.787-0.702l3.117-8.109l-0.174-0.154l-4.308,4.836l0.956,0.851l-1.099,1.234L505.951,172.906z"/>
		<path d="M518.396,184.287l1.195-1.141l0.811,0.85l4.687-4.47l-0.811-0.85l1.196-1.141l5.949,6.238l-2.244,2.14l-1.291-1.354
			l1.049-1l-2.092-2.193l-1.634,1.558l1.689,1.771l-1.196,1.141l-1.688-1.771l-1.857,1.771l2.092,2.193l1.059-1.01l1.291,1.354
			l-2.254,2.15L518.396,184.287z"/>
	</g>
	<circle fill="none" stroke="#000000" stroke-width="2" stroke-miterlimit="10" cx="397.01" cy="306.002" r="157.097"/>
	<circle fill="#FFFFFF" stroke="#000000" stroke-width="2" stroke-miterlimit="10" cx="397.01" cy="306.002" r="65.014"/>
	<g>
		<path fill="none" d="M508.066,306.002c0,60.208-49.265,109.017-110.036,109.017S287.993,366.21,287.993,306.002"/>
		<path fill="#FFDE17" d="M276.223,350.815c-2.113,0.611-4.182,0.242-6.209-1.105c-2.027-1.349-3.406-3.287-4.137-5.815
			l-3.076-10.636l1.363-0.395l0.548,1.896l50.107-14.491l-0.548-1.896l1.363-0.395l3.076,10.636c0.731,2.529,0.6,4.904-0.395,7.126
			c-0.994,2.223-2.548,3.639-4.66,4.25L276.223,350.815z M265.594,337.811l50.108-14.491l-0.441-1.525l-50.107,14.491
			L265.594,337.811z M271.143,345.676l44.065-12.744c0.835-0.241,1.461-0.744,1.879-1.51s0.504-1.57,0.26-2.413l-0.763-2.641
			l-50.108,14.491l0.764,2.641c0.244,0.843,0.747,1.477,1.508,1.901C269.509,345.825,270.308,345.917,271.143,345.676z
			 M274.125,348.118l39.828-11.519c2.039-0.59,3.361-1.953,3.968-4.09c-0.68,1.057-1.793,1.809-3.34,2.256l-41.965,12.137
			c-1.523,0.44-2.866,0.398-4.028-0.125C270.265,348.253,272.11,348.7,274.125,348.118z"/>
		<path fill="#FFDE17" d="M296.937,387.489c-1.798,1.266-3.875,1.591-6.23,0.976c-2.355-0.614-4.291-1.998-5.805-4.151
			c-1.5-2.132-2.146-4.415-1.936-6.851c0.209-2.436,1.213-4.285,3.012-5.551l32.496-22.865c1.798-1.265,3.878-1.586,6.242-0.96
			c2.363,0.625,4.294,2.004,5.794,4.136c1.515,2.153,2.164,4.441,1.947,6.866s-1.225,4.27-3.022,5.535L296.937,387.489z
			 M284.076,378.409c0.415-1.144,1.249-2.157,2.503-3.04l34.943-24.587c1.234-0.868,2.459-1.304,3.676-1.308
			c-1.972-0.759-3.763-0.571-5.373,0.562l-33.406,23.505C284.83,374.66,284.048,376.282,284.076,378.409z M290.46,384.283
			l38.142-26.838c0.71-0.5,1.139-1.181,1.285-2.04s-0.035-1.648-0.54-2.366s-1.187-1.153-2.044-1.307
			c-0.858-0.153-1.644,0.021-2.354,0.521l-38.143,26.838c-0.711,0.5-1.139,1.181-1.285,2.04c-0.145,0.859,0.034,1.648,0.54,2.366
			c0.505,0.717,1.187,1.153,2.045,1.307S289.749,384.783,290.46,384.283z M294.075,385.621l34.566-24.321
			c1.714-1.207,2.514-2.937,2.398-5.19c-0.305,1.256-1.115,2.347-2.433,3.274l-36.354,25.579c-1.297,0.913-2.587,1.3-3.872,1.163
			C290.461,386.996,292.36,386.828,294.075,385.621z"/>
		<path fill="#FFDE17" d="M325.951,422.838l-2.221-1.619c-3.003-2.19-3.375-4.834-1.115-7.934l11.457-15.712
			c0.512-0.702,0.699-1.484,0.56-2.345c-0.139-0.861-0.563-1.55-1.272-2.066l-2.221-1.62l-15.862,21.756l1.595,1.163l-0.836,1.146
			l-8.321-6.066l0.836-1.146l1.595,1.163l30.73-42.147l-1.595-1.163l0.836-1.146l8.946,6.522c2.127,1.551,3.478,3.509,4.053,5.874
			c0.575,2.366,0.215,4.437-1.081,6.214l-6.259,8.584c-2.019,2.77-4.941,3.645-8.766,2.627c2.078,3.414,2.13,6.475,0.157,9.181
			l-10.733,14.721c-0.829,1.137-0.753,2.062,0.227,2.776l0.125,0.091L325.951,422.838z M312.711,411.428l30.73-42.147l-1.282-0.936
			l-30.73,42.147L312.711,411.428z M323.684,419.902c-0.509-1.099-0.273-2.318,0.706-3.662l10.959-15.03
			c1.235-1.694,1.445-3.582,0.631-5.663c0.094,1.272-0.325,2.548-1.259,3.829l-11.208,15.371
			C322.128,416.648,322.184,418.366,323.684,419.902z M338.613,391.344l10.326-14.162c0.512-0.702,0.699-1.484,0.56-2.346
			c-0.139-0.86-0.563-1.55-1.272-2.066l-2.221-1.619l-14.032,19.245l2.221,1.619c0.709,0.517,1.495,0.71,2.357,0.579
			C337.414,392.463,338.101,392.047,338.613,391.344z M342.466,391.447l7.728-10.599c1.25-1.715,1.46-3.603,0.632-5.662
			c0.109,1.251-0.31,2.527-1.259,3.828l-9.016,12.365c-0.949,1.302-2.044,2.103-3.283,2.4
			C339.498,393.919,341.231,393.142,342.466,391.447z"/>
		<path fill="#FFDE17" d="M373.15,440.949l-9.906-2.812l0.388-1.365l1.899,0.539l10.232-36.047l-14.902,36.196l-4.879-1.385
			l5.593-38.84l-10.233,36.048l1.899,0.539l-0.387,1.365l-5.698-1.617l0.388-1.365l1.899,0.539l14.243-50.179l-1.899-0.539
			l0.388-1.365l8.082,2.294l-6.448,42.703l16.279-39.912l8.081,2.294l-0.387,1.365l-1.899-0.539l-14.244,50.178l1.899,0.539
			L373.15,440.949z M359.647,435.642l7.242-52.166L365.213,383l-7.242,52.166L359.647,435.642z M368.584,438.179L382.829,388
			l-1.527-0.434l-14.243,50.179L368.584,438.179z"/>
		<path fill="#FFDE17" d="M406.101,442.373l-10.295,0.214l-0.029-1.419l1.974-0.041l-1.085-52.149l-1.974,0.041l-0.029-1.419
			l10.295-0.214l0.029,1.419l-1.974,0.041l1.085,52.149l1.974-0.041L406.101,442.373z M400.924,441.062l-1.085-52.15l-1.587,0.033
			l1.085,52.149L400.924,441.062z"/>
		<path fill="#FFDE17" d="M439.39,395.855l-5.576,1.754l-4.522-14.379l-2.732,0.859l15.648,49.759l1.883-0.592l0.426,1.354
			l-9.823,3.089l-0.426-1.354l1.884-0.593l-15.648-49.758l-2.732,0.859l4.521,14.379l-5.576,1.753l-4.947-15.732l22.675-7.131
			L439.39,395.855z M419.329,400.717l-4.107-13.062l-1.515,0.477l4.107,13.062L419.329,400.717z M439.179,434.801l-15.648-49.758
			l-1.514,0.476l15.647,49.759L439.179,434.801z M436.391,395.352l-4.108-13.062l-1.477,0.465l4.107,13.062L436.391,395.352z"/>
		<path fill="#FFDE17" d="M483.507,403.505c1.312,1.766,1.691,3.833,1.139,6.203c-0.553,2.371-1.886,4.342-3.998,5.912
			c-2.093,1.556-4.358,2.26-6.798,2.114c-2.44-0.145-4.315-1.1-5.628-2.865l-23.708-31.887c-1.312-1.764-1.687-3.836-1.123-6.214
			s1.891-4.345,3.983-5.9c2.112-1.571,4.383-2.279,6.812-2.126c2.43,0.152,4.3,1.112,5.612,2.876L483.507,403.505z M474.767,416.6
			c-1.154-0.385-2.189-1.192-3.104-2.424l-25.493-34.287c-0.9-1.211-1.368-2.424-1.404-3.641c-0.706,1.992-0.472,3.777,0.703,5.356
			l24.371,32.779C470.998,415.943,472.641,416.683,474.767,416.6z M480.472,410.063l-27.827-37.427
			c-0.519-0.697-1.21-1.108-2.073-1.23c-0.863-0.123-1.647,0.077-2.351,0.601c-0.705,0.523-1.122,1.217-1.253,2.078
			c-0.131,0.862,0.063,1.643,0.582,2.34l27.826,37.427c0.52,0.697,1.21,1.107,2.073,1.23s1.646-0.077,2.352-0.601
			c0.703-0.523,1.121-1.217,1.252-2.079C481.184,411.541,480.99,410.761,480.472,410.063z M481.714,406.415l-25.218-33.918
			c-1.251-1.683-3.001-2.436-5.251-2.262c1.264,0.272,2.375,1.054,3.337,2.347l26.522,35.673c0.946,1.272,1.367,2.552,1.263,3.84
			C483.183,409.991,482.966,408.098,481.714,406.415z"/>
		<path fill="#FFDE17" d="M518.108,373.566l-1.561,2.263c-2.109,3.06-4.742,3.501-7.9,1.324l-16.01-11.037
			c-0.715-0.493-1.502-0.659-2.358-0.497c-0.856,0.161-1.534,0.604-2.032,1.326l-1.561,2.263l22.168,15.281l1.12-1.625l1.168,0.806
			l-5.845,8.478l-1.168-0.806l1.121-1.625l-42.945-29.605l-1.12,1.625l-1.169-0.806l6.284-9.115
			c1.494-2.167,3.416-3.569,5.766-4.207c2.349-0.637,4.429-0.332,6.239,0.916l8.747,6.03c2.821,1.945,3.773,4.843,2.857,8.693
			c3.357-2.167,6.416-2.301,9.173-0.399l15,10.34c1.157,0.799,2.08,0.698,2.769-0.301l0.088-0.127L518.108,373.566z
			 M507.053,387.104l-42.945-29.606l-0.9,1.308l42.944,29.605L507.053,387.104z M486.291,361.741l-14.431-9.948
			c-0.716-0.494-1.502-0.66-2.359-0.498c-0.856,0.161-1.534,0.604-2.032,1.326l-1.56,2.263l19.609,13.519l1.56-2.263
			c0.498-0.723,0.671-1.513,0.517-2.371C487.441,362.91,487.007,362.234,486.291,361.741z M486.293,357.887l-10.8-7.445
			c-1.747-1.204-3.64-1.364-5.677-0.481c1.247-0.143,2.534,0.243,3.86,1.157l12.6,8.686c1.326,0.914,2.155,1.987,2.486,3.219
			C488.842,360.789,488.02,359.077,486.293,357.887z M515.234,375.91c-1.085,0.538-2.312,0.335-3.68-0.608l-15.315-10.558
			c-1.726-1.19-3.618-1.351-5.677-0.481c1.269-0.129,2.556,0.257,3.86,1.156l15.662,10.798
			C512.022,377.552,513.738,377.45,515.234,375.91z"/>
		<path fill="#FFDE17" d="M481.857,317.883l-0.536,1.9L509.866,334l20.042,5.66l0.537-1.9l1.365,0.386l-2.799,9.91l-1.365-0.386
			l0.536-1.9l-20.042-5.66l-31.67-3.152l-0.537,1.9l-1.365-0.386l2.757-9.761l1.365,0.386l-0.536,1.9l27.59,2.925l-24.938-12.313
			l-0.537,1.9l-1.365-0.386l1.589-5.626L481.857,317.883z M529.046,342.715l-20.633-5.827l-31.08-2.985l-0.431,1.527l31.079,2.985
			l20.633,5.827L529.046,342.715z"/>
	</g>
	<g>
		<path fill="none" d="M287.993,306.002c0-60.208,49.265-109.017,110.036-109.017s110.036,48.809,110.036,109.017"/>
		<path fill="#FFFFFF" d="M324.523,253.55c1.919,1.125,3.112,2.833,3.578,5.124s0.045,4.551-1.259,6.777
			c-1.317,2.25-3.089,3.731-5.315,4.446c-2.226,0.715-4.299,0.51-6.219-0.614l-7.645-4.478l3.209-5.479l10.624,6.223
			c1.809,1.06,3.183,0.788,4.122-0.816c0.926-1.581,0.485-2.901-1.324-3.961l-8.241-4.827c-2.25-1.318-4.544-1.929-6.883-1.833
			l-14.568,0.664c-2.522,0.108-4.898-0.491-7.126-1.796l-6.454-3.78c-1.919-1.125-3.111-2.833-3.577-5.124
			c-0.465-2.291-0.04-4.562,1.278-6.811c1.304-2.227,3.07-3.697,5.296-4.413c2.227-0.715,4.299-0.51,6.219,0.614l7.645,4.478
			l-3.208,5.479l-10.624-6.223c-1.809-1.059-3.177-0.799-4.103,0.782c-0.939,1.604-0.503,2.935,1.305,3.995l7.943,4.652
			c2.229,1.306,4.511,1.91,6.849,1.813l14.568-0.664c2.523-0.107,4.909,0.498,7.16,1.816L324.523,253.55z M324.011,256.929
			l-7.115-4.167c-2.272-1.331-4.613-1.939-7.021-1.825l-14.535,0.684c-2.408,0.115-4.749-0.493-7.021-1.824l-6.983-4.09
			c-1.302-0.763-2.207-1.696-2.715-2.802c0.128,2.109,1.042,3.661,2.74,4.656l6.487,3.799c2.272,1.331,4.624,1.946,7.054,1.844
			l14.502-0.703c2.408-0.115,4.749,0.494,7.021,1.825l7.744,4.536c1.368,0.802,2.262,1.804,2.683,3.007
			C326.768,259.635,325.821,257.989,324.011,256.929z M295.086,239.987l-7.545-4.419c-1.809-1.06-3.708-1.08-5.697-0.062
			c1.256-0.221,2.579,0.075,3.969,0.889l8.472,4.962L295.086,239.987z M322.008,268.317c-1.213,0.097-2.481-0.242-3.805-1.017
			l-7.711-4.517l-0.802,1.37l6.917,4.051C318.284,269.187,320.084,269.225,322.008,268.317z"/>
		<path fill="#FFFFFF" d="M350.024,239.003l-14.827,13.153l-0.942-1.062l1.477-1.31l-34.614-39.021l-1.477,1.31l-0.942-1.062
			l14.828-13.153l10.944,12.337l-4.75,4.213l-10.002-11.276l-3.852,3.417l15.805,17.817l5.618-4.984l0.942,1.062l-5.618,4.984
			l17.867,20.142l3.852-3.417l-10.002-11.276l4.75-4.213L350.024,239.003z M338.106,247.678l-34.614-39.021l-1.187,1.053
			l34.614,39.021L338.106,247.678z M321.18,211.271l-9.086-10.243l-1.187,1.053l9.086,10.243L321.18,211.271z M346.708,240.048
			l-9.061-10.214l-1.188,1.053l9.061,10.214L346.708,240.048z"/>
		<path fill="#FFFFFF" d="M374.09,227.253l-9.425,4.148l-0.572-1.299l1.808-0.795l-7.739-14.025l-5.208,2.292l4.975,15.242
			l1.808-0.795l0.571,1.299l-5.456,2.402l-0.572-1.299l1.807-0.795l-16.485-51.285l5.811-2.558l26.3,46.964l1.807-0.795
			L374.09,227.253z M368.806,228.029l-25.586-45.728l-1.453,0.64l25.586,45.728L368.806,228.029z M357.534,214.049l-14.385-26.144
			l9.318,28.375L357.534,214.049z"/>
		<path fill="#FFFFFF" d="M417.788,218.477c-0.245,2.186-1.379,3.956-3.4,5.312c-2.021,1.356-4.341,1.887-6.957,1.594
			c-2.591-0.29-4.728-1.321-6.412-3.092c-1.685-1.771-2.403-3.749-2.158-5.935l4.425-39.487c0.245-2.185,1.385-3.955,3.419-5.31
			c2.035-1.354,4.347-1.886,6.938-1.596c2.616,0.293,4.761,1.325,6.432,3.094c1.672,1.77,2.385,3.747,2.14,5.932l-0.986,8.805
			l-6.31-0.707l1.371-12.235c0.097-0.864-0.128-1.635-0.675-2.314c-0.548-0.679-1.258-1.067-2.129-1.165
			c-0.873-0.098-1.65,0.124-2.334,0.665c-0.685,0.541-1.074,1.244-1.171,2.107l-5.194,46.348c-0.098,0.864,0.128,1.635,0.675,2.314
			c0.548,0.679,1.257,1.067,2.129,1.165s1.65-0.124,2.334-0.665s1.074-1.243,1.171-2.107l2.691-24.012l-3.154-0.354l0.158-1.41
			l9.464,1.061L417.788,218.477z M402.464,222.085c-0.581-1.068-0.787-2.365-0.616-3.89l4.759-42.46
			c0.168-1.499,0.654-2.706,1.457-3.619c-1.875,0.974-2.922,2.439-3.141,4.395l-4.55,40.593
			C400.156,219.035,400.854,220.696,402.464,222.085z M414.492,219.381l2.447-21.84l-1.577-0.177l-2.571,22.945
			c-0.177,1.576-0.742,2.799-1.696,3.669C413.126,222.997,414.259,221.465,414.492,219.381z M418.226,186.068l0.974-8.69
			c0.233-2.083-0.531-3.828-2.296-5.236c0.738,1.061,1.018,2.391,0.839,3.992l-1.094,9.757L418.226,186.068z"/>
		<path fill="#FFFFFF" d="M444.98,229.278c-0.927,1.995-2.564,3.312-4.912,3.955s-4.716,0.409-7.103-0.701
			c-2.364-1.099-4.062-2.756-5.096-4.97c-1.034-2.215-1.088-4.319-0.161-6.313l16.751-36.031c0.927-1.994,2.569-3.31,4.93-3.947
			c2.359-0.637,4.721-0.407,7.085,0.692c2.387,1.11,4.092,2.769,5.114,4.979c1.021,2.209,1.069,4.311,0.143,6.305L444.98,229.278z
			 M429.305,227.827c-0.212-1.198,0.006-2.493,0.652-3.884l18.012-38.744c0.636-1.368,1.48-2.357,2.532-2.968
			c-2.088,0.327-3.546,1.383-4.376,3.168l-17.219,37.04C428.087,224.202,428.22,225.998,429.305,227.827z M437.769,229.731
			l19.66-42.291c0.367-0.788,0.398-1.591,0.096-2.409c-0.303-0.817-0.853-1.411-1.648-1.781c-0.796-0.37-1.604-0.407-2.424-0.112
			s-1.414,0.838-1.78,1.625l-19.66,42.292c-0.367,0.789-0.398,1.591-0.096,2.409c0.303,0.817,0.853,1.411,1.648,1.781
			c0.795,0.37,1.604,0.407,2.424,0.112C436.809,231.062,437.402,230.52,437.769,229.731z M441.568,229.087l17.817-38.327
			c0.884-1.901,0.713-3.799-0.512-5.694c0.362,1.24,0.205,2.59-0.475,4.051l-18.739,40.309c-0.668,1.438-1.593,2.417-2.775,2.939
			C439.123,232.082,440.685,230.989,441.568,229.087z"/>
		<path fill="#FFFFFF" d="M461.729,253.269l-14.196-13.215l0.968-1.039l1.444,1.346l35.542-38.179l-1.445-1.345l0.967-1.039
			l7.537,7.017l-0.967,1.039l-1.445-1.345l-35.541,38.178l3.485,3.245l10.27-11.033l4.619,4.3L461.729,253.269z M452.27,242.523
			l35.541-38.178l-1.162-1.082l-35.541,38.178L452.27,242.523z M460.401,250.094l9.304-9.994l-1.162-1.082l-9.304,9.994
			L460.401,250.094z"/>
		<path fill="#FFFFFF" d="M482.33,271.81c-1.927,1.06-4.027,1.153-6.3,0.283c-2.273-0.871-4.044-2.459-5.312-4.766l-5.334-9.702
			l1.243-0.684l0.951,1.73l45.709-25.129l-0.951-1.73l1.243-0.684l5.334,9.702c1.269,2.307,1.661,4.653,1.179,7.039
			c-0.482,2.386-1.688,4.109-3.614,5.168L482.33,271.81z M469.107,261.452l45.709-25.129l-0.765-1.391l-45.709,25.129
			L469.107,261.452z M476.247,267.909l40.196-22.099c0.762-0.418,1.263-1.047,1.502-1.886s0.147-1.643-0.275-2.411l-1.324-2.408
			l-45.709,25.129l1.324,2.409c0.423,0.769,1.053,1.277,1.889,1.524S475.484,268.328,476.247,267.909z M479.691,269.637
			l36.332-19.974c1.859-1.022,2.851-2.643,2.974-4.86c-0.431,1.179-1.353,2.157-2.764,2.933l-38.281,21.046
			c-1.39,0.764-2.708,1.018-3.958,0.762C475.955,270.616,477.854,270.647,479.691,269.637z"/>
	</g>
	<g>
		<rect x="295.955" y="277.084" fill="none" width="10.591" height="0"/>
	</g>
	
		<line fill="none" stroke="#000000" stroke-width="2" stroke-miterlimit="10" x1="462.025" y1="306.002" x2="554.107" y2="306.002"/>
	
		<line fill="none" stroke="#000000" stroke-width="2" stroke-miterlimit="10" x1="239.914" y1="306.002" x2="331.996" y2="306.002"/>
	<g>
		<path fill="#BA4126" d="M395.154,267.161c4.699,5.07,9.363,10.103,14.226,15.349c0-2.148,0.064-4.01-0.024-5.864
			c-0.053-1.122,0.257-1.882,1.312-2.335c0.533-0.229,1.022-0.563,1.694-0.941c0.024,0.498,0.053,0.837,0.055,1.176
			c0.011,3.259,0.044,6.518,0.006,9.776c-0.01,0.909,0.151,1.646,0.85,2.282c0.598,0.544,1.102,1.193,1.783,1.946
			c0-6.897,0-13.577,0-20.417c-0.504,0.299-0.925,0.53-1.327,0.79c-2.346,1.52-4.697,3.033-7.022,4.584
			c-0.508,0.339-0.848,0.352-1.246-0.127c-0.456-0.549-0.966-1.054-1.514-1.645c4.762-3.098,9.411-6.122,14.194-9.233
			c0.048,0.41,0.115,0.714,0.115,1.018c-0.012,9.117-0.042,18.234-0.02,27.351c0.001,0.555,0.26,1.238,0.635,1.643
			c2.236,2.414,4.542,4.763,6.823,7.136c0.223,0.232,0.43,0.479,0.795,0.889c-0.632,0.033-1.073,0.077-1.515,0.076
			c-5.825-0.023-11.651-0.038-17.476-0.11c-0.444-0.005-0.981-0.331-1.311-0.668c-5.64-5.762-11.254-11.55-16.875-17.331
			c-0.112-0.115-0.238-0.216-0.444-0.403c-0.959,0.972-1.908,1.917-2.839,2.88c-4.691,4.85-9.385,9.695-14.054,14.566
			c-0.634,0.661-1.273,1.027-2.227,0.968c-1.339-0.082-2.687-0.021-4.233-0.021C375.459,289.311,385.276,278.271,395.154,267.161z"
			/>
		<path fill="#BA4126" d="M407.352,320.52c-10.803-4.659-21.279-9.729-33.332-9.712c0-2.905-0.032-5.754,0.036-8.6
			c0.01-0.41,0.465-0.842,0.781-1.206c4.318-4.964,8.649-9.917,12.975-14.874c0.341-0.39,0.673-0.788,1.056-1.237
			c0.267,0.239,0.503,0.41,0.69,0.623c5.041,5.728,10.068,11.468,15.136,17.173c0.312,0.352,0.934,0.599,1.414,0.604
			c4.672,0.045,9.345,0.028,14.018,0.031c0.256,0,0.511,0.026,0.855,0.044c0,7.477,0,14.9,0,22.526
			c-0.947-0.376-1.841-0.731-2.735-1.087c-2.364-0.941-2.366-0.941-2.365-3.52c0.002-4.772-0.012-9.543,0.028-14.314
			c0.007-0.842-0.189-1.16-1.09-1.134c-2.137,0.063-4.278,0.053-6.416,0.004c-0.802-0.018-0.997,0.272-0.99,1.027
			c0.035,3.916,0.025,7.831,0.022,11.747C407.436,319.196,407.386,319.777,407.352,320.52z M383.434,302.291
			c0,1.604,0,3.063,0,4.548c1.358,0,2.645,0,3.999,0c0-1.357,0.031-2.634-0.029-3.907c-0.01-0.223-0.392-0.599-0.619-0.612
			C385.711,302.255,384.63,302.291,383.434,302.291z M383.407,296.159c0,1.42-0.025,2.723,0.026,4.024
			c0.008,0.2,0.358,0.538,0.567,0.551c0.914,0.058,1.838,0.069,2.748-0.016c0.25-0.023,0.645-0.423,0.662-0.672
			c0.073-1.077,0.067-2.163,0.003-3.241c-0.013-0.227-0.382-0.604-0.604-0.617C385.733,296.123,384.652,296.159,383.407,296.159z
			 M393.369,306.892c0-1.401,0.031-2.68-0.029-3.955c-0.01-0.22-0.392-0.585-0.623-0.603c-0.882-0.068-1.776-0.056-2.659,0.007
			c-0.235,0.017-0.636,0.316-0.644,0.499c-0.055,1.334-0.03,2.672-0.03,4.052C390.753,306.892,391.99,306.892,393.369,306.892z
			 M393.37,296.156c-1.166,0-2.208,0.021-3.249-0.009c-0.557-0.016-0.764,0.202-0.754,0.746c0.02,1.05,0.015,2.101-0.002,3.151
			c-0.008,0.478,0.132,0.737,0.668,0.723c0.919-0.024,1.84,0.023,2.756-0.027c0.202-0.011,0.55-0.301,0.556-0.473
			C393.39,298.934,393.37,297.597,393.37,296.156z"/>
		<path fill="#BA4126" d="M452.492,331.144c-1.521,0.714-2.998,1.554-4.573,2.119c-5.517,1.979-11.248,2.358-17.034,1.887
			c-9.489-0.773-18.48-3.64-27.414-6.714c-7.429-2.556-14.89-4.975-22.579-6.684c-12.079-2.686-23.453-1.037-34.184,5.107
			c-1.711,0.979-3.42,1.96-5.181,2.97c0.018-0.122,0-0.232,0.047-0.283c5.682-6.252,12.102-11.511,19.99-14.775
			c8.297-3.433,16.712-3.341,25.212-0.829c6.988,2.065,13.617,5.044,20.297,7.896c6.317,2.697,12.599,5.488,19.202,7.448
			c7.038,2.09,14.205,3.028,21.542,2.301c1.528-0.151,3.043-0.441,4.564-0.666C452.419,330.996,452.456,331.07,452.492,331.144z"/>
		<path fill="#BA4126" d="M346.661,329.104c3.507-1.729,7.167-2.969,10.96-3.821c8.452-1.897,16.769-1.08,24.915,1.513
			c8.672,2.76,17.261,5.779,25.896,8.654c5.589,1.861,11.239,3.487,17.121,4.144c7.134,0.796,14.051,0.139,20.584-3.081
			c0.107-0.053,0.228-0.077,0.451,0.059c-0.725,0.509-1.427,1.054-2.177,1.522c-7.455,4.651-15.534,6.809-24.338,6.096
			c-7.731-0.626-14.986-3.039-22.11-5.905c-6.219-2.502-12.344-5.244-18.594-7.663c-6.584-2.548-13.414-4.001-20.539-3.655
			c-3.758,0.182-7.459,0.707-11.066,1.809C347.396,328.888,347.028,328.995,346.661,329.104z"/>
		<path fill="#BA4126" d="M356.565,315.245c-2.591-11.936-1.069-22.996,5.764-33.043c7.388-10.864,17.832-16.769,30.845-18.281
			c-1.695,1.821-2.709,4.196-5.572,4.894c-14.735,3.595-26.088,16.191-28.236,31.173c-0.602,4.199-0.474,8.405,0.459,12.557
			c0.174,0.773-0.01,1.156-0.701,1.452C358.318,314.342,357.546,314.762,356.565,315.245z"/>
		<path fill="#BA4126" d="M427.476,327.844c0.436-0.685,0.782-1.237,1.137-1.784c9.427-14.552,7.896-33.129-3.795-45.91
			c-0.71-0.776-1.554-1.432-2.232-2.232c-0.352-0.415-0.633-1.011-0.674-1.546c-0.097-1.273-0.031-2.558-0.031-4.051
			c0.4,0.252,0.677,0.388,0.91,0.578c8.267,6.743,13.438,15.323,15.145,25.882c1.658,10.255-0.308,19.827-5.797,28.651
			c-1.137,1.828-0.728,1.442-2.634,1.01C428.869,328.296,428.25,328.074,427.476,327.844z"/>
		<path fill="#BA4126" d="M407.317,265.256c-1.693,1.09-3.095,2.112-4.617,2.903c-0.497,0.258-1.528,0.161-1.935-0.201
			c-1.361-1.21-2.55-2.613-3.741-4.066C400.453,263.856,403.765,264.3,407.317,265.256z"/>
	</g>
	<g>
		<path fill="#603913" d="M396.95,489.405c-7.491,0-13.5,0.33-19.462-0.063c-16.983-1.118-33.191-5.7-49.203-11.328
			c-18.093-6.36-33.761-17.243-49.184-27.989c-10.806-7.529-20.088-17.889-28.366-28.338
			c-10.986-13.867-20.032-29.224-26.609-45.864c-4.449-11.255-8.148-22.567-10.669-34.599c-4.218-20.128-2.885-40.262-1.805-60.135
			c1.05-19.315,7.812-37.843,16.524-55.546c11.862-24.106,27.851-45.061,48.294-61.734c21.087-17.198,44.439-31.306,71.954-36.444
			c7.607-1.42,14.979-4.378,22.618-5.298c7.72-0.929,15.636-0.205,23.465-0.205c6.909,0,13.875-0.585,20.716,0.103
			c27.804,2.795,53.928,10.412,77.788,25.909c15.077,9.793,29.212,20.352,41.423,33.612c17.984,19.528,30.454,42.098,39.027,67.242
			c5.971,17.51,9.106,35.188,8.173,53.647c-0.21,4.164-0.344,8.376,0.023,12.517c1.568,17.688-3.131,34.531-8.795,50.647
			c-11.025,31.368-28.97,58.758-54.596,80.035c-12.296,10.21-25.299,20.264-40.115,26.547
			c-14.942,6.337-30.155,11.931-46.446,15.014C419.467,489.453,407.506,488.551,396.95,489.405z M396.213,166.414
			c-4.146,0-8.332-0.362-12.426,0.1c-4.274,0.482-8.461,1.754-12.685,2.685c-6.335,1.397-12.737,2.542-18.988,4.25
			c-13.374,3.655-25.06,10.979-36.764,18.085c-15.636,9.494-28.382,22.789-37.478,38.125
			c-13.837,23.328-22.619,48.877-22.695,76.816c-0.021,7.765,1.608,15.06,2.966,22.501c1.096,6.007,1.909,12.137,3.742,17.925
			c9.063,28.632,28.019,55.723,52.623,72.312c23.371,15.758,49.304,25.201,77.853,25.578c9.351,0.123,18.576,0.179,27.98-2.319
			c7.04-1.87,14.217-3.338,21.297-5.444c24.546-7.299,55.241-28.343,68.894-50.206c6.615-10.594,13.725-21.2,18.164-32.754
			c4.47-11.635,6.51-24.357,8.447-36.788c1.2-7.697,0.882-15.813,0.001-23.598c-0.638-5.636-3.616-10.988-2.544-16.964
			c-5.643-3.009-2.281-9.008-4.263-13.541c-6.433-14.715-12.821-29.002-22.494-42.219c-11.13-15.208-25.192-25.637-40.79-35.2
			C445.158,172.335,421.33,167.267,396.213,166.414z"/>
		<path fill="#603913" d="M402.619,573.628c-5.961-0.858-12.463-1.795-18.31-2.637c-0.949-1.735-1.3-2.533-1.784-3.237
			c-5.925-8.613-5.657-16.862-0.931-26.388c3.206-6.461,3.299-14.489,4.674-21.273c-2.827-3.24-4.848-5.556-7.003-8.025
			c0.84-1.469,1.478-2.586,2.682-4.691c-1.297-1.564-3.008-3.626-5.234-6.309c13.239,0,25.856,0,38.453,0
			c0.047,0.667,0.221,1.14,0.07,1.299c-1.589,1.674-3.229,3.298-4.856,4.938c0.972,1.357,1.944,2.712,2.568,3.582
			c0,1.203,0.198,1.858-0.032,2.098c-1.591,1.664-3.271,3.241-5.153,5.07c0,5.335,0,10.807,0,16.24
			c2.751,6.621,5.54,13.334,8.154,19.626C414.895,562.926,408.453,567.5,402.619,573.628z"/>
		<path fill="#603913" d="M389.036,38.372c5.147,0,9.731,0,15.27,0c3.858,5.205,8.038,10.845,12.277,16.566
			c-2.908,7.534-5.523,14.308-9.055,23.457c0,2.826,0,8.348,0,14.007c1.902,2.187,3.92,4.506,6.077,6.986
			c-1.068,1.577-1.793,2.647-3.011,4.446c1.502,1.711,3.273,3.727,5.596,6.373c-13.627,0-26.234,0-41.113,0
			c3.808-2.667,5.971-4.182,8.098-5.671c-1.592-1.73-2.508-2.725-3.984-4.328c1.691-2.355,3.463-4.822,5.649-7.866
			c3.848-10.358-1.284-20.652-5.64-29.686c-3.693-7.66-0.271-11.579,2.681-16.501C383.73,43.07,386.805,40.733,389.036,38.372z"/>
		<path fill="#603913" d="M519.369,151.166c4.629,1.83,6.739,2.665,9.277,3.668c0-2.215,0-4.396,0-7.244c3.513,0,6.551,0,9.33,0
			c6.378-6.422,12.439-11.691,13.664-21.301c0.581-4.559,5.368-9.215,9.322-12.53c4.566-3.828,10.78-3.368,16.575-2.949
			c3.901,3.927,7.803,7.856,12.033,12.116c0,3.699,0,7.734,0,10.946c-4.082,9.165-9.953,14.224-19.672,16.311
			c-5.931,1.274-10.871,7.225-15.667,10.653c-0.228,4.313-0.394,7.441-0.564,10.639c-2.613,0.309-4.786,0.566-7.162,0.847
			c0.68,2.479,1.35,4.922,2.339,8.526C539.019,170.956,530.346,162.222,519.369,151.166z"/>
		<path fill="#603913" d="M252.605,147.111c4.617,0,7.325,0,10.474,0c0.385,2.668,0.753,5.22,1.108,7.678
			c2.439-0.958,4.551-1.788,6.65-2.612c-9.043,9.107-17.8,17.926-26.423,26.61c0.506-1.389,1.289-3.537,2.23-6.121
			c-2.119-0.367-4.647-0.806-7.519-1.304c0-2.718,0-5.396,0-8.894c-6.043-5.189-10.622-11.729-20.301-13.249
			c-6.942-1.09-13.631-6.236-15.864-14.543c0-3.666,0-7.332,0-11.576c4.035-3.672,8.445-7.686,13.533-12.316
			c15.558,0.001,18.907,2.967,25.252,19.565C244.047,136.37,248.832,141.43,252.605,147.111z"/>
		<path fill="#603913" d="M238.87,448.518c0-2.559,0-5.308,0-8.605c2.552-0.399,5.083-0.795,7.661-1.198
			c-0.875-2.324-1.672-4.442-2.102-5.582c8.27,8.328,17.031,17.151,24.75,24.925c0.039,0.012-2.127-0.672-4.756-1.503
			c-0.351,1.897-0.813,4.4-1.365,7.387c-2.989,0-6.067,0-8.726,0c-6.244,6.562-11.33,12.327-13.654,21.456
			c-2.863,11.244-12.438,16.813-24.283,15.047c-4.364-4.417-8.539-8.642-13.381-13.542c-0.241-15.673,2.84-19.886,19.142-25.37
			C228.647,459.349,233.671,454.992,238.87,448.518z"/>
		<path fill="#603913" d="M521.845,458.868c8.962-9.025,17.717-17.843,26.981-27.172c-0.922,2.412-1.737,4.545-2.708,7.088
			c2.088,0,4.25,0,7.385,0c0.229,3.468,0.429,6.505,0.689,10.457c5.516,5.197,10.485,11.635,20.131,12.776
			c4.513,0.534,9.299,5.278,12.437,9.316c3.552,4.57,4.436,10.656,2.167,17.655c-2.932,2.944-6.839,6.867-11.134,11.18
			c-3.586,0-7.599,0-11.081,0c-8.833-3.953-13.808-9.942-15.978-19.641c-1.341-5.997-7.118-10.988-10.534-15.9
			c-4.242-0.231-7.336-0.4-10.746-0.586c-0.23-2.519-0.43-4.711-0.654-7.169C526.35,457.576,523.933,458.269,521.845,458.868z"/>
		<path fill="#603913" d="M170.764,294.422c2.824,0,8.299,0,14.008,0c1.801-1.73,3.76-3.613,6.248-6.003
			c1.593,0.957,3.351,2.014,5.04,3.029c0.95-0.794,1.882-1.574,3.489-2.918c0,11.578,0,22.396,0,34.065
			c-1.475-1.144-2.365-1.834-3.289-2.552c-1.668,0.905-3.424,1.858-5.609,3.043c-1.797-2.633-3.355-4.915-3.554-5.207
			c-15.679-4.058-26.626,3.983-39.714,7.995c-5.261-3.879-10.856-8.005-17.163-12.656c0.959-7.153,1.877-14.006,2.663-19.866
			c6.027-2.918,10.605-5.135,15.689-7.597C155.03,288.279,161.734,290.897,170.764,294.422z"/>
		<path fill="#603913" d="M593.148,288.548c1.607,1.323,2.537,2.088,3.486,2.87c1.286-0.901,2.64-1.85,5.694-3.989
			c1.106,2.616,2.211,5.23,2.834,6.702c7.383,0,12.819,0,18.279,0c6.521-2.746,13.193-5.556,19.555-8.235
			c8.804,1.124,13.372,7.582,18.786,12.751c0,4.674,0,9.311,0,14.934c-5.14,3.876-10.75,8.106-16.513,12.452
			c-7.423-2.92-14.158-5.57-23.241-9.143c-2.831,0-8.324,0-14.113,0c-1.758,1.681-3.73,3.567-6.229,5.957
			c-1.596-0.944-3.364-1.99-5.056-2.991c-0.952,0.782-1.881,1.544-3.484,2.859C593.148,311.06,593.148,300.2,593.148,288.548z"/>
		<path fill="#603913" d="M327.605,324.901c-10.898-2.851-21.288-5.57-32.339-8.461c-1.801,2.852-3.629,5.748-5.655,8.957
			c-1.056-0.39-2.661-0.491-3.387-1.348c-1.908-2.25-3.434-4.83-5.834-8.332c-2.82,3.307-5.429,6.366-8.635,10.126
			c-1.638-1.443-3.259-2.87-5.082-4.475c0-10.429,0-20.966,0-31.361c1.482-1.428,2.793-2.692,3.988-3.844
			c6.269-0.582,5.721,5.898,9.548,9.019c2.504-3.295,4.93-6.488,7.908-10.407c2.919,3.987,5.111,6.983,7.19,9.823
			c8.865-0.221,15.771-6.812,24.449-5.669c7.038-6.385,12.774,0.491,19.041,1.914c0.824,0.187,1.603,0.578,3.184,1.164
			c1.909-2.632,4.039-5.569,7.362-10.151c0,0.077,0-2.703,0-6.023c-3.841-1.425-7.842-2.909-14.609-5.419
			c-7.457-5.692-8.738-18.722-16.72-28.802c-3.791,0-8.132,0-13.459,0c0.906-4.003,1.552-6.854,2.382-10.521
			c-3.762-0.372-8.311-0.822-13.511-1.336c4.557-14.12,15.415-20.73,27.431-28.444c0.463,5.474,0.827,9.785,1.208,14.29
			c2.285,1.805,2.424-1.676,3.839-1.809c1.823-0.172,3.673-0.042,6.453-0.042c0.229,4.363,0.459,8.759,0.703,13.421
			c4.951,2.901,9.483,6.822,14.703,8.338c9.391,2.727,14.95,8.258,17.225,17.608c0.401,1.646,1.268,3.177,2.007,4.973
			c2.614,0,5.316,0,8.806,0c2.06-2.007,4.62-4.5,6.978-6.798c-2.006-5.48-3.772-10.306-5.61-15.327
			c3.261-9.986,4.29-20.899,9.065-31.375c-3.455-2.515-6.445-4.691-10.535-7.669c3.515-2.67,6.461-4.908,10.242-7.78
			c-3.064-3.168-6.252-6.464-10.714-11.077c14.775,0,27.407,0,41.913,0c-2.134,2.467-3.134,3.903-4.406,5.026
			c-1.881,1.66-3.956,3.097-6.407,4.981c3.915,3.294,6.991,5.883,10.579,8.903c-3.944,2.872-6.934,5.05-10.389,7.566
			c4.694,10.434,5.857,21.311,9.003,31.601c-1.766,4.759-3.554,9.578-5.577,15.031c2.406,2.254,5.016,4.698,7.427,6.955
			c2.935,0,5.656,0,7.923,0c1.547-2.531,4.112-4.785,4.025-6.932c-0.325-8.073,5.084-10.654,10.884-13.457
			c6.574-3.176,12.964-6.737,19.557-10.196c0-4.615,0-8.659,0-13.948c3.819,0.593,6.973,1.083,10.937,1.698
			c0.148-3.153,0.354-7.549,0.629-13.4c12.623,6.523,22.999,13.629,28.169,28.086c-5.155,0.287-9.52,0.531-13.943,0.777
			c0.854,3.371,1.645,6.49,2.616,10.319c-4.893,0-8.901,0-13.397,0c-3.168,5.419-7.083,10.352-9.062,15.975
			c-2.158,6.131-5.351,11.047-8.493,13.835c-5.501,1.909-9.147,3.174-13.317,4.621c0,2.902,0,6.003,0,7.531
			c2.555,3.539,4.676,6.478,6.549,9.072c5.348-2.096,9.702-3.802,14.68-5.753c10.02,2.631,20.841,5.473,32.313,8.485
			c1.807-2.861,3.635-5.757,5.662-8.966c1.053,0.388,2.66,0.486,3.386,1.342c1.908,2.251,3.433,4.833,5.833,8.336
			c2.821-3.306,5.43-6.365,8.636-10.123c1.637,1.438,3.259,2.863,5.085,4.467c0,10.43,0,20.967,0,30.549
			c-1.629,2.086-2.758,3.532-3.613,4.627c-6.635,0.614-6.102-5.85-9.922-8.994c-2.504,3.299-4.927,6.493-7.905,10.416
			c-2.918-3.985-5.111-6.98-7.311-9.985c-10.791,2.817-21.185,5.53-32.092,8.377c-4.147-1.617-8.912-3.475-14.449-5.635
			c-1.914,2.647-4.041,5.588-7.379,10.205c0-0.124,0,2.657,0,5.981c3.837,1.424,7.838,2.908,14.618,5.423
			c7.449,5.683,8.726,18.715,16.709,28.793c3.79,0,8.131,0,13.459,0c-0.903,4.002-1.546,6.853-2.373,10.521
			c3.758,0.375,8.304,0.829,12.983,1.296c-5.052,15.783-7.949,13.791-26.952,27.939c-0.417-4.921-0.783-9.232-1.165-13.739
			c-2.279-1.808-2.42,1.672-3.832,1.808c-1.823,0.176-3.674,0.043-6.453,0.043c-0.232-4.358-0.465-8.754-0.713-13.422
			c-4.942-2.896-9.475-6.802-14.695-8.335c-9.36-2.749-14.983-8.22-17.226-17.605c-0.394-1.647-1.267-3.177-2.006-4.975
			c-2.616,0-5.322,0-8.838,0c-2.038,1.993-4.592,4.492-6.948,6.797c2.002,5.474,3.768,10.3,5.608,15.332
			c-3.264,9.974-4.292,20.887-9.066,31.369c3.452,2.513,6.442,4.69,10.534,7.669c-3.512,2.668-6.457,4.906-10.24,7.779
			c3.062,3.166,6.25,6.463,10.713,11.077c-14.771,0-27.403,0-39.917,0c-2.436-7.687,6.565-5.967,7.839-10.826
			c-2.936-2.469-6.012-5.057-9.604-8.078c3.944-2.873,6.934-5.051,9.685-7.055c-0.57-8.717-3.992-16.133-6.367-23.306
			c-2.789-8.423,0.02-14.067,2.825-20.665c0.334-0.787,0.397-1.69,0.744-3.248c-2.329-2.175-4.942-4.615-7.374-6.885
			c-2.9,0-5.618,0-8.263,0c-2.025,4.925-2.824,10.906-6.21,14.137c-4.857,4.635-11.603,7.26-17.538,10.752
			c-3.355,1.974-6.701,3.963-10.348,6.121c0,4.187,0,8.231,0,13.521c-3.818-0.592-6.969-1.081-10.936-1.696
			c-0.15,3.15-0.36,7.545-0.609,12.778c-7.766-0.407-10.45-8.008-16.435-10.594c-5.871-2.537-9.448-9.1-11.441-16.882
			c4.833-0.273,9.198-0.52,13.62-0.769c-0.851-3.362-1.641-6.482-2.611-10.313c4.889,0,8.897,0,12.691,0
			c8.724-9.469,9.608-23.356,17.984-29.718c5.766-1.998,9.411-3.261,13.593-4.711c0-2.902,0-6.001,0-7.573
			c-2.541-3.506-4.667-6.44-6.545-9.031C336.915,321.259,332.559,322.963,327.605,324.901z M360.808,287.086
			c-2.131,10.39-4.794,19.823-1.494,30.46c3.554,11.454,12.537,16.975,20.124,24.285c18.062,4.977,32.31,7.004,52.863-18.811
			c12.035-32.993-14.188-62.86-48.707-56.042C373.951,271.648,368.129,280.682,360.808,287.086z"/>
		<path fill="#603913" d="M368.923,295.879c5.457-6.337,10.37-13.018,18.261-17.868c5.406,0,11.763,0,18.494,0
			c7.144,4.225,13.565,8.486,16.781,18.297c3.007,9.174-0.764,16.373-1.45,25.466c-4.48,3.693-9.594,7.908-14.199,11.705
			c-6.34,0-11.838,0-15.242,0C371.313,327.114,367.121,313.047,368.923,295.879z M403.271,319.556
			c2.257-2.273,4.514-4.546,6.842-6.89c0-4.502,0-9.075,0-11.062c-2.975-4.567-4.952-7.602-6.285-9.648c-5.883,0-10.377,0-13.385,0
			c-3.401,2.789-5.853,4.8-7.787,6.387c0,5.38,0,9.939,0,14.042c2.457,2.629,4.636,4.961,6.703,7.172
			C394.15,319.556,398.71,319.556,403.271,319.556z"/>
	</g>
	<circle fill="#FBB042" stroke="#603A16" stroke-width="4" stroke-miterlimit="10" cx="397.01" cy="306.002" r="196.371"/>
	<g>
		<path fill="#75BEE9" d="M520.488,208.877c-89.139,30.935-85.159,15.474-163.956-7.109c-31.747-9.098-58.44-5.42-79.321,2.605
			c28.814-33.933,71.793-55.468,119.799-55.468C447.111,148.905,491.726,172.352,520.488,208.877z"/>
		<path fill="#53B7E8" d="M539.602,239.995c-62.786,35.504-94.271,42.992-130.888,30.228c-14.191-4.935-29.141-12.921-46.998-23.499
			c-36.957-21.876-76.139-20.462-103.068-15.186c5.237-9.714,11.468-18.812,18.564-27.165c20.881-8.025,47.574-11.704,79.321-2.605
			c78.797,22.583,74.817,38.044,163.956,7.109C528.016,218.42,534.444,228.854,539.602,239.995z"/>
		<path fill="#27AAE1" d="M551.855,279.361c-91.26,47.365-118.739,43.188-184.916,7.488c-47.64-25.698-98.905-17.058-124.316-10.015
			c3.011-16.102,8.496-31.328,16.024-45.296c26.929-5.276,66.111-6.69,103.068,15.186c17.857,10.578,32.807,18.564,46.998,23.499
			c36.617,12.764,68.101,5.276,130.888-30.228C545.336,252.327,549.499,265.536,551.855,279.361z"/>
		<path fill="#3777BC" d="M554.107,306.002c0,7.672-0.55,15.225-1.623,22.596c-82.751,46.514-112.573,39.366-178.278-1.44
			c-51.829-32.192-107.703-20.344-133.99-11.651c-0.21-3.142-0.301-6.31-0.301-9.504c0-9.963,0.93-19.716,2.71-29.168
			c25.41-7.043,76.676-15.683,124.316,10.015c66.177,35.7,93.656,39.876,184.916-7.488
			C553.334,288.014,554.107,296.916,554.107,306.002z"/>
		<path fill="#1268B3" d="M552.484,328.597c-5.381,37.402-23.957,70.563-50.847,94.572c-42.023-2.186-89.754-15.003-129.749-43.477
			c-45.414-32.336-95.58-26.772-122.588-20.095c-5.053-13.89-8.182-28.683-9.085-44.092c26.287-8.693,82.161-20.54,133.99,11.651
			C439.911,367.963,469.733,375.111,552.484,328.597z"/>
		<path fill="#005B99" d="M501.637,423.17c-27.78,24.834-64.449,39.929-104.626,39.929c-67.931,0-125.808-43.136-147.71-103.501
			c27.008-6.677,77.174-12.24,122.588,20.095C411.882,408.167,459.613,420.983,501.637,423.17z"/>
	</g>
	<g>
		<path fill="none" d="M573.744,306.002c0,97.607-79.126,176.734-176.734,176.734s-176.734-79.126-176.734-176.734"/>
		<path d="M291.522,441.702l1.285,1.039l-2.167,2.68l-1.285-1.039c0.413-1.257,0.17-2.25-0.73-2.978
			c-0.744-0.602-1.511-0.803-2.301-0.604c-0.791,0.198-1.472,0.651-2.043,1.358c-0.599,0.74-0.881,1.502-0.848,2.285
			c0.033,0.783,0.361,1.427,0.984,1.931c0.51,0.412,1.097,0.601,1.76,0.563s1.311-0.309,1.943-0.815l0.921,1.925
			c-1.997,1.306-3.962,1.177-5.898-0.388c-1.367-1.105-2.1-2.307-2.199-3.604s0.307-2.51,1.217-3.637
			c0.648-0.802,1.396-1.357,2.244-1.667c0.847-0.311,1.699-0.37,2.556-0.182c0.856,0.189,1.649,0.579,2.378,1.169
			c0.908,0.733,1.476,1.585,1.706,2.554L291.522,441.702z"/>
		<path d="M299.977,447.659c1.392,0.955,2.21,2.108,2.457,3.46c0.246,1.352-0.027,2.605-0.82,3.762
			c-0.796,1.159-1.869,1.865-3.219,2.118s-2.72-0.097-4.107-1.049c-1.442-0.989-2.266-2.162-2.473-3.518s0.072-2.59,0.836-3.703
			c0.791-1.152,1.859-1.858,3.207-2.119S298.578,446.699,299.977,447.659z M298.966,449.132c-0.618-0.424-1.302-0.553-2.051-0.384
			c-0.75,0.168-1.432,0.7-2.047,1.597c-0.544,0.792-0.766,1.572-0.667,2.339c0.099,0.768,0.463,1.367,1.093,1.8
			c0.619,0.424,1.304,0.552,2.057,0.384c0.752-0.169,1.43-0.691,2.032-1.569c0.539-0.784,0.768-1.562,0.689-2.333
			C299.992,450.194,299.624,449.583,298.966,449.132z"/>
		<path d="M301.955,460.957l0.81-1.441l1.104,0.62l3.173-5.646l-1.104-0.62l0.81-1.44l4.277,2.404l-0.937,6.046l4.689-3.938
			l4.359,2.45l-0.81,1.44l-1.104-0.62l-3.173,5.646l1.104,0.62l-0.81,1.44l-4.291-2.411l0.81-1.44l1.03,0.578l3.173-5.646
			l-0.203-0.113l-6.624,5.601l-0.919-0.517l1.31-8.588l-0.202-0.113l-3.173,5.646l1.116,0.627l-0.81,1.44L301.955,460.957z"/>
		<path d="M317.402,469.349l0.69-1.501l1.271,0.584l2.704-5.885l-1.271-0.584l0.69-1.501l7.955,3.655l-1.26,2.74l-1.699-0.78
			l0.569-1.24l-2.671-1.227l-0.945,2.057l1.923,0.884l-0.69,1.502l-1.923-0.884l-1.068,2.325l1.367,0.629l-0.69,1.501
			L317.402,469.349z"/>
		<path d="M337.021,466.917c1.581,0.59,2.655,1.511,3.221,2.763c0.566,1.252,0.604,2.534,0.115,3.848
			c-0.492,1.317-1.362,2.263-2.611,2.835s-2.662,0.564-4.239-0.023c-1.638-0.611-2.722-1.55-3.25-2.814
			c-0.529-1.266-0.557-2.531-0.085-3.796c0.488-1.309,1.354-2.253,2.598-2.832S335.431,466.324,337.021,466.917z M336.397,468.591
			c-0.703-0.263-1.397-0.221-2.084,0.123c-0.686,0.345-1.219,1.026-1.599,2.046c-0.336,0.9-0.363,1.71-0.081,2.431
			c0.281,0.721,0.78,1.214,1.496,1.481c0.703,0.262,1.399,0.22,2.088-0.126c0.689-0.346,1.22-1.017,1.591-2.014
			c0.333-0.892,0.367-1.702,0.104-2.431S337.144,468.869,336.397,468.591z"/>
		<path d="M352.314,480.458l-0.456,1.588l-2.864-0.822l-0.941-4.726l-1.076-0.309l-0.726,2.527l1.176,0.338l-0.456,1.588
			l-4.913-1.411l0.456-1.588l1.291,0.371l1.788-6.225l-1.291-0.371l0.456-1.588l5.67,1.628c1.068,0.307,1.76,0.797,2.076,1.471
			c0.316,0.674,0.376,1.351,0.181,2.031c-0.307,1.067-1.073,1.691-2.3,1.87l0.712,3.277L352.314,480.458z M347.409,474.688
			l0.838,0.241c1.036,0.298,1.661,0.077,1.873-0.662c0.105-0.365,0.065-0.672-0.12-0.92c-0.185-0.248-0.485-0.432-0.899-0.551
			l-1.062-0.305L347.409,474.688z"/>
		<path d="M355.995,482.994l0.347-1.616l1.438,0.31l1.36-6.332l-1.438-0.309l-0.479,2.228l-1.643-0.354l0.825-3.843l8.669,1.862
			l-0.825,3.843l-1.623-0.348l0.479-2.228l-1.478-0.317l-1.36,6.331l1.437,0.309l-0.347,1.615L355.995,482.994z"/>
		<path d="M381.925,485.419l-0.183,1.643l-4.78-0.531l0.183-1.643l1.244,0.139l-0.276-1.722l-2.522-0.28l-0.703,1.612l1.3,0.145
			l-0.183,1.643l-4.305-0.479l0.183-1.643l1.202,0.134l2.609-6.226l-1.293-0.144l0.183-1.643l6.346,0.705l-0.183,1.643l-1.308-0.146
			l1.326,6.663L381.925,485.419z M377.874,481.835l-0.485-3.019l-1.199,2.831L377.874,481.835z"/>
		<path d="M387.656,487.48l-2.522-8.278l-1.033-0.034l0.055-1.651l4.406,0.145l-0.055,1.651l-1.012-0.033l1.436,4.746l1.643-4.646
			l-0.886-0.029l0.055-1.651l3.514,0.115l-0.054,1.651l-0.907-0.029l1.449,4.746l1.692-4.644l-0.977-0.032l0.054-1.651l3.916,0.128
			l-0.055,1.651l-1.061-0.035l-2.967,8.1l-1.827-0.06l-1.393-4.513l-1.601,4.415L387.656,487.48z"/>
		<path d="M410.189,485.567l0.074,1.65l-4.806,0.214l-0.073-1.65l1.251-0.056l-0.539-1.658l-2.536,0.113l-0.444,1.701l1.307-0.058
			l0.073,1.65l-4.327,0.193l-0.073-1.651l1.208-0.054l1.615-6.555l-1.3,0.059l-0.073-1.651l6.379-0.284l0.073,1.651l-1.313,0.059
			l2.339,6.378L410.189,485.567z M405.633,482.652l-0.946-2.907l-0.747,2.982L405.633,482.652z"/>
		<path d="M414.752,486.787l-0.183-1.643l1.362-0.151l-0.292-2.628l-3.059-3.516l-1.188,0.133l-0.183-1.643l4.864-0.542l0.183,1.643
			l-0.957,0.106l1.691,2.211l1.185-2.531l-1.004,0.112l-0.183-1.643l4.284-0.477l0.183,1.642l-1.195,0.134l-2.092,4.088l0.293,2.628
			l1.355-0.15l0.183,1.642L414.752,486.787z"/>
		<path d="M431.014,484.497l-0.345-1.616l1.368-0.293l-1.354-6.332l-1.368,0.292l-0.346-1.615l8.561-1.831l0.631,2.95l-1.829,0.391
			l-0.285-1.334l-2.874,0.615l0.474,2.214l2.069-0.442l0.346,1.615l-2.069,0.442l0.535,2.503l1.471-0.314l0.346,1.616
			L431.014,484.497z"/>
		<path d="M451.784,477.565l0.455,1.588l-2.864,0.821l-3.303-3.508l-1.076,0.309l0.725,2.528l1.177-0.338l0.455,1.589l-4.914,1.409
			l-0.455-1.589l1.291-0.37l-1.785-6.225l-1.291,0.37l-0.455-1.589l5.671-1.626c1.067-0.307,1.914-0.258,2.54,0.146
			c0.625,0.404,1.035,0.946,1.23,1.626c0.306,1.068-0.014,2.004-0.959,2.806l2.342,2.401L451.784,477.565z M444.566,475.275
			l0.838-0.24c1.036-0.298,1.448-0.815,1.236-1.555c-0.104-0.365-0.301-0.604-0.589-0.716s-0.64-0.109-1.055,0.01l-1.061,0.304
			L444.566,475.275z"/>
		<path d="M456.623,467.059c1.583-0.586,2.997-0.59,4.244-0.012c1.246,0.578,2.112,1.524,2.6,2.839
			c0.488,1.318,0.446,2.603-0.126,3.852s-1.647,2.166-3.226,2.751c-1.64,0.606-3.073,0.604-4.3-0.009
			c-1.227-0.613-2.074-1.553-2.543-2.819c-0.485-1.31-0.446-2.59,0.118-3.841C453.954,468.568,455.032,467.647,456.623,467.059z
			 M457.244,468.733c-0.704,0.261-1.203,0.745-1.498,1.454s-0.253,1.573,0.125,2.594c0.333,0.9,0.842,1.532,1.525,1.894
			c0.685,0.362,1.385,0.41,2.101,0.145c0.704-0.26,1.203-0.746,1.5-1.459c0.296-0.712,0.259-1.566-0.11-2.564
			c-0.33-0.893-0.833-1.528-1.509-1.908S457.991,468.457,457.244,468.733z"/>
		<path d="M468.62,473.112l-0.711-1.492l1.143-0.544l-2.785-5.847l-1.143,0.544l-0.711-1.491l4.429-2.11l4.402,4.249l-0.516-6.101
			l4.514-2.15l0.711,1.491l-1.143,0.545l2.785,5.846l1.143-0.544l0.711,1.491l-4.443,2.117l-0.711-1.491l1.066-0.508l-2.785-5.847
			l-0.21,0.1l0.761,8.642l-0.952,0.454l-6.265-6.02l-0.209,0.1l2.785,5.847l1.155-0.551l0.711,1.491L468.62,473.112z"/>
		<path d="M489.587,462.371l-0.883-1.397l1.035-0.653l-3.457-5.476l-1.035,0.653l-0.882-1.397l3.995-2.522l0.883,1.397l-0.868,0.548
			l1.145,1.813l2.254-1.423l-1.146-1.813l-0.838,0.529l-0.883-1.397l3.966-2.504l0.883,1.397l-1.035,0.653l3.457,5.476l1.035-0.652
			l0.882,1.396l-3.966,2.504l-0.882-1.397l0.838-0.529l-1.426-2.259l-2.254,1.423l1.427,2.259l0.868-0.548l0.882,1.397
			L489.587,462.371z"/>
		<path d="M499.547,443.72c1.353-1.009,2.709-1.412,4.067-1.209c1.359,0.203,2.458,0.866,3.296,1.99
			c0.841,1.127,1.162,2.37,0.966,3.73c-0.196,1.359-0.969,2.543-2.317,3.549c-1.402,1.045-2.777,1.447-4.128,1.205
			c-1.35-0.241-2.428-0.903-3.235-1.986c-0.835-1.119-1.158-2.359-0.971-3.719C497.413,445.921,498.187,444.734,499.547,443.72z
			 M500.615,445.151c-0.602,0.448-0.943,1.055-1.026,1.818c-0.083,0.763,0.201,1.581,0.852,2.452
			c0.574,0.771,1.24,1.232,1.999,1.387c0.758,0.153,1.442,0.002,2.056-0.454c0.601-0.448,0.943-1.057,1.026-1.823
			s-0.193-1.576-0.829-2.43c-0.569-0.763-1.231-1.23-1.986-1.404C501.95,444.523,501.254,444.675,500.615,445.151z"/>
		<path d="M512.77,446.138l-1.102-1.231l0.943-0.844l-4.318-4.826l-0.942,0.844l-1.103-1.231l3.656-3.271l5.42,2.84l-2.212-5.71
			l3.727-3.334l1.102,1.231l-0.943,0.844l4.318,4.827l0.943-0.845l1.102,1.231l-3.668,3.282l-1.102-1.231l0.88-0.788l-4.317-4.826
			l-0.173,0.155l3.161,8.078l-0.786,0.703l-7.705-4.014l-0.173,0.155l4.318,4.826l0.954-0.854l1.102,1.231L512.77,446.138z"/>
		<path d="M525.761,434.176l-1.198-1.138l0.809-0.852l-4.696-4.459l-0.809,0.852l-1.198-1.138l5.936-6.252l2.249,2.136l-1.288,1.355
			l-1.05-0.997l-2.087,2.198l1.637,1.554l1.685-1.774l1.198,1.138l-1.685,1.774l1.861,1.768l2.087-2.198l-1.061-1.007l1.287-1.356
			l2.259,2.145L525.761,434.176z"/>
	</g>
	<g>
		<path fill="none" d="M220.277,306.002c0-97.607,79.126-176.734,176.734-176.734s176.734,79.126,176.734,176.734"/>
		<path d="M285.048,162.945l1.283-1.042l2.172,2.675l-1.283,1.042c-1.144-0.665-2.166-0.633-3.064,0.097
			c-0.742,0.603-1.098,1.312-1.067,2.126c0.03,0.814,0.333,1.575,0.906,2.281c0.6,0.739,1.286,1.173,2.06,1.303
			c0.772,0.13,1.47-0.058,2.093-0.563c0.509-0.414,0.814-0.949,0.916-1.604c0.101-0.656-0.031-1.346-0.396-2.07l2.074-0.502
			c0.864,2.224,0.33,4.121-1.602,5.69c-1.364,1.108-2.692,1.576-3.982,1.404c-1.29-0.172-2.392-0.82-3.305-1.945
			c-0.65-0.8-1.039-1.647-1.166-2.54c-0.127-0.893-0.01-1.739,0.353-2.538c0.362-0.798,0.908-1.494,1.635-2.084
			c0.906-0.736,1.857-1.116,2.853-1.139L285.048,162.945z"/>
		<path d="M293.928,156.254c1.39-0.958,2.759-1.311,4.11-1.058c1.35,0.253,2.423,0.957,3.219,2.111
			c0.798,1.157,1.074,2.412,0.828,3.764s-1.063,2.505-2.448,3.46c-1.439,0.993-2.829,1.343-4.169,1.052s-2.393-0.993-3.16-2.104
			c-0.793-1.15-1.07-2.401-0.833-3.752C291.714,158.375,292.531,157.218,293.928,156.254z M294.942,157.725
			c-0.618,0.426-0.981,1.019-1.093,1.778c-0.111,0.76,0.143,1.587,0.76,2.483c0.546,0.791,1.194,1.277,1.946,1.459
			c0.752,0.182,1.442,0.056,2.071-0.378c0.617-0.426,0.982-1.02,1.093-1.783c0.112-0.763-0.135-1.583-0.739-2.458
			c-0.54-0.784-1.185-1.276-1.933-1.478C296.3,157.147,295.598,157.272,294.942,157.725z"/>
		<path d="M306.414,159.776l-0.813-1.438l1.102-0.623l-3.186-5.638l-1.102,0.623l-0.812-1.439l4.271-2.413l4.687,3.933l-0.939-6.05
			l4.353-2.459l0.813,1.438l-1.102,0.623l3.186,5.639l1.102-0.623l0.813,1.438l-4.286,2.421l-0.812-1.439l1.028-0.581l-3.186-5.638
			l-0.202,0.114l1.36,8.567l-0.918,0.519l-6.668-5.569l-0.202,0.114l3.186,5.638l1.114-0.629l0.812,1.438L306.414,159.776z"/>
		<path d="M321.134,151.712l-0.693-1.5l1.27-0.587l-2.717-5.878l-1.27,0.587l-0.693-1.5l7.946-3.673l1.266,2.738l-1.698,0.785
			l-0.572-1.238l-2.668,1.233l0.95,2.055l1.921-0.888l0.693,1.5l-1.921,0.888l1.074,2.323l1.366-0.631l0.693,1.5L321.134,151.712z"
			/>
		<path d="M333.103,135.774c1.58-0.593,2.995-0.604,4.244-0.031c1.249,0.572,2.12,1.515,2.612,2.827
			c0.495,1.317,0.458,2.601-0.108,3.853c-0.566,1.252-1.637,2.173-3.212,2.765c-1.637,0.615-3.07,0.619-4.3,0.011
			s-2.082-1.543-2.556-2.807c-0.491-1.308-0.458-2.588,0.101-3.842C330.441,137.296,331.515,136.371,333.103,135.774z
			 M333.731,137.446c-0.702,0.264-1.199,0.751-1.49,1.461s-0.246,1.575,0.136,2.593c0.338,0.899,0.85,1.528,1.535,1.887
			c0.685,0.359,1.386,0.404,2.101,0.135c0.702-0.264,1.2-0.752,1.492-1.465c0.293-0.713,0.252-1.568-0.122-2.564
			c-0.334-0.891-0.84-1.524-1.518-1.901C335.189,137.214,334.477,137.166,333.731,137.446z"/>
		<path d="M353.729,137.862l0.459,1.587l-2.862,0.829l-3.312-3.499l-1.075,0.312l0.731,2.526l1.175-0.34l0.459,1.587l-4.91,1.422
			l-0.459-1.587l1.29-0.374l-1.801-6.22l-1.29,0.374l-0.46-1.587l5.667-1.641c1.067-0.309,1.914-0.262,2.54,0.14
			s1.038,0.942,1.235,1.623c0.309,1.067-0.008,2.003-0.951,2.808l2.348,2.395L353.729,137.862z M346.504,135.591l0.837-0.243
			c1.036-0.3,1.446-0.819,1.232-1.557c-0.105-0.365-0.302-0.603-0.591-0.715c-0.289-0.111-0.64-0.107-1.054,0.013l-1.061,0.307
			L346.504,135.591z"/>
		<path d="M357.658,138.66l-0.351-1.615l1.436-0.312l-1.375-6.328l-1.437,0.312l0.484,2.227l-1.643,0.356l-0.834-3.841l8.665-1.883
			l0.835,3.841l-1.622,0.353l-0.483-2.226l-1.478,0.321l1.375,6.329l1.437-0.312l0.351,1.615L357.658,138.66z"/>
		<path d="M382.262,133.049l0.186,1.642l-4.778,0.542l-0.187-1.642l1.244-0.141l-0.65-1.618l-2.522,0.286l-0.328,1.729l1.3-0.147
			l0.186,1.642l-4.304,0.488l-0.186-1.642l1.201-0.136l1.164-6.649l-1.292,0.146l-0.187-1.642l6.345-0.719l0.186,1.642l-1.307,0.148
			l2.77,6.204L382.262,133.049z M377.516,130.452l-1.142-2.835l-0.542,3.026L377.516,130.452z"/>
		<path d="M387.599,134.442l-3.074-8.09l-1.033,0.036l-0.058-1.651l4.406-0.153l0.058,1.651l-1.013,0.035l1.752,4.639l1.326-4.746
			l-0.885,0.031l-0.058-1.651l3.514-0.122l0.057,1.651l-0.906,0.031l1.766,4.639l1.376-4.748l-0.977,0.034l-0.058-1.651l3.915-0.136
			l0.058,1.651l-1.062,0.037l-2.413,8.281l-1.827,0.064l-1.694-4.409l-1.299,4.513L387.599,134.442z"/>
		<path d="M409.52,132.876l-0.069,1.651l-4.806-0.204l0.07-1.651l1.25,0.053l-0.393-1.699l-2.536-0.107l-0.591,1.657l1.307,0.055
			l-0.07,1.651l-4.327-0.183l0.07-1.651l1.208,0.051l2.178-6.39l-1.3-0.055l0.07-1.651l6.379,0.27l-0.07,1.651l-1.313-0.056
			l1.777,6.557L409.52,132.876z M405.232,129.577l-0.69-2.978l-1.002,2.906L405.232,129.577z"/>
		<path d="M413.265,134.896l0.179-1.643l1.363,0.148l0.286-2.628l-2.221-4.097l-1.188-0.129l0.179-1.643l4.865,0.53l-0.18,1.643
			l-0.956-0.104l1.169,2.526l1.707-2.213l-1.004-0.109l0.179-1.643l4.285,0.466l-0.179,1.643l-1.195-0.13l-2.932,3.536l-0.286,2.628
			l1.356,0.147l-0.18,1.643L413.265,134.896z"/>
		<path d="M428.576,136.996l0.341-1.617l1.369,0.289l1.34-6.336l-1.369-0.289l0.342-1.617l8.564,1.81l-0.623,2.951l-1.83-0.387
			l0.282-1.334l-2.876-0.608l-0.469,2.215l2.071,0.438l-0.342,1.617l-2.07-0.438l-0.529,2.504l1.472,0.312l-0.342,1.617
			L428.576,136.996z"/>
		<path d="M449.648,140.548l-0.451,1.589l-2.866-0.815l-0.953-4.723l-1.076-0.306l-0.72,2.53l1.177,0.334l-0.452,1.589l-4.916-1.398
			l0.451-1.589l1.292,0.368l1.771-6.229l-1.291-0.368l0.451-1.589l5.675,1.614c1.068,0.304,1.762,0.792,2.08,1.465
			c0.317,0.673,0.38,1.35,0.187,2.031c-0.305,1.068-1.069,1.694-2.296,1.876l0.721,3.275L449.648,140.548z M444.729,134.791
			l0.839,0.239c1.037,0.295,1.661,0.073,1.871-0.667c0.104-0.365,0.063-0.671-0.122-0.919s-0.486-0.431-0.9-0.549l-1.062-0.302
			L444.729,134.791z"/>
		<path d="M459.737,135.336c1.584,0.583,2.662,1.499,3.234,2.748s0.616,2.531,0.133,3.847c-0.485,1.32-1.352,2.269-2.598,2.847
			c-1.247,0.578-2.659,0.577-4.239-0.004c-1.641-0.604-2.729-1.537-3.264-2.799c-0.534-1.263-0.568-2.528-0.103-3.795
			c0.481-1.311,1.344-2.259,2.585-2.844S458.145,134.75,459.737,135.336z M459.121,137.012c-0.704-0.259-1.398-0.214-2.083,0.133
			s-1.215,1.032-1.59,2.053c-0.331,0.902-0.354,1.712-0.069,2.431c0.284,0.719,0.785,1.21,1.503,1.475
			c0.704,0.259,1.399,0.213,2.087-0.135c0.688-0.349,1.216-1.023,1.583-2.022c0.328-0.893,0.358-1.703,0.092-2.431
			S459.869,137.288,459.121,137.012z"/>
		<path d="M464.056,147.565l0.708-1.493l1.144,0.542l2.772-5.853l-1.145-0.542l0.708-1.494l4.434,2.1l-0.514,6.097l4.404-4.254
			l4.519,2.14l-0.708,1.494l-1.144-0.542l-2.772,5.853l1.145,0.542l-0.708,1.493l-4.448-2.107l0.708-1.493l1.067,0.506l2.772-5.853
			l-0.21-0.099l-6.219,6.049l-0.953-0.452l0.709-8.658l-0.21-0.1l-2.771,5.853l1.156,0.547l-0.707,1.494L464.056,147.565z"/>
		<path d="M484.033,157.703l0.879-1.399l1.036,0.651l3.445-5.484l-1.036-0.651l0.879-1.399l4.001,2.514l-0.879,1.399l-0.869-0.546
			l-1.141,1.816l2.256,1.418l1.141-1.816l-0.839-0.527l0.879-1.399l3.972,2.495l-0.879,1.399l-1.036-0.651l-3.445,5.484l1.036,0.65
			l-0.879,1.399l-3.972-2.495l0.879-1.399l0.84,0.527l1.421-2.263l-2.256-1.417l-1.422,2.263l0.869,0.546l-0.879,1.399
			L484.033,157.703z"/>
		<path d="M505.253,159.947c1.355,1.006,2.131,2.189,2.327,3.549c0.195,1.36-0.124,2.603-0.959,3.728
			c-0.839,1.129-1.938,1.795-3.296,1.998c-1.359,0.203-2.714-0.197-4.065-1.201c-1.404-1.042-2.185-2.244-2.34-3.607
			c-0.157-1.362,0.168-2.585,0.973-3.669c0.832-1.122,1.927-1.788,3.282-1.999C502.531,158.536,503.891,158.936,505.253,159.947z
			 M504.188,161.381c-0.603-0.447-1.281-0.6-2.036-0.46s-1.456,0.646-2.104,1.52c-0.572,0.771-0.824,1.542-0.754,2.313
			c0.07,0.77,0.413,1.383,1.026,1.838c0.602,0.447,1.282,0.6,2.041,0.459c0.758-0.141,1.454-0.638,2.088-1.492
			c0.567-0.764,0.826-1.533,0.775-2.306C505.174,162.48,504.828,161.856,504.188,161.381z"/>
		<path d="M505.951,172.906l1.1-1.234l0.944,0.842l4.308-4.836l-0.945-0.842l1.1-1.234l3.663,3.263l-2.208,5.706l5.423-2.843
			l3.733,3.326l-1.099,1.234l-0.945-0.842l-4.308,4.836l0.945,0.842l-1.099,1.234l-3.676-3.273l1.099-1.234l0.882,0.786l4.308-4.836
			l-0.173-0.154l-7.67,4.054l-0.787-0.702l3.117-8.109l-0.174-0.154l-4.308,4.836l0.956,0.851l-1.099,1.234L505.951,172.906z"/>
		<path d="M518.396,184.287l1.195-1.141l0.811,0.85l4.687-4.47l-0.811-0.85l1.196-1.141l5.949,6.238l-2.244,2.14l-1.291-1.354
			l1.049-1l-2.092-2.193l-1.634,1.558l1.689,1.771l-1.196,1.141l-1.688-1.771l-1.857,1.771l2.092,2.193l1.059-1.01l1.291,1.354
			l-2.254,2.15L518.396,184.287z"/>
	</g>
	<circle fill="none" stroke="#000000" stroke-width="2" stroke-miterlimit="10" cx="397.01" cy="306.002" r="157.097"/>
	<circle fill="#FFFFFF" stroke="#000000" stroke-width="2" stroke-miterlimit="10" cx="397.01" cy="306.002" r="65.014"/>
	<g>
		<path fill="none" d="M508.066,306.002c0,60.208-49.265,109.017-110.036,109.017S287.993,366.21,287.993,306.002"/>
		<path fill="#FFDE17" d="M276.223,350.815c-2.113,0.611-4.182,0.242-6.209-1.105c-2.027-1.349-3.406-3.287-4.137-5.815
			l-3.076-10.636l1.363-0.395l0.548,1.896l50.107-14.491l-0.548-1.896l1.363-0.395l3.076,10.636c0.731,2.529,0.6,4.904-0.395,7.126
			c-0.994,2.223-2.548,3.639-4.66,4.25L276.223,350.815z M265.594,337.811l50.108-14.491l-0.441-1.525l-50.107,14.491
			L265.594,337.811z M271.143,345.676l44.065-12.744c0.835-0.241,1.461-0.744,1.879-1.51s0.504-1.57,0.26-2.413l-0.763-2.641
			l-50.108,14.491l0.764,2.641c0.244,0.843,0.747,1.477,1.508,1.901C269.509,345.825,270.308,345.917,271.143,345.676z
			 M274.125,348.118l39.828-11.519c2.039-0.59,3.361-1.953,3.968-4.09c-0.68,1.057-1.793,1.809-3.34,2.256l-41.965,12.137
			c-1.523,0.44-2.866,0.398-4.028-0.125C270.265,348.253,272.11,348.7,274.125,348.118z"/>
		<path fill="#FFDE17" d="M296.937,387.489c-1.798,1.266-3.875,1.591-6.23,0.976c-2.355-0.614-4.291-1.998-5.805-4.151
			c-1.5-2.132-2.146-4.415-1.936-6.851c0.209-2.436,1.213-4.285,3.012-5.551l32.496-22.865c1.798-1.265,3.878-1.586,6.242-0.96
			c2.363,0.625,4.294,2.004,5.794,4.136c1.515,2.153,2.164,4.441,1.947,6.866s-1.225,4.27-3.022,5.535L296.937,387.489z
			 M284.076,378.409c0.415-1.144,1.249-2.157,2.503-3.04l34.943-24.587c1.234-0.868,2.459-1.304,3.676-1.308
			c-1.972-0.759-3.763-0.571-5.373,0.562l-33.406,23.505C284.83,374.66,284.048,376.282,284.076,378.409z M290.46,384.283
			l38.142-26.838c0.71-0.5,1.139-1.181,1.285-2.04s-0.035-1.648-0.54-2.366s-1.187-1.153-2.044-1.307
			c-0.858-0.153-1.644,0.021-2.354,0.521l-38.143,26.838c-0.711,0.5-1.139,1.181-1.285,2.04c-0.145,0.859,0.034,1.648,0.54,2.366
			c0.505,0.717,1.187,1.153,2.045,1.307S289.749,384.783,290.46,384.283z M294.075,385.621l34.566-24.321
			c1.714-1.207,2.514-2.937,2.398-5.19c-0.305,1.256-1.115,2.347-2.433,3.274l-36.354,25.579c-1.297,0.913-2.587,1.3-3.872,1.163
			C290.461,386.996,292.36,386.828,294.075,385.621z"/>
		<path fill="#FFDE17" d="M325.951,422.838l-2.221-1.619c-3.003-2.19-3.375-4.834-1.115-7.934l11.457-15.712
			c0.512-0.702,0.699-1.484,0.56-2.345c-0.139-0.861-0.563-1.55-1.272-2.066l-2.221-1.62l-15.862,21.756l1.595,1.163l-0.836,1.146
			l-8.321-6.066l0.836-1.146l1.595,1.163l30.73-42.147l-1.595-1.163l0.836-1.146l8.946,6.522c2.127,1.551,3.478,3.509,4.053,5.874
			c0.575,2.366,0.215,4.437-1.081,6.214l-6.259,8.584c-2.019,2.77-4.941,3.645-8.766,2.627c2.078,3.414,2.13,6.475,0.157,9.181
			l-10.733,14.721c-0.829,1.137-0.753,2.062,0.227,2.776l0.125,0.091L325.951,422.838z M312.711,411.428l30.73-42.147l-1.282-0.936
			l-30.73,42.147L312.711,411.428z M323.684,419.902c-0.509-1.099-0.273-2.318,0.706-3.662l10.959-15.03
			c1.235-1.694,1.445-3.582,0.631-5.663c0.094,1.272-0.325,2.548-1.259,3.829l-11.208,15.371
			C322.128,416.648,322.184,418.366,323.684,419.902z M338.613,391.344l10.326-14.162c0.512-0.702,0.699-1.484,0.56-2.346
			c-0.139-0.86-0.563-1.55-1.272-2.066l-2.221-1.619l-14.032,19.245l2.221,1.619c0.709,0.517,1.495,0.71,2.357,0.579
			C337.414,392.463,338.101,392.047,338.613,391.344z M342.466,391.447l7.728-10.599c1.25-1.715,1.46-3.603,0.632-5.662
			c0.109,1.251-0.31,2.527-1.259,3.828l-9.016,12.365c-0.949,1.302-2.044,2.103-3.283,2.4
			C339.498,393.919,341.231,393.142,342.466,391.447z"/>
		<path fill="#FFDE17" d="M373.15,440.949l-9.906-2.812l0.388-1.365l1.899,0.539l10.232-36.047l-14.902,36.196l-4.879-1.385
			l5.593-38.84l-10.233,36.048l1.899,0.539l-0.387,1.365l-5.698-1.617l0.388-1.365l1.899,0.539l14.243-50.179l-1.899-0.539
			l0.388-1.365l8.082,2.294l-6.448,42.703l16.279-39.912l8.081,2.294l-0.387,1.365l-1.899-0.539l-14.244,50.178l1.899,0.539
			L373.15,440.949z M359.647,435.642l7.242-52.166L365.213,383l-7.242,52.166L359.647,435.642z M368.584,438.179L382.829,388
			l-1.527-0.434l-14.243,50.179L368.584,438.179z"/>
		<path fill="#FFDE17" d="M406.101,442.373l-10.295,0.214l-0.029-1.419l1.974-0.041l-1.085-52.149l-1.974,0.041l-0.029-1.419
			l10.295-0.214l0.029,1.419l-1.974,0.041l1.085,52.149l1.974-0.041L406.101,442.373z M400.924,441.062l-1.085-52.15l-1.587,0.033
			l1.085,52.149L400.924,441.062z"/>
		<path fill="#FFDE17" d="M439.39,395.855l-5.576,1.754l-4.522-14.379l-2.732,0.859l15.648,49.759l1.883-0.592l0.426,1.354
			l-9.823,3.089l-0.426-1.354l1.884-0.593l-15.648-49.758l-2.732,0.859l4.521,14.379l-5.576,1.753l-4.947-15.732l22.675-7.131
			L439.39,395.855z M419.329,400.717l-4.107-13.062l-1.515,0.477l4.107,13.062L419.329,400.717z M439.179,434.801l-15.648-49.758
			l-1.514,0.476l15.647,49.759L439.179,434.801z M436.391,395.352l-4.108-13.062l-1.477,0.465l4.107,13.062L436.391,395.352z"/>
		<path fill="#FFDE17" d="M483.507,403.505c1.312,1.766,1.691,3.833,1.139,6.203c-0.553,2.371-1.886,4.342-3.998,5.912
			c-2.093,1.556-4.358,2.26-6.798,2.114c-2.44-0.145-4.315-1.1-5.628-2.865l-23.708-31.887c-1.312-1.764-1.687-3.836-1.123-6.214
			s1.891-4.345,3.983-5.9c2.112-1.571,4.383-2.279,6.812-2.126c2.43,0.152,4.3,1.112,5.612,2.876L483.507,403.505z M474.767,416.6
			c-1.154-0.385-2.189-1.192-3.104-2.424l-25.493-34.287c-0.9-1.211-1.368-2.424-1.404-3.641c-0.706,1.992-0.472,3.777,0.703,5.356
			l24.371,32.779C470.998,415.943,472.641,416.683,474.767,416.6z M480.472,410.063l-27.827-37.427
			c-0.519-0.697-1.21-1.108-2.073-1.23c-0.863-0.123-1.647,0.077-2.351,0.601c-0.705,0.523-1.122,1.217-1.253,2.078
			c-0.131,0.862,0.063,1.643,0.582,2.34l27.826,37.427c0.52,0.697,1.21,1.107,2.073,1.23s1.646-0.077,2.352-0.601
			c0.703-0.523,1.121-1.217,1.252-2.079C481.184,411.541,480.99,410.761,480.472,410.063z M481.714,406.415l-25.218-33.918
			c-1.251-1.683-3.001-2.436-5.251-2.262c1.264,0.272,2.375,1.054,3.337,2.347l26.522,35.673c0.946,1.272,1.367,2.552,1.263,3.84
			C483.183,409.991,482.966,408.098,481.714,406.415z"/>
		<path fill="#FFDE17" d="M518.108,373.566l-1.561,2.263c-2.109,3.06-4.742,3.501-7.9,1.324l-16.01-11.037
			c-0.715-0.493-1.502-0.659-2.358-0.497c-0.856,0.161-1.534,0.604-2.032,1.326l-1.561,2.263l22.168,15.281l1.12-1.625l1.168,0.806
			l-5.845,8.478l-1.168-0.806l1.121-1.625l-42.945-29.605l-1.12,1.625l-1.169-0.806l6.284-9.115
			c1.494-2.167,3.416-3.569,5.766-4.207c2.349-0.637,4.429-0.332,6.239,0.916l8.747,6.03c2.821,1.945,3.773,4.843,2.857,8.693
			c3.357-2.167,6.416-2.301,9.173-0.399l15,10.34c1.157,0.799,2.08,0.698,2.769-0.301l0.088-0.127L518.108,373.566z
			 M507.053,387.104l-42.945-29.606l-0.9,1.308l42.944,29.605L507.053,387.104z M486.291,361.741l-14.431-9.948
			c-0.716-0.494-1.502-0.66-2.359-0.498c-0.856,0.161-1.534,0.604-2.032,1.326l-1.56,2.263l19.609,13.519l1.56-2.263
			c0.498-0.723,0.671-1.513,0.517-2.371C487.441,362.91,487.007,362.234,486.291,361.741z M486.293,357.887l-10.8-7.445
			c-1.747-1.204-3.64-1.364-5.677-0.481c1.247-0.143,2.534,0.243,3.86,1.157l12.6,8.686c1.326,0.914,2.155,1.987,2.486,3.219
			C488.842,360.789,488.02,359.077,486.293,357.887z M515.234,375.91c-1.085,0.538-2.312,0.335-3.68-0.608l-15.315-10.558
			c-1.726-1.19-3.618-1.351-5.677-0.481c1.269-0.129,2.556,0.257,3.86,1.156l15.662,10.798
			C512.022,377.552,513.738,377.45,515.234,375.91z"/>
		<path fill="#FFDE17" d="M481.857,317.883l-0.536,1.9L509.866,334l20.042,5.66l0.537-1.9l1.365,0.386l-2.799,9.91l-1.365-0.386
			l0.536-1.9l-20.042-5.66l-31.67-3.152l-0.537,1.9l-1.365-0.386l2.757-9.761l1.365,0.386l-0.536,1.9l27.59,2.925l-24.938-12.313
			l-0.537,1.9l-1.365-0.386l1.589-5.626L481.857,317.883z M529.046,342.715l-20.633-5.827l-31.08-2.985l-0.431,1.527l31.079,2.985
			l20.633,5.827L529.046,342.715z"/>
	</g>
	<g>
		<path fill="none" d="M287.993,306.002c0-60.208,49.265-109.017,110.036-109.017s110.036,48.809,110.036,109.017"/>
		<path fill="#FFFFFF" d="M324.523,253.55c1.919,1.125,3.112,2.833,3.578,5.124s0.045,4.551-1.259,6.777
			c-1.317,2.25-3.089,3.731-5.315,4.446c-2.226,0.715-4.299,0.51-6.219-0.614l-7.645-4.478l3.209-5.479l10.624,6.223
			c1.809,1.06,3.183,0.788,4.122-0.816c0.926-1.581,0.485-2.901-1.324-3.961l-8.241-4.827c-2.25-1.318-4.544-1.929-6.883-1.833
			l-14.568,0.664c-2.522,0.108-4.898-0.491-7.126-1.796l-6.454-3.78c-1.919-1.125-3.111-2.833-3.577-5.124
			c-0.465-2.291-0.04-4.562,1.278-6.811c1.304-2.227,3.07-3.697,5.296-4.413c2.227-0.715,4.299-0.51,6.219,0.614l7.645,4.478
			l-3.208,5.479l-10.624-6.223c-1.809-1.059-3.177-0.799-4.103,0.782c-0.939,1.604-0.503,2.935,1.305,3.995l7.943,4.652
			c2.229,1.306,4.511,1.91,6.849,1.813l14.568-0.664c2.523-0.107,4.909,0.498,7.16,1.816L324.523,253.55z M324.011,256.929
			l-7.115-4.167c-2.272-1.331-4.613-1.939-7.021-1.825l-14.535,0.684c-2.408,0.115-4.749-0.493-7.021-1.824l-6.983-4.09
			c-1.302-0.763-2.207-1.696-2.715-2.802c0.128,2.109,1.042,3.661,2.74,4.656l6.487,3.799c2.272,1.331,4.624,1.946,7.054,1.844
			l14.502-0.703c2.408-0.115,4.749,0.494,7.021,1.825l7.744,4.536c1.368,0.802,2.262,1.804,2.683,3.007
			C326.768,259.635,325.821,257.989,324.011,256.929z M295.086,239.987l-7.545-4.419c-1.809-1.06-3.708-1.08-5.697-0.062
			c1.256-0.221,2.579,0.075,3.969,0.889l8.472,4.962L295.086,239.987z M322.008,268.317c-1.213,0.097-2.481-0.242-3.805-1.017
			l-7.711-4.517l-0.802,1.37l6.917,4.051C318.284,269.187,320.084,269.225,322.008,268.317z"/>
		<path fill="#FFFFFF" d="M350.024,239.003l-14.827,13.153l-0.942-1.062l1.477-1.31l-34.614-39.021l-1.477,1.31l-0.942-1.062
			l14.828-13.153l10.944,12.337l-4.75,4.213l-10.002-11.276l-3.852,3.417l15.805,17.817l5.618-4.984l0.942,1.062l-5.618,4.984
			l17.867,20.142l3.852-3.417l-10.002-11.276l4.75-4.213L350.024,239.003z M338.106,247.678l-34.614-39.021l-1.187,1.053
			l34.614,39.021L338.106,247.678z M321.18,211.271l-9.086-10.243l-1.187,1.053l9.086,10.243L321.18,211.271z M346.708,240.048
			l-9.061-10.214l-1.188,1.053l9.061,10.214L346.708,240.048z"/>
		<path fill="#FFFFFF" d="M374.09,227.253l-9.425,4.148l-0.572-1.299l1.808-0.795l-7.739-14.025l-5.208,2.292l4.975,15.242
			l1.808-0.795l0.571,1.299l-5.456,2.402l-0.572-1.299l1.807-0.795l-16.485-51.285l5.811-2.558l26.3,46.964l1.807-0.795
			L374.09,227.253z M368.806,228.029l-25.586-45.728l-1.453,0.64l25.586,45.728L368.806,228.029z M357.534,214.049l-14.385-26.144
			l9.318,28.375L357.534,214.049z"/>
		<path fill="#FFFFFF" d="M417.788,218.477c-0.245,2.186-1.379,3.956-3.4,5.312c-2.021,1.356-4.341,1.887-6.957,1.594
			c-2.591-0.29-4.728-1.321-6.412-3.092c-1.685-1.771-2.403-3.749-2.158-5.935l4.425-39.487c0.245-2.185,1.385-3.955,3.419-5.31
			c2.035-1.354,4.347-1.886,6.938-1.596c2.616,0.293,4.761,1.325,6.432,3.094c1.672,1.77,2.385,3.747,2.14,5.932l-0.986,8.805
			l-6.31-0.707l1.371-12.235c0.097-0.864-0.128-1.635-0.675-2.314c-0.548-0.679-1.258-1.067-2.129-1.165
			c-0.873-0.098-1.65,0.124-2.334,0.665c-0.685,0.541-1.074,1.244-1.171,2.107l-5.194,46.348c-0.098,0.864,0.128,1.635,0.675,2.314
			c0.548,0.679,1.257,1.067,2.129,1.165s1.65-0.124,2.334-0.665s1.074-1.243,1.171-2.107l2.691-24.012l-3.154-0.354l0.158-1.41
			l9.464,1.061L417.788,218.477z M402.464,222.085c-0.581-1.068-0.787-2.365-0.616-3.89l4.759-42.46
			c0.168-1.499,0.654-2.706,1.457-3.619c-1.875,0.974-2.922,2.439-3.141,4.395l-4.55,40.593
			C400.156,219.035,400.854,220.696,402.464,222.085z M414.492,219.381l2.447-21.84l-1.577-0.177l-2.571,22.945
			c-0.177,1.576-0.742,2.799-1.696,3.669C413.126,222.997,414.259,221.465,414.492,219.381z M418.226,186.068l0.974-8.69
			c0.233-2.083-0.531-3.828-2.296-5.236c0.738,1.061,1.018,2.391,0.839,3.992l-1.094,9.757L418.226,186.068z"/>
		<path fill="#FFFFFF" d="M444.98,229.278c-0.927,1.995-2.564,3.312-4.912,3.955s-4.716,0.409-7.103-0.701
			c-2.364-1.099-4.062-2.756-5.096-4.97c-1.034-2.215-1.088-4.319-0.161-6.313l16.751-36.031c0.927-1.994,2.569-3.31,4.93-3.947
			c2.359-0.637,4.721-0.407,7.085,0.692c2.387,1.11,4.092,2.769,5.114,4.979c1.021,2.209,1.069,4.311,0.143,6.305L444.98,229.278z
			 M429.305,227.827c-0.212-1.198,0.006-2.493,0.652-3.884l18.012-38.744c0.636-1.368,1.48-2.357,2.532-2.968
			c-2.088,0.327-3.546,1.383-4.376,3.168l-17.219,37.04C428.087,224.202,428.22,225.998,429.305,227.827z M437.769,229.731
			l19.66-42.291c0.367-0.788,0.398-1.591,0.096-2.409c-0.303-0.817-0.853-1.411-1.648-1.781c-0.796-0.37-1.604-0.407-2.424-0.112
			s-1.414,0.838-1.78,1.625l-19.66,42.292c-0.367,0.789-0.398,1.591-0.096,2.409c0.303,0.817,0.853,1.411,1.648,1.781
			c0.795,0.37,1.604,0.407,2.424,0.112C436.809,231.062,437.402,230.52,437.769,229.731z M441.568,229.087l17.817-38.327
			c0.884-1.901,0.713-3.799-0.512-5.694c0.362,1.24,0.205,2.59-0.475,4.051l-18.739,40.309c-0.668,1.438-1.593,2.417-2.775,2.939
			C439.123,232.082,440.685,230.989,441.568,229.087z"/>
		<path fill="#FFFFFF" d="M461.729,253.269l-14.196-13.215l0.968-1.039l1.444,1.346l35.542-38.179l-1.445-1.345l0.967-1.039
			l7.537,7.017l-0.967,1.039l-1.445-1.345l-35.541,38.178l3.485,3.245l10.27-11.033l4.619,4.3L461.729,253.269z M452.27,242.523
			l35.541-38.178l-1.162-1.082l-35.541,38.178L452.27,242.523z M460.401,250.094l9.304-9.994l-1.162-1.082l-9.304,9.994
			L460.401,250.094z"/>
		<path fill="#FFFFFF" d="M482.33,271.81c-1.927,1.06-4.027,1.153-6.3,0.283c-2.273-0.871-4.044-2.459-5.312-4.766l-5.334-9.702
			l1.243-0.684l0.951,1.73l45.709-25.129l-0.951-1.73l1.243-0.684l5.334,9.702c1.269,2.307,1.661,4.653,1.179,7.039
			c-0.482,2.386-1.688,4.109-3.614,5.168L482.33,271.81z M469.107,261.452l45.709-25.129l-0.765-1.391l-45.709,25.129
			L469.107,261.452z M476.247,267.909l40.196-22.099c0.762-0.418,1.263-1.047,1.502-1.886s0.147-1.643-0.275-2.411l-1.324-2.408
			l-45.709,25.129l1.324,2.409c0.423,0.769,1.053,1.277,1.889,1.524S475.484,268.328,476.247,267.909z M479.691,269.637
			l36.332-19.974c1.859-1.022,2.851-2.643,2.974-4.86c-0.431,1.179-1.353,2.157-2.764,2.933l-38.281,21.046
			c-1.39,0.764-2.708,1.018-3.958,0.762C475.955,270.616,477.854,270.647,479.691,269.637z"/>
	</g>
	<g>
		<rect x="295.955" y="277.084" fill="none" width="10.591" height="0"/>
	</g>
	
		<line fill="none" stroke="#000000" stroke-width="2" stroke-miterlimit="10" x1="462.025" y1="306.002" x2="554.107" y2="306.002"/>
	
		<line fill="none" stroke="#000000" stroke-width="2" stroke-miterlimit="10" x1="239.914" y1="306.002" x2="331.996" y2="306.002"/>
	<g>
		<path fill="#BA4126" d="M395.154,267.161c4.699,5.07,9.363,10.103,14.226,15.349c0-2.148,0.064-4.01-0.024-5.864
			c-0.053-1.122,0.257-1.882,1.312-2.335c0.533-0.229,1.022-0.563,1.694-0.941c0.024,0.498,0.053,0.837,0.055,1.176
			c0.011,3.259,0.044,6.518,0.006,9.776c-0.01,0.909,0.151,1.646,0.85,2.282c0.598,0.544,1.102,1.193,1.783,1.946
			c0-6.897,0-13.577,0-20.417c-0.504,0.299-0.925,0.53-1.327,0.79c-2.346,1.52-4.697,3.033-7.022,4.584
			c-0.508,0.339-0.848,0.352-1.246-0.127c-0.456-0.549-0.966-1.054-1.514-1.645c4.762-3.098,9.411-6.122,14.194-9.233
			c0.048,0.41,0.115,0.714,0.115,1.018c-0.012,9.117-0.042,18.234-0.02,27.351c0.001,0.555,0.26,1.238,0.635,1.643
			c2.236,2.414,4.542,4.763,6.823,7.136c0.223,0.232,0.43,0.479,0.795,0.889c-0.632,0.033-1.073,0.077-1.515,0.076
			c-5.825-0.023-11.651-0.038-17.476-0.11c-0.444-0.005-0.981-0.331-1.311-0.668c-5.64-5.762-11.254-11.55-16.875-17.331
			c-0.112-0.115-0.238-0.216-0.444-0.403c-0.959,0.972-1.908,1.917-2.839,2.88c-4.691,4.85-9.385,9.695-14.054,14.566
			c-0.634,0.661-1.273,1.027-2.227,0.968c-1.339-0.082-2.687-0.021-4.233-0.021C375.459,289.311,385.276,278.271,395.154,267.161z"
			/>
		<path fill="#BA4126" d="M407.352,320.52c-10.803-4.659-21.279-9.729-33.332-9.712c0-2.905-0.032-5.754,0.036-8.6
			c0.01-0.41,0.465-0.842,0.781-1.206c4.318-4.964,8.649-9.917,12.975-14.874c0.341-0.39,0.673-0.788,1.056-1.237
			c0.267,0.239,0.503,0.41,0.69,0.623c5.041,5.728,10.068,11.468,15.136,17.173c0.312,0.352,0.934,0.599,1.414,0.604
			c4.672,0.045,9.345,0.028,14.018,0.031c0.256,0,0.511,0.026,0.855,0.044c0,7.477,0,14.9,0,22.526
			c-0.947-0.376-1.841-0.731-2.735-1.087c-2.364-0.941-2.366-0.941-2.365-3.52c0.002-4.772-0.012-9.543,0.028-14.314
			c0.007-0.842-0.189-1.16-1.09-1.134c-2.137,0.063-4.278,0.053-6.416,0.004c-0.802-0.018-0.997,0.272-0.99,1.027
			c0.035,3.916,0.025,7.831,0.022,11.747C407.436,319.196,407.386,319.777,407.352,320.52z M383.434,302.291
			c0,1.604,0,3.063,0,4.548c1.358,0,2.645,0,3.999,0c0-1.357,0.031-2.634-0.029-3.907c-0.01-0.223-0.392-0.599-0.619-0.612
			C385.711,302.255,384.63,302.291,383.434,302.291z M383.407,296.159c0,1.42-0.025,2.723,0.026,4.024
			c0.008,0.2,0.358,0.538,0.567,0.551c0.914,0.058,1.838,0.069,2.748-0.016c0.25-0.023,0.645-0.423,0.662-0.672
			c0.073-1.077,0.067-2.163,0.003-3.241c-0.013-0.227-0.382-0.604-0.604-0.617C385.733,296.123,384.652,296.159,383.407,296.159z
			 M393.369,306.892c0-1.401,0.031-2.68-0.029-3.955c-0.01-0.22-0.392-0.585-0.623-0.603c-0.882-0.068-1.776-0.056-2.659,0.007
			c-0.235,0.017-0.636,0.316-0.644,0.499c-0.055,1.334-0.03,2.672-0.03,4.052C390.753,306.892,391.99,306.892,393.369,306.892z
			 M393.37,296.156c-1.166,0-2.208,0.021-3.249-0.009c-0.557-0.016-0.764,0.202-0.754,0.746c0.02,1.05,0.015,2.101-0.002,3.151
			c-0.008,0.478,0.132,0.737,0.668,0.723c0.919-0.024,1.84,0.023,2.756-0.027c0.202-0.011,0.55-0.301,0.556-0.473
			C393.39,298.934,393.37,297.597,393.37,296.156z"/>
		<path fill="#BA4126" d="M452.492,331.144c-1.521,0.714-2.998,1.554-4.573,2.119c-5.517,1.979-11.248,2.358-17.034,1.887
			c-9.489-0.773-18.48-3.64-27.414-6.714c-7.429-2.556-14.89-4.975-22.579-6.684c-12.079-2.686-23.453-1.037-34.184,5.107
			c-1.711,0.979-3.42,1.96-5.181,2.97c0.018-0.122,0-0.232,0.047-0.283c5.682-6.252,12.102-11.511,19.99-14.775
			c8.297-3.433,16.712-3.341,25.212-0.829c6.988,2.065,13.617,5.044,20.297,7.896c6.317,2.697,12.599,5.488,19.202,7.448
			c7.038,2.09,14.205,3.028,21.542,2.301c1.528-0.151,3.043-0.441,4.564-0.666C452.419,330.996,452.456,331.07,452.492,331.144z"/>
		<path fill="#BA4126" d="M346.661,329.104c3.507-1.729,7.167-2.969,10.96-3.821c8.452-1.897,16.769-1.08,24.915,1.513
			c8.672,2.76,17.261,5.779,25.896,8.654c5.589,1.861,11.239,3.487,17.121,4.144c7.134,0.796,14.051,0.139,20.584-3.081
			c0.107-0.053,0.228-0.077,0.451,0.059c-0.725,0.509-1.427,1.054-2.177,1.522c-7.455,4.651-15.534,6.809-24.338,6.096
			c-7.731-0.626-14.986-3.039-22.11-5.905c-6.219-2.502-12.344-5.244-18.594-7.663c-6.584-2.548-13.414-4.001-20.539-3.655
			c-3.758,0.182-7.459,0.707-11.066,1.809C347.396,328.888,347.028,328.995,346.661,329.104z"/>
		<path fill="#BA4126" d="M356.565,315.245c-2.591-11.936-1.069-22.996,5.764-33.043c7.388-10.864,17.832-16.769,30.845-18.281
			c-1.695,1.821-2.709,4.196-5.572,4.894c-14.735,3.595-26.088,16.191-28.236,31.173c-0.602,4.199-0.474,8.405,0.459,12.557
			c0.174,0.773-0.01,1.156-0.701,1.452C358.318,314.342,357.546,314.762,356.565,315.245z"/>
		<path fill="#BA4126" d="M427.476,327.844c0.436-0.685,0.782-1.237,1.137-1.784c9.427-14.552,7.896-33.129-3.795-45.91
			c-0.71-0.776-1.554-1.432-2.232-2.232c-0.352-0.415-0.633-1.011-0.674-1.546c-0.097-1.273-0.031-2.558-0.031-4.051
			c0.4,0.252,0.677,0.388,0.91,0.578c8.267,6.743,13.438,15.323,15.145,25.882c1.658,10.255-0.308,19.827-5.797,28.651
			c-1.137,1.828-0.728,1.442-2.634,1.01C428.869,328.296,428.25,328.074,427.476,327.844z"/>
		<path fill="#BA4126" d="M407.317,265.256c-1.693,1.09-3.095,2.112-4.617,2.903c-0.497,0.258-1.528,0.161-1.935-0.201
			c-1.361-1.21-2.55-2.613-3.741-4.066C400.453,263.856,403.765,264.3,407.317,265.256z"/>
	</g>
</g>
</svg>
