<?xml version="1.0" encoding="UTF-8"?>
<svg version="1.1" xmlns="http://www.w3.org/2000/svg" width="1600" height="1600">
<path d="M0 0 C12.92079279 11.18632739 21.29392585 24.76650651 23.33984375 41.9296875 C23.87213737 49.71797098 23.7631437 57.53401181 23.73828125 65.3359375 C23.74030692 67.59167576 23.74322244 69.84741337 23.74697876 72.10314941 C23.75137889 76.80987845 23.7450459 81.51643562 23.73095703 86.22314453 C23.71386678 92.22110937 23.72372041 98.2186713 23.74167442 104.2166214 C23.75257494 108.8683774 23.74903729 113.5200397 23.74129105 118.17179871 C23.73930633 120.38193308 23.74168669 122.59207628 23.74872971 124.80220032 C23.78529418 139.49694469 23.78577501 153.85397403 16.71484375 167.1796875 C16.36856934 167.84734131 16.02229492 168.51499512 15.66552734 169.20288086 C8.11025507 183.18605033 -4.54180175 192.50524429 -19.32421875 197.90234375 C-35.46136292 202.68125008 -52.55901377 200.5890304 -67.43920898 193.02539062 C-79.51614887 186.40605748 -86.81552718 176.59318099 -93.66015625 164.9296875 C-94.32015625 163.9396875 -94.98015625 162.9496875 -95.66015625 161.9296875 C-96.19568115 162.29505615 -96.73120605 162.6604248 -97.28295898 163.03686523 C-108.23646844 170.50932277 -119.19416757 177.97555349 -130.16015625 185.4296875 C-137.99750109 190.75715502 -145.83151968 196.08943137 -153.66015625 201.4296875 C-164.59485098 208.88835449 -175.54016433 216.33135787 -186.48681641 223.77246094 C-190.67183274 226.61742204 -194.85644324 229.46297972 -199.04101562 232.30859375 C-202.16792023 234.4349672 -205.2948977 236.56123346 -208.421875 238.6875 C-212.54973347 241.49441797 -216.6773176 244.30173869 -220.8046875 247.109375 C-234.65463126 256.53019355 -248.51205544 265.93992249 -262.37399292 275.34307861 C-266.36865454 278.05300943 -270.36230747 280.76442152 -274.35546875 283.4765625 C-286.02272981 291.39999703 -297.69813679 299.31118667 -309.38574219 307.20458984 C-312.55780208 309.34691085 -315.72899264 311.49050891 -318.89941406 313.63525391 C-325.55922839 318.13958598 -332.21978212 322.64223266 -338.90731812 327.10534668 C-341.46322733 328.81203914 -344.01530082 330.52441328 -346.56689453 332.23754883 C-347.72822138 333.01500413 -348.89139022 333.78971706 -350.05664062 334.5612793 C-356.65717474 338.93266853 -362.71779388 343.51789101 -368.50878906 348.92407227 C-370.52957769 350.80795544 -372.60276522 352.59646475 -374.72265625 354.3671875 C-388.83961287 366.77644776 -397.30027966 381.29573366 -399.66015625 399.9296875 C-399.92341565 404.86941908 -399.99036887 409.79069116 -399.97583008 414.73657227 C-399.97265625 416.99218539 -399.99626326 419.24649972 -400.02148438 421.50195312 C-400.0646746 431.06178339 -400.0222065 440.79663141 -393.47265625 448.4296875 C-390.66015625 451.76910356 -390.66015625 451.76910356 -390.66015625 453.9296875 C-389.79777344 454.33574219 -389.79777344 454.33574219 -388.91796875 454.75 C-386.63211389 455.94433939 -384.63450331 457.30958055 -382.53515625 458.8046875 C-360.49657295 473.50900201 -329.66776729 470.98544381 -304.828125 466.24609375 C-262.00638039 457.3683319 -217.07893374 439.72921291 -181.37597656 414.14941406 C-179.54743462 412.84955698 -177.69744191 411.58607744 -175.83984375 410.328125 C-166.40454546 403.93145041 -157.15791427 397.28452249 -147.93798828 390.58251953 C-145.69139049 388.95235157 -143.44038499 387.32849675 -141.1875 385.70703125 C-125.8099575 374.63890405 -110.55985098 363.42082599 -95.5144043 351.90454102 C-89.60829059 347.39138382 -83.65463817 342.94967736 -77.66015625 338.5546875 C-71.44766064 333.99852073 -65.2945607 329.3851642 -59.203125 324.66796875 C-54.68561087 321.16964181 -50.14161488 317.70605519 -45.59765625 314.2421875 C-44.70022705 313.55801758 -43.80279785 312.87384766 -42.87817383 312.16894531 C-36.76615482 307.51621235 -30.62635769 302.90208714 -24.47265625 298.3046875 C-17.40136174 293.02036272 -10.40838343 287.64649218 -3.45727539 282.20532227 C2.17100303 277.81057125 7.86698778 273.51284648 13.58984375 269.2421875 C19.85069545 264.56905584 26.05847951 259.84470829 32.18237305 254.99365234 C38.83492269 249.72896052 45.59260208 244.60226928 52.33837891 239.45800781 C55.2609027 237.22636607 58.17623394 234.98544865 61.08984375 232.7421875 C62.12625 231.94425781 63.16265625 231.14632812 64.23046875 230.32421875 C65.2565625 229.53402344 66.28265625 228.74382812 67.33984375 227.9296875 C69.50629026 226.26273458 71.67306872 224.59621337 73.83984375 222.9296875 C74.92318313 222.09636203 76.00651647 221.2630287 77.08984375 220.4296875 C92.25651042 208.76302083 107.42317708 197.09635417 122.58984375 185.4296875 C123.12577148 185.0174292 123.66169922 184.6051709 124.21386719 184.18041992 C125.30043154 183.34461374 126.3870202 182.50883915 127.47363281 181.6730957 C130.13272923 179.62785114 132.79134315 177.58198759 135.44921875 175.53515625 C142.30581467 170.25625964 149.17506599 164.99420408 156.05078125 159.74023438 C160.23681162 156.54069683 164.41671097 153.33352688 168.58984375 150.1171875 C181.85227577 139.90893257 195.14263588 129.73117868 208.57421875 119.74609375 C211.12931603 117.8456574 213.65534013 115.91321893 216.16796875 113.95703125 C233.72147443 100.43651323 252.25184954 95.34270554 274.33984375 96.9296875 C278.02874072 97.42347686 280.97564844 98.35654088 284.33984375 99.9296875 C285.49613281 100.455625 286.65242188 100.9815625 287.84375 101.5234375 C297.08139425 105.96660764 304.21401135 111.61633319 311.33984375 118.9296875 C311.96632813 119.54714844 312.5928125 120.16460937 313.23828125 120.80078125 C325.36715532 133.63768604 326.49463718 152.743532 326.47127151 169.39006424 C326.47292302 170.76180513 326.47501014 172.13354556 326.47749162 173.5052852 C326.48304397 177.27676534 326.48238848 181.04822271 326.48071403 184.81970562 C326.47998187 188.92213458 326.48500834 193.02455717 326.48928905 197.1269834 C326.49686404 205.26443961 326.49906185 213.40188926 326.4996181 221.53934862 C326.50053222 231.28593303 326.50720112 241.03251137 326.51396492 250.77909316 C326.53002122 274.33398105 326.53592747 297.8888683 326.54071367 321.44376068 C326.54304967 332.58547709 326.54665229 343.72719299 326.55040905 354.868909 C326.56324329 393.00503423 326.57396333 431.14115918 326.57741165 469.27728653 C326.57763328 471.67098037 326.57785507 474.06467421 326.578077 476.45836805 C326.57829764 478.85784585 326.57851813 481.25732366 326.57873845 483.65680146 C326.579181 488.47058249 326.57962812 493.28436351 326.58007812 498.09814453 C326.58018752 499.29168133 326.58029691 500.48521813 326.58040961 501.71492271 C326.58404137 540.42753894 326.59996657 579.14013647 326.62326849 617.85274554 C326.64785765 658.77869511 326.66158403 699.70463398 326.66277957 740.63059115 C326.66295103 745.1220212 326.66316645 749.61345124 326.663414 754.10488129 C326.66346977 755.21080374 326.66352554 756.3167262 326.663583 757.45616146 C326.66473413 775.26152454 326.6757613 793.06686843 326.69030106 810.87222503 C326.70465847 828.76341661 326.70790728 846.65458356 326.69986108 864.54577932 C326.69540153 875.17678986 326.69927852 885.80772095 326.71509959 896.43872107 C326.72484075 903.54008579 326.72367958 910.64139476 326.71366336 917.74275895 C326.70826519 921.788796 326.70758098 925.83468032 326.72017208 929.88070479 C326.73154481 933.56599157 326.72894984 937.25100194 326.715505 940.93627933 C326.71194422 942.87675119 326.72301784 944.81723336 326.73479629 946.75767273 C326.63195889 963.99619607 321.15624345 976.85308822 309.1796875 989.16015625 C305.13031808 993.10926618 300.87907946 996.562672 296.33984375 999.9296875 C295.12071542 1000.84063974 293.90199496 1001.75213798 292.68359375 1002.6640625 C290.64800444 1004.18724657 288.61196556 1005.709772 286.57324219 1007.22875977 C281.94392062 1010.68886981 277.39940331 1014.23720413 272.90234375 1017.8671875 C266.97310638 1022.6527617 260.95918925 1027.31268412 254.89575195 1031.92675781 C249.60142656 1035.95767147 244.3382005 1040.0266218 239.08984375 1044.1171875 C231.86133794 1049.74980945 224.60957339 1055.35037784 217.33984375 1060.9296875 C215.17273528 1062.59578003 213.00629422 1064.26273949 210.83984375 1065.9296875 C209.75652251 1066.76303655 208.67318919 1067.59636991 207.58984375 1068.4296875 C207.05359375 1068.8421875 206.51734375 1069.2546875 205.96484375 1069.6796875 C204.33984375 1070.9296875 202.71484375 1072.1796875 201.08984375 1073.4296875 C200.55391602 1073.8419458 200.01798828 1074.2542041 199.46582031 1074.67895508 C198.37925596 1075.51476126 197.2926673 1076.35053585 196.20605469 1077.1862793 C193.54695827 1079.23152386 190.88834435 1081.27738741 188.23046875 1083.32421875 C180.01041072 1089.65284552 171.77202289 1095.9572813 163.52929688 1102.25634766 C160.67144887 1104.44052364 157.81420754 1106.62549231 154.95703125 1108.81054688 C152.82950126 1110.43759702 150.70185975 1112.06450127 148.57421875 1113.69140625 C145.79258068 1115.81850368 143.01135487 1117.94613836 140.23046875 1120.07421875 C130.74622616 1127.33116941 121.25098679 1134.57357976 111.75 1141.80859375 C108.13126566 1144.56438402 104.51418351 1147.32232139 100.8984375 1150.08203125 C92.4338289 1156.54085565 83.9590885 1162.98386634 75.4296875 1169.35693359 C69.93380938 1173.46918577 64.48027447 1177.63573174 59.02734375 1181.8046875 C51.57811841 1187.49671497 44.07078008 1193.09954293 36.50683594 1198.63793945 C30.5406898 1203.01712046 24.65138167 1207.49043805 18.77734375 1211.9921875 C10.87849295 1218.04030994 2.88140107 1223.92603497 -5.203125 1229.72265625 C-9.86289764 1233.06605083 -14.48350826 1236.46120345 -19.09765625 1239.8671875 C-19.88470947 1240.44799072 -20.6717627 1241.02879395 -21.48266602 1241.62719727 C-23.87567232 1243.39400545 -26.26803431 1245.16168217 -28.66015625 1246.9296875 C-46.65650437 1260.23069816 -64.75390514 1273.35611839 -83.11474609 1286.15039062 C-85.6732234 1287.93882172 -88.22428535 1289.73736948 -90.7734375 1291.5390625 C-106.01448399 1302.29830841 -121.50548397 1312.58685839 -137.66015625 1321.9296875 C-138.2334668 1322.26564941 -138.80677734 1322.60161133 -139.39746094 1322.94775391 C-202.14888458 1359.4075754 -286.18701658 1358.95069154 -354.62597656 1341.48754883 C-388.1119242 1332.61322506 -421.51754504 1319.48438719 -449.66015625 1298.9296875 C-450.22911621 1298.51477051 -450.79807617 1298.09985352 -451.38427734 1297.67236328 C-458.85068993 1292.17557892 -465.93898591 1286.32252481 -472.66015625 1279.9296875 C-473.21960938 1279.4027832 -473.7790625 1278.87587891 -474.35546875 1278.33300781 C-493.09248163 1260.58267806 -507.02278731 1240.34319719 -515.66015625 1215.9296875 C-516.03785156 1214.8778125 -516.41554688 1213.8259375 -516.8046875 1212.7421875 C-523.10829604 1193.8549709 -523.09920317 1174.87135879 -523.04555891 1155.18727256 C-523.03788069 1151.13710347 -523.04775527 1147.08696819 -523.05528891 1143.03680402 C-523.06607885 1135.95294279 -523.0658232 1128.86915026 -523.05814743 1121.78528595 C-523.04676404 1111.25088497 -523.05261986 1100.71654157 -523.06177235 1090.18214093 C-523.07754497 1071.36299092 -523.07621009 1052.54387151 -523.06753561 1033.7247186 C-523.059981 1017.25362802 -523.05802254 1000.78254864 -523.06160355 984.31145668 C-523.0618327 983.21775496 -523.06206186 982.12405325 -523.06229796 980.99720905 C-523.06323202 976.55718649 -523.06418722 972.11716393 -523.06517725 967.67714138 C-523.07434943 926.04560819 -523.06604184 884.41409446 -523.04988656 842.78256428 C-523.03565328 805.82305 -523.03692167 768.86356674 -523.05126953 731.90405273 C-523.06734647 690.35189043 -523.07369588 648.79974533 -523.06443274 607.24758035 C-523.06347063 602.81484211 -523.06253211 598.38210386 -523.06160355 593.94936562 C-523.06136631 592.85796333 -523.06112908 591.76656103 -523.06088466 590.64208595 C-523.05747733 574.18639086 -523.06145364 557.73070823 -523.06904221 541.27501488 C-523.077632 522.55516476 -523.07545002 503.83534996 -523.05919997 485.11550423 C-523.05041279 474.64852897 -523.04978463 464.18163026 -523.0611385 453.71465704 C-523.06789489 446.71149358 -523.06362645 439.70839113 -523.05062419 432.70523666 C-523.04352966 428.72285149 -523.04095946 424.74061771 -523.05184214 420.75823762 C-523.10378307 400.25581145 -522.4086081 380.26353156 -516.97265625 360.3671875 C-516.71774414 359.4194043 -516.46283203 358.47162109 -516.20019531 357.49511719 C-504.82683335 316.74396723 -478.66013961 278.45813177 -445.46875 252.1875 C-443.02126578 250.21998139 -440.67009097 248.17614211 -438.32220459 246.09214783 C-432.55204655 241.02432775 -426.46650959 236.67339581 -420.046875 232.46484375 C-418.16956178 231.22377044 -416.29261939 229.98213604 -414.41601562 228.73999023 C-412.98273926 227.79287674 -412.98273926 227.79287674 -411.52050781 226.82662964 C-407.01220275 223.83678952 -402.52889685 220.81029357 -398.046875 217.78125 C-397.17538818 217.19278793 -396.30390137 216.60432587 -395.40600586 215.99803162 C-393.62901659 214.79803951 -391.85216185 213.59784815 -390.07543945 212.39746094 C-365.33951015 195.68692712 -365.33951015 195.68692712 -353.66015625 187.9296875 C-342.45471698 180.48715236 -331.30926083 172.95623023 -320.16015625 165.4296875 C-308.14115589 157.31589512 -296.11758056 149.21115711 -284.0378418 141.18798828 C-271.8405116 133.07362172 -259.71122049 124.85755722 -247.57226562 116.65625 C-238.7969175 110.72947483 -230.01059466 104.82037376 -221.1953125 98.953125 C-210.36050894 91.74172435 -199.57027371 84.46511305 -188.78515625 77.1796875 C-168.22791123 63.29522874 -168.22791123 63.29522874 -160.18359375 57.9453125 C-150.47607686 51.48927015 -140.82190734 44.95391997 -131.16015625 38.4296875 C-109.92593536 24.09098304 -109.92593536 24.09098304 -99.96708679 17.47273254 C-96.28692403 15.02392733 -92.62410147 12.55120836 -88.97207642 10.06063843 C-86.44203819 8.33637564 -83.90649386 6.62031171 -81.37036133 4.9050293 C-80.09738254 4.04114623 -78.82689485 3.17358179 -77.55883789 2.30249023 C-53.1758067 -14.42913145 -25.09744883 -19.53252258 0 0 Z M196.58984375 437.3046875 C190.73378205 442.02702676 184.8265171 446.66313052 178.8515625 451.234375 C174.66239115 454.44222232 170.5021832 457.68715171 166.33984375 460.9296875 C160.15848773 465.74333893 153.96062385 470.53393712 147.74609375 475.3046875 C143.59743007 478.49596725 139.46951894 481.7139005 135.33984375 484.9296875 C130.18427023 488.94434375 125.02300147 492.95069773 119.83984375 496.9296875 C111.64286001 503.22398367 103.49380381 509.57982072 95.33984375 515.9296875 C86.15996364 523.07848579 76.97529993 530.21964033 67.74609375 537.3046875 C63.59743007 540.49596725 59.46951894 543.7139005 55.33984375 546.9296875 C50.18427023 550.94434375 45.02300147 554.95069773 39.83984375 558.9296875 C31.64286001 565.22398367 23.49380381 571.57982072 15.33984375 577.9296875 C6.15996364 585.07848579 -3.02470007 592.21964033 -12.25390625 599.3046875 C-16.40256993 602.49596725 -20.53048106 605.7139005 -24.66015625 608.9296875 C-29.81572977 612.94434375 -34.97699853 616.95069773 -40.16015625 620.9296875 C-48.35713999 627.22398367 -56.50619619 633.57982072 -64.66015625 639.9296875 C-67.76398778 642.34678503 -70.8681325 644.76347913 -73.97265625 647.1796875 C-75.0877356 648.04787109 -75.0877356 648.04787109 -76.2253418 648.93359375 C-79.67861216 651.62002315 -83.13649692 654.29988965 -86.609375 656.9609375 C-87.21289795 657.42338867 -87.8164209 657.88583984 -88.43823242 658.36230469 C-90.04224436 659.5894773 -91.64800658 660.81436124 -93.25390625 662.0390625 C-95.67018844 663.86028955 -95.67018844 663.86028955 -97.66015625 665.9296875 C-97.95841785 668.13715795 -97.95841785 668.13715795 -97.90066528 670.7258606 C-97.90341461 671.73830841 -97.90616394 672.75075623 -97.90899658 673.79388428 C-97.90180603 674.90878235 -97.89461548 676.02368042 -97.88720703 677.17236328 C-97.88749908 678.3430838 -97.88779114 679.51380432 -97.88809204 680.72000122 C-97.88693544 683.93472547 -97.87688823 687.14927679 -97.86294413 690.36396646 C-97.85046217 693.72187458 -97.84926828 697.07978589 -97.84689331 700.43771362 C-97.84067106 706.79838767 -97.82425023 713.15899316 -97.80419433 719.51963699 C-97.78185845 726.76016474 -97.77084773 734.00069571 -97.76080346 741.24124932 C-97.73988461 756.13743361 -97.70469422 771.03355371 -97.66015625 785.9296875 C-94.52164512 784.06796656 -91.56100067 782.1815376 -88.69140625 779.92578125 C-87.96244141 779.35537109 -87.23347656 778.78496094 -86.48242188 778.19726562 C-85.71607422 777.59333984 -84.94972656 776.98941406 -84.16015625 776.3671875 C-82.53537707 775.09477007 -80.91037602 773.82263589 -79.28515625 772.55078125 C-78.49238281 771.92929199 -77.69960937 771.30780273 -76.8828125 770.66748047 C-73.98820244 768.40431764 -71.07624885 766.16511053 -68.16015625 763.9296875 C-62.97699853 759.95069773 -57.81572977 755.94434375 -52.66015625 751.9296875 C-47.50458273 747.91503125 -42.34331397 743.90867727 -37.16015625 739.9296875 C-28.96317251 733.63539133 -20.81411631 727.27955428 -12.66015625 720.9296875 C-3.48027614 713.78088921 5.70438757 706.63973467 14.93359375 699.5546875 C19.08225743 696.36340775 23.21016856 693.1454745 27.33984375 689.9296875 C32.49541727 685.91503125 37.65668603 681.90867727 42.83984375 677.9296875 C51.03682749 671.63539133 59.18588369 665.27955428 67.33984375 658.9296875 C76.51972386 651.78088921 85.70438757 644.63973467 94.93359375 637.5546875 C99.08225743 634.36340775 103.21016856 631.1454745 107.33984375 627.9296875 C112.49541727 623.91503125 117.65668603 619.90867727 122.83984375 615.9296875 C131.03682749 609.63539133 139.18588369 603.27955428 147.33984375 596.9296875 C156.51314294 589.78601407 165.69055424 582.64909139 174.9140625 575.5703125 C179.92805577 571.71362673 184.91275168 567.81895157 189.8984375 563.92578125 C190.61773438 563.36503906 191.33703125 562.80429687 192.078125 562.2265625 C193.022323 561.48937988 193.022323 561.48937988 193.9855957 560.73730469 C196.33984375 558.9296875 196.33984375 558.9296875 198.28782177 557.85510445 C201.61941418 555.8310077 203.93906947 554.29329969 205.06857777 550.45021057 C205.32601013 547.32124059 205.32938701 544.27984284 205.24804688 541.14111328 C205.24921509 539.96005508 205.2503833 538.77899689 205.25158691 537.56214905 C205.24697956 534.33627995 205.20697307 531.11321569 205.15099525 527.88790369 C205.10085819 524.51278624 205.0962757 521.13760889 205.08679199 517.76217651 C205.06196311 511.37634932 204.99636615 504.99162262 204.91599607 498.60627925 C204.82646129 491.33436668 204.78256243 484.06240051 204.74243259 476.79007363 C204.65889449 461.83599923 204.51825457 446.88295361 204.33984375 431.9296875 C201.80706586 431.9296875 198.59203873 435.67788873 196.58984375 437.3046875 Z " fill="#000000" transform="translate(1128.66015625,224.0703125)"/>
<path d="M0 0 C14.77354173 7.49382551 25.58326418 19.82981054 31.20545959 35.3216095 C34.71307612 47.94356928 34.56432856 60.36165468 34.49609375 73.38671875 C34.49624908 75.82135562 34.49774372 78.25599274 34.50050354 80.69062805 C34.50188012 85.76627682 34.48945125 90.84164046 34.46655273 95.91723633 C34.43812524 102.39279566 34.44092808 108.86788374 34.45364285 115.3434782 C34.46062637 120.36149559 34.45278097 125.37940575 34.44038582 130.39740944 C34.43590052 132.7842041 34.43550868 135.17101039 34.43945122 137.55780602 C34.45928054 160.11266001 32.25494266 177.87425684 16 195 C4.28905122 206.26202908 -10.85134035 211.94579974 -27 212.375 C-45.67180469 211.85863372 -60.37854195 204.2958871 -73 191 C-79.22132404 184.02496319 -83.174716 175.861118 -86 167 C-94.19746772 171.53394015 -102.15122743 176.31545333 -109.98730469 181.4453125 C-116.16936038 185.48480143 -122.41841472 189.409665 -128.6875 193.3125 C-137.50925456 198.8082024 -146.29836391 204.35167877 -155.0612793 209.94067383 C-160.86482011 213.64211179 -166.67741824 217.32859132 -172.5 221 C-179.34415092 225.31643649 -186.17535895 229.65278494 -193 234 C-202.21045128 239.86637613 -211.43699028 245.70673033 -220.67333984 251.53222656 C-223.82204139 253.51858477 -226.96965243 255.50666714 -230.1171875 257.49487305 C-231.70695385 258.4990646 -233.29679773 259.50313343 -234.88671875 260.50708008 C-238.78365741 262.96782116 -242.67981885 265.42977398 -246.57421875 267.89453125 C-259.35212523 275.97887332 -272.16647799 284.00425668 -285 292 C-285.87881836 292.54769043 -286.75763672 293.09538086 -287.66308594 293.65966797 C-298.3835709 300.3348032 -309.14702194 306.93873491 -319.9375 313.5 C-320.53073059 313.86098785 -321.12396118 314.22197571 -321.73516846 314.59390259 C-328.87847082 318.93785532 -336.05666264 323.21372 -343.28710938 327.41162109 C-351.35110977 332.10267157 -359.11614251 336.64238781 -366 343 C-366.93585938 343.81791016 -366.93585938 343.81791016 -367.890625 344.65234375 C-381.21886459 356.96647816 -388.48960759 376.10146196 -389.38671875 393.953125 C-389.87483979 411.55658139 -388.72478445 430.78282228 -377.29296875 445.14453125 C-370.33483559 452.10266441 -359.62297569 454.57072227 -350 455 C-349.14148438 455.0515625 -348.28296875 455.103125 -347.3984375 455.15625 C-299.36690476 456.64559985 -248.80040035 432.06886788 -209.0546875 407.46875 C-203.47280361 404.02742022 -197.75238537 400.82058361 -192.0625 397.5625 C-182.98498071 392.34628001 -174.01989731 387.01398278 -165.19140625 381.38867188 C-161.62843909 379.13085579 -158.04504414 376.90588789 -154.46484375 374.67553711 C-142.84121137 367.43189073 -131.27095013 360.10739324 -119.7265625 352.73828125 C-116.96579771 350.97819481 -114.20212012 349.22277369 -111.4375 347.46875 C-100.06748621 340.25285766 -88.74666264 332.96633745 -77.46777344 325.60888672 C-73.3148299 322.90133845 -69.15710814 320.20114749 -65 317.5 C-64.27141785 317.02634003 -63.54283569 316.55268005 -62.79217529 316.06466675 C-58.63462426 313.36181973 -54.47651166 310.65985158 -50.31640625 307.9609375 C-38.84815372 300.51830252 -27.41359812 293.02612557 -16 285.5 C-14.23855566 284.3390654 -12.47708023 283.17817798 -10.71557617 282.01733398 C-7.96117607 280.20209486 -5.20683627 278.38676458 -2.4526825 276.57115173 C4.15872144 272.21277291 10.7723258 267.85774715 17.38671875 263.50390625 C36.31901084 251.04009638 55.23406806 238.55240367 74.07785034 225.95513916 C79.26746452 222.48677738 84.46337407 219.0279223 89.66015625 215.5703125 C109.99498851 202.03746508 130.28749391 188.4441944 150.52612305 174.76782227 C152.21921036 173.62381936 153.91232492 172.47985676 155.60546875 171.3359375 C156.41663147 170.78788452 157.22779419 170.23983154 158.0635376 169.6751709 C163.63616667 165.91305244 169.22527437 162.17645244 174.82339478 158.45240784 C180.59542448 154.61006926 186.3328596 150.71774685 192.0625 146.8125 C193.1246875 146.08909424 194.186875 145.36568848 195.28125 144.62036133 C197.46128277 143.13552183 199.64113476 141.65041687 201.82080078 140.16503906 C204.84617832 138.10475277 207.87385995 136.04790414 210.90234375 133.9921875 C220.12176437 127.72851456 229.31498253 121.4379573 238.37304688 114.94213867 C250.84710205 106.04011189 250.84710205 106.04011189 258.125 103.75 C259.58292969 103.27820313 259.58292969 103.27820313 261.0703125 102.796875 C275.84805811 98.77732819 290.65364187 101.03658694 304.08203125 108.203125 C319.29602788 117.57185117 330.54367598 131.34671726 335.5 148.5625 C340.97869551 171.76756491 334.97636743 193.97923194 322.80322266 213.96484375 C317.26870863 222.4130966 310.39226131 228.43241305 302 234 C300.66219482 234.8962207 300.66219482 234.8962207 299.29736328 235.81054688 C295.17043108 238.5747686 291.0419835 241.33600592 286.89208984 244.06567383 C281.07303713 247.89894985 275.39111378 251.86347239 269.77563477 255.98852539 C264.92802856 259.50153687 259.96055489 262.83684729 255 266.1875 C253.34367711 267.31000725 251.68735589 268.43251702 250.03128052 269.5553894 C248.38537329 270.67126434 246.73907551 271.78656315 245.09277344 272.90185547 C240.7622547 275.83968923 236.44220163 278.7926439 232.125 281.75 C230.98514648 282.53056763 230.98514648 282.53056763 229.82226562 283.3269043 C228.30754096 284.36430929 226.79289177 285.40182447 225.27832031 286.43945312 C220.55490043 289.67478316 215.82916133 292.9067255 211.10375977 296.13916016 C207.25686872 298.77085036 203.41066799 301.40353273 199.56640625 304.0390625 C187.20852454 312.50832716 174.81320163 320.92200592 162.41287231 329.32891846 C158.43769572 332.02419787 154.46437416 334.72218988 150.4921875 337.421875 C143.33222702 342.28731416 136.16778119 347.14609138 129 352 C127.79812042 352.81392212 127.79812042 352.81392212 126.57196045 353.64428711 C60.29497843 398.51875457 60.29497843 398.51875457 35.38671875 413.35546875 C-15.00148496 443.42124224 -53.22369945 483.16332804 -71 540 C-71.39614502 541.26505371 -71.39614502 541.26505371 -71.80029297 542.55566406 C-83.9800375 582.31119383 -86.15646131 624.30440705 -86.13803101 665.61369324 C-86.13989737 668.40675375 -86.14327109 671.19981198 -86.14658034 673.99287111 C-86.15297711 680.04320063 -86.15579489 686.09352328 -86.15620613 692.14385605 C-86.1568541 701.1410709 -86.16326797 710.13827529 -86.17095293 719.13548656 C-86.18300028 733.35083112 -86.19167709 747.56617519 -86.19799107 761.78152337 C-86.20804608 784.34360099 -86.22731026 806.90566362 -86.24953346 829.46773221 C-86.25806174 838.15831186 -86.26632874 846.84889176 -86.27463722 855.53947163 C-86.27556223 856.50484631 -86.27648724 857.470221 -86.27744028 858.46484946 C-86.29940868 881.42049383 -86.31921148 904.37613984 -86.33789062 927.33178711 C-86.3387103 928.33566108 -86.33952998 929.33953504 -86.3403745 930.37382943 C-86.3594656 953.80311216 -86.37642851 977.23239479 -86.38873291 1000.66168213 C-86.38926258 1001.66994639 -86.38979225 1002.67821065 -86.39033796 1003.71702837 C-86.39458995 1011.8450498 -86.39876605 1019.97307126 -86.40292276 1028.10109273 C-86.42012328 1061.61986067 -86.44733432 1095.13860796 -86.48608314 1128.65735816 C-86.49154466 1133.3911176 -86.49687766 1138.12487717 -86.50212479 1142.85863686 C-86.50315917 1143.79021215 -86.50419355 1144.72178745 -86.50525927 1145.6815923 C-86.52157285 1160.6640158 -86.52711223 1175.64642482 -86.52842245 1190.62885635 C-86.5299274 1205.68375109 -86.54209128 1220.73860653 -86.56517886 1235.79348394 C-86.57854933 1244.73333774 -86.58358296 1253.67310568 -86.5766325 1262.61296726 C-86.57280503 1268.58930392 -86.57986579 1274.56556466 -86.59564828 1280.54188152 C-86.60432086 1283.94359083 -86.60670568 1287.34497966 -86.59907441 1290.74671306 C-86.55230086 1313.64182707 -87.92506479 1333.15997386 -104 1351 C-104.80179688 1351.89460938 -105.60359375 1352.78921875 -106.4296875 1353.7109375 C-116.81413756 1364.69738467 -128.41211077 1370.99326834 -143 1375 C-143.83869629 1375.23428711 -144.67739258 1375.46857422 -145.54150391 1375.70996094 C-162.15358849 1380.28296722 -178.95863288 1383.50414551 -196 1386 C-197.12422363 1386.16661133 -198.24844727 1386.33322266 -199.40673828 1386.50488281 C-234.57708455 1391.46105415 -271.86597482 1390.95573644 -307 1386 C-308.21349121 1385.83371094 -309.42698242 1385.66742187 -310.67724609 1385.49609375 C-367.85191492 1377.43596552 -424.72922265 1358.46751842 -468 1319 C-468.86882812 1318.21496094 -469.73765625 1317.42992187 -470.6328125 1316.62109375 C-494.56652219 1293.88022168 -511.08307794 1261.18217385 -512.09397171 1227.90674867 C-512.13188565 1224.19996349 -512.13861643 1220.49383635 -512.13422108 1216.78692818 C-512.13617664 1215.34522766 -512.13856648 1213.90352768 -512.14134905 1212.46182853 C-512.14772671 1208.50066369 -512.14791246 1204.53951919 -512.14707164 1200.5783502 C-512.14724158 1196.26833751 -512.15315273 1191.95833201 -512.1583125 1187.64832294 C-512.16762811 1179.09985724 -512.1715588 1170.55139673 -512.17383147 1162.00292659 C-512.17679632 1151.76288452 -512.18549549 1141.5228493 -512.19424575 1131.28281082 C-512.21508142 1106.53000784 -512.22555924 1081.77720367 -512.23437535 1057.02439396 C-512.23858381 1045.30943502 -512.24380558 1033.59447659 -512.24905988 1021.87951808 C-512.26695085 981.76232682 -512.28194526 941.64513541 -512.28938007 901.52794075 C-512.28985483 899.00970274 -512.29033072 896.49146473 -512.29080774 893.97322672 C-512.29104411 892.72442867 -512.29128049 891.47563061 -512.29152403 890.1889902 C-512.2927252 883.86215883 -512.29394066 877.53532746 -512.29516602 871.20849609 C-512.29540617 869.95292533 -512.29564632 868.69735457 -512.29589374 867.40373621 C-512.30378246 826.71706657 -512.32720507 786.03042612 -512.35972196 745.34376922 C-512.39405287 702.3085686 -512.41373431 659.27338504 -512.41702431 616.2381705 C-512.41744184 611.50973121 -512.4179214 606.78129192 -512.41844749 602.05285263 C-512.41857069 600.88861255 -512.41869388 599.72437247 -512.4188208 598.52485238 C-512.42114894 579.82149155 -512.43678751 561.11816472 -512.45728934 542.41481599 C-512.4775885 523.59707162 -512.48300536 504.77936791 -512.47351871 485.96161462 C-512.4683194 474.7960592 -512.47410667 463.63063955 -512.49605338 452.46510378 C-512.50963284 444.98831895 -512.50842188 437.51162683 -512.49565142 430.03484092 C-512.48880193 425.78666966 -512.48792067 421.53875658 -512.50521151 417.29060914 C-512.74269238 355.02055889 -495.21571961 297.99197873 -451 253 C-438.69317371 240.65159659 -424.0864385 230.79483925 -408.7734375 222.60546875 C-394.17280854 214.75418714 -380.24181222 205.55734996 -366.20385742 196.75390625 C-358.72358138 192.06533825 -351.21180409 187.43002404 -343.6875 182.8125 C-335.46409715 177.76342369 -327.26858837 172.67578453 -319.11987305 167.50708008 C-312.76422586 163.47628855 -306.38483894 159.48436864 -300 155.5 C-292.05676249 150.54189249 -284.12772226 145.56251964 -276.21606445 140.55419922 C-269.88889044 136.55255609 -263.53955775 132.58699407 -257.1875 128.625 C-247.4982813 122.57918082 -237.852248 116.46834464 -228.22265625 110.328125 C-216.25165914 102.69521123 -204.23271344 95.14015114 -192.1875 87.625 C-182.50480297 81.5830588 -172.86486627 75.47680058 -163.2421875 69.33984375 C-155.94517568 64.68689087 -148.62472045 60.07120154 -141.3046875 55.45458984 C-139.01454836 54.00918211 -136.72580343 52.56159316 -134.4375 51.11328125 C-125.70534914 45.5882921 -116.95473099 40.09416907 -108.1875 34.625 C-100.33134106 29.72288711 -92.49709313 24.78845671 -84.6875 19.8125 C-83.78676758 19.24039795 -82.88603516 18.6682959 -81.95800781 18.07885742 C-77.57307134 15.29115434 -73.20340432 12.48389381 -68.859375 9.6328125 C-60.14687733 3.95360532 -51.99430856 -0.88468547 -42 -4 C-29.18543156 -8.27152281 -11.91140398 -5.74378131 0 0 Z " fill="#000000" transform="translate(633,5)"/>
</svg>
