<?xml version="1.0" encoding="UTF-8"?>
<svg version="1.1" xmlns="http://www.w3.org/2000/svg" width="800" height="559">
<path d="M0 0 C1.23442172 -0.00297112 2.46884344 -0.00594224 3.74067187 -0.0090034 C7.14169885 -0.01613933 10.54267526 -0.01885924 13.94370604 -0.01960087 C17.62224604 -0.02146315 21.30077535 -0.02901644 24.97930908 -0.03573608 C33.01299423 -0.0492743 41.04667435 -0.05533751 49.080369 -0.05974674 C54.10689206 -0.06251769 59.13341322 -0.06675665 64.159935 -0.07125092 C78.10527551 -0.08343935 92.05061451 -0.09373842 105.99596024 -0.09712601 C107.3328626 -0.09745536 107.3328626 -0.09745536 108.6967731 -0.09779136 C109.59005618 -0.09800964 110.48333926 -0.09822791 111.40369153 -0.09845281 C113.21352466 -0.09889626 115.02335779 -0.09934282 116.83319092 -0.09979248 C118.17977249 -0.10012463 118.17977249 -0.10012463 119.55355772 -0.10046348 C134.07483428 -0.10440503 148.59606046 -0.12184128 163.11731759 -0.145152 C178.0632864 -0.16894865 193.00923003 -0.18133168 207.95521808 -0.18249393 C216.33167693 -0.18340621 224.70807018 -0.18904459 233.0845108 -0.20731354 C240.22243066 -0.22282745 247.36026464 -0.22776937 254.49819818 -0.21957543 C258.13033581 -0.21570796 261.76230115 -0.21640327 265.39441681 -0.23063278 C305.24913404 -0.37749074 345.83792051 5.76230863 377.40447998 32.14044189 C378.39963623 32.97188721 379.39479248 33.80333252 380.42010498 34.65997314 C404.81462722 55.69902787 417.10423234 85.52799699 420.19135475 117.14616394 C420.61041287 123.03367193 420.55218658 128.93039939 420.54974365 134.82989502 C420.5527415 136.2862354 420.55614545 137.742575 420.55992126 139.19891357 C420.56869271 143.12395465 420.5710962 147.04897389 420.57173705 150.97402382 C420.5724504 153.42744292 420.5745899 155.88085655 420.57723427 158.33427429 C420.58645841 166.8953181 420.59057203 175.45634641 420.58978271 184.01739502 C420.58917971 191.99851503 420.59978241 199.97956794 420.61552638 207.96067095 C420.62857797 214.8211475 420.63396776 221.68160201 420.63332731 228.54209089 C420.63307202 232.63663065 420.63594153 236.73111044 420.64650536 240.82563782 C420.65614857 244.6670454 420.65629175 248.50833509 420.64898872 252.3497467 C420.6479388 253.76151704 420.65032976 255.1732946 420.65634918 256.58505249 C420.66401303 258.50621092 420.65825052 260.42740917 420.65171814 262.34857178 C420.65226291 263.4251429 420.65280767 264.50171402 420.65336895 265.61090851 C420.40447998 268.14044189 420.40447998 268.14044189 418.40447998 270.14044189 C418.40447998 269.48044189 418.40447998 268.82044189 418.40447998 268.14044189 C355.03365701 268.21865656 291.66283562 268.29809826 228.29202271 268.3841095 C227.35482335 268.38538118 226.417624 268.38665286 225.45202467 268.38796307 C205.0864831 268.41560437 184.72094185 268.44346735 164.3554009 268.47155884 C154.36883096 268.4853326 144.38226096 268.49905735 134.39569092 268.51275635 C133.40188205 268.51412043 132.40807317 268.51548451 131.38414888 268.51688993 C99.14442832 268.56111859 66.90470462 268.60210798 34.66497773 268.64142602 C1.54758101 268.68183147 -31.56980985 268.72548798 -64.6871968 268.773263 C-69.35970815 268.78000203 -74.03221955 268.7867037 -78.70473099 268.79338264 C-80.08422132 268.79535624 -80.08422132 268.79535624 -81.49158015 268.7973697 C-96.32388057 268.81849357 -111.1561832 268.83616783 -125.98848951 268.8525672 C-140.88280857 268.86910821 -155.77711927 268.88924737 -170.67142843 268.91311031 C-179.53148579 268.92719472 -188.3915366 268.93846948 -197.25160217 268.94580627 C-203.16002787 268.95096994 -209.06844109 268.9597091 -214.97685741 268.97142963 C-218.34984503 268.97801608 -221.7227987 268.98243602 -225.09579508 268.98360389 C-228.71851298 268.98509925 -232.34116751 268.99262485 -235.96387291 269.0017767 C-237.0255086 269.00075403 -238.08714429 268.99973136 -239.18095076 268.9986777 C-240.13866779 269.00235841 -241.09638481 269.00603912 -242.08312356 269.00983137 C-242.91262852 269.01092323 -243.74213348 269.0120151 -244.59677496 269.01314005 C-246.66888538 269.01485057 -246.66888538 269.01485057 -248.59552002 270.14044189 C-248.92552002 269.48044189 -249.25552002 268.82044189 -249.59552002 268.14044189 C-251.09985509 267.6859157 -252.62566591 267.30152321 -254.15802002 266.95294189 C-261.7205292 264.82159095 -267.23185944 259.59865955 -271.59552002 253.14044189 C-272.79862617 249.59758301 -272.74869096 246.13754129 -272.78839111 242.41925049 C-272.7965686 241.75197937 -272.80474609 241.08470825 -272.81317139 240.3972168 C-272.83792872 238.19444653 -272.85452021 235.99174049 -272.86895752 233.78887939 C-272.8742812 233.03274982 -272.87960487 232.27662025 -272.88508987 231.49757767 C-272.91178493 227.49198676 -272.93116776 223.48642655 -272.94561768 219.48077393 C-272.95892841 216.18101099 -272.98673208 212.88187064 -273.02764893 209.58233643 C-273.07722516 205.58353517 -273.10176914 201.5852961 -273.10884476 197.58620071 C-273.11551697 196.07046998 -273.13063282 194.55474979 -273.15473557 193.03919601 C-273.30192701 183.22055948 -272.75896783 174.82230632 -265.86904907 167.2406311 C-257.5173034 159.14343442 -247.32786625 159.72093182 -236.44903564 159.79986572 C-234.81240861 159.80071285 -233.17578043 159.80023519 -231.53915405 159.79853821 C-227.11404821 159.79768016 -222.68918809 159.81527494 -218.26413918 159.83626008 C-213.6330351 159.85505875 -209.00192492 159.85677983 -204.37078857 159.8603363 C-195.60909057 159.86964741 -186.84750534 159.89424852 -178.08585691 159.92438477 C-168.10764258 159.9579579 -158.12942275 159.97442211 -148.15116596 159.98947108 C-127.63255446 160.02079892 -107.11404435 160.07354121 -86.59552002 160.14044189 C-86.60551277 158.57761475 -86.60551277 158.57761475 -86.6157074 156.98321533 C-86.67688257 147.09898423 -86.72166579 137.21479223 -86.75095654 127.33041382 C-86.76652209 122.25040716 -86.78759105 117.17055499 -86.82183838 112.09063721 C-86.85476038 107.17578645 -86.87244127 102.26108301 -86.88015175 97.34613037 C-86.88563697 95.48372076 -86.89634554 93.62131796 -86.91271019 91.75897217 C-87.03940593 76.72402785 -86.05850185 61.35563544 -80.59552002 47.14044189 C-79.93552002 46.81044189 -79.27552002 46.48044189 -78.59552002 46.14044189 C-78.22427002 44.93387939 -78.22427002 44.93387939 -77.84552002 43.70294189 C-76.10588961 38.74499523 -73.38145935 34.57327766 -70.59552002 30.14044189 C-69.97677002 29.08856689 -69.35802002 28.03669189 -68.72052002 26.95294189 C-57.96721127 12.7206215 -39.8482286 3.92572237 -22.59552002 1.14044189 C-15.05470948 0.16985042 -7.59576331 -0.00577985 0 0 Z " fill="#000000" transform="translate(379.59552001953125,78.85955810546875)"/>
<path d="M0 0 C0.75539063 -0.01546875 1.51078125 -0.0309375 2.2890625 -0.046875 C9.18531679 0.00052194 14.27366566 2.11986685 19.4609375 6.6484375 C20.09257813 7.38320312 20.72421875 8.11796875 21.375 8.875 C22.02210937 9.60460938 22.66921875 10.33421875 23.3359375 11.0859375 C26.62467397 15.8569214 27.24985312 20.47281824 27.24609566 26.1728878 C27.24840335 26.82139287 27.25071103 27.46989793 27.25308865 28.13805467 C27.25837657 30.30807296 27.24941481 32.47779363 27.24050903 34.64779663 C27.24138135 36.22039981 27.24313281 37.7930027 27.24568737 39.36560404 C27.25015979 43.68468324 27.24215863 48.00366326 27.23213124 52.32272983 C27.22349756 56.98115456 27.22641685 61.63957367 27.22793579 66.29800415 C27.22898469 74.36829326 27.22270753 82.43855004 27.21146011 90.50883102 C27.19520881 102.17711104 27.18999748 113.84537541 27.18748413 125.51366551 C27.18310645 144.44450332 27.16979536 163.37532389 27.15087891 182.30615234 C27.132522 200.69612542 27.11836457 219.08609383 27.10986328 237.47607422 C27.10907511 239.17629719 27.10907511 239.17629719 27.10827102 240.91086809 C27.10566095 246.59719133 27.10313353 252.28351461 27.10064721 257.9698379 C27.07991243 305.14657054 27.0446849 352.32328438 27 399.5 C27.62885468 399.49937608 28.25770936 399.49875216 28.90562024 399.49810933 C97.35797426 399.43033572 165.81033212 399.36751241 234.26271057 399.33062744 C235.28493751 399.33007521 236.30716446 399.32952298 237.36036797 399.32895402 C259.57515832 399.31698289 281.78994902 399.30590209 304.00474026 399.29573868 C314.89858669 399.29074926 325.79243301 399.28556305 336.6862793 399.28027344 C337.77035826 399.2797504 338.85443722 399.27922737 339.97136707 399.27868848 C375.12078645 399.26163766 410.27018014 399.23158837 445.41958396 399.19481112 C481.53477891 399.1570919 517.64995965 399.13246081 553.76517397 399.12434004 C558.8641053 399.12318739 563.96303658 399.12188484 569.06196785 399.12049103 C570.06552829 399.12022134 571.06908873 399.11995164 572.1030601 399.11967378 C588.26924176 399.11494363 604.43537949 399.09638254 620.60154322 399.07267186 C636.84695655 399.0491393 653.09232625 399.04012397 669.33775603 399.04599449 C678.99402559 399.04904091 688.65013569 399.04088931 698.30637651 399.01680983 C704.75445257 399.0018265 711.20242404 399.00133388 717.65050728 399.01267275 C721.32606569 399.01871988 725.00132224 399.01842028 728.67684846 399.00046727 C732.6361545 398.981275 736.59502573 398.99302577 740.55435848 399.00780869 C741.69547015 398.99730063 742.83658182 398.98679258 744.01227263 398.9759661 C752.1877495 399.04523908 757.83625379 400.94497392 764.75 405.1875 C769.83061193 410.40924004 773.11100949 417.01455097 773.14717102 424.31790161 C773.15790398 425.80650444 773.15790398 425.80650444 773.16885376 427.32518005 C773.17288712 428.95689903 773.17288712 428.95689903 773.17700195 430.62158203 C773.18685875 432.34156654 773.18685875 432.34156654 773.19691467 434.09629822 C773.21666325 437.90013695 773.22831473 441.70393615 773.23828125 445.5078125 C773.24235678 446.80670284 773.2464323 448.10559319 773.25063133 449.44384384 C773.26934775 455.61134568 773.28391061 461.77882772 773.2922433 467.94635212 C773.3020021 475.05119663 773.32828626 482.15572846 773.36874419 489.26046288 C773.39898158 494.7604088 773.41371954 500.26026551 773.41702431 505.76029289 C773.41936704 509.04095899 773.43022006 512.32121619 773.45348549 515.60181046 C773.47787152 519.26880896 773.47691204 522.93499576 773.4699707 526.60205078 C773.48278076 527.67771805 773.49559082 528.75338531 773.50878906 529.86164856 C773.44221492 539.53855501 770.57628094 546.74338731 763.88671875 553.76953125 C757.33284099 559.7806448 750.50189323 560.2487767 741.87109375 559.89453125 C737.05174211 559.40335616 732.94879671 558.37973223 729 555.5 C728.34 554.51 727.68 553.52 727 552.5 C726.34 552.83 725.68 553.16 725 553.5 C724.32880451 552.0437455 723.66318193 550.58492133 723 549.125 C722.62875 548.31289063 722.2575 547.50078125 721.875 546.6640625 C721 544.5 721 544.5 721 542.5 C720.34 542.17 719.68 541.84 719 541.5 C718.5859375 539.43359375 718.5859375 539.43359375 718.375 536.9375 C718.30023437 536.11121094 718.22546875 535.28492188 718.1484375 534.43359375 C718.09945312 533.79550781 718.05046875 533.15742187 718 532.5 C717.67 532.5 717.34 532.5 717 532.5 C717 507.09 717 481.68 717 455.5 C489.63 455.5 262.26 455.5 28 455.5 C28 455.17 28 454.84 28 454.5 C28.59885004 454.50015598 29.19770007 454.50031196 29.81469708 454.50047267 C94.97815376 454.51741021 160.14161069 454.53311683 225.30506897 454.54234314 C226.27764982 454.5424812 227.25023066 454.54261925 228.25228366 454.54276149 C249.3864228 454.54575404 270.52056197 454.54852427 291.65470117 454.55106533 C302.0180918 454.55231272 312.38148243 454.55360927 322.74487305 454.55493164 C323.77618375 454.5550624 324.80749445 454.55519316 325.87005698 454.55532788 C359.32931662 454.55959321 392.78857457 454.56710748 426.24783318 454.57629722 C460.61655343 454.58571966 494.98527276 454.59188308 529.35399428 454.59391499 C534.20250887 454.59420317 539.05102345 454.5945288 543.89953804 454.59487724 C544.85384445 454.59494467 545.80815086 454.59501209 546.79137564 454.59508156 C562.18549682 454.59626568 577.57961512 454.60091021 592.97373512 454.60683203 C608.43037553 454.61270467 623.88701308 454.61497166 639.34365457 454.61350138 C648.53941638 454.61273777 657.73516776 454.61479538 666.93092771 454.62079754 C673.06183994 454.62452773 679.19274528 454.62467766 685.32365797 454.62183181 C688.82454182 454.62031178 692.32540584 454.62042838 695.82628762 454.62488318 C699.58453182 454.62884224 703.34272323 454.62676647 707.10096645 454.62304783 C708.75752346 454.62698835 708.75752346 454.62698835 710.44754627 454.63100848 C711.43885144 454.62876118 712.4301566 454.62651389 713.45150131 454.6241985 C714.74278691 454.62443247 714.74278691 454.62443247 716.06015908 454.62467116 C718.00613289 454.71396699 718.00613289 454.71396699 719 453.5 C490.64 453.5 262.28 453.5 27 453.5 C27 482.21 27 510.92 27 540.5 C22.46000925 550.7149792 22.46000925 550.7149792 19.6875 553.375 C19.15511719 553.90867187 18.62273438 554.44234375 18.07421875 554.9921875 C12.27016519 559.21133001 7.04553259 560.0023214 0.0625 559.9375 C-0.69740234 559.95748047 -1.45730469 559.97746094 -2.24023438 559.99804688 C-9.02898783 559.99224948 -14.19592535 558.04516184 -19.2421875 553.46484375 C-19.78101563 552.79582031 -20.31984375 552.12679687 -20.875 551.4375 C-21.42929687 550.76589844 -21.98359375 550.09429688 -22.5546875 549.40234375 C-27.15802003 543.34336283 -27.14749969 538.22453987 -27.13142776 530.80169201 C-27.1334804 529.92205362 -27.13553303 529.04241522 -27.13764787 528.13612112 C-27.14332479 525.1738379 -27.14185976 522.21160107 -27.14044189 519.24931335 C-27.14302512 517.10992769 -27.14603816 514.9705425 -27.1494453 512.83115798 C-27.15752334 506.94048042 -27.15930531 501.04981504 -27.16004276 495.1591326 C-27.16189189 488.81067491 -27.16943845 482.46222356 -27.17617798 476.11376953 C-27.1904756 461.50342922 -27.19628826 446.89309139 -27.20086992 432.28274529 C-27.20320584 425.06363166 -27.20680846 417.84451883 -27.2105653 410.62540581 C-27.2233998 385.91568788 -27.2341197 361.20597039 -27.2375679 336.4962492 C-27.23778953 334.94523694 -27.23801132 333.39422468 -27.23823325 331.84321241 C-27.23845389 330.28845097 -27.23867438 328.73368952 -27.2388947 327.17892808 C-27.23933725 324.05979645 -27.23978437 320.94066483 -27.24023438 317.8215332 C-27.24034377 317.04817035 -27.24045316 316.2748075 -27.24056586 315.4780094 C-27.24419747 290.39489047 -27.26012195 265.31180043 -27.28342474 240.22869256 C-27.30801471 213.71161345 -27.32174033 187.19455086 -27.32293582 160.67746001 C-27.32310728 157.76723563 -27.3233227 154.85701126 -27.32357025 151.94678688 C-27.32362602 151.23020367 -27.32368179 150.51362045 -27.32373925 149.7753226 C-27.32489033 138.23886481 -27.33591707 126.70243665 -27.35045731 115.16598887 C-27.36481579 103.57342058 -27.36781019 91.98089909 -27.36001733 80.38832339 C-27.35610279 74.10690872 -27.3570797 67.82559384 -27.37107468 61.54419136 C-27.38376507 55.79588334 -27.3826589 50.0477506 -27.37048396 44.29944298 C-27.36851854 42.21803556 -27.37164418 40.13661593 -27.38032833 38.05522569 C-27.39137694 35.22854729 -27.38396333 32.4024923 -27.3719368 29.57583141 C-27.37953199 28.76562148 -27.38712718 27.95541154 -27.39495254 27.12064978 C-27.32965033 20.02279755 -25.63024116 13.69713727 -20.8125 8.25 C-20.01779297 7.31414063 -20.01779297 7.31414063 -19.20703125 6.359375 C-13.28440948 1.36969719 -7.63716237 -0.1563924 0 0 Z " fill="#000000" transform="translate(27,-0.5)"/>
<path d="M0 0 C1.36898437 0.62841797 1.36898437 0.62841797 2.765625 1.26953125 C10.70400447 5.20469936 16.81728898 10.78268828 23 17 C23.82886719 17.82886719 24.65773437 18.65773438 25.51171875 19.51171875 C40.51906533 35.33440504 46.62734794 55.55416132 46.26953125 76.98046875 C45.44056312 98.42338321 33.74168502 118.02670048 18.66796875 132.703125 C15.09953375 135.77521839 11.29783485 138.23309759 7.25 140.625 C4.90851813 141.93505485 4.90851813 141.93505485 3 144 C0.87841411 144.93225479 -1.27217126 145.79942315 -3.4375 146.625 C-4.59121094 147.07101563 -5.74492187 147.51703125 -6.93359375 147.9765625 C-10 149 -10 149 -13 149 C-13 149.99 -13 150.98 -13 152 C-13.99 151.67 -14.98 151.34 -16 151 C-16.33 151.66 -16.66 152.32 -17 153 C-18.32 152.67 -19.64 152.34 -21 152 C-21.33 152.66 -21.66 153.32 -22 154 C-25.04386724 154.08226668 -27.07175348 153.97608217 -30 153 C-30.33 153.66 -30.66 154.32 -31 155 C-33.31 154.67 -35.62 154.34 -38 154 C-38 153.34 -38 152.68 -38 152 C-38.5775 152.33 -39.155 152.66 -39.75 153 C-42 154 -42 154 -46 154 C-46.33 153.34 -46.66 152.68 -47 152 C-51.09392846 150.91240913 -51.09392846 150.91240913 -55 152 C-55 151.01 -55 150.02 -55 149 C-55.886875 148.855625 -56.77375 148.71125 -57.6875 148.5625 C-60.47117646 148.08980022 -63.23483757 147.56929815 -66 147 C-66 146.34 -66 145.68 -66 145 C-67.051875 144.938125 -68.10375 144.87625 -69.1875 144.8125 C-73.66884605 143.85745904 -74.96025526 142.29305681 -78 139 C-78.99 139 -79.98 139 -81 139 C-81.33 138.01 -81.66 137.02 -82 136 C-83.62428096 134.353524 -83.62428096 134.353524 -85.625 132.75 C-92.50067214 126.86707196 -97.67417221 121.39704117 -102.32421875 113.55078125 C-103.88995366 110.93846894 -103.88995366 110.93846894 -106.14453125 109.04296875 C-108.54339991 106.4016881 -108.58202676 104.5021758 -109 101 C-109.62100727 99.0751463 -110.26844988 97.15868639 -110.9375 95.25 C-117.3111862 74.62925051 -114.9010559 55.29851321 -105.5078125 35.921875 C-94.40440752 15.62761326 -77.4598208 2.32908142 -55.71875 -5.125 C-53.15471619 -5.85758109 -50.61372773 -6.47635161 -48 -7 C-46.906875 -7.226875 -45.81375 -7.45375 -44.6875 -7.6875 C-28.80690374 -9.03331324 -14.4089129 -6.94573287 0 0 Z " fill="#000000" transform="translate(221,34)"/>
<path d="M0 0 C239.25 0 478.5 0 725 0 C725 0.33 725 0.66 725 1 C485.75 1 246.5 1 0 1 C0 0.67 0 0.34 0 0 Z " fill="#000000" transform="translate(55,397)"/>
<path d="M0 0 C99.66 0 199.32 0 302 0 C302 0.33 302 0.66 302 1 C202.34 1 102.68 1 0 1 C0 0.67 0 0.34 0 0 Z " fill="#000000" transform="translate(368,77)"/>
<path d="M0 0 C0.33 0 0.66 0 1 0 C1 27.72 1 55.44 1 84 C-53.12 84 -107.24 84 -163 84 C-163 83.67 -163 83.34 -163 83 C-109.21 83 -55.42 83 0 83 C0 55.61 0 28.22 0 0 Z " fill="#000000" transform="translate(291,154)"/>
<path d="M0 0 C4.62 0 9.24 0 14 0 C14 0.33 14 0.66 14 1 C9.38 1 4.76 1 0 1 C0 0.67 0 0.34 0 0 Z " fill="#000000" transform="translate(180,24)"/>
<path d="M0 0 C0.33 0 0.66 0 1 0 C1 1.98 1 3.96 1 6 C0.67 6 0.34 6 0 6 C0 4.02 0 2.04 0 0 Z " fill="#000000" transform="translate(268,97)"/>
<path d="M0 0 C1.98 0 3.96 0 6 0 C6 0.33 6 0.66 6 1 C4.02 1 2.04 1 0 1 C0 0.67 0 0.34 0 0 Z " fill="#000000" transform="translate(675,78)"/>
<path d="M0 0 C0.33 0 0.66 0 1 0 C1 1.65 1 3.3 1 5 C0.67 5 0.34 5 0 5 C0 3.35 0 1.7 0 0 Z " fill="#000000" transform="translate(744,533)"/>
<path d="M0 0 C0.33 0 0.66 0 1 0 C1 1.65 1 3.3 1 5 C0.67 5 0.34 5 0 5 C0 3.35 0 1.7 0 0 Z " fill="#000000" transform="translate(268,111)"/>
<path d="M0 0 C1.65 0 3.3 0 5 0 C5 0.33 5 0.66 5 1 C3.35 1 1.7 1 0 1 C0 0.67 0 0.34 0 0 Z " fill="#000000" transform="translate(358,78)"/>
<path d="M0 0 C1 4 1 4 1 4 Z " fill="#000000" transform="translate(55,536)"/>
<path d="M0 0 C1 4 1 4 1 4 Z " fill="#000000" transform="translate(105,324)"/>
<path d="M0 0 C1 4 1 4 1 4 Z " fill="#000000" transform="translate(292,146)"/>
<path d="M0 0 C1 4 1 4 1 4 Z " fill="#000000" transform="translate(105,112)"/>
<path d="M0 0 C1 4 1 4 1 4 Z " fill="#000000" transform="translate(105,98)"/>
<path d="M0 0 C4 1 4 1 4 1 Z " fill="#000000" transform="translate(684,79)"/>
<path d="M0 0 C1 4 1 4 1 4 Z " fill="#000000" transform="translate(55,19)"/>
<path d="M0 0 C3 1 3 1 3 1 Z " fill="#000000" transform="translate(125,347)"/>
<path d="" fill="#000000" transform="translate(0,0)"/>
<path d="M0 0 C3 1 3 1 3 1 Z " fill="#000000" transform="translate(170,186)"/>
<path d="" fill="#000000" transform="translate(0,0)"/>
<path d="" fill="#000000" transform="translate(0,0)"/>
<path d="" fill="#000000" transform="translate(0,0)"/>
<path d="" fill="#000000" transform="translate(0,0)"/>
<path d="" fill="#000000" transform="translate(0,0)"/>
<path d="" fill="#000000" transform="translate(0,0)"/>
<path d="" fill="#000000" transform="translate(0,0)"/>
<path d="" fill="#000000" transform="translate(0,0)"/>
<path d="M0 0 C3 1 3 1 3 1 Z " fill="#000000" transform="translate(695,81)"/>
<path d="M0 0 C3 1 3 1 3 1 Z " fill="#000000" transform="translate(690,80)"/>
<path d="M0 0 C3 1 3 1 3 1 Z " fill="#000000" transform="translate(352,79)"/>
<path d="M0 0 C3 1 3 1 3 1 Z " fill="#000000" transform="translate(197,25)"/>
<path d="M0 0 C3 1 3 1 3 1 Z " fill="#000000" transform="translate(174,25)"/>
<path d="M0 0 C2 1 2 1 2 1 Z " fill="#000000" transform="translate(784,399)"/>
<path d="M0 0 C2 1 2 1 2 1 Z " fill="#000000" transform="translate(122,346)"/>
<path d="" fill="#000000" transform="translate(0,0)"/>
<path d="M0 0 C2 1 2 1 2 1 Z " fill="#000000" transform="translate(124,238)"/>
<path d="M0 0 C2 1 2 1 2 1 Z " fill="#000000" transform="translate(209,184)"/>
<path d="M0 0 C2 1 2 1 2 1 Z " fill="#000000" transform="translate(163,184)"/>
<path d="M0 0 C2 1 2 1 2 1 Z " fill="#000000" transform="translate(212,183)"/>
<path d="M0 0 C2 1 2 1 2 1 Z " fill="#000000" transform="translate(160,183)"/>
<path d="M0 0 C2 1 2 1 2 1 Z " fill="#000000" transform="translate(217,181)"/>
<path d="" fill="#000000" transform="translate(0,0)"/>
<path d="" fill="#000000" transform="translate(0,0)"/>
<path d="" fill="#000000" transform="translate(0,0)"/>
<path d="" fill="#000000" transform="translate(0,0)"/>
<path d="" fill="#000000" transform="translate(0,0)"/>
<path d="" fill="#000000" transform="translate(0,0)"/>
<path d="" fill="#000000" transform="translate(0,0)"/>
<path d="" fill="#000000" transform="translate(0,0)"/>
<path d="" fill="#000000" transform="translate(0,0)"/>
<path d="" fill="#000000" transform="translate(0,0)"/>
<path d="" fill="#000000" transform="translate(0,0)"/>
<path d="" fill="#000000" transform="translate(0,0)"/>
<path d="" fill="#000000" transform="translate(0,0)"/>
<path d="" fill="#000000" transform="translate(0,0)"/>
<path d="M0 0 C2 1 2 1 2 1 Z " fill="#000000" transform="translate(719,88)"/>
<path d="" fill="#000000" transform="translate(0,0)"/>
<path d="" fill="#000000" transform="translate(0,0)"/>
<path d="M0 0 C2 1 2 1 2 1 Z " fill="#000000" transform="translate(716,87)"/>
<path d="M0 0 C2 1 2 1 2 1 Z " fill="#000000" transform="translate(713,86)"/>
<path d="M0 0 C2 1 2 1 2 1 Z " fill="#000000" transform="translate(710,85)"/>
<path d="" fill="#000000" transform="translate(0,0)"/>
<path d="M0 0 C2 1 2 1 2 1 Z " fill="#000000" transform="translate(707,84)"/>
<path d="" fill="#000000" transform="translate(0,0)"/>
<path d="M0 0 C2 1 2 1 2 1 Z " fill="#000000" transform="translate(704,83)"/>
<path d="M0 0 C2 1 2 1 2 1 Z " fill="#000000" transform="translate(339,83)"/>
<path d="M0 0 C2 1 2 1 2 1 Z " fill="#000000" transform="translate(700,82)"/>
<path d="M0 0 C2 1 2 1 2 1 Z " fill="#000000" transform="translate(348,80)"/>
<path d="" fill="#000000" transform="translate(0,0)"/>
<path d="M0 0 C2 1 2 1 2 1 Z " fill="#000000" transform="translate(210,28)"/>
<path d="M0 0 C2 1 2 1 2 1 Z " fill="#000000" transform="translate(162,28)"/>
<path d="M0 0 C2 1 2 1 2 1 Z " fill="#000000" transform="translate(207,27)"/>
<path d="M0 0 C2 1 2 1 2 1 Z " fill="#000000" transform="translate(165,27)"/>
<path d="M0 0 C2 1 2 1 2 1 Z " fill="#000000" transform="translate(203,26)"/>
<path d="" fill="#000000" transform="translate(0,0)"/>
<path d="" fill="#000000" transform="translate(0,0)"/>
<path d="" fill="#000000" transform="translate(0,0)"/>
<path d="" fill="#000000" transform="translate(0,0)"/>
<path d="" fill="#000000" transform="translate(0,0)"/>
<path d="" fill="#000000" transform="translate(0,0)"/>
<path d="" fill="#000000" transform="translate(0,0)"/>
<path d="" fill="#000000" transform="translate(0,0)"/>
<path d="" fill="#000000" transform="translate(0,0)"/>
<path d="" fill="#000000" transform="translate(0,0)"/>
<path d="" fill="#000000" transform="translate(0,0)"/>
<path d="" fill="#000000" transform="translate(0,0)"/>
<path d="" fill="#000000" transform="translate(0,0)"/>
<path d="" fill="#000000" transform="translate(0,0)"/>
<path d="" fill="#000000" transform="translate(0,0)"/>
<path d="" fill="#000000" transform="translate(0,0)"/>
<path d="" fill="#000000" transform="translate(0,0)"/>
<path d="" fill="#000000" transform="translate(0,0)"/>
<path d="" fill="#000000" transform="translate(0,0)"/>
<path d="" fill="#000000" transform="translate(0,0)"/>
<path d="" fill="#000000" transform="translate(0,0)"/>
<path d="" fill="#000000" transform="translate(0,0)"/>
<path d="" fill="#000000" transform="translate(0,0)"/>
<path d="" fill="#000000" transform="translate(0,0)"/>
<path d="" fill="#000000" transform="translate(0,0)"/>
<path d="" fill="#000000" transform="translate(0,0)"/>
<path d="" fill="#000000" transform="translate(0,0)"/>
<path d="" fill="#000000" transform="translate(0,0)"/>
<path d="" fill="#000000" transform="translate(0,0)"/>
<path d="" fill="#000000" transform="translate(0,0)"/>
<path d="" fill="#000000" transform="translate(0,0)"/>
<path d="" fill="#000000" transform="translate(0,0)"/>
<path d="" fill="#000000" transform="translate(0,0)"/>
<path d="" fill="#000000" transform="translate(0,0)"/>
<path d="" fill="#000000" transform="translate(0,0)"/>
<path d="" fill="#000000" transform="translate(0,0)"/>
<path d="" fill="#000000" transform="translate(0,0)"/>
<path d="" fill="#000000" transform="translate(0,0)"/>
<path d="" fill="#000000" transform="translate(0,0)"/>
<path d="" fill="#000000" transform="translate(0,0)"/>
<path d="" fill="#000000" transform="translate(0,0)"/>
<path d="" fill="#000000" transform="translate(0,0)"/>
<path d="" fill="#000000" transform="translate(0,0)"/>
<path d="" fill="#000000" transform="translate(0,0)"/>
<path d="" fill="#000000" transform="translate(0,0)"/>
<path d="" fill="#000000" transform="translate(0,0)"/>
<path d="" fill="#000000" transform="translate(0,0)"/>
<path d="" fill="#000000" transform="translate(0,0)"/>
<path d="" fill="#000000" transform="translate(0,0)"/>
<path d="" fill="#000000" transform="translate(0,0)"/>
<path d="" fill="#000000" transform="translate(0,0)"/>
<path d="" fill="#000000" transform="translate(0,0)"/>
<path d="" fill="#000000" transform="translate(0,0)"/>
<path d="" fill="#000000" transform="translate(0,0)"/>
<path d="" fill="#000000" transform="translate(0,0)"/>
<path d="" fill="#000000" transform="translate(0,0)"/>
<path d="" fill="#000000" transform="translate(0,0)"/>
<path d="" fill="#000000" transform="translate(0,0)"/>
<path d="" fill="#000000" transform="translate(0,0)"/>
<path d="" fill="#000000" transform="translate(0,0)"/>
<path d="" fill="#000000" transform="translate(0,0)"/>
<path d="" fill="#000000" transform="translate(0,0)"/>
<path d="" fill="#000000" transform="translate(0,0)"/>
<path d="" fill="#000000" transform="translate(0,0)"/>
<path d="" fill="#000000" transform="translate(0,0)"/>
<path d="" fill="#000000" transform="translate(0,0)"/>
<path d="" fill="#000000" transform="translate(0,0)"/>
<path d="" fill="#000000" transform="translate(0,0)"/>
<path d="" fill="#000000" transform="translate(0,0)"/>
<path d="" fill="#000000" transform="translate(0,0)"/>
<path d="" fill="#000000" transform="translate(0,0)"/>
<path d="" fill="#000000" transform="translate(0,0)"/>
<path d="" fill="#000000" transform="translate(0,0)"/>
<path d="" fill="#000000" transform="translate(0,0)"/>
<path d="" fill="#000000" transform="translate(0,0)"/>
<path d="" fill="#000000" transform="translate(0,0)"/>
<path d="" fill="#000000" transform="translate(0,0)"/>
<path d="" fill="#000000" transform="translate(0,0)"/>
<path d="" fill="#000000" transform="translate(0,0)"/>
<path d="" fill="#000000" transform="translate(0,0)"/>
<path d="" fill="#000000" transform="translate(0,0)"/>
<path d="" fill="#000000" transform="translate(0,0)"/>
<path d="" fill="#000000" transform="translate(0,0)"/>
<path d="" fill="#000000" transform="translate(0,0)"/>
<path d="" fill="#000000" transform="translate(0,0)"/>
<path d="" fill="#000000" transform="translate(0,0)"/>
<path d="" fill="#000000" transform="translate(0,0)"/>
<path d="" fill="#000000" transform="translate(0,0)"/>
<path d="" fill="#000000" transform="translate(0,0)"/>
<path d="" fill="#000000" transform="translate(0,0)"/>
<path d="" fill="#000000" transform="translate(0,0)"/>
<path d="" fill="#000000" transform="translate(0,0)"/>
<path d="" fill="#000000" transform="translate(0,0)"/>
<path d="" fill="#000000" transform="translate(0,0)"/>
<path d="" fill="#000000" transform="translate(0,0)"/>
<path d="" fill="#000000" transform="translate(0,0)"/>
<path d="" fill="#000000" transform="translate(0,0)"/>
<path d="" fill="#000000" transform="translate(0,0)"/>
<path d="" fill="#000000" transform="translate(0,0)"/>
<path d="" fill="#000000" transform="translate(0,0)"/>
<path d="" fill="#000000" transform="translate(0,0)"/>
<path d="" fill="#000000" transform="translate(0,0)"/>
<path d="" fill="#000000" transform="translate(0,0)"/>
<path d="" fill="#000000" transform="translate(0,0)"/>
<path d="" fill="#000000" transform="translate(0,0)"/>
<path d="" fill="#000000" transform="translate(0,0)"/>
<path d="" fill="#000000" transform="translate(0,0)"/>
<path d="" fill="#000000" transform="translate(0,0)"/>
<path d="" fill="#000000" transform="translate(0,0)"/>
<path d="" fill="#000000" transform="translate(0,0)"/>
<path d="" fill="#000000" transform="translate(0,0)"/>
<path d="" fill="#000000" transform="translate(0,0)"/>
<path d="" fill="#000000" transform="translate(0,0)"/>
<path d="" fill="#000000" transform="translate(0,0)"/>
<path d="" fill="#000000" transform="translate(0,0)"/>
<path d="" fill="#000000" transform="translate(0,0)"/>
<path d="" fill="#000000" transform="translate(0,0)"/>
<path d="" fill="#000000" transform="translate(0,0)"/>
<path d="" fill="#000000" transform="translate(0,0)"/>
<path d="" fill="#000000" transform="translate(0,0)"/>
<path d="" fill="#000000" transform="translate(0,0)"/>
<path d="" fill="#000000" transform="translate(0,0)"/>
<path d="" fill="#000000" transform="translate(0,0)"/>
<path d="" fill="#000000" transform="translate(0,0)"/>
<path d="" fill="#000000" transform="translate(0,0)"/>
<path d="" fill="#000000" transform="translate(0,0)"/>
<path d="" fill="#000000" transform="translate(0,0)"/>
<path d="" fill="#000000" transform="translate(0,0)"/>
<path d="" fill="#000000" transform="translate(0,0)"/>
<path d="" fill="#000000" transform="translate(0,0)"/>
<path d="" fill="#000000" transform="translate(0,0)"/>
<path d="" fill="#000000" transform="translate(0,0)"/>
<path d="" fill="#000000" transform="translate(0,0)"/>
<path d="" fill="#000000" transform="translate(0,0)"/>
<path d="" fill="#000000" transform="translate(0,0)"/>
<path d="" fill="#000000" transform="translate(0,0)"/>
<path d="" fill="#000000" transform="translate(0,0)"/>
<path d="" fill="#000000" transform="translate(0,0)"/>
<path d="" fill="#000000" transform="translate(0,0)"/>
<path d="" fill="#000000" transform="translate(0,0)"/>
<path d="" fill="#000000" transform="translate(0,0)"/>
<path d="" fill="#000000" transform="translate(0,0)"/>
<path d="" fill="#000000" transform="translate(0,0)"/>
<path d="" fill="#000000" transform="translate(0,0)"/>
<path d="" fill="#000000" transform="translate(0,0)"/>
<path d="" fill="#000000" transform="translate(0,0)"/>
<path d="" fill="#000000" transform="translate(0,0)"/>
<path d="" fill="#000000" transform="translate(0,0)"/>
<path d="" fill="#000000" transform="translate(0,0)"/>
<path d="" fill="#000000" transform="translate(0,0)"/>
<path d="" fill="#000000" transform="translate(0,0)"/>
<path d="" fill="#000000" transform="translate(0,0)"/>
<path d="" fill="#000000" transform="translate(0,0)"/>
<path d="" fill="#000000" transform="translate(0,0)"/>
<path d="" fill="#000000" transform="translate(0,0)"/>
<path d="" fill="#000000" transform="translate(0,0)"/>
<path d="" fill="#000000" transform="translate(0,0)"/>
<path d="" fill="#000000" transform="translate(0,0)"/>
<path d="" fill="#000000" transform="translate(0,0)"/>
<path d="" fill="#000000" transform="translate(0,0)"/>
<path d="" fill="#000000" transform="translate(0,0)"/>
<path d="" fill="#000000" transform="translate(0,0)"/>
<path d="" fill="#000000" transform="translate(0,0)"/>
<path d="" fill="#000000" transform="translate(0,0)"/>
<path d="" fill="#000000" transform="translate(0,0)"/>
<path d="" fill="#000000" transform="translate(0,0)"/>
<path d="" fill="#000000" transform="translate(0,0)"/>
<path d="" fill="#000000" transform="translate(0,0)"/>
<path d="" fill="#000000" transform="translate(0,0)"/>
<path d="" fill="#000000" transform="translate(0,0)"/>
<path d="" fill="#000000" transform="translate(0,0)"/>
<path d="" fill="#000000" transform="translate(0,0)"/>
<path d="" fill="#000000" transform="translate(0,0)"/>
<path d="" fill="#000000" transform="translate(0,0)"/>
<path d="" fill="#000000" transform="translate(0,0)"/>
<path d="" fill="#000000" transform="translate(0,0)"/>
<path d="" fill="#000000" transform="translate(0,0)"/>
<path d="" fill="#000000" transform="translate(0,0)"/>
<path d="" fill="#000000" transform="translate(0,0)"/>
<path d="" fill="#000000" transform="translate(0,0)"/>
<path d="" fill="#000000" transform="translate(0,0)"/>
<path d="" fill="#000000" transform="translate(0,0)"/>
<path d="" fill="#000000" transform="translate(0,0)"/>
<path d="" fill="#000000" transform="translate(0,0)"/>
<path d="" fill="#000000" transform="translate(0,0)"/>
<path d="" fill="#000000" transform="translate(0,0)"/>
<path d="" fill="#000000" transform="translate(0,0)"/>
<path d="" fill="#000000" transform="translate(0,0)"/>
<path d="" fill="#000000" transform="translate(0,0)"/>
<path d="" fill="#000000" transform="translate(0,0)"/>
<path d="" fill="#000000" transform="translate(0,0)"/>
<path d="" fill="#000000" transform="translate(0,0)"/>
<path d="" fill="#000000" transform="translate(0,0)"/>
<path d="" fill="#000000" transform="translate(0,0)"/>
<path d="" fill="#000000" transform="translate(0,0)"/>
<path d="" fill="#000000" transform="translate(0,0)"/>
<path d="" fill="#000000" transform="translate(0,0)"/>
<path d="" fill="#000000" transform="translate(0,0)"/>
<path d="" fill="#000000" transform="translate(0,0)"/>
<path d="" fill="#000000" transform="translate(0,0)"/>
<path d="" fill="#000000" transform="translate(0,0)"/>
<path d="" fill="#000000" transform="translate(0,0)"/>
<path d="" fill="#000000" transform="translate(0,0)"/>
<path d="" fill="#000000" transform="translate(0,0)"/>
<path d="" fill="#000000" transform="translate(0,0)"/>
<path d="" fill="#000000" transform="translate(0,0)"/>
<path d="" fill="#000000" transform="translate(0,0)"/>
<path d="" fill="#000000" transform="translate(0,0)"/>
<path d="" fill="#000000" transform="translate(0,0)"/>
<path d="" fill="#000000" transform="translate(0,0)"/>
<path d="" fill="#000000" transform="translate(0,0)"/>
<path d="" fill="#000000" transform="translate(0,0)"/>
<path d="" fill="#000000" transform="translate(0,0)"/>
<path d="" fill="#000000" transform="translate(0,0)"/>
<path d="" fill="#000000" transform="translate(0,0)"/>
<path d="" fill="#000000" transform="translate(0,0)"/>
<path d="" fill="#000000" transform="translate(0,0)"/>
<path d="" fill="#000000" transform="translate(0,0)"/>
<path d="" fill="#000000" transform="translate(0,0)"/>
<path d="" fill="#000000" transform="translate(0,0)"/>
<path d="" fill="#000000" transform="translate(0,0)"/>
<path d="" fill="#000000" transform="translate(0,0)"/>
<path d="" fill="#000000" transform="translate(0,0)"/>
<path d="" fill="#000000" transform="translate(0,0)"/>
<path d="" fill="#000000" transform="translate(0,0)"/>
<path d="" fill="#000000" transform="translate(0,0)"/>
<path d="" fill="#000000" transform="translate(0,0)"/>
<path d="" fill="#000000" transform="translate(0,0)"/>
<path d="" fill="#000000" transform="translate(0,0)"/>
<path d="" fill="#000000" transform="translate(0,0)"/>
<path d="" fill="#000000" transform="translate(0,0)"/>
<path d="" fill="#000000" transform="translate(0,0)"/>
<path d="" fill="#000000" transform="translate(0,0)"/>
<path d="" fill="#000000" transform="translate(0,0)"/>
<path d="" fill="#000000" transform="translate(0,0)"/>
<path d="" fill="#000000" transform="translate(0,0)"/>
<path d="" fill="#000000" transform="translate(0,0)"/>
<path d="" fill="#000000" transform="translate(0,0)"/>
<path d="" fill="#000000" transform="translate(0,0)"/>
<path d="" fill="#000000" transform="translate(0,0)"/>
<path d="" fill="#000000" transform="translate(0,0)"/>
<path d="" fill="#000000" transform="translate(0,0)"/>
<path d="" fill="#000000" transform="translate(0,0)"/>
<path d="" fill="#000000" transform="translate(0,0)"/>
<path d="" fill="#000000" transform="translate(0,0)"/>
<path d="" fill="#000000" transform="translate(0,0)"/>
<path d="" fill="#000000" transform="translate(0,0)"/>
<path d="" fill="#000000" transform="translate(0,0)"/>
<path d="" fill="#000000" transform="translate(0,0)"/>
</svg>
