<?xml version="1.0" encoding="UTF-8"?>
<svg version="1.1" xmlns="http://www.w3.org/2000/svg" width="512" height="512">
<path d="M0 0 C128.7 0 257.4 0 390 0 C390 149.16 390 298.32 390 452 C381.09 452 372.18 452 363 452 C363 443.42 363 434.84 363 426 C311.85 426 260.7 426 208 426 C208 434.58 208 443.16 208 452 C199.09 452 190.18 452 181 452 C181 443.42 181 434.84 181 426 C129.85 426 78.7 426 26 426 C26 434.58 26 443.16 26 452 C17.09 452 8.18 452 -1 452 C-1 434.51 -1 417.02 -1 399 C57.7184462 383.45688189 120.2592028 390 181 390 C181 284.73 181 179.46 181 71 C169.78 71 158.56 71 147 71 C147.04125 76.506875 147.0825 82.01375 147.125 87.6875 C147.12137451 90.28177856 147.12137451 90.28177856 147.11767578 92.9284668 C147.1412153 94.31042594 147.1669484 95.69235021 147.1953125 97.07421875 C147.1862085 97.78276001 147.17710449 98.49130127 147.16772461 99.22131348 C147.17340688 101.59810478 147.17340688 101.59810478 148 105 C150.86988127 107.71842863 150.86988127 107.71842863 154 110 C156.30940796 114.20902966 156.2868278 118.35485391 156.26742554 123.03977966 C156.27195665 123.84427821 156.27648776 124.64877675 156.28115618 125.47765404 C156.29380614 128.17062675 156.29217944 130.86339737 156.29052734 133.55639648 C156.29651215 135.48826355 156.30331758 137.42012822 156.31088257 139.35198975 C156.3285528 144.59780978 156.33323833 149.84356458 156.33451414 155.0894115 C156.33641337 159.46825222 156.34377102 163.84707775 156.35085833 168.22591263 C156.36714311 178.55564555 156.37202713 188.88534361 156.37060547 199.21508789 C156.3694034 209.87323991 156.39051815 220.53118965 156.4220928 231.18929046 C156.44823446 240.33931286 156.45897368 249.48926908 156.45769465 258.63932854 C156.45718448 264.10457442 156.46289849 269.56964046 156.48405075 275.03484917 C156.50339801 280.17392484 156.50358161 285.31264844 156.48901749 290.45173645 C156.48692406 292.33753027 156.49166198 294.22334593 156.5037384 296.10910225 C156.5191613 298.68422874 156.50990289 301.25813668 156.49447632 303.83323669 C156.50476344 304.57886586 156.51505057 305.32449503 156.52564943 306.09271902 C156.45809952 311.19768423 155.20112327 314.06289191 152 318 C148.76830319 320.72898842 146.75762231 321.88980039 142.5625 322.5 C137.39208734 321.77432805 133.65004304 320.0982379 130.321105 315.8650732 C128.61403017 312.16294935 128.58070169 308.84215564 128.61231995 304.84632874 C128.60424164 303.62120493 128.60424164 303.62120493 128.59600013 302.37133116 C128.58170207 299.63680477 128.58882879 296.90276119 128.59594727 294.16821289 C128.59024467 292.20678823 128.58328084 290.2453669 128.57514954 288.28395081 C128.55719093 282.95751985 128.5583916 277.63125338 128.56409192 272.30480123 C128.56717984 267.85885155 128.56109574 263.41293366 128.55505317 258.9669885 C128.5410007 248.47902345 128.54257529 237.99113984 128.55395508 227.50317383 C128.56543753 216.6814181 128.55136004 205.85991016 128.5245586 195.03818709 C128.50241131 185.7480304 128.49576203 176.45795154 128.50163502 167.16777033 C128.50500804 161.61869941 128.50256646 156.06978734 128.48538399 150.5207386 C128.46993245 145.30285434 128.47385064 140.08533753 128.49268913 134.86746788 C128.49637995 132.95265397 128.49325224 131.03781294 128.48280334 129.12302399 C128.46962536 126.50847601 128.48111218 123.89515023 128.49879456 121.28065491 C128.48438705 120.14470189 128.48438705 120.14470189 128.46968848 118.98580033 C128.5409548 113.86251848 129.68573233 110.89503583 133 107 C134.32 106.34 135.64 105.68 137 105 C137.33 93.78 137.66 82.56 138 71 C126.78 71 115.56 71 104 71 C104.04125 76.506875 104.0825 82.01375 104.125 87.6875 C104.12137451 90.28177856 104.12137451 90.28177856 104.11767578 92.9284668 C104.1412153 94.31042594 104.1669484 95.69235021 104.1953125 97.07421875 C104.1862085 97.78276001 104.17710449 98.49130127 104.16772461 99.22131348 C104.17340688 101.59810478 104.17340688 101.59810478 105 105 C107.86988127 107.71842863 107.86988127 107.71842863 111 110 C113.30940796 114.20902966 113.2868278 118.35485391 113.26742554 123.03977966 C113.27195665 123.84427821 113.27648776 124.64877675 113.28115618 125.47765404 C113.29380614 128.17062675 113.29217944 130.86339737 113.29052734 133.55639648 C113.29651215 135.48826355 113.30331758 137.42012822 113.31088257 139.35198975 C113.3285528 144.59780978 113.33323833 149.84356458 113.33451414 155.0894115 C113.33641337 159.46825222 113.34377102 163.84707775 113.35085833 168.22591263 C113.36714311 178.55564555 113.37202713 188.88534361 113.37060547 199.21508789 C113.3694034 209.87323991 113.39051815 220.53118965 113.4220928 231.18929046 C113.44823446 240.33931286 113.45897368 249.48926908 113.45769465 258.63932854 C113.45718448 264.10457442 113.46289849 269.56964046 113.48405075 275.03484917 C113.50339801 280.17392484 113.50358161 285.31264844 113.48901749 290.45173645 C113.48692406 292.33753027 113.49166198 294.22334593 113.5037384 296.10910225 C113.5191613 298.68422874 113.50990289 301.25813668 113.49447632 303.83323669 C113.50476344 304.57886586 113.51505057 305.32449503 113.52564943 306.09271902 C113.45809952 311.19768423 112.20112327 314.06289191 109 318 C105.76830319 320.72898842 103.75762231 321.88980039 99.5625 322.5 C94.39249553 321.77438534 90.64934867 320.09881961 87.32194614 315.86465263 C85.6152644 312.16627931 85.57441679 308.84591348 85.59886169 304.85305786 C85.59206502 304.03701423 85.58526836 303.22097059 85.57826573 302.38019836 C85.55928776 299.64802976 85.56173092 296.91630921 85.56420898 294.18408203 C85.55523186 292.22427799 85.54502372 290.26447925 85.53367615 288.3046875 C85.50716808 282.98234091 85.50014236 277.66013901 85.49822879 272.33773279 C85.49537984 267.89435926 85.4843431 263.45101941 85.4737125 259.00765884 C85.44928368 248.52445702 85.44195938 238.04133248 85.4440918 227.55810547 C85.44589441 216.74422816 85.414233 205.93079969 85.36686081 195.11703598 C85.32763493 185.83195544 85.31154006 176.5470216 85.31345803 167.26185882 C85.31422298 161.71656828 85.3056699 156.17167666 85.27392387 150.62646866 C85.24488026 145.41092003 85.24464208 140.19615169 85.26647377 134.98057556 C85.2696113 133.06778194 85.26252215 131.15493974 85.2443924 129.24222946 C85.2212164 126.6275398 85.2351663 124.01554155 85.25828552 121.40090942 C85.24285483 120.64652025 85.22742414 119.89213108 85.21152586 119.11488163 C85.31446507 113.83575447 86.92617687 111.16627856 90.5182634 107.33356178 C92 106 92 106 94 105 C94.33 93.78 94.66 82.56 95 71 C83.78 71 72.56 71 61 71 C61.04125 76.506875 61.0825 82.01375 61.125 87.6875 C61.12137451 90.28177856 61.12137451 90.28177856 61.11767578 92.9284668 C61.1412153 94.31042594 61.1669484 95.69235021 61.1953125 97.07421875 C61.1862085 97.78276001 61.17710449 98.49130127 61.16772461 99.22131348 C61.17340688 101.59810478 61.17340688 101.59810478 62 105 C64.86988127 107.71842863 64.86988127 107.71842863 68 110 C70.14471161 114.0214217 70.25532052 117.54321536 70.26742554 122.05271912 C70.27195665 122.7510453 70.27648776 123.44937148 70.28115618 124.16885906 C70.29378928 126.50253307 70.29218056 128.83597337 70.29052734 131.16967773 C70.2965132 132.84539082 70.30331888 134.52110115 70.31088257 136.19680786 C70.32854198 140.74430504 70.33323787 145.29172694 70.33451414 149.83925509 C70.3359361 152.6808041 70.34020651 155.52233399 70.34550858 158.36387825 C70.36400725 168.27816101 70.37217921 178.19239001 70.37060547 188.10668945 C70.36940347 197.34703352 70.39051772 206.58714423 70.4220928 215.82742923 C70.44824298 223.76302579 70.45897332 231.69854606 70.45769465 239.63418537 C70.45718473 244.37285478 70.46288467 249.11131669 70.48405075 253.84994316 C70.50341247 258.30615064 70.50357187 262.7619522 70.48901749 267.21817398 C70.48692585 268.85240967 70.49165143 270.48667063 70.5037384 272.12086296 C70.51918745 274.35448448 70.50988688 276.58670565 70.49447632 278.82029724 C70.49556585 280.06928519 70.49665539 281.31827314 70.49777794 282.60510921 C69.71832427 287.92105406 67.22202227 290.96807008 63.1875 294.375 C59.33997539 296.33648313 57.27096387 296.59943353 53 296 C48.98924048 294.52800991 46.6465003 293.08335101 44.42559719 289.36174774 C42.81000561 285.55196798 42.62026405 282.87841146 42.61231995 278.75109863 C42.60424164 277.69007706 42.60424164 277.69007706 42.59600013 276.60762072 C42.58174986 274.24930195 42.58881671 271.89154681 42.59594727 269.53320312 C42.5902422 267.83763682 42.58327741 266.14207436 42.57514954 264.44651794 C42.55721947 259.84945408 42.55838605 255.2525811 42.56409192 250.65549278 C42.56718354 246.81591115 42.56109172 242.97636621 42.55505317 239.1367898 C42.54101048 230.07895509 42.54256753 221.02121471 42.55395508 211.96337891 C42.56544045 202.62132453 42.55135301 193.2795571 42.5245586 183.93754053 C42.50240465 175.91274319 42.49576341 167.88803595 42.50163502 159.8632102 C42.50500599 155.07203136 42.50257997 150.28103652 42.48538399 145.48988342 C42.46992143 140.98522004 42.47386264 136.48098206 42.49268913 131.97633553 C42.49637671 130.32436772 42.49326158 128.67236843 42.48280334 127.02042961 C42.46960274 124.76276328 42.4811307 122.50650733 42.49879456 120.24890137 C42.49900384 118.98646355 42.49921312 117.72402573 42.49942875 116.42333221 C43.10437563 112.28619064 44.2946647 110.16876373 47 107 C49.475 106.01 49.475 106.01 52 105 C52 93.45 52 81.9 52 70 C43.75 70 35.5 70 27 70 C27 173.95 27 277.9 27 385 C16.8746922 388.3751026 16.8746922 388.3751026 12.42019653 389.42375183 C11.4108757 389.66347214 10.40155487 389.90319244 9.36164856 390.150177 C8.28598129 390.40121185 7.21031403 390.6522467 6.10205078 390.91088867 C4.36629539 391.32119576 4.36629539 391.32119576 2.59547424 391.73979187 C-0.55006614 392.4823761 -3.69644873 393.22124528 -6.84331274 393.9581964 C-10.14567994 394.73231522 -13.44704621 395.51068168 -16.74856567 396.28840637 C-22.28383683 397.59161832 -27.81989638 398.89143702 -33.35644531 400.18920898 C-39.75658894 401.68945239 -46.15544477 403.19509258 -52.55364788 404.70358866 C-58.72042501 406.15739255 -64.88808347 407.60742283 -71.05615616 409.05571938 C-73.67759049 409.67131503 -76.29870891 410.2882309 -78.91958237 410.90620995 C-82.57177012 411.76650619 -86.22493994 412.62249732 -89.87841797 413.47729492 C-90.96623062 413.73440247 -92.05404327 413.99151001 -93.17481995 414.25640869 C-94.66342278 414.60329994 -94.66342278 414.60329994 -96.18209839 414.9571991 C-97.47673665 415.26107686 -97.47673665 415.26107686 -98.79752922 415.57109356 C-101 416 -101 416 -104 416 C-104 284.66 -104 153.32 -104 18 C-62.18433826 22.64618464 -62.18433826 22.64618464 -44.46484375 24.76171875 C-42.46082443 25.00026175 -40.45680109 25.23877098 -38.45277405 25.47724915 C-34.34916941 25.96597225 -30.24570639 26.45586428 -26.14233398 26.9465332 C-20.88429783 27.57505663 -15.62575191 28.1992106 -10.36708736 28.82245159 C-6.27232903 29.30843096 -2.17791248 29.79724201 1.91641045 30.28687477 C3.85919487 30.51874595 5.80210195 30.74959194 7.74513435 30.97937584 C10.42558927 31.29666503 13.1055412 31.61790905 15.78540039 31.94018555 C16.57832489 32.03316422 17.37124939 32.12614288 18.1882019 32.22193909 C21.26504902 32.59542168 24.05044123 33.01681374 27 34 C27 42.91 27 51.82 27 61 C78.15 61 129.3 61 182 61 C182 49.78 182 38.56 182 27 C177.51704346 27.02094727 173.03408691 27.04189453 168.4152832 27.06347656 C153.49568937 27.13017163 138.57608912 27.17430889 123.65638447 27.20724869 C114.62297691 27.22772981 105.58971222 27.25556766 96.55639648 27.30175781 C88.66779935 27.34207486 80.77930582 27.36753722 72.89060849 27.37635398 C68.72732411 27.38149428 64.56433571 27.39325892 60.40114784 27.42292023 C39.85733765 27.56375513 20.29496501 26.4492769 0 23 C0 15.41 0 7.82 0 0 Z M209 27 C209 146.79 209 266.58 209 390 C257.18 390 305.36 390 355 390 C355 270.21 355 150.42 355 27 C306.82 27 258.64 27 209 27 Z " fill="#000000" transform="translate(104,43)"/>
<path d="M0 0 C43.23 0 86.46 0 131 0 C131 114.84 131 229.68 131 348 C87.77 348 44.54 348 0 348 C0 233.16 0 118.32 0 0 Z M16.1875 157.75 C14.45431891 161.03392206 14.55067367 163.34119985 15 167 C17.0970233 170.37021602 19.11953387 172.89129539 23 174 C27.58037182 174 29.45711706 173.47357873 32.9375 170.4375 C35.74495371 166.55743109 35.74297224 163.68072512 35 159 C32.44295652 155.35815019 30.77727291 154.22207798 26.5 153 C21.67226887 153 19.57711129 154.47727186 16.1875 157.75 Z " fill="#000000" transform="translate(321,78)"/>
<path d="M0 0 C140.58 0 281.16 0 426 0 C422.10508933 7.78982135 418.04494164 14.11895378 410 18 C398.77107365 20.62879289 386.85800972 19.9721424 375.39889014 19.8741225 C370.62064338 19.84848997 365.84320083 19.90369109 361.06518555 19.94807434 C351.71898599 20.02170889 342.37429286 20.01963821 333.02790936 19.98937242 C325.42717699 19.96590633 317.82687981 19.96879401 310.22614479 19.99023628 C309.14223297 19.99324771 308.05832115 19.99625914 306.94156352 19.99936183 C304.73922131 20.00555523 302.53687922 20.01179135 300.33453725 20.01806969 C279.70469698 20.07344801 259.07570062 20.04085053 238.44592432 19.97951222 C220.7703816 19.92924581 203.09650384 19.96114347 185.42114258 20.05151367 C164.86719474 20.15659859 144.31428937 20.20535788 123.7600711 20.16888911 C121.56514839 20.16518459 119.37022552 20.16157201 117.17530251 20.15805244 C116.0955291 20.15631472 115.0157557 20.154577 113.9032619 20.15278662 C106.31901637 20.14458891 98.7355694 20.17679309 91.15149498 20.22532463 C81.89737633 20.28367366 72.64561715 20.28139099 63.3916107 20.20270818 C58.67518281 20.1641705 53.9628753 20.15212108 49.24661446 20.2149086 C18.06465223 20.60056876 18.06465223 20.60056876 8.37143594 11.81718689 C0 2.8599155 0 2.8599155 0 0 Z " fill="#000000" transform="translate(86,17)"/>
</svg>
