<?xml version="1.0" encoding="UTF-8"?>
<svg version="1.1" xmlns="http://www.w3.org/2000/svg" width="2400" height="1984">
<path d="M0 0 C2.37802142 -0.00702373 4.75604266 -0.01411053 7.13406372 -0.02125549 C14.68573278 -0.04063934 22.23737107 -0.04568933 29.7890625 -0.046875 C31.07614105 -0.04731686 32.3632196 -0.04775871 33.68930054 -0.04821396 C71.21793827 -0.0549697 108.62150827 0.08250278 146.05957031 2.94665527 C149.60692803 3.21787065 153.15495838 3.47885157 156.703125 3.73925781 C228.1500803 9.04648075 299.11182303 18.355758 369.4140625 32.203125 C370.40776855 32.39863953 371.40147461 32.59415405 372.42529297 32.79559326 C401.72370102 38.5789499 430.78158269 45.16929439 459.72503662 52.52142334 C462.3660019 53.19094104 465.00823217 53.85522002 467.65087891 54.51806641 C539.98929158 72.69652155 611.33775516 96.06228547 680.4140625 124.203125 C681.63706055 124.69973633 682.86005859 125.19634766 684.12011719 125.70800781 C746.10902133 150.93967231 807.70987183 178.73212813 865.81640625 212.03125 C871.58259933 215.32390319 877.43265696 218.44976419 883.2890625 221.578125 C894.8419303 227.77942082 906.06119183 234.4759642 917.25976562 241.29150391 C920.42223611 243.20807851 923.5955263 245.10524634 926.7734375 246.99609375 C947.85192004 259.5394813 968.3806499 272.79188745 988.7890625 286.390625 C989.68857635 286.98990814 990.58809021 287.58919128 991.51486206 288.20663452 C1019.8796396 307.11788779 1047.70266038 326.65522343 1074.77929688 347.37744141 C1079.39813914 350.91186729 1084.03472248 354.41758348 1088.70874023 357.87866211 C1095.71268097 363.07062067 1102.49218962 368.4818024 1109.19360352 374.05859375 C1113.60496999 377.7277142 1118.06725358 381.31238809 1122.6015625 384.828125 C1127.99401442 389.01865879 1133.20516756 393.38639889 1138.36694336 397.85717773 C1141.91788343 400.93125295 1145.51154943 403.93676422 1149.1640625 406.890625 C1153.54777364 410.4475836 1157.73647897 414.17279018 1161.90625 417.9765625 C1164.38996786 420.18173257 1166.94200955 422.25823504 1169.5390625 424.328125 C1175.14258049 428.85557623 1180.36347183 433.74662593 1185.58056641 438.71142578 C1189.48487434 442.42302549 1193.45908289 446.02435649 1197.52758789 449.55517578 C1200.24529032 451.92925258 1202.89537969 454.37226817 1205.5390625 456.828125 C1206.07748779 457.32666992 1206.61591309 457.82521484 1207.1706543 458.33886719 C1208.91963134 459.9590251 1210.66697468 461.58093016 1212.4140625 463.203125 C1213.73046226 464.42448616 1215.04686864 465.64584019 1216.36328125 466.8671875 C1219.71491805 469.9776873 1223.06490043 473.08996086 1226.4140625 476.203125 C1225.55182424 480.74859746 1222.90200066 483.11405634 1219.69140625 486.25390625 C1219.11250137 486.83093796 1218.5335965 487.40796967 1217.93714905 488.00248718 C1216.70906817 489.22384761 1215.47739574 490.44160575 1214.24243164 491.65600586 C1212.37596316 493.4916276 1210.52008287 495.3374087 1208.66601562 497.18554688 C1207.46675944 498.37561866 1206.26690743 499.56509038 1205.06640625 500.75390625 C1204.52024155 501.29582108 1203.97407684 501.8377359 1203.41136169 502.39607239 C1200.62224106 505.13526721 1197.78370807 507.76300525 1194.80883789 510.29956055 C1189.36301031 515.02357026 1184.33312004 520.17301797 1179.25657654 525.28544617 C1177.40790375 527.14704532 1175.55598289 529.00536004 1173.70324707 530.86291504 C1169.7706814 534.80683065 1165.84207351 538.75467376 1161.9140625 542.703125 C1157.35722467 547.28367529 1152.79871843 551.86253949 1148.23594666 556.43717957 C1146.42380445 558.25573791 1144.61473407 560.07731296 1142.80578613 561.89904785 C1137.84927973 566.87736254 1132.87377265 571.7534144 1127.52648926 576.31555176 C1122.97971648 580.37835138 1118.73669457 584.77439514 1114.44177246 589.10025024 C1112.62670684 590.92824679 1110.80838949 592.75295456 1108.98925781 594.5769043 C1105.12802065 598.44948922 1101.27074254 602.32600234 1097.4140625 606.203125 C1092.93983245 610.70107104 1088.46393181 615.19732847 1083.98376465 619.68936157 C1082.20485995 621.47468045 1080.42902854 623.26301639 1078.65332031 625.05151367 C1073.75132363 629.97550365 1068.82606996 634.79221115 1063.53857422 639.30569458 C1058.34599612 643.94325697 1053.51200787 648.98526141 1048.6015625 653.91796875 C1047.38010266 655.14129723 1046.15841921 656.36440248 1044.93652344 657.58729553 C1041.7450664 660.78254261 1038.55662583 663.98078286 1035.36883545 667.1796875 C1032.10580388 670.45300933 1028.83988506 673.72344774 1025.57421875 676.99414062 C1019.18469453 683.39434009 1012.79835799 689.79771007 1006.4140625 696.203125 C999.25292986 692.74506639 993.92409674 686.76068389 988.39453125 681.15625 C985.93638475 678.73204241 983.35253562 676.49072544 980.734375 674.2421875 C978.37358914 672.16755751 976.074539 670.03816628 973.77783203 667.89331055 C968.39532755 662.86749694 962.90636988 658.09245154 957.16015625 653.48046875 C954.15084672 650.98483937 951.27506369 648.36507609 948.4140625 645.703125 C943.91483945 641.5268127 939.29655543 637.5579536 934.515625 633.70703125 C931.42281094 631.21018765 928.35898021 628.68120755 925.29785156 626.14575195 C917.71307185 619.86866381 910.05735865 613.69930454 902.28320312 607.65869141 C900.25459773 606.0789441 898.23258824 604.49098 896.2109375 602.90234375 C885.43453344 594.45186766 874.48606542 586.2615834 863.4140625 578.203125 C862.66656738 577.6580127 861.91907227 577.11290039 861.14892578 576.55126953 C844.4858316 564.4104421 827.65107581 552.51675257 810.4140625 541.203125 C809.57536621 540.65043945 808.73666992 540.09775391 807.87255859 539.52832031 C794.1941672 530.51912322 780.40020437 521.72690642 766.4140625 513.203125 C765.76099121 512.80464355 765.10791992 512.40616211 764.43505859 511.99560547 C760.11392965 509.36540342 755.76966841 506.77576902 751.4140625 504.203125 C750.15746826 503.4598999 750.15746826 503.4598999 748.87548828 502.70166016 C719.63158916 485.43781066 689.87234433 469.24388178 659.4296875 454.19921875 C656.344552 452.67319539 653.27636742 451.11600167 650.2109375 449.55078125 C573.67279902 410.61661658 491.23029018 380.18607457 3.4140625 306.203125 C2.63895325 306.21279297 1.86384399 306.22246094 1.06524658 306.23242188 C-96.8668529 307.51073498 -195.29178907 319.84067693 -321.5859375 349.203125 C-322.38994995 349.40466187 -323.1939624 349.60619873 -324.02233887 349.81384277 C-349.43591056 356.19385651 -374.57458201 363.39798261 -399.5859375 371.203125 C-400.87114288 371.60371124 -400.87114288 371.60371124 -402.18231201 372.01239014 C-474.45723204 394.58636668 -544.25960335 423.46370658 -611.920578 457.37080383 C-615.65632424 459.24214213 -619.39862641 461.09845863 -623.15234375 462.93359375 C-634.62585696 468.561325 -645.78801575 474.60436244 -656.875 480.95703125 C-661.46526633 483.58260124 -666.09637264 486.11963309 -670.75415039 488.62304688 C-683.96002444 495.72208262 -696.79543584 503.38462959 -709.5859375 511.203125 C-710.51857422 511.77208496 -711.45121094 512.34104492 -712.41210938 512.92724609 C-742.46902231 531.29476019 -771.81420405 550.83673131 -800.30371094 571.55029297 C-802.56055328 573.18474126 -804.8255616 574.80712401 -807.09375 576.42578125 C-817.11183337 583.58652923 -826.88186391 591.01423494 -836.56396484 598.62207031 C-839.4277131 600.86134026 -842.31946832 603.06226131 -845.2109375 605.265625 C-855.70887365 613.33079005 -865.93140414 621.74060962 -876.00830078 630.32446289 C-879.29183971 633.11949518 -882.6102845 635.86404673 -885.9609375 638.578125 C-896.2613467 646.97438287 -906.20336201 655.77499672 -915.9609375 664.79296875 C-918.12208179 666.77723367 -920.30433458 668.7220256 -922.5234375 670.640625 C-925.93285815 673.60199037 -929.2668026 676.64138018 -932.5859375 679.703125 C-933.12718262 680.20021973 -933.66842773 680.69731445 -934.22607422 681.20947266 C-937.47798107 684.20914887 -940.67601505 687.255101 -943.83984375 690.34765625 C-944.55591797 691.03988281 -945.27199219 691.73210938 -946.00976562 692.4453125 C-947.41821522 693.80874316 -948.81697928 695.18226211 -950.20507812 696.56640625 C-951.16897461 697.49453125 -951.16897461 697.49453125 -952.15234375 698.44140625 C-952.71896729 698.99868408 -953.28559082 699.55596191 -953.86938477 700.13012695 C-955.5859375 701.203125 -955.5859375 701.203125 -957.47195816 700.96932411 C-959.99838094 700.05363735 -961.23531916 698.92078913 -963.12615967 697.01693726 C-963.81005768 696.33571808 -964.49395569 695.6544989 -965.19857788 694.95263672 C-965.93838898 694.20046875 -966.67820007 693.44830078 -967.44042969 692.67333984 C-968.22795624 691.88464508 -969.01548279 691.09595032 -969.82687378 690.28335571 C-972.43587716 687.66714943 -975.03420034 685.04058696 -977.6328125 682.4140625 C-979.44566245 680.59307549 -981.25925125 678.77282375 -983.07354736 676.95327759 C-987.36875826 672.64267296 -991.65758881 668.32581961 -995.94305158 664.00552619 C-1004.05345839 655.82966181 -1012.17789849 647.66776264 -1020.30374908 639.50725174 C-1022.9652687 636.83182854 -1025.6228974 634.1525884 -1028.27996826 631.4727478 C-1029.92451322 629.81817016 -1031.56914186 628.16367569 -1033.21386719 626.50927734 C-1033.94558136 625.76925476 -1034.67729553 625.02923218 -1035.43118286 624.26678467 C-1039.35618209 620.32506855 -1043.38609233 616.59585038 -1047.59804153 612.96405983 C-1051.11453632 609.84904865 -1054.40234771 606.50855746 -1057.7109375 603.17578125 C-1058.47954102 602.40571747 -1059.24814453 601.63565369 -1060.04003906 600.84225464 C-1061.69545755 599.18305392 -1063.34972064 597.52269979 -1065.00292969 595.86129761 C-1067.62455136 593.22682182 -1070.24936328 590.59556175 -1072.875 587.96508789 C-1078.92068284 581.90705484 -1084.96168581 575.84436296 -1091.00244141 569.78141785 C-1096.98710295 563.77488669 -1102.97378075 557.77037841 -1108.96386719 551.76925659 C-1111.54048068 549.18619557 -1114.11404579 546.600124 -1116.6875 544.01391602 C-1118.27849644 542.41928453 -1119.86963487 540.82479469 -1121.4609375 539.23046875 C-1122.16766602 538.51857391 -1122.87439453 537.80667908 -1123.60253906 537.07321167 C-1127.54818159 533.12715558 -1131.60181542 529.37546542 -1135.82694817 525.73039818 C-1137.88897212 523.9400099 -1139.86388429 522.07789443 -1141.81469727 520.16723633 C-1142.53806778 519.45992874 -1143.26143829 518.75262115 -1144.00672913 518.02388 C-1147.21735031 514.85835212 -1150.42550301 511.69044561 -1153.62524414 508.51391602 C-1155.31820344 506.83766516 -1157.01652945 505.16681849 -1158.7199707 503.5012207 C-1161.18867597 501.08692868 -1163.64084554 498.65691638 -1166.08984375 496.22265625 C-1166.85736465 495.47780472 -1167.62488556 494.73295319 -1168.41566467 493.9655304 C-1169.11066574 493.26767929 -1169.80566681 492.56982819 -1170.52172852 491.85083008 C-1171.13935562 491.24128983 -1171.75698273 490.63174957 -1172.39332581 490.0037384 C-1173.5859375 488.203125 -1173.5859375 488.203125 -1173.36167908 486.07987976 C-1172.42330836 483.80967565 -1171.29892054 482.58522043 -1169.5234375 480.890625 C-1168.88921875 480.2821875 -1168.255 479.67375 -1167.6015625 479.046875 C-1165.03058743 476.69513037 -1162.39453009 474.42522113 -1159.75390625 472.15234375 C-1157.27150873 469.92042238 -1154.93192615 467.5778547 -1152.5859375 465.203125 C-1149.16286959 461.74380675 -1145.67635147 458.47394754 -1141.98046875 455.3125 C-1138.61484153 452.34767341 -1135.35612519 449.27246966 -1132.0859375 446.203125 C-1127.6066383 442.00330344 -1123.1173801 437.83617046 -1118.4609375 433.83203125 C-1116.19842569 431.86647411 -1113.98903067 429.84639191 -1111.7734375 427.828125 C-1107.40308066 423.87941055 -1102.88290671 420.1568529 -1098.3046875 416.453125 C-1095.66446021 414.26810931 -1093.1186403 412.01141109 -1090.5859375 409.703125 C-1086.33942064 405.83779155 -1081.9558064 402.18914254 -1077.4921875 398.578125 C-1074.93245641 396.48630175 -1072.40902474 394.36146132 -1069.89599609 392.21435547 C-1063.1820113 386.47827276 -1056.30619483 380.98354764 -1049.33447266 375.56494141 C-1047.06240223 373.79537859 -1044.80009355 372.0135976 -1042.53808594 370.23120117 C-1040.19581024 368.38647428 -1037.84979335 366.54653942 -1035.50341797 364.70703125 C-1034.17630045 363.66615476 -1032.84984661 362.62443172 -1031.52392578 361.58203125 C-1020.81704163 353.16999979 -1009.96562852 344.98714062 -998.97265625 336.953125 C-996.59767053 335.21172794 -994.23115714 333.45944075 -991.8671875 331.703125 C-963.22677876 310.44154374 -933.62347546 290.43422656 -903.5859375 271.203125 C-902.87985352 270.7503418 -902.17376953 270.29755859 -901.44628906 269.83105469 C-878.85454743 255.37111721 -855.84236232 241.5646253 -832.5859375 228.203125 C-831.64476074 227.66236328 -830.70358398 227.12160156 -829.73388672 226.56445312 C-809.05429735 214.71503063 -788.04356944 203.47659412 -766.92529297 192.43164062 C-764.46527894 191.139761 -762.01159691 189.83638853 -759.55859375 188.53125 C-747.82701039 182.30623799 -735.95994434 176.44331821 -723.94384766 170.78857422 C-720.93702045 169.36889006 -717.93555588 167.93871798 -714.93583679 166.50411987 C-656.08664679 138.37418274 -595.50696111 114.15320797 -533.82775879 92.97338867 C-531.64065056 92.22192377 -529.45454784 91.46759209 -527.26855469 90.71289062 C-430.80265608 57.4790477 -330.92614087 34.20380342 -74.8984375 2.515625 C-73.41955551 2.42421738 -73.41955551 2.42421738 -71.91079712 2.33096313 C-47.94663201 0.86887164 -24.008874 0.04420073 0 0 Z " fill="#000000" transform="translate(1173.5859375,-0.203125)"/>
<path d="M0 0 C3.02140735 0.00566164 6.04280904 0.00846891 9.06422043 0.0110817 C40.41395871 0.05043489 71.58845 0.65147943 102.84110641 3.31805801 C103.88460251 3.40527115 104.9280986 3.49248428 106.00321579 3.58234024 C150.58233591 7.32245855 194.85533316 13.1567313 238.84110641 21.31805801 C239.6825621 21.4738533 240.52401779 21.62964859 241.39097214 21.79016495 C333.3453041 38.90547116 423.16410908 66.88601254 508.84110641 104.31805801 C510.06570407 104.85112529 511.29031326 105.3841661 512.51493454 105.91717911 C550.53550638 122.52404389 588.02842702 140.88939466 623.95731735 161.65546036 C627.02890623 163.42633068 630.11010485 165.17964966 633.19266891 166.93133926 C653.84395665 178.70331104 673.97053832 191.27623408 693.84110641 204.31805801 C694.43552536 204.70703262 695.02994431 205.09600723 695.64237595 205.49676895 C735.17034135 231.41136868 773.27959647 259.76708384 809.25492477 290.43304825 C812.61998924 293.29888545 816.02758195 296.10347531 819.46610641 298.88055801 C824.22917859 302.75618734 828.77474891 306.8304009 833.29423141 310.98602676 C835.4305239 312.94211053 837.58891299 314.85993499 839.77860641 316.75555801 C844.66855036 321.00941169 849.42529625 325.40748213 854.18973923 329.80047989 C855.9197861 331.3903633 857.65720518 332.9718978 859.39579391 334.55243301 C860.56511416 335.62008723 861.73438618 336.68779427 862.90360641 337.75555801 C863.45169968 338.25144424 863.99979294 338.74733047 864.56449509 339.25824356 C867.36507534 341.82416522 869.53991754 344.24980618 871.84110641 347.31805801 C763.93110641 455.22805801 763.93110641 455.22805801 653.84110641 565.31805801 C650.44965335 563.62233148 649.04703532 562.73551173 646.59110641 560.13055801 C643.58835981 557.03912269 640.46126738 554.20231165 637.19657516 551.39227676 C634.82493592 549.30381832 632.51243812 547.16302004 630.20316696 545.00629044 C624.85541577 540.01406841 619.4160464 535.23674171 613.70829391 530.65399551 C610.42531608 527.97930785 607.22857502 525.21586454 604.02860641 522.44305801 C597.7573183 517.03303704 591.31785209 511.88106496 584.76737595 506.81464005 C582.68873032 505.19967202 580.62183652 503.57040546 578.55595016 501.93915176 C569.21009097 494.57963091 559.69600456 487.55380523 549.92362595 480.77264786 C547.87326664 479.34052116 545.83760644 477.88985045 543.80595016 476.43133926 C474.04854818 426.43699794 395.92669182 386.97619327 300.84110641 354.31805801 C299.72993454 353.94374649 298.61876266 353.56943497 297.47391891 353.18378067 C277.16055757 346.3505127 256.59231936 340.64560141 235.84110641 335.31805801 C235.08440659 335.1229866 234.32770676 334.92791519 233.54807663 334.72693253 C147.76682254 312.66717495 57.76081358 303.44802965 -288.15889359 352.31805801 C-288.91797012 352.563423 -289.67704666 352.80878799 -290.45912552 353.06158829 C-326.18916835 364.64457493 -361.16133664 378.33568749 -395.15889359 394.31805801 C-395.80604324 394.62207535 -396.4531929 394.92609268 -397.11995316 395.23932266 C-425.53898116 408.61509988 -453.21035887 423.15767253 -480.15889359 439.31805801 C-481.18659866 439.9322963 -482.21430374 440.54653458 -483.2731514 441.17938614 C-504.92834752 454.16850716 -526.02631151 468.11867104 -546.40645218 483.03680801 C-548.4817414 484.55409944 -550.56492851 486.06032928 -552.64717484 487.56805801 C-561.77905043 494.20958966 -570.68018571 501.05481831 -579.39326859 508.23602676 C-582.95104717 511.16526447 -586.57827509 513.99627101 -590.22139359 516.81805801 C-600.54146318 524.85295882 -610.29277276 533.57190668 -619.97920609 542.35321426 C-621.95728878 544.13632465 -623.95745158 545.8882057 -625.97139359 547.63055801 C-629.6311723 550.82075209 -633.21272385 554.09197342 -636.78389359 557.38055801 C-637.32248001 557.87531631 -637.86106644 558.37007462 -638.41597366 558.87982559 C-638.94215286 559.36604385 -639.46833206 559.85226212 -640.01045609 560.35321426 C-640.5315596 560.83290665 -641.05266312 561.31259903 -641.58955765 561.80682755 C-642.67881293 562.85575259 -643.73116072 563.94383265 -644.75166702 565.05975723 C-646.30733109 566.75165176 -646.30733109 566.75165176 -649.15889359 569.31805801 C-652.73853155 569.27775745 -654.64127482 567.16835018 -657.06605911 564.72513199 C-657.7849028 563.97835693 -657.7849028 563.97835693 -658.51826859 563.21649551 C-659.02634048 562.7018071 -659.53441238 562.18711868 -660.0578804 561.65683365 C-661.68214973 560.00919869 -663.2959605 558.35178567 -664.90889359 556.69305801 C-666.50914242 555.05743117 -668.11160462 553.42406914 -669.71706009 551.7935524 C-670.71342068 550.78058907 -671.70666173 549.76454256 -672.69594193 548.74466324 C-675.30721406 546.078823 -677.99442552 543.57160307 -680.8300972 541.14487076 C-685.2295252 537.31017084 -689.35676847 533.24711484 -693.46748734 529.10712051 C-694.25559799 528.31754959 -695.04370865 527.52797867 -695.85570145 526.71448135 C-697.55368127 525.01271836 -699.25050568 523.30980188 -700.94627762 521.60583878 C-703.63511126 518.9041553 -706.32713173 516.20568348 -709.01997757 513.50799942 C-715.22047018 507.29515421 -721.41628276 501.0776528 -727.61185074 494.85989761 C-733.74957557 488.70030647 -739.889312 482.54273824 -746.03245926 476.38855362 C-748.67554904 473.73901442 -751.31559185 471.08646506 -753.95552444 468.43378067 C-755.58696692 466.79870328 -757.2185513 465.16376747 -758.85029984 463.52899551 C-759.57572983 462.7983992 -760.30115982 462.06780289 -761.04857254 461.31506729 C-764.95951721 457.4037227 -768.97618623 453.70055934 -773.16316605 450.08794022 C-776.71311454 446.93971956 -780.03377752 443.56494134 -783.37569046 440.19891739 C-784.15404755 439.41910004 -784.93240463 438.63928268 -785.7343483 437.8358345 C-787.41104745 436.15535265 -789.08659119 434.47371734 -790.7610817 432.7910347 C-793.41630937 430.12295508 -796.07472555 427.45808913 -798.73396683 424.79401016 C-804.8570546 418.65857097 -810.97546234 412.51847436 -817.09362411 406.37812424 C-823.15481695 400.29506347 -829.21802472 394.21402454 -835.28464127 388.13637161 C-837.89449289 385.5200715 -840.50129685 382.90076103 -843.10799026 380.28131485 C-844.71920972 378.66646041 -846.33057113 377.05174758 -847.94209671 375.43719864 C-849.01621559 374.35533028 -849.01621559 374.35533028 -850.11203384 373.25160599 C-854.06255601 369.30067486 -858.10830297 365.53008302 -862.35596848 361.89956284 C-865.09198473 359.49956138 -867.618024 356.92244934 -870.15889359 354.31805801 C-868.87576657 351.47141838 -867.58624875 349.52555862 -865.27998734 347.42743301 C-864.69676712 346.89061905 -864.11354691 346.35380508 -863.51265335 345.80072403 C-862.88028763 345.22894424 -862.24792191 344.65716446 -861.59639359 344.06805801 C-860.23910291 342.82253052 -858.8823536 341.57641287 -857.52608109 340.32977676 C-856.45825394 339.35210342 -856.45825394 339.35210342 -855.36885452 338.35467911 C-850.91853515 334.25342367 -846.53762747 330.07766818 -842.14693069 325.91278458 C-835.4842026 319.62052192 -828.56429847 313.64263252 -821.59639359 307.69305801 C-817.17574048 303.91383064 -812.77175421 300.11667319 -808.38594437 296.29706192 C-801.74016557 290.51230216 -795.00995085 284.85935433 -788.15889359 279.31805801 C-786.93429285 278.31232929 -785.7103808 277.30576165 -784.48701859 276.29852676 C-776.62747779 269.84302986 -768.648178 263.60293013 -760.47920609 257.54462051 C-757.34516498 255.21635057 -754.24212285 252.85155134 -751.15108109 250.46649551 C-741.18333922 242.7818522 -731.10713918 235.38785194 -720.65108109 228.38055801 C-717.3973758 226.19170173 -714.22805839 223.91225388 -711.07295609 221.58368301 C-704.10414701 216.48685651 -696.88781864 211.78404832 -689.65889359 207.06805801 C-688.9503624 206.60485153 -688.24183121 206.14164505 -687.51182938 205.66440201 C-660.30453048 187.87788646 -632.59553222 171.07507216 -604.15889359 155.31805801 C-603.24108109 154.80694473 -602.32326859 154.29583145 -601.37764359 153.76922989 C-567.92655224 135.20852018 -533.49809391 118.25426646 -498.31483841 103.23944473 C-496.14661067 102.31280866 -493.98089777 101.3804979 -491.81563187 100.44696426 C-455.6364109 84.87525388 -418.67809774 71.2917559 -381.15889359 59.31805801 C-380.44507523 59.08943069 -379.73125687 58.86080338 -378.99580765 58.62524796 C-291.22850439 30.54357775 -200.28597818 12.77956459 -108.54951859 4.41571426 C-107.55610458 4.32440483 -107.55610458 4.32440483 -106.54262161 4.23125076 C-71.07408906 1.08712157 -35.5972132 -0.0678804 0 0 Z " fill="#000000" transform="translate(1199.158893585205,460.681941986084)"/>
<path d="M0 0 C0.75811981 -0.00067474 1.51623962 -0.00134949 2.29733276 -0.00204468 C34.83522792 0.04341533 66.55074628 5.22157252 97.5 15.25 C98.3957373 15.53681641 99.29147461 15.82363281 100.21435547 16.11914062 C134.49318995 27.28291469 166.5498218 45.585433 194.5 68.25 C195.04881836 68.6944043 195.59763672 69.13880859 196.16308594 69.59667969 C204.85427056 76.7139879 212.91341447 84.45948943 220.875 92.375 C221.79015381 93.28088867 222.70530762 94.18677734 223.64819336 95.12011719 C229.68884075 101.18874832 235.19336002 107.53344808 240.5 114.25 C241.21542969 115.13800293 241.21542969 115.13800293 241.9453125 116.04394531 C265.0482702 144.77213457 281.82867094 177.39884151 293.5 212.25 C293.78858887 213.09320801 294.07717773 213.93641602 294.37451172 214.80517578 C301.55353318 235.97830666 305.90090163 258.95293739 307.5 281.25 C307.58241943 282.35142334 307.58241943 282.35142334 307.66650391 283.47509766 C313.41947731 363.21911539 288.95799551 442.84824782 237.5 504.25 C234.97852444 507.15273593 232.38176129 509.98308729 229.765625 512.80078125 C227.79242483 514.93387867 225.88705297 517.10358987 224 519.3125 C217.41744117 526.87082638 210.19290753 533.83304975 202.5 540.25 C201.69248291 540.92820801 201.69248291 540.92820801 200.86865234 541.62011719 C175.20265402 563.10569482 146.69233259 580.882111 115.5 593.25 C114.71431641 593.56388672 113.92863281 593.87777344 113.11914062 594.20117188 C90.7282464 603.03017167 67.34419266 608.98636237 43.5 612.25 C42.23244873 612.42732666 40.96489746 612.60465332 39.65893555 612.78735352 C26.92642664 614.44971246 14.2636616 614.60835852 1.4375 614.5625 C0.35295532 614.56034485 -0.73158936 614.5581897 -1.84899902 614.55596924 C-17.60465816 614.50571056 -32.97074245 614.13693229 -48.5 611.25 C-49.62067871 611.05132324 -50.74135742 610.85264648 -51.89599609 610.64794922 C-77.45912792 606.03933599 -101.73025717 598.69636355 -125.5 588.25 C-126.23976074 587.93095703 -126.97952148 587.61191406 -127.74169922 587.28320312 C-151.93838716 576.7855802 -174.13240816 561.90156469 -194.5 545.25 C-195.04269531 544.81171875 -195.58539062 544.3734375 -196.14453125 543.921875 C-211.26825923 531.6496375 -225.68877251 517.7580487 -237.5 502.25 C-238.34595748 501.20199765 -239.1951247 500.15658101 -240.046875 499.11328125 C-290.51375494 436.91767483 -313.09453687 355.23728822 -305.3125 275.875 C-296.76268555 196.38455278 -257.80285794 122.09125945 -196.25 70.8125 C-194.34207771 69.28071096 -192.42460977 67.76076881 -190.5 66.25 C-189.92830078 65.80043945 -189.35660156 65.35087891 -188.76757812 64.88769531 C-134.96756991 22.84398519 -68.23473337 0.05534346 0 0 Z " fill="#000000" transform="translate(1199.5,1369.75)"/>
<path d="M0 0 C0.75661926 0.07261047 1.51323853 0.14522095 2.29278564 0.22003174 C81.78723408 7.91832802 160.16685758 27.95414573 260.11230469 71.64208984 C262.75862179 72.88649428 265.41227032 74.11292522 268.0703125 75.33203125 C279.3693973 80.54421974 290.29014785 86.35033519 301.15429688 92.41308594 C304.00962754 94.00536882 306.87178736 95.58487156 309.734375 97.1640625 C323.15538038 104.6120893 336.15958678 112.59363358 349 121 C350.20462891 121.78721436 350.20462891 121.78721436 351.43359375 122.59033203 C369.85515207 134.66319607 387.57130706 147.53658409 405 161 C406.02383789 161.78769775 406.02383789 161.78769775 407.06835938 162.59130859 C418.73245372 171.57507867 429.88386188 181.10579441 440.78515625 191 C442.77412502 192.79603529 444.78563194 194.55953303 446.8125 196.3125 C452.66465042 201.40447418 458.3154829 206.72275775 464 212 C462.60378902 215.15071802 460.96932757 217.27972386 458.536726 219.70936966 C457.81516441 220.43491334 457.09360283 221.16045702 456.35017574 221.90798688 C455.55446607 222.69787086 454.75875641 223.48775485 453.93893433 224.30157471 C453.09601369 225.14620419 452.25309305 225.99083368 451.38462937 226.861058 C449.04401543 229.20439866 446.69899231 231.54316337 444.35201287 233.88011837 C441.82216437 236.40133632 439.29809172 238.9283249 436.77331543 241.45462036 C432.39820116 245.83078373 428.01943762 250.20326803 423.63817978 254.57328033 C417.30361009 260.89160139 410.97456507 267.21543269 404.64685823 273.5406259 C394.38062181 283.80248421 384.10992628 294.05986752 373.83642578 304.31445312 C363.85621963 314.27630346 353.87811456 324.24025056 343.90283203 334.20703125 C343.28803639 334.82130145 342.67324075 335.43557164 342.03981493 336.06845608 C338.95560314 339.15005782 335.87143266 342.23170088 332.78728271 345.31336451 C307.19792269 370.88198844 281.6013254 396.44335704 256 422 C254.71011984 421.04372312 253.42175316 420.08540453 252.1340332 419.1262207 C251.41641312 418.59277542 250.69879303 418.05933014 249.95942688 417.50971985 C247.84435863 415.8800798 246.00540543 414.1416419 244.1875 412.1875 C239.95615679 407.84975937 235.36528491 404.09472889 230.63378906 400.31738281 C228.8535625 398.88192218 227.09402205 397.42342299 225.3359375 395.9609375 C215.88839693 388.13152317 206.13362449 380.91465182 196 374 C195.35144043 373.55527344 194.70288086 373.11054687 194.03466797 372.65234375 C184.9012741 366.40649135 175.57788723 360.53959152 166 355 C165.34257813 354.61908203 164.68515625 354.23816406 164.0078125 353.84570312 C105.25799622 320.02516713 40.33151657 299.43481204 -27 292 C-28.05525879 291.88140625 -29.11051758 291.7628125 -30.19775391 291.640625 C-114.56248528 282.62884635 -202.27790124 298.37629732 -279 334 C-279.9684082 334.44311523 -280.93681641 334.88623047 -281.93457031 335.34277344 C-328.80351729 356.82372035 -373.7991878 387.05277931 -410 424 C-413.21775947 422.58480907 -415.35063001 420.88918018 -417.81542969 418.39575195 C-418.5500946 417.65770828 -419.28475952 416.91966461 -420.04168701 416.15925598 C-420.82714905 415.36033432 -421.61261108 414.56141266 -422.421875 413.73828125 C-423.24069153 412.91426315 -424.05950806 412.09024506 -424.90313721 411.24125671 C-427.52354537 408.60303526 -430.13719688 405.95825176 -432.75 403.3125 C-435.34933098 400.68542931 -437.95014188 398.05986951 -440.55401611 395.43730164 C-442.17302512 393.80617276 -443.78935517 392.17237885 -445.40252686 390.53547668 C-446.14980042 389.78167221 -446.89707397 389.02786774 -447.66699219 388.2512207 C-448.31222839 387.59773148 -448.9574646 386.94424225 -449.62225342 386.27095032 C-451.63130268 384.35213731 -453.67833566 382.53331887 -455.7802124 380.71879578 C-459.98263164 377.06412422 -463.92776276 373.19974796 -467.84960938 369.24804688 C-468.58895218 368.5072438 -469.32829498 367.76644073 -470.09004211 367.00318909 C-471.68161864 365.40783183 -473.27203981 363.81132125 -474.86140442 362.21376038 C-477.38220791 359.68009588 -479.90620715 357.14965365 -482.43103027 354.61999512 C-488.69851119 348.3392036 -494.96052157 342.052967 -501.22271729 335.76690674 C-506.52433853 330.44550288 -511.82803762 325.12618628 -517.13447571 319.80958557 C-519.61137487 317.32624189 -522.08522341 314.83988703 -524.55895996 312.35339355 C-526.08928735 310.81943092 -527.61975685 309.28561004 -529.15039062 307.75195312 C-529.82906693 307.0681105 -530.50774323 306.38426788 -531.20698547 305.67970276 C-535.01462613 301.87164744 -538.93905383 298.2784059 -543.01390839 294.75926781 C-546.41020377 291.75085012 -549.59432374 288.53630094 -552.79296875 285.32055664 C-553.52565475 284.58801666 -554.25834076 283.85547668 -555.01322937 283.10073853 C-557.40703418 280.70624337 -559.79728869 278.30823802 -562.1875 275.91015625 C-563.85736549 274.23842345 -565.52745357 272.56691295 -567.19775391 270.89561462 C-571.57287932 266.51668864 -575.94499207 262.13476684 -580.31646729 257.75219727 C-584.7859724 253.27242491 -589.25834363 248.79551593 -593.73046875 244.31835938 C-602.48977393 235.54836032 -611.24589653 226.77519113 -620 218 C-618.6647512 215.23412115 -617.42812818 213.17907274 -615.2421875 211.01171875 C-614.70311768 210.47385742 -614.16404785 209.93599609 -613.60864258 209.38183594 C-613.03654053 208.82270508 -612.46443848 208.26357422 -611.875 207.6875 C-611.28678467 207.10645508 -610.69856934 206.52541016 -610.0925293 205.92675781 C-606.47974811 202.38101792 -602.80452473 198.94197079 -598.9453125 195.6640625 C-596.64767068 193.69860986 -594.42126877 191.66270129 -592.1875 189.625 C-587.8736057 185.73197344 -583.43217751 182.03548576 -578.9140625 178.3828125 C-576.31504788 176.25761288 -573.75750426 174.09474015 -571.20898438 171.90991211 C-565.68137765 167.17653002 -560.04896048 162.67133676 -554.1875 158.3515625 C-551.94340365 156.69599142 -549.71595675 155.02814464 -547.5 153.3359375 C-515.55556215 129.00009911 -481.47585813 107.23548076 -445.93017578 88.54736328 C-443.01443741 87.00762409 -440.11409296 85.44162218 -437.21484375 83.87109375 C-403.85822895 65.96731191 -368.31897234 51.05714813 -332.41796875 39.13574219 C-330.09555657 38.3640378 -327.77530566 37.58580486 -325.45703125 36.80175781 C-269.31763505 17.83289966 -210.97385669 5.65954355 -152 0 C-151.22662292 -0.0751886 -150.45324585 -0.1503772 -149.65643311 -0.22784424 C-100.12594942 -4.98506648 -49.51616948 -4.8140183 0 0 Z " fill="#000000" transform="translate(1277,923)"/>
</svg>
